<svg width="100" height="100" viewBox="0 0 100 100" fill="none" xmlns="http://www.w3.org/2000/svg">
<path d="M0 0H100V100H0V0Z" fill="#966337"/>
<path d="M17.927 23.9806C19.8645 24.9232 21.8678 25.5141 23.8854 26.2202C25.3353 26.7277 27.2311 26.9959 28.7516 26.6626C30.371 26.3077 31.8013 25.3332 33.4658 25.0866C35.8469 24.7339 38.2506 24.8037 40.5094 25.7225C41.9386 26.3039 43.2663 28.1167 43.7789 29.5519C44.2497 30.8701 44.5531 32.3294 44.5531 33.7339C44.5531 34.5643 44.2511 35.4059 44.0623 36.2085C43.8516 37.1037 43.6235 37.9634 43.0877 38.7314C42.5755 39.4655 42.0638 40.1562 41.4287 40.7913C40.5152 41.7048 39.6097 42.2601 38.4841 42.8926C36.7879 43.8457 35.0967 45.6254 34.9796 47.6759C34.8916 49.2149 35.286 50.6794 35.5948 52.1689C35.8532 53.4156 35.7357 54.33 34.6823 55.1688C32.9122 56.5784 30.9802 57.4013 28.7032 57.3185C26.9389 57.2544 24.2775 56.5952 23.2218 55.0997C22.1628 53.5994 21.549 52.1315 21.549 50.2473C21.549 46.7221 25.2315 46.1931 27.5627 44.5792C29.5875 43.1774 28.4812 39.6874 26.6641 38.6208C25.5651 37.9758 24.3393 37.8865 23.1181 37.6047C22.1566 37.3828 21.2832 36.99 20.3463 36.6992C19.8877 36.5569 19.465 36.5495 19.1574 36.1393C17.7271 34.2323 17.3403 32.177 16.9939 29.8906C16.8505 28.9443 16.8869 27.6101 17.4293 26.7732C17.7147 26.3329 18.1131 25.3493 18.7288 25.3493C19.4166 25.3493 20.1892 25.2504 20.8578 25.446C21.4944 25.6324 22.1945 26.4115 22.7656 26.7732C23.7475 27.3951 24.9078 28.0403 26.0835 28.1833C27.6615 28.3752 29.338 28.211 30.929 28.211C32.5703 28.211 34.346 28.2341 35.9542 27.893C37.3393 27.5992 38.7906 27.7133 40.1983 27.7133C41.0841 27.7133 41.2948 28.8617 41.4356 29.5658C41.6066 30.4208 41.4425 31.1525 41.4425 31.9989C41.4425 33.3855 41.8569 34.7425 41.5393 36.1186C41.1138 37.9627 39.6527 39.6906 38.3873 41.0263C37.981 41.4552 37.7167 41.9016 37.385 42.4088C37.0933 42.855 36.6284 43.1193 36.3413 43.5424C36.1117 43.8808 35.9233 44.212 35.5326 44.3857C34.8798 44.6758 34.1859 45.0686 33.7008 45.6022C33.2382 46.1111 33.0649 47.0813 32.7953 47.7105C32.3745 48.6923 32.4577 49.9242 32.1386 50.9523C31.9148 51.6736 32.1667 52.5343 31.8621 53.2195C31.737 53.501 31.8316 53.834 31.7101 54.0905C31.5294 54.472 31.8205 54.1735 32.111 54.0905C32.6939 53.9239 33.634 53.366 33.9773 52.9154C34.2711 52.5298 34.4629 50.5184 33.8598 51.9131C33.2911 53.2282 32.7677 54.368 31.9866 55.5697C31.595 56.1722 30.9191 56.8715 30.1617 56.5789C29.5698 56.3502 28.9883 56.1148 28.406 55.86C27.9643 55.6668 27.0538 55.3898 26.7609 55.0236C26.4208 54.5985 25.6029 54.5213 25.2678 54.0628C25.049 53.7634 24.3665 53.3309 24.2794 53.026C24.1597 52.607 24.1348 52.1546 24.0513 51.7265C23.9017 50.96 24.0236 50.0928 24.0236 49.3072C24.0236 48.1011 25.5732 47.7802 26.4014 47.3718C26.9133 47.1194 27.3792 46.7812 27.8945 46.5285C28.3158 46.3218 28.7989 46.2634 29.1871 45.9893C29.8381 45.5298 30.6179 44.6763 30.6179 43.8258C30.6179 43.2029 30.8483 42.0038 30.4935 41.4272C30.2636 41.0536 29.9723 40.5221 29.8714 40.0931C29.6223 39.0343 29.3744 37.8891 28.7516 36.9895C27.9168 35.7837 26.4939 35.6246 25.1158 35.455C23.4215 35.2465 21.9003 36.3612 20.5122 35.0265C20.3422 34.863 20.1132 34.8042 19.9454 34.6532C19.7133 34.4443 19.6754 34.115 19.4823 33.879C18.8759 33.1379 18.6998 32.0456 18.48 31.1348C18.1318 29.6924 17.7429 28.2224 17.4224 26.7801C17.2786 26.1331 16.577 25.2616 17.0837 24.7548C17.4717 24.3668 18.3194 23.4723 18.9224 23.3862C19.5687 23.2939 20.4437 23.8845 21.0652 24.0774C21.3206 24.1567 21.5765 24.1339 21.8394 24.2295C22.2207 24.3682 22.6559 24.4056 22.973 24.665C23.7767 25.3226 24.8661 25.8338 25.7655 26.3585C26.625 26.8598 27.5244 27.4282 28.5028 27.6856C29.5705 27.9666 30.9234 27.5889 32.0004 27.5889C33.1393 27.5889 34.5185 27.6622 35.5948 27.2778C36.1734 27.0711 36.694 26.9431 37.309 26.9667C38.0884 26.9967 38.9386 28.9326 39.0716 29.5312C39.3025 30.5699 38.831 32.1836 40.143 32.621C41.1272 32.949 40.9573 31.7511 41.9126 32.4136C42.1516 32.5794 43.1046 32.929 43.0531 33.2638C42.9999 33.6095 42.7632 34.2254 42.4379 34.4043C41.8317 34.7377 40.2008 34.3948 39.5901 34.2523C38.2428 33.9379 37.6755 34.493 37.0878 35.6347C36.7667 36.2585 36.6055 37.1685 36.5901 37.8743C36.5683 38.877 36.2102 39.7679 35.7123 40.6392C35.3932 41.1977 35.0091 41.9852 34.5441 42.4502C33.9942 43.0002 33.3855 43.4537 32.8368 44.0262C31.6722 45.2415 29.8779 46.3327 29.3184 47.98C28.9493 49.0671 28.9938 49.9088 29.1249 51.056C29.2188 51.8781 29.2547 52.901 29.5258 53.6896C29.5935 53.8867 30.0801 55.0582 30.3138 55.0582C30.6048 55.0582 31.1247 54.3085 31.2124 54.0628C31.5419 53.1402 30.9725 52.1181 30.8737 51.2288C30.7463 50.0827 30.8668 49.0125 30.8668 47.8694C30.8668 47.2007 30.2263 47.6869 29.8023 47.8971C28.418 48.5833 26.8713 49.3201 25.6687 50.2887C24.5516 51.1887 25.2044 51.758 26.2632 52.1551C26.5957 52.2797 27.3371 52.7496 27.701 52.7011C28.3933 52.6088 29.3823 51.4336 29.6917 50.8555C30.1971 49.9112 30.4993 48.8214 30.7424 47.7865C30.8187 47.4614 31.1135 46.6777 30.9635 46.3349C30.8415 46.0561 29.5532 46.7125 29.429 46.7773C28.7709 47.1207 27.6884 47.6036 27.3208 48.298C26.9906 48.9217 27.8209 48.4828 28.2539 48.3395C29.1022 48.0587 29.899 47.6476 30.6732 47.2059C30.7552 47.1591 31.9319 46.5051 31.9313 46.5077C31.7081 47.4563 30.5401 48.5842 29.982 49.3487C29.4147 50.1258 28.9091 50.9075 28.406 51.7265C28.0231 52.3498 27.9087 52.3759 28.1986 51.6643C28.6915 50.4545 29.3765 49.3225 29.8438 48.0906C30.693 45.8517 32.6972 44.0968 34.2676 42.3673C36.0975 40.3521 37.9837 38.2227 40.1914 36.6094C41.9644 35.3137 43.5912 31.5378 40.6338 30.575C38.8351 29.9893 37.2409 30.4836 35.4427 30.8514C33.5187 31.245 31.8482 30.6388 29.9267 30.2293C28.7979 29.9888 27.713 29.5782 26.5812 29.3584C26.2391 29.292 24.8997 29.3371 24.6457 29.0197C24.4625 28.7907 23.8059 28.7467 23.5398 28.7086C22.9944 28.6307 22.4556 28.3624 21.9361 28.1833C21.4808 28.0263 19.547 27.3368 19.2956 27.6511C18.9146 28.1274 18.5107 28.5347 19.0191 29.1787C19.4196 29.6859 19.9477 30.154 20.4915 30.5058C21.1365 30.9232 21.9581 30.7094 22.655 30.9206C23.6924 31.2349 24.7471 31.3309 25.8208 31.4459C27.2344 31.5974 28.5867 31.8946 29.982 32.1302C32.5567 32.5649 35.0698 33.1897 37.627 33.6855C38.0847 33.7742 38.4772 33.8099 38.9403 33.8099C39.0581 33.8099 39.3448 33.7472 39.2997 33.7822C38.8293 34.1482 37.2356 31.7758 36.8943 32.0196C36.5956 32.2329 36.4622 32.6078 36.2583 32.8975C35.6937 33.6999 35.1301 34.4845 34.5165 35.2476C34.0158 35.8702 33.3038 36.7024 33.2308 37.5425C33.1856 38.0617 33.0472 38.5478 32.8575 39.0356C32.5735 39.7658 32.3117 40.5203 32.0557 41.2613C31.975 41.4948 31.7377 41.8463 31.7377 42.0839C31.7377 42.6832 31.648 43.3907 32.1663 42.6438C32.6628 41.9283 33.2982 41.3918 33.687 40.5839C34.1109 39.703 34.4369 38.7861 34.7238 37.8536C35.0249 36.8751 35.0461 35.7972 33.9358 35.4827C33.1126 35.2494 32.2259 35.4365 31.3783 35.1785C30.326 34.8583 29.3022 34.4685 28.2401 34.1832C27.0407 33.8609 25.8475 33.2702 24.6526 32.8836C23.7348 32.5867 22.6131 32.1924 21.632 32.1924C20.9398 32.1924 20.5199 32.339 19.897 32.5726C18.2671 33.1838 21.8824 33.893 22.1504 33.9205C23.9885 34.109 25.9915 34.1344 27.7563 34.7085C28.8926 35.0781 29.9573 35.2548 30.9152 35.9873C32.4801 37.184 31.1764 38.8779 32.111 40.2798" stroke="#FFC87C" stroke-opacity="0.8" stroke-width="3" stroke-linecap="round"/>
<path d="M80.2618 40.7775C79.1179 41.9541 78.4045 43.4319 77.3518 44.6761C76.428 45.7678 76.0966 47.2782 75.4716 48.5469C74.9147 49.6777 74.6014 50.4449 74.4763 51.6713C74.403 52.3898 74.5067 53.5432 74.9809 54.1528C75.5128 54.8366 75.8346 55.336 76.6813 55.6804C77.8052 56.1376 79.0169 55.9697 80.096 55.5283C81.0517 55.1373 82.0421 54.3988 82.8678 53.7795C83.2774 53.4723 83.9227 52.8813 84.3677 53.2818C85.2495 54.0754 85.981 55.7409 86.2893 56.89C86.7431 58.5815 86.9806 60.0175 86.9806 61.7494C86.9806 62.946 87.105 64.1289 87.105 65.3161C87.105 65.7611 87.159 66.2461 87.0773 66.6847C86.9096 67.5864 86.291 67.996 85.5705 68.4957C83.7095 69.7864 81.4548 69.892 79.2734 69.892C78.1474 69.892 76.6742 69.2402 75.6652 68.7653C74.641 68.2834 73.1604 67.643 72.3611 66.8437C71.1781 65.6607 69.9758 64.5707 69.1193 63.1042C68.0501 61.2736 67.194 59.1367 66.7276 57.0767C66.2008 54.7498 66.4364 52.7543 67.6677 50.7589C68.6722 49.1309 69.834 47.6154 70.8473 45.9894C72.0456 44.0666 73.4284 42.2754 74.7182 40.4181C75.1194 39.8403 75.4731 39.0964 75.9693 38.6002C76.459 38.1105 77.3759 38.1647 78.0223 38.1647C78.886 38.1647 79.9245 37.9527 80.5383 38.6347C81.0944 39.2525 80.9291 40.1991 80.3586 40.7499C79.4764 41.6017 78.2128 41.5838 77.4002 42.5125C76.4776 43.5668 75.9419 44.8989 74.967 45.941C74.1915 46.77 73.3173 47.7067 72.6929 48.6506C72.0251 49.66 71.4911 50.754 70.8197 51.7611C70.6648 51.9935 70.5657 52.1413 70.4948 52.4109C70.1597 53.6841 70.0593 55.14 70.0593 56.4546C70.0593 57.6085 70.3344 58.6849 70.4326 59.8139C70.4916 60.4922 71.0919 61.2691 71.4833 61.7908C72.3206 62.9073 73.0589 64.1752 74.0132 65.1917C74.6486 65.8686 75.2632 66.5577 76.1836 66.8506C77.8554 67.3826 79.5512 67.1433 81.2641 67.2861C82.0711 67.3533 82.7415 67.5329 83.5659 67.4312C84.1293 67.3618 85.0051 67.4958 85.2663 66.8783C85.6583 65.9519 85.6632 65.0388 85.5152 64.0028C85.262 62.2309 85.1712 60.4289 84.9622 58.6527C84.882 57.9714 84.818 57.2475 84.6166 56.5928C84.3812 55.8279 84.6173 55.7745 83.8148 56.0537C82.5135 56.5063 80.7314 56.2946 79.5706 57.1458C78.2736 58.0969 76.1282 56.8404 74.8565 56.5513C74.1942 56.4008 73.7124 56.364 73.1146 56.0537C72.668 55.8218 71.6423 55.4542 71.3312 55.0583C70.6238 54.1579 70.9601 52.4689 71.3588 51.5469C71.6735 50.8193 71.8184 50.0248 72.1192 49.2865C72.6727 47.928 73.3895 46.6307 73.9579 45.2774C74.4873 44.0168 75.4907 42.8069 75.7896 41.4619C75.8889 41.015 76.758 39.9156 77.1582 39.7822C77.5159 39.6629 77.6137 39.4496 78.0223 39.5955C78.2221 39.6669 78.6201 39.8526 78.4439 40.107C77.7693 41.0816 77.5139 42.313 76.9993 43.3766C76.1805 45.0687 75.7468 46.8836 75.1053 48.6437C74.532 50.2165 73.9519 52.0407 73.9164 53.745C73.9123 53.9432 73.8126 55.8749 73.5984 55.9361C73.4743 55.9716 72.9589 55.6064 72.8588 55.5629C72.0847 55.2263 71.1742 55.0281 70.4741 54.5468C69.9738 54.2029 70.1018 52.7852 70.0662 52.2519C70.0061 51.3495 70.0343 50.4169 70.0593 49.5146C70.0619 49.4236 70.2252 48.9617 70.1838 48.9202C69.9921 48.7285 69.8547 49.3522 69.7137 49.5838C68.9395 50.8558 68.5663 52.1934 68.5663 53.662C68.5663 54.8433 68.8602 55.4615 69.3405 56.5513C69.5074 56.9302 69.6528 57.4084 69.9073 57.7264C70.0993 57.9664 69.8743 58.5302 70.0455 58.8324C70.5268 59.6818 71.4203 60.5381 72.2436 61.065C73.9576 62.162 75.4577 63.6104 77.2481 64.5834C77.7425 64.8521 78.036 65.1296 78.4923 65.4129C79.3099 65.9204 80.6389 66.086 81.5614 66.2285C82.3714 66.3537 82.9981 65.9047 83.8009 65.717C84.3212 65.5954 84.4922 65.3542 84.4922 64.7908C84.4922 63.4663 83.7841 62.6945 83.324 61.5696C83.0656 60.938 82.8747 60.3518 82.8747 59.6549C82.8747 59.4037 82.9934 58.7882 82.771 58.6181C82.2189 58.1959 81.4601 58.1965 80.801 58.1965C79.9765 58.1965 79.1683 58.119 78.3471 58.0789C77.2458 58.0252 76.1041 58.3045 75.0431 58.5697C73.6479 58.9185 72.4049 58.4268 71.3727 57.3946C70.6801 56.7021 72.0861 59.2778 72.7689 59.9798C73.8311 61.0718 75.1635 61.8444 76.391 62.7309C77.3055 63.3914 78.2787 63.7226 79.3771 63.5742C80.3596 63.4414 81.8142 63.4153 82.2526 62.3438C83.0615 60.3664 80.7915 59.2495 79.0315 59.6895C77.8402 59.9873 75.0403 59.7379 75.361 61.7908C75.5391 62.9306 77.6947 63.2616 78.5753 63.118C79.2238 63.0122 80.0364 62.3875 80.1374 61.6802C80.264 60.7941 78.4643 60.0023 77.7734 60.3669C75.7413 61.4394 80.8014 64.5843 81.3816 64.8875C82.15 65.2892 83.3699 65.8516 84.188 65.2608C84.53 65.0138 84.2969 64.49 84.2433 64.1687" stroke="#FFC87C" stroke-opacity="0.8" stroke-width="3" stroke-linecap="round"/>
<path d="M36.4657 91.5412C34.5067 91.271 32.2316 91.4189 30.5488 90.297C29.8253 89.8147 28.9645 89.4149 28.3231 88.804C27.6215 88.1358 27.8628 86.0413 27.9498 85.258C28.0622 84.2465 28.3574 83.2967 28.1019 82.3064C27.8439 81.3069 28.0325 80.1901 26.8577 79.7835C26.1224 79.5289 25.2873 79.3856 24.5213 79.2512C24.1505 79.1862 23.482 79.2361 23.1527 79.0715C22.3576 78.674 22.1711 76.6614 22.1711 75.9817C22.1711 74.8108 25.149 74.5085 25.8761 74.4265C26.7865 74.3237 27.7235 74.1223 28.641 74.1223C29.4974 74.1223 30.2951 74.4379 31.1018 74.6891C32.0796 74.9937 33.2768 75.8627 33.9842 76.6246C34.7952 77.498 35.317 78.5976 36.2307 79.3895C37.7299 80.6888 38.8898 81.437 40.8757 81.7742C41.8604 81.9414 42.8546 82.2123 43.848 82.3064C44.9805 82.4137 46.1259 82.3315 47.2627 82.4309C49.3131 82.61 51.3138 82.8175 52.7234 84.4216C53.4806 85.2832 54.5067 86.4215 54.5067 87.6289C54.5067 90.0988 51.8159 90.2352 49.9101 90.6081C46.4801 91.2792 43.027 91.1781 39.5762 90.7947C38.5799 90.684 37.5058 90.4418 36.5072 90.4214C35.8672 90.4084 34.2645 90.6731 33.7907 90.0413C32.9052 88.8606 31.774 87.9755 31.0672 86.6404C30.3525 85.2904 30.3691 83.1446 30.3691 81.6429C30.3691 79.5713 28.4844 78.6953 26.7747 78.1729C26.0167 77.9413 25.2428 77.7056 24.5213 77.3849C23.6633 77.0036 26.3776 76.9325 26.4982 76.9218C27.7714 76.8081 29.2522 76.6717 30.5212 76.7352C32.0937 76.8138 33.3515 77.1585 33.8529 78.7881C34.36 80.4361 34.9356 81.7448 36.4657 82.8041C37.1037 83.2458 38.5913 83.69 39.362 83.8133C40.4517 83.9877 41.607 83.8284 42.7006 83.9792C43.4911 84.0882 44.3078 83.985 45.0853 84.1451C45.5532 84.2414 46.0271 84.3688 46.5023 84.4216C46.7917 84.4537 47.2685 84.3509 47.5253 84.5115C48.2158 84.943 49.0477 84.6229 49.6543 85.1958C49.9663 85.4904 50.8493 85.5831 51.023 85.887C51.1826 86.1664 51.5834 86.21 51.7418 86.4953C51.8993 86.7788 52.113 87.0188 52.2672 87.3109C52.6986 88.1284 52.8337 88.4307 51.811 88.4307C50.6031 88.4307 49.4021 88.3063 48.1889 88.3063C46.5731 88.3063 44.9576 88.1819 43.3503 88.1819C42.4321 88.1819 41.5293 88.5551 40.6269 88.5551C38.039 88.5551 35.497 88.1502 32.9197 87.9261C32.328 87.8747 30.9206 87.7024 30.4659 87.3386C30.242 87.1595 29.465 87.3655 29.3806 86.986C29.1711 86.0429 29.5148 84.5552 29.9958 83.7649C30.2528 83.3427 30.6018 82.8472 30.7147 82.3617C30.802 81.9862 30.8523 81.5659 31.0188 81.2143C31.1807 80.8726 31.24 80.2178 31.24 79.8457C31.24 79.5231 31.24 79.2005 31.24 78.878C31.24 78.2617 31.1175 79.842 31.1156 79.9977C31.0998 81.2953 31.2174 82.6717 32.0557 83.7096C32.8776 84.7273 33.9603 85.0155 35.1939 85.3893C37.2867 86.0235 39.4923 86.44 41.6983 86.44C42.7616 86.44 43.8499 86.642 44.8987 86.8132C45.7154 86.9466 46.5348 86.853 47.3456 86.9653C47.6289 87.0045 50.2626 87.3232 50.2626 87.1243C50.2626 86.9697 48.099 86.6596 47.8571 86.6266C43.6555 86.0537 39.3308 85.873 35.0971 85.7211C33.5681 85.6663 32.0419 85.6425 30.5143 85.5621C29.5727 85.5126 29.9492 84.9533 30.1133 84.2419C30.2944 83.4575 31.4076 83.0763 31.7101 82.3064C32.1316 81.2335 31.3172 80.3147 30.9359 79.3342C30.7788 78.9302 30.6971 78.5058 30.5212 78.1038C30.1737 77.3097 31.8234 79.2648 32.346 79.9563C32.9938 80.8133 33.3764 81.8341 33.9013 82.7627C34.3331 83.5266 34.4975 84.4168 35.1524 85.0506C36.0398 85.9094 37.5209 86.44 38.7053 86.44" stroke="#FFC87C" stroke-opacity="0.8" stroke-width="3" stroke-linecap="round"/>
<path d="M49.2811 89.053C47.6868 89.6421 45.8394 89.8481 44.1522 90.0207C43.1595 90.1222 42.1347 90.0483 41.1384 90.0483C40.3662 90.0483 39.5418 90.1284 38.7744 90.0207C37.4539 89.8353 36.1518 89.593 34.8344 89.3986C33.6168 89.2189 32.9386 88.9607 32.2354 88.03C31.0702 86.4878 30.824 84.5654 30.4659 82.7352C30.183 81.2897 29.8627 80.1641 28.5028 79.3481" stroke="#FFC87C" stroke-opacity="0.8" stroke-width="3" stroke-linecap="round"/>
<path d="M20.291 24.9761C19.681 26.0482 19.1393 27.1288 18.95 28.3354C18.7212 29.7941 18.8489 31.7733 19.6067 33.0496C20.2603 34.1504 21.3222 35.0658 22.3578 35.8007C22.999 36.2557 23.7515 36.5239 24.2725 37.0449" stroke="#FFC87C" stroke-opacity="0.8" stroke-width="3" stroke-linecap="round"/>
<path d="M34.3506 48.2428C34.8026 49.4658 35.2215 50.5758 35.2215 51.851C35.2215 52.7188 34.3954 53.2098 33.7976 53.6482C33.2986 54.0141 32.6699 54.1292 32.1386 54.4362C31.5703 54.7646 30.9293 55.0605 30.3138 55.2656C29.509 55.5339 28.8181 55.6674 27.9567 55.5767C27.0333 55.4795 25.8338 54.5798 25.2056 53.897C24.5548 53.1896 23.6238 52.1314 23.526 51.1045C23.4277 50.0732 23.3697 49.8383 23.9753 49.093C24.4753 48.4775 24.9807 47.9891 25.3923 47.3718" stroke="#FFC87C" stroke-opacity="0.8" stroke-width="3" stroke-linecap="round"/>
<path d="M84.2433 57.9478C84.3896 59.1365 84.5899 60.254 84.8585 61.4177C84.9866 61.9727 85.0673 62.5686 84.976 63.1389C84.7578 64.5024 84.1144 65.5843 83.0751 66.4637C82.6205 66.8484 82.0561 67.2379 81.506 67.5282C80.5055 68.0562 79.0549 67.8311 77.9946 67.5282C76.6372 67.1403 75.1268 66.9332 73.9233 66.1595C72.8705 65.4827 72.5461 64.4277 71.7597 63.4983C71.4958 63.1864 71.3595 62.672 71.2482 62.2887C71.0741 61.6889 70.7541 61.1365 70.5847 60.5606C70.3834 59.8762 70.074 58.9578 69.5616 58.4454" stroke="#FFC87C" stroke-opacity="0.8" stroke-width="3" stroke-linecap="round"/>
</svg>
