<svg width="100" height="100" viewBox="0 0 100 100" fill="none" xmlns="http://www.w3.org/2000/svg">
<path d="M0 0H100V100H0V0Z" fill="#81532B"/>
<path d="M25.5901 10.7209C24.612 11.5278 24.0362 12.7452 23.339 13.7848C22.537 14.9808 21.7279 16.19 21.0255 17.449C19.5672 20.0628 17.9365 22.6606 17.9365 25.7779C17.9365 27.609 18.5148 29.3666 19.3559 30.9866C20.0382 32.3005 21.1724 33.3959 21.6945 34.7883C22.7526 37.6099 22.3035 40.6496 21.9009 43.5487C21.7257 44.8101 21.6305 45.9967 22.151 47.1879C23.0442 49.2319 24.3421 50.6954 26.3654 51.715C29.4551 53.2719 33.7135 51.6983 34.4192 48.1696C34.5274 47.6284 34.7068 47.1109 34.7068 46.5563C34.7068 45.9148 34.4968 45.3712 34.3692 44.7492C33.9956 42.9282 33.2311 41.1418 32.4683 39.4468C31.9301 38.2508 31.386 37.045 30.8175 35.8701C30.4489 35.1084 30.1399 34.3286 29.8233 33.544C29.5927 32.9726 29.5811 32.2747 29.3293 31.7432C28.9247 30.8889 29.2432 29.6802 29.5544 28.8543C30.1021 27.4009 30.39 25.9085 30.855 24.4273C31.7284 21.6454 33.3279 19.1489 34.4942 16.4923C35.0174 15.3008 35.6073 14.0769 35.6073 12.7468C35.6073 11.7668 35.7438 10.7307 35.0945 9.92677C33.9194 8.47191 31.6502 8.05061 29.9546 8.69494C28.5718 9.22042 27.4988 10.1243 26.478 11.1836C25.4331 12.2679 24.6318 13.7411 23.7267 14.9479C22.5188 16.5584 21.703 18.589 20.8316 20.3816C19.0768 23.9916 18.0516 28.307 19.2621 32.2309C19.906 34.3178 21.2637 36.0441 22.5637 37.746C23.2611 38.6589 23.9726 39.4482 24.5083 40.4785C24.9271 41.2839 25.0848 42.2637 25.1962 43.1547C25.3186 44.134 25.1642 45.3747 25.4213 46.2999C25.5763 46.8582 25.3899 47.7742 25.884 48.2133C26.8371 49.0606 28.0631 49.305 29.3668 49.3264C29.9258 49.3355 30.6028 48.4914 30.7675 47.9882C31.0613 47.0905 31.2419 45.9983 30.9926 45.0744C30.6936 43.9664 30.3266 42.8874 30.0046 41.7853C29.5461 40.2158 28.8222 38.6571 28.5164 37.0519C28.0236 34.4644 27.5035 31.8806 27.5035 29.2358C27.5035 28.2711 27.3909 27.3214 27.3909 26.3532C27.3909 25.693 27.3069 24.9574 27.4535 24.3085C27.5947 23.6828 28.0326 23.0942 28.2913 22.5139C29.0193 20.8809 30.0188 19.3396 30.68 17.6866C31.1293 16.5634 31.5778 15.4517 32.0431 14.3351C32.2738 13.7814 32.9597 11.7656 31.5116 12.4092C30.6647 12.7856 29.9038 13.7231 29.248 14.3788C28.4352 15.1917 27.4788 15.8866 26.578 16.6236C25.8756 17.1984 25.3014 17.9884 24.8022 18.7371C24.4532 19.2606 24.3958 19.9681 24.2645 20.5755C23.8939 22.2893 23.4671 23.9962 23.2265 25.7404C22.9018 28.094 23.0014 30.2769 23.0014 32.6248C23.0014 34.9676 23.9267 37.27 24.7272 39.4343C25.4788 41.4665 26.2589 43.6523 27.3722 45.5308C27.8679 46.3674 28.7416 47.7321 28.7416 48.7636" stroke="#FFE68F" stroke-opacity="0.8" stroke-width="5" stroke-linecap="round"/>
<path d="M13.3223 90.8581C14.8748 92.7063 17.4547 93.6405 19.8003 93.9846C21.7657 94.2728 23.8199 94.0797 25.7906 93.922C28.8174 93.6799 31.7997 94.5676 34.7948 94.8225C35.8047 94.9084 36.9835 95.2606 37.9713 94.885C39.0078 94.4908 39.4834 93.1734 40.0598 92.3088C40.6314 91.4514 41.0832 90.1948 40.7601 89.1448C40.2887 87.6129 38.5507 87.3879 37.2084 87.0313C35.3609 86.5406 33.4051 86.3888 31.5058 86.356C29.5517 86.3223 26.5561 85.9584 25.0903 84.4927C23.3648 82.7672 22.3257 80.289 21.251 78.1397C20.8447 77.3271 20.2443 76.8979 19.3564 76.689C18.0276 76.3764 16.4723 76.3464 15.1294 76.5702C13.6235 76.8212 12.2688 77.5162 11.2463 78.6462C9.32607 80.7686 9.10115 83.2018 9.55181 85.9558C9.74612 87.1433 10.1985 88.297 11.0588 89.1573C12.1496 90.2481 13.6491 90.6001 15.0106 91.1958C17.0025 92.0673 18.9881 92.6262 21.0884 93.1654C23.0429 93.6673 25.073 93.8708 27.0162 94.3723C28.4609 94.7451 30.1261 94.6313 31.6058 94.4848C32.8271 94.3639 33.9163 93.8062 35.0699 93.4468C36.2441 93.0811 37.4439 91.7734 37.6586 90.533C37.7587 89.9547 37.8107 89.3556 37.1959 89.0573C36.4738 88.7068 35.5957 88.8322 34.8198 88.8322C34.0125 88.8322 33.1863 88.7809 32.3812 88.8572C31.2676 88.9627 30.2341 89.2992 29.2422 89.7951C28.3825 90.225 27.2423 89.4181 26.4534 89.1073C24.9818 88.5276 23.5731 87.337 22.4391 86.2435C22.0327 85.8516 21.7106 85.6735 21.4886 85.1555C20.9579 83.9171 20.1128 82.6166 19.0375 81.7914C18.2723 81.2042 16.7134 80.467 15.7109 80.7534C14.3241 81.1496 12.8129 82.1987 12.2531 83.5672C11.6104 85.1381 12.2396 87.1489 13.4536 88.2819C13.9731 88.7668 14.5297 89.0616 15.1857 89.3324C16.8129 90.0041 18.5052 90.5419 20.1818 91.077C22.8231 91.9199 25.5342 92.5263 28.273 92.9403C29.7743 93.1673 31.3047 93.6719 32.8314 93.6719C33.2395 93.6719 33.2775 93.1951 33.2378 92.8778C33.1494 92.1703 32.5185 91.6468 31.9435 91.3146C30.2477 90.3348 28.0717 89.8546 26.1595 89.52C23.5638 89.0657 20.4733 89.4584 18.0933 88.0881C16.6188 87.2391 14.898 87.094 14.898 85.1117C14.898 84.877 15.0298 84.5106 15.3295 84.5677C16.2277 84.7388 17.5168 84.8535 18.2809 85.4118C19.7232 86.4659 20.9943 87.3287 22.6642 88.0443" stroke="#FFE68F" stroke-opacity="0.8" stroke-width="5" stroke-linecap="round"/>
<path d="M76.1265 72.6248C75.9857 71.956 75.8976 71.2854 75.7889 70.6114C75.6784 69.9267 75.3999 69.3836 75.1761 68.7355C74.6447 67.1973 74.2749 65.5889 73.963 63.9958C73.6674 62.4859 72.875 60.9074 72.875 59.3624C72.875 57.664 73.3877 56.0155 73.5941 54.3413C73.7527 53.0548 73.939 52.1124 74.6633 51.0398C75.2009 50.2438 75.5987 49.4061 76.3516 48.7887C76.899 48.3399 77.4686 47.9496 78.1087 47.6382C79.0086 47.2004 80.0155 47.0233 80.8975 46.569C83.9309 45.0063 85.6939 41.8592 85.806 38.4964C85.8403 37.4689 85.9186 36.4482 85.9186 35.4263C85.9186 34.4204 85.9008 33.872 86.794 33.319C87.0856 33.1385 87.2961 32.97 87.6131 32.8313C88.4056 32.4846 89.6514 33.0793 90.4332 33.344C91.379 33.6644 92.2749 34.6932 92.6154 35.6013C93.6075 38.2468 92.2334 40.1764 91.3774 42.5733C90.8194 44.1356 89.8691 45.6938 89.5453 47.3131C89.4703 47.688 89.4998 48.1398 89.5828 48.5074C89.8326 49.6139 90.0149 50.7409 90.2518 51.8527C90.5756 53.3717 91.1098 54.7615 91.6337 56.1922C92.5183 58.6077 93.1336 61.1863 93.5034 63.7332C93.6879 65.0044 93.9793 66.7498 93.3845 67.9789C92.9185 68.942 92.2298 69.9735 91.5462 70.799C91.0095 71.447 90.5486 72.189 89.9705 72.7999C87.2659 75.6575 86.8617 79.4623 86.819 83.2173C86.7995 84.9301 86.2323 86.7057 85.3683 88.1696C84.8784 88.9997 84.0994 90.3557 83.0047 90.2893C81.6803 90.209 80.6415 89.752 79.4155 89.3076C78.454 88.9591 78.4748 88.8371 78.1775 87.8569C77.3685 85.1903 76.8805 82.4629 77.0832 79.6656C77.3751 75.6378 77.7188 71.5762 78.265 67.56C78.5318 65.5981 78.7117 63.384 78.3213 61.4321C77.9574 59.6125 77.5897 57.8132 77.5897 55.9296C77.5897 54.5886 77.4021 53.3625 77.7648 52.0152C78.2384 50.2562 79.1986 48.0973 80.9913 47.3005C82.1854 46.7698 83.3974 46.3161 84.618 45.8436C85.7848 45.3919 86.731 44.5732 87.3943 43.4863C87.8999 42.6575 88.5781 41.9215 88.97 41.0289C89.3355 40.1963 89.7181 39.3893 90.058 38.5465C90.2843 37.9852 90.7146 37.1725 90.3081 36.6643C89.9793 36.2533 88.0854 38.3267 87.9445 38.7716C87.5417 40.0435 86.9315 41.2273 86.9315 42.5859C86.9315 46.308 86.9776 50.0407 87.0441 53.7661C87.0799 55.7706 87.5492 57.783 87.832 59.7626C87.9575 60.6415 88.5288 61.5178 88.6198 62.3826C88.6663 62.8239 88.8535 63.2673 89.0138 63.6769C89.294 64.3932 89.4211 65.1875 89.6078 65.9342C89.8841 67.0393 89.8091 68.4472 89.3389 69.4921C88.9223 70.418 88.1723 71.3554 87.5443 72.1496C86.9995 72.8387 86.6541 73.6184 86.2 74.3631C85.8191 74.9878 85.4137 75.59 85.1807 76.289C84.6895 77.7627 84.2085 79.2891 83.9176 80.8161C83.7294 81.8045 83.7268 82.8358 83.555 83.8238C83.3921 84.7603 82.788 84.8462 81.9792 85.2057C81.1973 85.5532 80.6424 84.0304 80.5161 83.3986C80.1515 81.576 79.9258 79.9552 80.2284 78.0961C80.4259 76.8829 80.7633 75.6891 80.9413 74.4757C81.0171 73.9588 81.1899 73.2723 81.504 72.8374C82.0103 72.1364 82.4955 71.4084 83.0047 70.7052C83.8563 69.5292 85.0015 68.616 85.756 67.3786C86.2222 66.6141 86.7172 65.8941 87.0441 65.0588C87.269 64.4839 87.3198 63.8565 87.5193 63.283C87.7702 62.5617 87.5718 61.6491 87.4943 60.9131C87.3397 59.4441 87.1464 57.9031 86.794 56.4673C86.301 54.4587 85.1476 52.6918 84.7368 50.6834C84.6987 50.4972 84.3543 48.8137 84.2053 48.8137C83.9747 48.8137 83.3531 49.3399 83.1798 49.4515C82.4631 49.9132 81.7259 50.3923 81.0913 50.9648C80.3227 51.6581 79.6754 52.7649 79.897 53.8286C80.0931 54.7699 80.8411 55.8545 81.8917 55.8545C82.4615 55.8545 83.0366 55.8764 83.605 55.8295C83.7624 55.8165 84.4068 55.6217 84.5429 55.767C84.8129 56.0549 84.9528 56.832 85.0932 57.2052C85.3835 57.977 85.6085 58.7433 85.6685 59.5688C85.8243 61.7158 85.5199 63.333 84.4554 65.2339C84.16 65.7613 83.6683 66.3212 83.2423 66.7471C82.6399 67.3495 82.0456 68.0817 81.379 68.6105C80.938 68.9602 80.9785 67.6387 80.9725 67.4412C80.9489 66.6605 80.9663 65.8774 80.9663 65.0963C80.9663 64.1611 81.144 63.1403 81.4728 62.2638C82.0162 60.8145 82.7167 59.3162 82.6546 57.7304C82.6197 56.8427 82.3746 55.9429 82.3106 55.0479C82.2262 53.8663 82.2902 52.7569 82.4857 51.5838C82.5965 50.9189 83.1816 50.301 83.7801 50.0018" stroke="#FFE68F" stroke-opacity="0.8" stroke-width="5" stroke-linecap="round"/>
<path d="M19.0623 77.6895C18.1618 77.1268 17.9912 77.3051 16.9613 77.5207C16.3882 77.6407 15.6098 77.6607 15.0979 77.9647C14.7122 78.1937 14.3461 78.6679 14.06 79.0026C12.649 80.6532 11.7481 82.8956 11.8652 85.0617C11.9231 86.1332 12.8393 87.3172 13.5597 88.0569C14.4168 88.9367 15.2321 89.8561 16.0859 90.7394C17.1359 91.8256 18.9351 92.4339 20.4129 92.4339" stroke="#FFE68F" stroke-opacity="0.8" stroke-width="5" stroke-linecap="round"/>
<path d="M33.1313 10.6084C33.2679 11.261 33.6713 11.9989 33.6941 12.6594C33.7202 13.4159 33.6941 14.1784 33.6941 14.9354C33.6941 16.6864 33.1909 18.6288 32.4435 20.2066C31.5423 22.1091 30.2325 24.0032 29.8673 26.1031C29.6774 27.1953 29.4171 28.2187 29.4171 29.3421C29.4171 30.2175 29.4171 31.0929 29.4171 31.9683C29.4171 32.7596 29.5813 33.5065 29.7297 34.2819C29.913 35.2391 29.9523 36.1692 30.0674 37.1332C30.291 39.0057 30.5753 41.1327 30.2612 43.0172C30.1117 43.9145 29.9875 44.7888 29.6985 45.656C29.5523 46.0944 29.3854 47.0107 29.0232 47.3005C28.619 47.6238 28.3798 48.0464 27.8539 48.2509C27.3675 48.4401 26.3782 48.651 26.0405 48.9888" stroke="#FFE68F" stroke-opacity="0.8" stroke-width="5" stroke-linecap="round"/>
<path d="M82.542 89.17C81.7616 88.8744 80.4961 88.584 79.997 87.8631C79.3166 86.8802 78.7307 85.7506 78.315 84.6304C77.3462 82.02 78.0464 79.4889 78.1587 76.7955C78.1849 76.1659 78.3007 75.541 78.3525 74.9133C78.4011 74.3241 78.25 73.6218 78.4025 73.05C78.5643 72.4434 78.6026 71.8996 78.6026 71.2741C78.6026 70.1983 77.9834 69.4164 77.6459 68.4041C76.8612 66.0498 76.0139 64.0092 76.0139 61.4821C76.0139 59.4286 75.7424 57.2189 76.4641 55.2542C77.4573 52.5507 80.229 51.5015 81.7541 49.2139" stroke="#FFE68F" stroke-opacity="0.8" stroke-width="5" stroke-linecap="round"/>
</svg>
