<svg width="100" height="100" viewBox="0 0 100 100" fill="none" xmlns="http://www.w3.org/2000/svg">
<path d="M0 0H100V100H0V0Z" fill="#7B481C"/>
<path d="M16.7264 9.97339C15.8495 10.6584 15.5507 11.9087 15.199 12.9319C14.8648 13.904 14.5909 15.107 14.5909 16.1425C14.5909 18.6346 17.5667 19.8124 18.1945 22.1039C18.5222 23.3 18.6464 24.7795 18.328 25.9893C18.0628 26.9969 17.7941 28.1371 17.7941 29.1776C17.7941 30.5168 17.8376 31.748 18.3428 33.0111C18.6711 33.8317 19.4724 35.4801 20.5302 35.5914C21.1364 35.6552 22.0726 34.6357 22.332 34.1307C22.891 33.0419 23.1951 31.6878 23.1253 30.4678C23.0166 28.5657 21.7981 26.9463 21.7981 24.9809C21.7981 22.6476 23.336 20.676 23.3997 18.3817C23.417 17.7572 23.1709 17.1346 22.6508 16.7727C21.5753 16.0245 20.7969 16.3224 19.6033 16.1054C18.4558 15.8968 18.319 13.2037 18.6616 12.4499C18.9065 11.9113 18.8897 10.5917 19.329 10.2403C20.0455 9.66707 21.1123 10.2606 21.457 11.0485C21.7131 11.6337 21.7756 12.3251 22.0354 12.9096C22.2538 13.4011 22.4458 14.3909 22.4654 14.9413C22.5273 16.673 21.2088 16.9778 20.1965 18.0407C19.0868 19.2058 19.3957 21.9063 19.3957 23.32C19.3957 25.7435 19.8202 28.1812 20.3448 30.542C20.6313 31.8312 21.1409 32.9749 22.1985 33.7303" stroke="#EEEBD9" stroke-opacity="0.8" stroke-width="5" stroke-linecap="round"/>
<path d="M56.7662 22.3855C58.3792 23.4877 60.4321 24.0559 62.2531 24.7583C63.7178 25.3232 65.2331 25.6738 66.7613 26.0558C68.1551 26.4043 69.5424 26.6564 70.9803 26.6564C71.649 26.6564 72.5117 27.7856 72.9156 28.2877C74.086 29.7429 74.4316 31.1783 74.1168 32.9886C73.8028 34.7939 72.5241 35.547 70.7653 35.7321C68.4795 35.9727 66.2846 35.7246 64.0475 35.1982C61.8447 34.6799 60.3411 33.4175 58.4271 32.2917C57.3177 31.6391 56.6074 31.1855 55.9357 30.0969C55.5648 29.4958 54.9023 28.6357 54.7716 27.9169C54.55 26.6983 54.6735 25.4635 54.6307 24.2244C54.6033 23.4299 53.7576 21.9249 54.7642 21.4216C56.1293 20.7391 58.4155 22.9127 59.3614 23.4533C60.2055 23.9356 59.9874 25.398 59.8063 26.1226C59.4293 27.6304 59.6457 29.3534 60.963 30.3193C61.6933 30.8549 62.7743 31.0078 63.6174 31.2684C64.9768 31.6886 66.294 31.8671 67.6956 32.0618C68.0594 32.1123 70.3088 32.412 70.5132 32.0544C70.7198 31.6927 70.8906 31.3689 71.0174 30.957C71.124 30.6106 70.9838 29.9522 70.617 29.83C69.543 29.472 68.2855 29.4056 67.1765 29.1923C66.3518 29.0337 65.5443 29.1103 64.7148 29.0292C63.7752 28.9372 62.8361 28.7689 61.8972 28.6584C60.9512 28.5471 60.1198 28.028 59.2427 27.6945C58.4948 27.4101 55.6828 26.4208 56.2323 25.3218" stroke="#EEEBD9" stroke-opacity="0.8" stroke-width="5" stroke-linecap="round"/>
<path d="M26.6029 69.8994C24.6707 70.4455 22.9238 71.3795 21.4571 72.7763C20.0581 74.1087 18.5814 75.686 17.6014 77.3661C16.8841 78.5957 15.807 79.9758 15.807 81.4887C15.807 83.4659 17.2688 85.1037 18.8471 86.1081C19.9673 86.821 20.8675 87.8895 21.205 89.2223C21.5742 90.6806 21.2846 92.1769 21.5312 93.6563C21.6535 94.3903 22.4651 94.5149 23.0809 94.7241C25.0127 95.3802 27.0016 95.6735 29.035 95.6583C30.3419 95.6486 31.4015 94.9856 31.5337 93.597C31.6854 92.004 30.5273 91.1453 29.3464 90.3938C28.6266 89.9358 28.1171 89.3285 27.5372 88.7181C26.9951 88.1475 26.5442 87.5709 26.2025 86.8496C25.8304 86.064 25.5322 85.1684 24.8604 84.5807C24.3589 84.1418 23.1217 83.5112 23.0067 82.764C22.7289 80.9583 23.3037 78.7696 24.7937 77.6108C25.4788 77.0779 26.5717 76.9965 27.3889 76.8396C28.6231 76.6028 29.8275 76.3192 31.0666 76.1056C32.0144 75.9422 33.8506 76.0789 34.4774 75.2084C35.8948 73.2398 33.2665 71.5243 31.6672 70.7818C28.6795 69.3946 24.2764 69.727 22.0947 72.4353C21.1701 73.583 20.1733 74.3822 19.5292 75.7719C18.624 77.7254 18.417 80.411 19.0621 82.4897C19.3288 83.349 20.0029 84.0502 20.6488 84.64C21.5664 85.4777 22.2331 86.7236 22.8807 87.769C24.0867 89.7159 25.5646 91.6622 26.3286 93.8269C26.374 93.9556 26.4951 94.5401 26.551 94.509C27.4241 94.024 28.4052 93.7609 29.2426 93.1966C30.1162 92.6079 30.5961 91.7158 29.8506 90.7646C29.2472 89.9948 28.42 89.5053 27.6558 88.9109C26.8831 88.3099 26.1542 87.5428 25.461 86.8496C24.5442 85.9327 23.671 83.819 23.4146 82.6009C23.1627 81.4045 23.2228 80.0615 23.2737 78.8416C23.3227 77.6639 23.3363 76.4618 23.6963 75.3419C23.8701 74.8011 23.9759 74.5714 24.5268 74.3038C25.5829 73.7908 26.9183 73.4102 28.0784 73.3028C29.2827 73.1913 30.4674 73.1026 31.6746 73.1026" stroke="#EEEBD9" stroke-opacity="0.8" stroke-width="5" stroke-linecap="round"/>
<path d="M66.1088 63.76C64.8419 66.2938 64.0501 68.6793 64.4404 71.5678C64.554 72.4085 64.6606 73.4695 65.1078 74.2148C65.74 75.2685 67.4047 75.8885 68.5853 75.9054C70.8246 75.9374 73.0609 74.3865 74.4578 72.7467C76.8272 69.9652 79.1747 67.0554 82.0209 64.7388C84.111 63.0375 85.9723 60.7911 84.8681 57.8801C84.3632 56.549 81.8725 56.2403 80.7159 56.0931C78.8535 55.8561 77.1631 55.9341 75.5107 56.7901C73.6314 57.7637 71.9489 59.044 70.0979 60.0971C68.2552 61.1455 66.6903 61.744 65.9012 63.8045C65.3263 65.3056 65.789 67.3951 66.7687 68.6686C67.5169 69.6413 68.295 71.1435 69.6827 70.7447C71.3326 70.2706 72.3718 69.6398 73.6422 68.5351C74.1173 68.122 74.659 67.7805 75.1177 67.3488C75.6973 66.8033 76.0654 66.0517 76.6674 65.5099C77.1864 65.0428 77.7333 64.6922 78.2245 64.1901C78.6237 63.782 79.0182 63.3501 79.4479 62.974C79.9821 62.5066 80.9129 62.2138 81.2942 61.6246C81.3652 61.5149 81.5905 61.4189 81.5686 61.2761C81.4892 60.7603 80.6749 60.3979 80.2858 60.1861C79.0801 59.5298 78.1391 59.8269 76.9047 60.3047C75.1565 60.9814 73.4174 61.7666 71.744 62.6033C71.0019 62.9744 70.599 63.1192 70.0089 63.7303C69.4178 64.3426 69.3119 65.0641 69.3119 65.8955C69.3119 66.238 69.4413 66.4484 69.5715 66.763C69.8158 67.3534 69.8402 67.2442 70.261 66.7482C70.9738 65.9081 71.8042 65.2766 72.6634 64.6127C73.5421 63.9337 74.5729 63.6783 75.4514 63.0927" stroke="#EEEBD9" stroke-opacity="0.8" stroke-width="5" stroke-linecap="round"/>
<path d="M68.778 64.4272C67.8113 65.593 67.3884 66.3628 66.9837 67.8084C66.8677 68.2224 66.8955 68.5336 67.043 68.9206C67.2277 69.4055 67.6349 70.0891 67.7103 70.5667C67.9621 72.1615 70.1366 72.7021 71.4473 72.7021" stroke="#EEEBD9" stroke-opacity="0.8" stroke-width="5" stroke-linecap="round"/>
<path d="M56.7662 24.2542C56.3358 27.428 57.656 30.0297 60.4958 31.5206C62.1108 32.3685 63.8043 33.1697 65.5601 33.6635C67.0756 34.0897 68.6439 34.7979 70.2462 34.7979" stroke="#EEEBD9" stroke-opacity="0.8" stroke-width="5" stroke-linecap="round"/>
<path d="M20.0631 13.3101C20.6808 14.5455 21.6647 15.7562 21.6647 17.1954C21.6647 18.3271 21.3978 19.3956 21.3978 20.5172" stroke="#EEEBD9" stroke-opacity="0.8" stroke-width="5" stroke-linecap="round"/>
<path d="M26.6029 72.3019C24.9384 71.693 23.7845 73.4517 22.4803 74.1037C21.5372 74.5753 20.3961 75.366 19.9964 76.3875C19.5741 77.4666 19.7827 78.8126 20.0334 79.9095C20.2886 81.0259 20.1694 82.3108 20.597 83.3796" stroke="#EEEBD9" stroke-opacity="0.8" stroke-width="5" stroke-linecap="round"/>
</svg>
