<svg width="100" height="100" viewBox="0 0 100 100" fill="none" xmlns="http://www.w3.org/2000/svg">
<path d="M0 0H100V100H0V0Z" fill="#81532B"/>
<path d="M32.942 29.9692C32.312 31.0276 31.5242 31.8369 30.9147 32.9087C30.1522 34.2498 29.5314 35.8502 29.3267 37.3856C29.1679 38.5764 29.8271 39.4518 30.239 40.511C30.9823 42.4224 32.4689 44.3313 32.4689 46.466C32.4689 47.9574 31.3971 49.6 30.8133 50.9344C30.1063 52.5504 29.6318 54.2297 30.8978 55.7407C32.4837 57.6336 35.1458 57.9107 37.4948 57.5652C38.9468 57.3517 39.0283 56.5381 39.6319 55.2761C41.4694 51.4342 38.3326 47.3853 37.5033 43.6532C37.2703 42.6046 37.114 41.7805 37.0387 40.6883C36.9706 39.7011 36.9486 38.4951 36.7093 37.5376C36.3169 35.9681 37.1004 34.7592 37.8581 33.4493C38.5465 32.2592 39.2561 31.1685 39.86 29.9608C40.1538 29.3732 40.1961 28.5838 39.7839 28.0687C39.4507 27.6521 38.2229 28.2374 37.8158 28.2883C37.1366 28.3732 36.5161 28.6598 35.8392 28.7444C35.0476 28.8434 34.8102 29.258 34.2766 29.851C30.7986 33.7154 32.8966 39.7581 33.1024 44.2867C33.1724 45.8248 33.1959 47.6447 33.6431 49.1352C33.8338 49.7711 34.1248 50.6096 34.4793 51.1709C34.8239 51.7166 35.42 52.0219 35.7463 52.6154C36.3119 53.6438 36.4331 54.6178 36.7515 55.7323C36.8096 55.9356 37.1763 55.4525 37.2076 55.4113C37.6905 54.7775 38.2406 53.5228 38.0777 52.7083C37.8876 51.7579 37.4674 50.3916 37.0472 49.4985C36.7258 48.8157 35.8084 50.8575 35.7632 51.0189C35.514 51.909 35.2948 52.7997 35.0706 53.6966C34.989 54.0227 34.7665 56.0267 34.7665 54.9045" stroke="#EEEBD9" stroke-opacity="0.8" stroke-width="5" stroke-linecap="round"/>
<path d="M32.0296 39.244C31.0606 37.9117 31.1149 36.7338 31.8015 35.2232C32.2741 34.1834 33.1494 33.2256 33.7781 32.2584C34.0733 31.8042 34.7485 30.9665 35.2225 30.7295" stroke="#EEEBD9" stroke-opacity="0.8" stroke-width="5" stroke-linecap="round"/>
<path d="M39.4798 53.0801C39.4798 54.1121 39.5352 55.7076 38.4831 56.2815C37.8178 56.6443 37.079 57.3373 36.2869 57.3373" stroke="#EEEBD9" stroke-opacity="0.8" stroke-width="5" stroke-linecap="round"/>
<path d="M75.8184 51.2554C73.1784 53.3296 68.4423 55.7742 69.6183 59.9557C69.861 60.8185 71.5403 61.6356 72.3213 61.966C73.083 62.2883 74.0542 62.3021 74.8385 62.0505C75.93 61.7004 76.2762 60.8535 77.0347 60.0739C78.2434 58.8317 78.9241 57.1294 79.9911 55.7576C80.9998 54.4607 82.1549 54.0083 83.5726 53.1982C84.733 52.5351 85.9828 50.7515 86.1489 49.4224C86.3443 47.8596 86.0868 47.4932 84.6538 47.2684C83.1422 47.0313 81.0107 47.5835 79.9236 48.6706C79.3937 49.2005 78.8693 49.5844 78.2849 50.039C77.5325 50.6242 76.6266 50.8366 75.8859 51.3736C74.0073 52.7356 69.9884 55.4756 71.3753 58.2494C71.8802 59.2593 73.4817 59.5048 74.2895 58.6971C74.8545 58.1321 75.3081 57.3189 75.8184 56.6952C76.5111 55.8485 76.9699 54.8032 77.7105 53.9922C78.7784 52.8225 79.9655 52.2649 81.3933 51.6608C82.2116 51.3146 83.1698 50.8446 83.5726 50.039" stroke="#EEEBD9" stroke-opacity="0.8" stroke-width="5" stroke-linecap="round"/>
<path d="M82.0521 14.3088C80.3828 15.5269 78.6258 16.767 77.7949 18.7518C77.395 19.707 76.8892 20.7833 77.4908 21.8096C77.9602 22.6104 78.8587 23.4854 79.839 23.5835C83.6925 23.9688 86.5076 19.2585 87.8298 16.2009C88.9474 13.6163 86.1822 13.5183 84.4172 13.9709C82.6906 14.4136 81.6251 15.5583 80.8358 17.1807C80.5883 17.6893 79.3665 21.3825 80.8864 20.4243C81.975 19.738 82.4792 18.4531 83.5726 17.7382C84.2666 17.2844 85.0243 16.7268 85.3971 15.9813" stroke="#EEEBD9" stroke-opacity="0.8" stroke-width="5" stroke-linecap="round"/>
<path d="M79.0112 22.215C79.0823 20.6157 79.7304 19.0125 80.8695 17.924C81.3913 17.4254 81.9765 16.9658 82.5589 16.5387C82.886 16.2988 83.3513 16.2478 83.7246 15.9812" stroke="#EEEBD9" stroke-opacity="0.8" stroke-width="5" stroke-linecap="round"/>
<path d="M80.6839 48.9749C79.7838 49.7249 78.6901 50.9961 77.5585 51.4076C77.119 51.5674 76.6606 51.9739 76.4351 52.3874C76.057 53.0806 75.7053 53.8612 75.2778 54.5329C74.8162 55.2584 73.9593 55.7211 73.3519 56.3068C73.0339 56.6135 72.6318 56.8733 72.3552 57.219C71.9729 57.697 72.0824 58.88 72.0173 59.4659" stroke="#EEEBD9" stroke-opacity="0.8" stroke-width="5" stroke-linecap="round"/>
<path d="M36.8951 94.8922C40.8583 94.8922 44.788 95.0318 48.6025 93.7603C49.9547 93.3096 51.4568 91.6172 51.9137 90.2971C52.4896 88.6333 53.7671 88.0168 55.36 87.4505C56.2562 87.1318 57.1991 86.8151 58.1137 86.5635C58.7359 86.3924 59.4716 86.3569 60.0396 86.0398C60.9999 85.5038 61.8758 84.9283 62.0584 83.7592C62.3361 81.982 61.4018 81.047 59.8369 80.6676C58.5135 80.3468 57.4983 80.5824 56.2132 80.9801C53.8194 81.7211 51.413 81.8716 48.9573 82.2725C46.816 82.6221 44.4345 83.0234 42.2842 82.6526C40.5905 82.3606 39.132 82.4578 37.4695 82.8469C35.8456 83.227 35.1564 84.1395 34.0063 85.2374C32.5805 86.5983 31.2932 89.038 32.3338 91.0151C34.6282 95.3745 39.7977 94.9183 43.8892 93.8955C45.2891 93.5455 47.4184 92.7127 48.4505 91.6232C48.9461 91.1001 49.5556 90.1148 50.123 89.7565C50.6164 89.4448 50.8991 88.8636 51.3731 88.5739C51.9555 88.218 52.6592 88.0604 53.223 87.6701C54.2668 86.9475 55.679 86.9077 56.7622 86.2257C57.2764 85.9019 58.2063 85.7678 58.0208 84.9333C57.973 84.718 57.8887 84.4079 57.6576 84.4011C56.5692 84.3691 55.4812 84.2406 54.3971 84.1308C52.5956 83.9484 51.218 84.3001 49.4894 84.8488C48.463 85.1747 47.4399 85.5773 46.3556 85.6175C43.7677 85.7133 40.3352 84.8131 38.2297 86.5973C37.2885 87.395 35.5246 87.9674 35.9997 89.5115C36.3706 90.7168 38.6247 90.9759 39.615 91.0911C40.7748 91.2259 41.7768 91.3448 42.8248 90.8208C43.8247 90.3208 44.975 89.9547 45.908 89.351C46.8914 88.7147 48.122 88.6824 49.2023 88.2022C50.2193 87.7502 50.5603 87.6302 49.329 87.7123C47.566 87.8299 45.7403 87.8781 43.9736 87.8982C41.6731 87.9243 38.4077 88.2582 36.439 89.5706" stroke="#EEEBD9" stroke-opacity="0.8" stroke-width="5" stroke-linecap="round"/>
<path d="M34.4623 91.243C34.4445 90.2265 34.1664 89.5794 34.5806 88.6076C34.945 87.7526 35.613 86.3902 36.4389 85.9215C38.4553 84.7771 40.6123 83.9449 42.9937 83.9449C44.0604 83.9449 45.2211 84.0789 46.2711 83.8689C47.2244 83.6782 48.1155 83.5658 49.0417 83.2185C49.5142 83.0413 50.0867 82.6415 50.5959 82.585C51.5015 82.4843 52.2285 82.0528 53.1215 81.8839C54.7084 81.5837 56.0965 81.5122 57.7251 81.5122" stroke="#EEEBD9" stroke-opacity="0.8" stroke-width="5" stroke-linecap="round"/>
</svg>
