<svg width="100" height="100" viewBox="0 0 100 100" fill="none" xmlns="http://www.w3.org/2000/svg">
<path d="M0 0H100V100H0V0Z" fill="#81532B"/>
<path d="M19.9642 17.3323C17.292 19.3567 15.9568 23.3828 14.4267 26.29C12.6625 29.6419 11.6078 35.2256 14.101 38.3421C14.8198 39.2406 17.4726 39.1089 17.9374 38.1792C18.9994 36.0552 20.2899 33.2335 20.2899 30.8321C20.2899 27.0853 20.2265 21.9683 24.3616 20.4449C26.3955 19.6955 28.6455 19.8019 29.5914 17.64C30.1898 16.2722 30.6894 15.3969 29.9895 14.075C28.6223 11.4925 25.824 11.4981 23.2939 12.3739C21.2872 13.0685 19.5489 16.0939 19.3127 17.9838C19.1714 19.1144 17.8696 19.9761 17.6659 21.0963C17.2616 23.3203 15.7619 25.41 15.1506 27.611C14.4814 30.02 13.8868 32.3555 13.7752 34.9219C13.7383 35.7728 12.8591 40.0078 14.7524 37.7087C17.8591 33.9364 18.0908 27.9222 18.6793 23.2136C19.1127 19.747 21.0326 16.9973 24.1987 15.8665C24.8822 15.6224 26.2104 14.7614 26.8046 14.7265C28.2888 14.6391 27.6748 16.163 27.1303 16.8437C26.3498 17.8194 24.9679 18.0194 23.8911 18.4905C22.2967 19.188 20.93 19.9495 19.7108 21.1687C16.6045 24.275 14.1886 28.8629 14.101 33.3294C14.056 35.6246 13.1738 37.2691 15.3134 33.818C19.1044 27.7035 22.6789 21.4216 26.6598 15.4503C26.7826 15.2661 27.7929 13.5794 27.7094 13.4959C27.43 13.2165 26.2853 13.4225 25.9902 13.5864C25.065 14.1004 23.382 14.4054 22.8958 15.3779" stroke="#FFC87C" stroke-opacity="0.8" stroke-width="3" stroke-linecap="round"/>
<path d="M76.316 19.2867C73.5468 20.3416 71.1641 20.9435 69.8737 23.8469C68.873 26.0985 69.805 27.6871 70.4347 29.8911C71.1018 32.2259 71.1159 33.6596 70.4347 36.0438C69.4818 39.379 64.1982 37.3619 62.4542 36.1162C59.4596 33.9772 57.4235 30.7824 57.4235 26.8509C57.4235 24.0812 57.1629 21.1889 59.5407 19.2867C62.927 16.5777 69.0053 12.6635 73.3844 15.0521C75.954 16.4538 74.0739 18.0904 72.8053 19.359C71.5707 20.5936 69.843 20.8627 68.5708 19.6848C67.2035 18.4188 64.3569 18.4923 62.78 18.9428C61.3984 19.3376 60.2249 20.8238 59.5407 22.0554C59.3412 22.4144 59.1178 23.2978 59.0702 23.7021C58.9525 24.7028 59.5032 24.8182 59.6855 25.6384C60.1388 27.6784 61.7683 29.9803 63.2866 31.3388C64.1803 32.1383 65.921 33.6189 67.1954 33.6189C67.6453 33.6189 67.9287 32.659 68.1003 32.316C68.1376 32.2413 68.4688 34.3007 68.4984 34.9218C68.6167 37.4063 66.5356 36.3077 64.9153 35.9714C62.8211 35.5368 61.68 33.9198 60.6808 32.1712C59.9598 30.9094 58.6546 29.7776 58.4188 28.2443C58.0334 25.7397 59.1485 22.7445 60.2827 20.5896C61.4598 18.353 62.3347 17.2782 64.9153 17.0065C65.9228 16.9005 66.9084 16.3551 68.0098 16.3551C69.5459 16.3551 71.0796 16.6808 72.57 16.6808C73.6765 16.6808 74.28 17.3787 75.194 17.6399C77.488 18.2953 73.8667 21.066 72.4072 20.3362C69.8609 19.0631 66.7395 18.2497 63.8295 18.8885C62.597 19.1591 61.3323 21.0297 61.3323 22.2182C61.3323 22.8245 61.3377 23.1078 61.8028 23.5212C62.8293 24.4337 62.9265 22.468 62.979 21.8382C63.1157 20.1981 63.5623 17.0719 65.4039 16.6627C67.1117 16.2832 68.8413 16.3551 70.6156 16.3551C72.6296 16.3551 70.5393 18.2828 70.127 18.7981C69.6988 19.3333 68.9027 19.2544 68.3174 19.4495C66.8547 19.9371 65.6076 20.6295 64.1915 21.241C62.3658 22.0294 61.9597 23.5994 61.4046 25.4032C60.9265 26.957 62.9431 28.1742 63.9381 29.0586C64.8656 29.883 67.0331 31.1513 66.7973 29.312C66.5492 27.377 63.2355 21.7489 64.7705 19.7752C65.5693 18.7483 65.5181 21.2681 65.4039 21.7477C65.1236 22.9249 64.865 24.1548 64.6077 25.3127C64.2512 26.9167 64.4856 28.7986 65.2591 30.2168C66.4015 32.3111 67.2316 30.6511 67.684 29.3844C68.3458 27.5315 67.6181 25.3628 67.5212 23.5212C67.3991 21.2026 66.1268 20.4525 64.0105 22.0735C62.1806 23.4751 59.9814 23.9375 61.2599 26.7785C62.2218 28.9161 65.2841 30.4199 67.2678 31.5921C67.5103 31.7354 70.3925 33.3413 69.6384 33.9446C67.4748 35.6755 66.544 27.128 66.544 26.2899C66.544 23.9107 66.2182 21.5315 66.2182 19.1781C66.2182 19.0555 66.2089 19.6603 66.1459 19.7933C65.9138 20.2833 65.264 20.8561 64.8972 21.223C63.7643 22.3558 61.8157 23.3505 61.0789 24.8241C60.4767 26.0285 61.207 27.8505 61.5856 28.9863C62.1719 30.7451 63.0707 31.0102 63.4495 29.0405C63.8056 27.1889 64.0752 24.1554 63.2866 22.3811C62.093 19.6955 60.7979 24.1472 60.3551 25.4756" stroke="#FFC87C" stroke-opacity="0.8" stroke-width="3" stroke-linecap="round"/>
<path d="M90.974 84.7589C89.6218 87.9405 86.5572 91.5993 82.7944 91.5993C80.8295 91.5993 77.0606 92.3402 75.194 91.2736C74.1221 90.6611 74.2171 88.6245 74.0539 87.5638C73.6941 85.2251 74.8595 81.9976 75.7912 79.9272C76.3772 78.6251 77.0964 78.272 78.1256 77.4299C78.8054 76.8737 79.6525 76.4856 80.3695 75.9641C81.1055 75.4289 81.5189 74.5524 82.3058 74.0278C83.1641 73.4557 83.6228 71.6681 84.4593 70.9153C85.9741 69.552 85.7942 65.9228 87.7166 64.9616C89.0511 64.2944 89.6307 68.6827 89.671 69.4495C89.7252 70.4793 90.8593 71.6407 91.2273 72.6344C91.6927 73.8911 92.5636 75.2491 92.6026 76.6156C92.6625 78.7123 92.9594 81.6153 91.3721 83.2026C90.0407 84.534 87.347 85.7589 85.5813 86.08C84.2119 86.3289 82.7418 87.3204 81.3829 87.7086C80.6081 87.93 80.2353 87.5772 79.4285 87.3467C78.676 87.1317 77.688 85.1934 77.456 84.4513C77.1253 83.3929 77.5762 81.9693 78.1075 81.013C78.5737 80.1738 79.2502 79.8353 80.0619 79.3843C80.8445 78.9496 81.9656 78.1657 82.8306 77.9185C84.9577 77.3108 84.3955 73.5195 85.5089 72.1277C86.1971 71.2675 86.0561 70.6352 86.4861 69.7752C86.6924 69.3626 87.2335 71.9216 87.4633 72.3811C88.3683 74.1911 90.974 75.4066 90.974 77.5204C90.974 79.5124 90.0393 81.199 88.6938 82.6236C86.3695 85.0846 83.0283 90.2964 79.4104 90.2964C78.6136 90.2964 74.8275 89.3436 74.7054 88.7944C74.4818 87.788 75.3609 85.3927 76.1531 84.7589C76.4007 84.5608 76.6821 83.7131 77.1122 83.836C77.6664 83.9944 77.0329 85.7527 76.9674 86.08C76.7044 87.3953 75.5391 88.7829 77.257 89.1563C79.3199 89.6048 81.3621 89.5341 83.084 88.342C83.8299 87.8255 84.7369 86.81 85.6898 87.7629C86.1632 88.2363 86.0306 89.4028 85.4365 89.7173C84.0439 90.4546 83.1668 89.6005 82.1792 88.6677C81.477 88.0045 80.7188 87.662 80.2972 86.7133C79.4404 84.7856 81.8968 82.3956 82.8306 80.9949C83.6826 79.7169 88.3098 76.7539 87.3185 74.6612C86.7505 73.462 86.6237 72.7413 86.9023 71.4039C87.1514 70.2081 87.5004 69.3312 87.6985 71.1143C87.9113 73.0289 87.5095 74.9573 88.3681 76.7604C88.8465 77.7651 89.8289 78.8721 89.1824 80.0358C87.884 82.373 85.131 83.5782 82.6678 84.1256C80.756 84.5504 79.1298 85.8333 77.1303 86.0438C75.9147 86.1717 75.8885 83.4239 76.4969 82.6417C78.0009 80.708 83.1416 82.4788 85.147 82.4788C86.1902 82.4788 88.488 81.2277 88.6938 80.1987C88.773 79.8026 89.7014 78.0633 90.1777 78.0633C90.9766 78.0633 88.9639 79.1094 88.2957 79.5472C87.3568 80.1623 86.4354 80.473 85.4365 80.9225C84.7321 81.2395 83.9837 81.1759 83.2287 81.1759C82.3174 81.1759 81.683 81.7553 80.8762 82.1531C79.6246 82.7701 76.316 83.2234 76.316 85.0847C76.316 87.7557 83.1564 88.4282 83.1564 85.4104" stroke="#FFC87C" stroke-opacity="0.8" stroke-width="3" stroke-linecap="round"/>
<path d="M70.5466 18.8933C69.01 21.5882 66.9743 23.8497 67.8271 27.0714C68.3263 28.9574 69.3943 30.6178 69.6532 32.5594C69.7737 33.4631 68.9485 34.6287 68.3474 35.2298C67.6229 35.9543 67.0321 35.8284 66.0501 35.7207C65.1523 35.6221 64.9332 35.5202 64.44 34.8862C64.2444 34.6346 64.0189 34.008 63.8313 33.9142" stroke="#FFC87C" stroke-opacity="0.8" stroke-width="3" stroke-linecap="round"/>
<path d="M86.9812 67.137C87.4383 69.6762 88.1678 72.0858 88.5619 74.6474C88.8886 76.7713 88.7943 79.0578 88.7484 81.2154C88.7066 83.1798 87.9199 84.6051 87.5016 86.4874C87.3878 86.9991 85.8378 88.5301 85.5675 87.9895" stroke="#FFC87C" stroke-opacity="0.8" stroke-width="3" stroke-linecap="round"/>
<path d="M80.266 77.3866C81.2109 77.0179 81.3424 77.0074 81.5914 76.0613C81.6863 75.7004 81.8564 75.2799 81.8564 74.9126" stroke="#FFC87C" stroke-opacity="0.8" stroke-width="3" stroke-linecap="round"/>
<path d="M22.1262 15.7126C22.3074 14.7841 22.7877 13.8851 23.8934 13.7687C25.4295 13.607 26.5966 13.2477 28.0953 13.7295C29.6635 14.2335 27.9579 16.5542 27.9579 17.4798" stroke="#FFC87C" stroke-opacity="0.8" stroke-width="3" stroke-linecap="round"/>
<path d="M28.3113 58.478C26.2535 59.8362 24.1576 60.8793 22.2244 62.4443C21.1055 63.3501 20.6087 64.0771 20.8106 65.6252C20.9516 66.7062 21.6283 67.1424 21.9888 68.06C22.5668 69.5314 22.5682 70.7001 22.1262 72.2227C21.4268 74.6317 19.4753 77.5758 21.3212 79.9491C22.1924 81.0693 23.7946 81.4512 25.2286 81.4512C27.3781 81.4512 28.5055 80.9325 30.2355 79.5957C31.4689 78.6426 31.8015 77.5114 32.3758 76.0908C32.9561 74.6552 33.1523 72.8991 34.2804 71.771C36.7964 69.2551 40.8999 68.7224 42.4879 65.37C43.0297 64.2261 42.8222 62.582 42.537 61.384C42.253 60.1915 41.7681 60.0006 40.6716 59.6169C37.9846 58.6764 35.101 59.0064 32.366 58.6646C30.3444 58.4119 28.7733 58.8996 27.3884 60.2845C26.625 61.0479 25.9766 62.0117 24.9144 62.4051C24.1436 62.6906 22.8677 63.3005 22.8331 64.2704C22.816 64.7492 22.8079 65.2445 22.8331 65.7234C22.864 66.312 23.3632 66.8146 23.3632 67.4022C23.3632 67.9332 23.8644 68.3834 23.8934 68.9043C23.9226 69.4313 23.8934 69.9668 23.8934 70.4948C23.8934 71.6958 23.7609 72.789 23.5498 73.9506C23.4656 74.4135 23.5562 74.9324 23.5399 75.4036C23.5215 75.9389 23.1865 76.4414 23.1865 76.9449C23.1865 77.4494 22.6642 78.2951 23.3632 78.663C24.0685 79.0342 25.4963 79.8807 26.3674 79.468C27.2721 79.0395 27.1853 77.9194 27.7811 77.2885C28.3228 76.715 28.8103 76.0826 29.3716 75.5214C29.5721 75.3209 29.7325 75.1726 29.8625 74.9127C29.9087 74.8203 29.8 76.0454 29.6367 76.3068C29.2364 76.9472 29.0113 77.5707 28.3898 78.1034C27.8858 78.5354 27.9363 78.3042 27.9579 77.7009C27.987 76.8845 28.8633 75.9207 29.2734 75.2857C29.831 74.4224 30.3916 73.5715 30.8737 72.7037C31.9656 70.7382 32.7834 69.8287 34.9873 69.1203C37.4353 68.3334 38.632 66.2155 40.3967 64.6042C42.2309 62.9296 40.3636 61.8356 38.4234 61.8356C37.2885 61.8356 36.1179 61.4083 34.9873 61.3055C33.4982 61.1701 32.1134 60.9521 30.6086 60.9521C28.7818 60.9521 26.7582 62.1917 25.6605 63.701C25.3247 64.1628 23.9678 65.4576 24.6788 66.067C25.2222 66.5328 24.9537 67.7161 24.9537 68.3742C24.9537 71.1477 25.6379 73.8601 24.9929 76.6013C24.9026 76.9853 24.9581 77.1835 25.1304 77.4849C25.4271 78.0041 27.0047 75.9719 27.2117 75.6981C28.1832 74.4133 27.9221 73.2604 28.488 71.9085C28.9002 70.9239 28.9519 69.8541 29.725 69.081C30.2962 68.5099 30.6846 68.3914 31.394 68.0993C32.5993 67.603 33.8253 67.5367 35.1051 67.304C35.9628 67.1481 36.7663 66.9879 37.4122 66.3419C37.8976 65.8565 38.949 64.6999 38.1191 64.0544C37.4951 63.5691 35.7883 63.6507 35.0265 63.6126C34.3546 63.579 33.6772 63.6028 33.0041 63.6028C31.7903 63.6028 30.6799 63.3632 29.4796 63.269C28.7201 63.2094 27.3741 62.9963 26.6816 63.4261C25.2344 64.3243 24.8464 66.199 25.4446 67.844C25.8238 68.8868 25.7261 70.0101 26.0532 71.0642C26.3107 71.8938 26.2266 73.5555 26.4558 71.722C26.5936 70.6193 26.6635 69.4631 26.7208 68.3545C26.7515 67.7611 26.8259 65.9574 27.3393 65.5467C27.6294 65.3146 27.4998 64.788 27.8204 64.5257C28.2253 64.1944 28.9216 64.3096 29.3814 64.398C30.9108 64.6921 32.3145 64.8398 33.8779 64.8398C34.9456 64.8398 34.9894 65.043 34.5356 65.9001C34.3565 66.2386 33.5903 66.3802 33.2397 66.4303C31.7018 66.65 30.1929 67.0017 28.6647 67.2746C27.4144 67.4979 26.7208 68.221 26.7208 69.513C26.7208 71.0658 27.6166 71.9473 28.488 73.1455" stroke="#FFC87C" stroke-opacity="0.8" stroke-width="3" stroke-linecap="round"/>
<path d="M25.8373 60.9519C24.1403 61.6731 23.4401 62.9426 23.5399 64.8397C23.5733 65.4726 24.4449 66.6684 24.777 67.1763C25.2847 67.9529 25.3083 68.6781 25.1206 69.5227C24.9627 70.2332 24.4973 70.7874 24.2468 71.4764C24.1032 71.8712 23.7401 72.3703 23.7167 72.7919C23.6897 73.2771 23.7477 73.7378 23.6283 74.2155C23.2849 75.5892 23.4547 78.8003 25.4838 78.8003" stroke="#FFC87C" stroke-opacity="0.8" stroke-width="3" stroke-linecap="round"/>
</svg>
