<svg width="100" height="100" viewBox="0 0 100 100" fill="none" xmlns="http://www.w3.org/2000/svg">
<path d="M0 0H100V100H0V0Z" fill="#81532B"/>
<path d="M26.2447 13.4406C24.7858 13.1753 23.5206 13.4017 22.2353 14.1214C21.1289 14.741 20.7979 15.4777 20.7979 16.7692C20.7979 18.2867 21.41 19.7562 21.335 21.2552C21.2092 23.7717 19.987 25.2258 18.4301 27.0575C18.1029 27.4424 17.8153 27.9967 17.666 28.4797C17.2908 29.6938 18.1581 30.5408 19.058 31.2485C20.2272 32.1679 22.0097 32.8931 23.5213 32.9127C24.3514 32.9235 24.5689 32.3327 24.9889 31.7477C25.5032 31.0314 25.7288 30.1885 26.048 29.3799C26.4012 28.4851 26.8419 27.6522 27.1298 26.7246C27.5663 25.318 27.3732 23.7734 26.8499 22.4277C26.3754 21.2077 25.7734 20.1226 26.0782 18.7814C26.36 17.5419 27.6256 16.7378 27.9392 15.4831C28.3086 14.0055 27.5492 12.6442 25.9421 12.6236C24.7894 12.6088 24.1291 12.8979 23.4154 13.8188C22.8666 14.5269 22.2958 15.0952 22.2958 15.9975C22.2958 17.2746 22.5452 18.306 22.9766 19.4925C23.1181 19.8816 23.1128 20.1852 23.1128 20.6122C23.1128 22.0807 23.1511 23.5547 23.1052 25.0225C23.0482 26.8466 22.6631 29.1545 21.4334 30.613C21.1066 31.0006 20.6363 31.3703 20.1473 31.5208C19.5811 31.695 20.2319 31.6872 20.5256 31.6872" stroke="#00A86B" stroke-opacity="0.8" stroke-width="5" stroke-linecap="round"/>
<path d="M64.3719 29.0999C66.5928 30.5805 68.5976 30.9582 71.2712 30.4313C73.3849 30.0147 75.5575 28.2585 76.9827 26.7094C77.9305 25.6792 78.9823 24.0544 80.4399 23.7137C81.3065 23.5111 82.3742 23.4065 83.2237 23.7288C84.1033 24.0624 84.9056 24.5916 85.8185 24.8635C87.5611 25.3826 88.2302 23.8677 88.6554 22.3217C89.1518 20.5165 89.3964 18.4956 87.4299 17.6314C86.2903 17.1307 84.7898 17.2532 83.5793 17.2532C82.307 17.2532 81.6313 17.2271 80.7122 18.0627C79.9426 18.7623 79.337 19.5293 78.7604 20.4002C78.22 21.2167 77.3502 21.6029 76.5363 22.0948C74.3185 23.4352 72.0155 24.2993 69.5917 25.2115C68.5923 25.5877 67.4489 26.5127 66.3464 26.5127C65.5097 26.5127 64.7185 27.1745 64.8863 28.0559C65.2146 29.7793 69.3077 28.9393 70.2272 28.4796C71.1075 28.0394 71.2488 27.257 71.8083 26.5732C73.1898 24.8847 75.6705 24.1808 77.5954 23.3203C79.4606 22.4865 81.4599 22.1418 83.428 21.6711C84.8644 21.3276 86.2034 20.6758 87.6568 20.3851" stroke="#00A86B" stroke-opacity="0.8" stroke-width="5" stroke-linecap="round"/>
<path d="M89.1546 57.9678C87.6718 59.154 86.11 60.5082 84.2374 61.0164C82.8071 61.4047 81.1367 61.6321 79.6531 61.7805C78.7945 61.8664 78.506 62.4705 78.2611 63.2254C77.7969 64.6567 77.5253 65.9104 78.4654 67.2121C79.6559 68.8606 82.2492 69.6687 83.7835 68.1048C84.1838 67.6969 84.4324 67.1721 84.8578 66.7885C85.1692 66.5076 85.5104 66.217 85.6823 65.8202C85.9681 65.1607 86.0985 64.4539 86.4313 63.8079C86.6813 63.3226 87.1615 62.9753 87.5282 62.5824C88.2217 61.8393 88.731 61.0946 89.6388 60.6155C90.1754 60.3323 90.6555 60.0597 90.9854 59.5413C91.9723 57.9903 87.5595 58.6485 87.2634 58.6789C86.2972 58.778 85.4904 59.6054 84.7367 60.1465C83.6767 60.9075 82.5815 61.6155 81.9528 62.7942C81.688 63.2908 81.0796 64.9599 81.8015 65.3209" stroke="#00A86B" stroke-opacity="0.8" stroke-width="5" stroke-linecap="round"/>
<path d="M54.2954 47.2104C53.658 46.7248 52.9634 46.3713 52.2227 46.8322C51.5986 47.2205 50.8636 47.7027 50.4827 48.33C49.4032 50.1081 51.5647 50.9095 52.0108 52.4151C52.299 53.3875 52.2105 54.9177 51.678 55.7891C51.4536 56.1563 51.1499 56.338 51.1636 56.8028C51.1887 57.6561 52.2789 58.8697 53.0245 59.2235C54.5956 59.9691 55.7053 59.6536 56.4439 57.998C56.9868 56.7812 57.3659 55.6349 56.4741 54.5333C55.4877 53.3148 54.8701 52.4664 54.4921 50.9324C54.3891 50.514 54.6531 48.8871 54.2954 48.7083" stroke="#00A86B" stroke-opacity="0.8" stroke-width="5" stroke-linecap="round"/>
<path d="M54.7039 57.4231C54.2213 56.3032 53.8869 55.3833 53.8869 54.155" stroke="#00A86B" stroke-opacity="0.8" stroke-width="5" stroke-linecap="round"/>
<path d="M23.3851 55.3804C22.6742 56.4863 21.5431 57.4458 21.4788 58.83C21.4201 60.0904 21.2064 61.3744 21.2064 62.6579C21.2064 64.0302 21.5173 65.3892 22.9464 65.941C24.665 66.6047 26.6559 66.6542 28.2796 67.5675C29.5974 68.3088 29.2032 70.7689 30.5567 71.3424C32.2424 72.0567 35.4639 71.9132 36.4271 70.0866C37.1598 68.6969 37.4105 67.0204 37.4105 65.472C37.4105 64.793 37.4386 62.3108 36.3514 62.1964C35.4696 62.1036 34.3412 62.0527 33.5146 62.0527C32.1091 62.0527 30.3388 62.1556 29.8153 60.5851C29.3178 59.0925 30.0784 57.4232 29.6338 55.978C29.3318 54.9965 28.4525 54.8367 27.6744 54.4272C27.1142 54.1323 26.5385 54.587 26.1388 55.0021C25.25 55.9251 24.6602 57.1257 23.7634 58.0584C23.231 58.6121 22.673 59.0334 22.4622 59.8134C22.1053 61.1341 23.6326 62.8119 24.5274 63.5278C25.7756 64.5264 26.9143 64.8404 28.4385 65.1921C28.9437 65.3087 29.6433 65.3884 30.1103 65.6082C30.6191 65.8476 31.0659 66.4036 31.5553 66.7127C32.275 67.1672 31.5468 69.22 32.4555 68.7854C33.4969 68.2874 34.4048 67.9449 34.5434 66.6975C34.6438 65.7944 34.3227 65.122 33.4389 64.7685C32.3736 64.3423 31.427 64.0085 30.307 63.7472C29.0925 63.4638 27.5587 63.8039 27.1978 62.4006C26.9867 61.5793 26.517 60.7529 26.517 59.9042C26.517 59.2108 26.517 58.5173 26.517 57.8239C26.517 57.0872 26.2564 56.5121 25.9118 55.8721C25.7176 55.5114 25.2915 55.2842 25.2915 54.8357" stroke="#00A86B" stroke-opacity="0.8" stroke-width="5" stroke-linecap="round"/>
<path d="M22.0234 32.0957C23.6239 31.6485 24.7517 30.9869 25.1553 29.3723" stroke="#00A86B" stroke-opacity="0.8" stroke-width="5" stroke-linecap="round"/>
<path d="M67.0953 28.8275C67.0054 28.1598 67.0061 27.089 67.5341 26.5429C68.078 25.9802 69.2253 25.8981 69.9548 25.8318" stroke="#00A86B" stroke-opacity="0.8" stroke-width="5" stroke-linecap="round"/>
<path d="M89.2908 59.6018C88.328 60.2944 87.5165 61.0432 86.6431 61.8335C86.2842 62.1582 86.0226 62.2836 85.8563 62.7639C85.4007 64.0803 85.4781 65.2852 85.4781 66.6826" stroke="#00A86B" stroke-opacity="0.8" stroke-width="5" stroke-linecap="round"/>
<path d="M29.785 71.4485C30.8484 71.4243 32.0557 71.3192 33.0228 70.8357C33.6423 70.526 33.4105 69.2206 33.5297 68.6721C33.8275 67.3021 32.9169 66.2343 32.9169 64.9124" stroke="#00A86B" stroke-opacity="0.8" stroke-width="5" stroke-linecap="round"/>
<path d="M27.0617 55.9253C26.1286 56.1872 25.3485 56.2755 24.7392 57.0752C24.3648 57.5666 23.99 58.0177 23.6574 58.5428C23.0842 59.4478 22.7736 60.5525 22.2958 61.5082" stroke="#00A86B" stroke-opacity="0.8" stroke-width="5" stroke-linecap="round"/>
<path d="M60.423 94.4609C62.1896 94.6145 64.1153 94.7807 65.8774 94.529C66.3684 94.4588 66.6913 94.0851 67.1558 93.9162C68.0836 93.5789 67.7816 92.1805 68.457 91.7678C69.0121 91.4285 69.4945 91.3286 70.0986 91.1172C71.0446 90.7861 72.0829 91.0618 73.0338 90.7692C74.1672 90.4205 74.7494 90.3506 74.7208 89.1201C74.6802 87.3774 72.401 86.1839 71.0442 85.6024C69.257 84.8364 67.3089 85.2793 65.4613 85.4738C64.821 85.5412 63.9725 86.1488 63.4339 86.495C63.1186 86.6977 62.732 86.8257 62.4656 87.1078C62.0982 87.4968 61.9914 88.035 61.5426 88.409C60.3133 89.4334 58.6316 89.8312 57.0491 89.8312C55.9792 89.8312 55.8477 90.7788 56.4136 91.5711C57.5127 93.1099 59.2777 93.3716 61.0661 93.3716C61.7224 93.3716 62.3523 93.224 63.0102 93.2354C63.7229 93.2477 64.4471 93.4168 65.1587 93.3413C65.4842 93.3068 65.7499 93.1993 66.0816 93.2657C66.6561 93.3806 67.298 93.25 67.8442 93.4321C68.2522 93.5681 69.4067 91.9069 69.6674 91.6089C70.1392 91.0697 70.3327 90.1259 70.2272 89.4227C70.165 89.0077 69.252 88.3333 68.8504 88.3333C67.7422 88.3333 66.6446 88.5239 65.6126 88.9461C64.1204 89.5565 63.1091 90.9178 62.3294 92.2822" stroke="#00A86B" stroke-opacity="0.8" stroke-width="5" stroke-linecap="round"/>
<path d="M58.2443 91.1929C59.5553 91.75 60.8797 92.6472 62.284 92.8345C63.3884 92.9817 64.0644 92.884 65.0528 92.5546" stroke="#00A86B" stroke-opacity="0.8" stroke-width="5" stroke-linecap="round"/>
<path d="M74.0399 88.6057C73.7648 87.8606 73.7146 87.3903 73.0867 86.9717" stroke="#00A86B" stroke-opacity="0.8" stroke-width="5" stroke-linecap="round"/>
<path d="M20.9341 94.3247C18.6865 94.8173 16.1179 94.7638 13.8457 94.4608C12.8765 94.3316 11.9854 94.0665 11.0543 93.7724C10.7032 93.6616 9.57748 93.2634 9.50346 92.8192C9.21076 91.063 11.3606 90.0512 11.9167 88.6358C12.1163 88.1277 12.2839 86.9151 12.7034 86.5555C13.0344 86.2718 13.1448 85.9631 13.6415 85.8141C14.5156 85.5519 15.5147 85.5239 16.3951 85.7536C18.4204 86.2819 19.3577 88.1971 21.6149 88.1971C22.3711 88.1971 22.5755 88.0803 23.3246 88.4013C24.0306 88.7039 24.7478 89.2057 24.8754 90.0353C25.362 93.1985 20.9496 93.7316 18.6192 93.2656C17.2759 92.9969 15.0562 93.2253 13.9214 92.3427C13.3797 91.9213 13.3899 90.0068 14.0575 89.7101C14.7532 89.4009 15.8141 89.5588 16.5615 89.5588C17.0024 89.5588 17.8706 89.4978 18.241 89.8008C19.4672 90.8041 19.7344 90.7446 20.9341 89.6949" stroke="#00A86B" stroke-opacity="0.8" stroke-width="5" stroke-linecap="round"/>
</svg>
