<svg width="100" height="100" viewBox="0 0 100 100" fill="none" xmlns="http://www.w3.org/2000/svg">
<rect width="100" height="100" fill="#996A42"/>
<path d="M22.6125 26.0476C22.7708 25.0583 23.7369 20.2324 23.7369 23.7987C23.7369 24.905 21.4752 27.1797 21.7171 25.7769C21.8963 24.7375 23.4129 22.0072 23.1955 22.4661C22.4306 24.0809 22.0467 25.6022 21.7796 27.3386C21.5379 28.9096 21.7969 30.7641 21.3006 32.2529C20.3762 35.0261 22.7175 35.3923 23.6536 33.1691C24.5736 30.9842 23.9018 28.1442 24.2991 25.8394C24.6514 23.796 25.2938 21.6943 23.6536 23.9653C21.3974 27.0893 20.4728 31.283 19.8014 35.0431C19.7059 35.5779 19.4137 38.7266 19.8014 38.4165C22.36 36.3696 24.1048 30.7018 24.8614 27.7551C25.4654 25.4024 25.9858 22.6941 25.9858 20.2796C25.9858 19.1011 24.3102 21.9443 23.5703 22.8617C22.3779 24.3404 21.3081 26.0575 20.6551 27.8384C19.8347 30.0758 20.0976 32.3197 19.8014 34.6891C19.7236 35.311 18.8601 39.2723 20.7384 38.3332C21.7309 37.8369 22.0949 36.0784 22.5292 35.2097C23.8725 32.5231 24.9603 29.8233 25.7984 26.9222C26.4381 24.7077 27.4851 22.0192 27.4851 19.6758" stroke="#AFACA4" stroke-width="4" stroke-linecap="round"/>
<path d="M74.7116 64.2786C73.8493 67.4043 70.2182 82.3487 77.127 80.3747C78.2515 80.0535 79.9896 75.7676 80.3338 74.7734C81.1149 72.5169 81.0101 69.8377 81.4582 67.4853C81.7862 65.7632 83.0662 62.5041 82.5618 60.7387C82.3995 60.1706 80.3883 59.4315 79.959 59.9682C79.5631 60.463 78.9909 61.0314 78.4597 61.3634C76.9108 62.3314 77.0067 64.3403 76.0442 65.7154C75.5178 66.4675 75.4497 68.2893 75.1697 69.2344C74.5802 71.2238 73.9619 74.1288 73.9619 76.1893C73.9619 77.61 74.9015 77.4344 75.5237 76.3767C76.9378 73.9727 78.4282 72.2922 78.8137 69.401C78.9184 68.6156 79.7409 66.1012 79.126 65.4863C78.5057 64.866 76.9455 66.1601 77.7101 65.7778" stroke="#AFACA4" stroke-width="4" stroke-linecap="round"/>
<path d="M76.9604 64.6534C77.044 64.0575 76.9628 60.6035 77.5226 60.1556C77.9092 59.8464 78.2354 59.5405 78.543 60.1556C79.0012 61.0722 79.154 63.5535 78.6471 64.466C77.7832 66.0209 77.2457 63.6013 76.7522 62.9667C75.6892 61.6001 76.0006 61.9701 76.9604 60.5305" stroke="#AFACA4" stroke-width="4" stroke-linecap="round"/>
<path d="M32.3578 68.4016C31.4812 69.5586 30.5104 70.5561 29.5675 71.6499C28.7342 72.6166 27.8885 74.3758 26.923 75.1482C26.332 75.6209 27.0978 77.7719 27.86 77.7719C29.0271 77.7719 30.4033 75.932 31.0251 75.1274C32.0973 73.7398 32.3578 72.5455 32.3578 70.8587C32.3578 69.7031 30.2049 68.5138 29.276 69.4427C28.3441 70.3745 27.86 70.8807 27.86 72.3371C27.86 74.0932 27.7203 76.1598 28.5263 77.7719C29.5332 79.7856 32.037 76.0042 32.3578 75.523" stroke="#AFACA4" stroke-width="4" stroke-linecap="round"/>
<path d="M81.0834 38.4164C76.5871 36.4455 72.6271 35.1173 67.6942 34.6475C65.7816 34.4653 63.8328 33.9884 61.9262 34.5017C61.0927 34.7261 58.4518 34.7328 58.1365 35.876C56.7902 40.7564 65.7584 40.884 68.777 41.2484C70.1782 41.4175 79.9589 43.3329 79.9589 40.4779C79.9589 37.9013 72.6354 37.4372 70.9218 37.2087C69.2464 36.9853 59.8031 35.228 59.1776 37.1046C58.3121 39.701 72.7398 39.1661 74.3367 39.1661" stroke="#AFACA4" stroke-width="4" stroke-linecap="round"/>
<path d="M84.4567 12.5543C82.6112 12.1942 77.3014 12.1456 80.1464 14.9906C81.8814 16.7256 84.0166 16.6772 86.2891 16.6772C86.819 16.6772 90.0373 16.3505 90.0373 15.7402C90.0373 14.37 85.5532 12.6242 84.54 12.5543C83.4266 12.4775 82.629 12.4964 81.9163 13.3872C80.2827 15.4292 86.3986 16.5416 87.0804 15.178" stroke="#AFACA4" stroke-width="4" stroke-linecap="round"/>
<path d="M5.37109 91.2652C7.94819 91.6651 10.3983 92.3551 12.9507 92.7644C14.0052 92.9335 17.2424 93.8034 18.198 92.8477C19.6232 91.4226 18.7588 89.0773 17.5734 87.8918C16.1849 86.5033 13.8729 83.2688 11.7429 83.3941C10.6989 83.4555 9.45587 85.7779 8.82771 86.4759C6.59968 88.9515 8.96549 90.2753 11.3681 90.5155C13.3215 90.7109 16.2905 91.3686 14.4499 87.8918C12.8422 84.8551 9.11006 89.1991 11.7429 90.5155C12.7399 91.014 16.2407 91.8971 16.2407 90.1407" stroke="#AFACA4" stroke-width="4" stroke-linecap="round"/>
<path d="M7.99475 89.3911C7.29824 88.9834 6.03203 87.8139 5.28776 88.5582C4.73741 89.1085 5.72425 89.5389 5.72504 89.5369C5.92375 89.0401 5.18178 88.8799 5.45435 88.2667C5.66496 87.7928 6.01493 87.3585 6.32891 86.9548C7.6601 85.2433 9.66775 83.7962 10.6184 81.8948" stroke="#AFACA4" stroke-width="4" stroke-linecap="round"/>
<path d="M76.5858 70.6504C76.3881 69.6372 76.2109 68.6819 76.2109 67.6519" stroke="#D5C8AE" stroke-opacity="0.64" stroke-width="4" stroke-linecap="round"/>
<path d="M69.0894 35.7928C71.0737 36.1167 72.8457 36.2953 74.7116 36.9172" stroke="#D5C8AE" stroke-opacity="0.64" stroke-width="4" stroke-linecap="round"/>
<path d="M84.4568 14.0536C85.4712 13.8556 86.4269 13.6787 87.4553 13.6787" stroke="#D5C8AE" stroke-opacity="0.64" stroke-width="4" stroke-linecap="round"/>
<path d="M9.11914 89.7659C9.38116 88.4231 9.22625 86.339 10.6184 85.643" stroke="#D5C8AE" stroke-opacity="0.64" stroke-width="4" stroke-linecap="round"/>
</svg>
