<svg width="200" height="200" viewBox="0 0 200 200" fill="none" xmlns="http://www.w3.org/2000/svg">
<line x1="3" y1="179.5" x2="198" y2="179.5" stroke="black"/>
<line x1="2.57086" y1="179.743" x2="30.6719" y2="132.743" stroke="black"/>
<line x1="197.573" y1="179.26" x2="169.573" y2="133.26" stroke="black"/>
<line x1="170" y1="133.5" x2="30" y2="133.5" stroke="black"/>
<line x1="30.5" y1="133" x2="30.5" y2="63" stroke="black"/>
<line x1="169.5" y1="134.021" x2="169.5" y2="63" stroke="black"/>
<line x1="30" y1="62.5" x2="170" y2="62.5" stroke="black"/>
<path d="M169.5 61C169.5 94.3508 138.451 121.5 100 121.5C61.5494 121.5 30.5 94.3508 30.5 61C30.5 27.6492 61.5494 0.5 100 0.5C138.451 0.5 169.5 27.6492 169.5 61Z" fill="#1A6419" stroke="black"/>
<line x1="30.2044" y1="62.4563" x2="1.38679" y2="75.3683" stroke="black"/>
<line x1="29.8518" y1="133.478" x2="0.851802" y2="124.478" stroke="black"/>
<line x1="1.5" y1="125" x2="1.5" y2="75" stroke="black"/>
<line x1="169.186" y1="62.5358" x2="199.186" y2="74.5358" stroke="black"/>
<line x1="169.867" y1="132.518" x2="198.867" y2="124.518" stroke="black"/>
<line x1="198.5" y1="125" x2="198.5" y2="74" stroke="black"/>
<path d="M197.5 179.5H3L30.5 133.5H169.5L197.5 179.5Z" fill="#78462A" stroke="black"/>
<circle cx="146.5" cy="182.5" r="17.5" fill="black"/>
<circle cx="146.5" cy="182.5" r="12.8333" fill="#D9D9D9"/>
<path d="M150 182.5C150 184.433 148.433 186 146.5 186C144.567 186 143 184.433 143 182.5C143 180.567 144.567 179 146.5 179C148.433 179 150 180.567 150 182.5Z" fill="black"/>
<circle cx="55.5" cy="182.5" r="17.5" fill="black"/>
<circle cx="55.4998" cy="182.5" r="12.8333" fill="#D9D9D9"/>
<path d="M59 182.5C59 184.433 57.433 186 55.5 186C53.567 186 52 184.433 52 182.5C52 180.567 53.567 179 55.5 179C57.433 179 59 180.567 59 182.5Z" fill="black"/>
<path d="M1.5 75.5L30.5 62.5V133.5L1.5 124.5V75.5Z" fill="#472929"/>
<path d="M169.5 133.5V62.5L198.5 74.5V124.5L169.5 133.5Z" fill="#472929"/>
<path d="M1.5 75.5L30.5 62.5V133.5L1.5 124.5V75.5Z" stroke="black"/>
<path d="M169.5 133.5V62.5L198.5 74.5V124.5L169.5 133.5Z" stroke="black"/>
<path d="M169.5 62.5H30.5V133.5L169.5 133V62.5Z" fill="#622E11" stroke="black"/>
</svg>
