<svg width="100" height="100" viewBox="0 0 100 100" fill="none" xmlns="http://www.w3.org/2000/svg">
<path d="M0 0H100V100H0V0Z" fill="#81532B"/>
<path d="M72.5442 19.1485C74.0281 22.5159 76.5846 25.2579 78.2738 28.5371C79.6854 31.2771 79.4628 34.435 80.0488 37.3651C80.4023 39.1327 80.5189 42.5624 79.1302 43.9511C77.83 45.2513 75.0665 46.4919 75.0665 48.7155C75.0665 51.402 76.6021 53.8923 74.9263 56.1266C73.9903 57.3747 69.7293 55.9728 68.6206 55.862C68.0555 55.8055 67.0968 54.2888 66.7211 53.8379C65.9294 52.8878 66.0983 51.1813 66.0983 50.0389C66.0983 45.7437 67.277 41.86 68.9631 37.9256C70.4841 34.3767 66.5637 30.6184 65.5378 27.5406C64.5744 24.6505 63.1746 21.9361 63.9185 18.7125C64.3778 16.7223 66.5789 16.3695 68.3403 17.1244C69.3117 17.5407 70.335 17.5559 71.2986 18.0586C72.5432 18.708 73.9241 19.9991 74.9108 20.9857C76.2228 22.2977 77.0051 24.5249 77.3241 26.2794C77.8565 29.2078 77.5888 32.3425 77.5888 35.341C77.5888 37.8335 77.6721 40.3658 77.2929 42.8301C77.0592 44.3492 75.5292 45.746 74.506 46.7692C73.3513 47.9239 72.7036 49.3376 72.0459 50.8174C71.8402 51.2803 72.2875 53.7624 71.5477 53.3397C70.6106 52.8042 69.1811 50.8758 69.1811 49.7586C69.1811 45.4249 73.42 42.8729 74.6461 38.9221C75.4565 36.3109 74.8978 33.5024 73.9454 30.9815C73.1489 28.873 72.6665 26.5993 71.5633 24.6135C71.0188 23.6335 70.5994 22.6843 69.8039 21.8888C69.2695 21.3544 67.7835 20.5469 67.0013 21.1726C65.6121 22.284 67.7884 25.7441 68.4493 26.5441C68.9637 27.1667 69.6099 27.7426 69.7572 28.5526C69.9398 29.5569 70.5228 31.3164 71.0028 32.1804C71.4104 32.9141 71.3929 34.4933 71.4231 35.341C71.4738 36.7596 71.4231 38.1878 71.4231 39.6071C71.4231 41.5942 71.1429 43.542 71.1429 45.4925" stroke="#A8C3BC" stroke-opacity="0.8" stroke-width="5" stroke-linecap="round"/>
<path d="M69.1809 18.8684C74.0167 23.5619 76.7736 29.6455 75.4867 36.5089C74.9379 39.4355 73.8169 42.3582 72.8242 45.1501C72.1031 47.1782 72.2637 49.2519 72.2637 51.378" stroke="#A8C3BC" stroke-opacity="0.8" stroke-width="5" stroke-linecap="round"/>
<path d="M19.5758 46.3333C20.9842 48.5465 22.6205 50.9086 24.1844 52.9193C25.4556 54.5536 25.5198 56.5425 26.084 58.4466C26.6234 60.2674 26.1524 62.1462 26.0372 63.9894C25.9313 65.6847 25.3773 67.1825 25.1809 68.7538C25.0401 69.8804 20.8653 69.0105 20.4321 68.9095C18.5776 68.4767 16.4855 68.1154 15.1851 66.5429C10.5595 60.9491 11.4484 53.5198 11.4484 46.7848C11.4484 44.2579 11.4861 41.7289 11.4484 39.2024C11.4343 38.2612 11.3133 35.5195 10.4675 34.8428C9.7152 34.241 9.3823 32.2992 9.54888 31.3552C9.85169 29.6393 11.0389 28.397 12.7874 28.397C14.9279 28.397 16.0824 33.0374 16.4307 34.5003C16.9111 36.5181 17.7943 38.4598 18.2991 40.4791C18.8605 42.7248 19.1859 45.0538 19.7315 47.3142C20.2058 49.279 20.985 51.209 21.5999 53.1217C22.342 55.4307 22.3224 57.9517 23.079 60.2215C23.5885 61.75 23.5933 63.7932 23.4994 65.3907C23.4739 65.8238 22.4239 65.8537 22.1137 65.7955C20.517 65.4961 19.5075 63.7842 18.6105 62.5881C17.0441 60.4997 15.1515 58.1568 14.7492 55.5195C14.3936 53.1881 14.4796 50.8824 14.8115 48.5598C15.2181 45.7133 15.597 42.729 15.6522 39.8563C15.6921 37.7837 14.7552 36.0178 14.5312 34.0021C14.1743 30.79 12.5341 34.9518 12.4604 36.0417C12.236 39.3634 13.4017 42.5707 14.3132 45.7105C14.9222 47.808 15.1123 50.02 15.5277 52.1564C15.8142 53.6302 16.5588 55.0246 16.7577 56.5159C16.818 56.9681 17.9695 60.315 18.05 60.315C19.2547 60.315 20.1363 55.1415 20.1363 53.9625C20.1363 52.0565 19.2788 50.8075 18.5949 49.1359C16.6252 44.321 15.8227 39.1187 15.0917 34.0021" stroke="#A8C3BC" stroke-opacity="0.8" stroke-width="5" stroke-linecap="round"/>
<path d="M12.8496 32.0403C12.8496 36.809 13.4101 41.5325 13.4101 46.271C13.4101 49.8136 12.9196 53.8092 13.6281 57.2633C14.1735 59.9221 14.1248 61.4655 16.1504 63.4912C17.3438 64.6846 18.8251 66.792 20.6968 66.792" stroke="#A8C3BC" stroke-opacity="0.8" stroke-width="5" stroke-linecap="round"/>
<path d="M62.1746 91.1741C64.7157 93.2194 67.691 94.3868 70.9248 94.7552C73.7115 95.0727 77.4147 95.6584 79.893 93.9767C81.1698 93.1103 82.637 91.5732 83.474 90.2711C84.7945 88.217 85.4929 87.0887 85.4358 84.6348C85.4069 83.3929 83.8652 82.9869 82.9135 82.7198C80.0822 81.925 77.2822 81.2835 74.3813 80.8047C71.1521 80.2717 67.9714 80.7846 64.7281 81.0227C58.7239 81.4633 52.6745 81.1044 46.7139 82.0658C45.2508 82.3018 44.2383 82.9874 44.2383 84.6971C44.2383 87.5761 44.3531 88.1967 47.2121 89.3525C51.7988 91.2067 57.4953 91.9687 62.3926 92.2952C65.1768 92.4808 67.9998 94.2487 70.4577 95.378C71.6544 95.9278 73.0471 96.902 74.4125 96.3744C78.0585 94.9657 79.5425 91.5765 80.0954 87.9823C80.6183 84.5835 72.9734 85.1215 70.8314 85.0241C64.469 84.7349 58.0333 84.7283 51.6651 84.7283C50.126 84.7283 48.672 85.2888 47.0564 85.2888C46.7779 85.2888 45.3454 85.2913 45.1413 85.6313C44.7512 86.2815 49.2637 87.7969 49.8123 87.9512C55.2511 89.4809 61.0654 90.1355 66.6276 90.9562C68.8908 91.2901 71.3268 91.6215 73.5094 92.3107C74.5346 92.6345 75.6624 93.3559 76.7479 93.4162C78.005 93.486 79.6098 91.3065 80.1733 90.3334C81.207 88.5478 82.1194 86.3319 79.1301 85.8337C76.2017 85.3456 72.9039 84.5172 69.9595 85.4133C67.2486 86.2384 64.221 85.9762 61.4429 86.5655C60.2523 86.818 59.0639 86.8636 60.5865 87.7488C62.0781 88.616 64.7342 88.5686 66.4252 88.6363C70.3515 88.7933 74.2591 88.3716 78.1492 88.3716" stroke="#A8C3BC" stroke-opacity="0.8" stroke-width="5" stroke-linecap="round"/>
<path d="M48.7224 86.4099C52.4258 87.1238 56.5151 86.9388 60.0883 88.0914C62.8881 88.9946 65.4666 90.4759 68.1067 91.906C69.2558 92.5284 70.4973 93.7193 71.8279 93.9612C73.2664 94.2228 75.5193 93.0728 76.6857 92.2953C77.3921 91.8243 78.6752 90.7908 79.1146 90.0377C79.5818 89.2366 80.4893 88.9659 81.232 88.3717" stroke="#A8C3BC" stroke-opacity="0.8" stroke-width="5" stroke-linecap="round"/>
</svg>
