<svg width="100" height="100" viewBox="0 0 100 100" fill="none" xmlns="http://www.w3.org/2000/svg">
<path d="M0 0H100V100H0V0Z" fill="#815A39"/>
<path d="M22.2245 17.149C20.4451 18.4178 19.1033 19.6335 17.6806 21.2142C17.1839 21.7661 16.7299 22.347 16.2356 22.8942C15.5635 23.6383 15.5303 24.5097 15.3651 25.4534C15.2605 26.0513 15.6796 26.7762 15.8787 27.3337C16.0868 27.9163 16.2213 28.5386 16.4271 29.1356C16.9767 30.7293 17.6353 32.2529 18.0288 33.9145C18.3448 35.2485 17.5539 37.0732 16.8275 38.2147C16.1619 39.2606 15.9571 40.3774 15.9571 41.5921C15.9571 43.1078 16.828 44.7265 17.5936 45.9794C18.2529 47.0582 19.0186 47.8417 20.2137 48.26C21.5178 48.7164 23.8202 49.0843 24.923 47.9815C26.1584 46.7461 26.9371 44.9958 27.5606 43.3853C28.0715 42.0655 28.3945 40.873 27.8652 39.5204C27.2748 38.0115 26.5953 36.563 25.9676 35.0635C24.6879 32.0064 24.8459 29.1155 25.5846 25.9496C25.862 24.7607 26.1975 23.5466 26.1417 22.3197C26.0889 21.1579 25.4294 20.5742 25.0101 19.6212C24.5195 18.5064 22.6358 18.4201 21.6761 18.1675C20.7606 17.9266 19.8915 18.394 19.2823 19.0641C18.6389 19.7718 18.1025 21.7109 17.994 22.6331C17.9358 23.1273 17.7185 23.7044 17.846 24.2783C17.9696 24.8346 18.2567 25.9758 18.5859 26.4284C18.7484 26.6517 18.7867 27.5364 18.8471 27.795C18.9605 28.2812 19.0908 28.7969 19.0908 29.2922C19.0908 30.7278 19.4042 32.1904 19.4042 33.6534C19.4042 35.0456 19.2475 36.4086 19.2475 37.7968C19.2475 38.7814 18.9667 39.7432 19.0995 40.7391C19.1605 41.1966 19.2509 41.9523 19.439 42.3756C19.6417 42.8316 19.4872 43.3214 19.6827 43.7857C19.7906 44.042 19.4592 44.4098 19.2475 44.5344C18.8453 44.771 18.8852 44.9122 18.9341 45.3526C18.9981 45.9284 20.2984 46.136 20.736 46.136C21.6743 46.136 22.6523 46.4 23.478 45.666C24.7974 44.4932 25.985 42.9473 25.985 41.0611C25.985 38.6272 23.7507 36.3789 23.0776 34.0712C22.6681 32.6671 22.6946 31.3353 22.6946 29.8755C22.6946 28.8395 22.5526 27.452 22.9296 26.4719C23.2629 25.6052 23.0603 22.1468 21.946 21.8496C20.6595 21.5066 20.4117 21.7147 19.8742 22.7898C19.1379 24.2625 18.9343 25.8407 19.1256 27.4904C19.2631 28.6758 19.9055 28.2582 20.5793 27.7341C21.2693 27.1974 22.039 26.8761 22.6946 26.2369C23.328 25.6193 23.8266 24.9827 24.2963 24.2348C24.6456 23.6785 25.3757 22.8211 24.9665 22.0847C24.4941 21.2343 23.9004 21.062 23.0776 20.4743C22.4707 20.0408 21.5374 19.5436 20.8927 19.8301C19.8809 20.2798 19.2475 21.8616 19.2475 22.8594C19.2475 23.3361 18.946 24.9834 19.7959 24.9834C20.3188 24.9834 20.7628 24.3221 21.0842 24.7919C22.092 26.2648 23.1646 27.0724 23.1646 28.9005C23.1646 29.654 22.2619 30.2192 22.0765 30.8678C21.9883 31.1767 21.6169 31.3759 21.5978 31.7209C21.5667 32.2801 21.5978 32.8494 21.5978 33.4096C21.5978 34.2993 21.5715 35.1671 21.7632 36.0298C21.9429 36.8384 22.5018 37.7259 23.0776 38.3017C23.9846 39.2087 24.3637 39.5496 24.7315 40.8C25.0704 41.9523 25.2518 42.9842 24.3833 43.8206C23.2071 44.9533 22.6809 44.956 21.2844 44.8825C19.227 44.7743 17.5239 43.6036 17.5239 41.4006C17.5239 40.2114 18.2324 39.466 19.0908 38.6934C20.2782 37.6248 21.2217 38.5834 22.5814 39.1374C23.4637 39.4968 23.9579 41.9916 23.0863 42.6889C22.5611 43.1091 22.1733 42.0215 21.946 41.5921C21.7756 41.2704 21.3574 41.1789 21.1625 40.8087C20.9426 40.3908 20.7125 39.9782 20.501 39.5552" stroke="#0F52BA" stroke-opacity="0.95" stroke-width="3" stroke-linecap="round"/>
<path d="M20.6577 29.684C20.6577 29.9041 20.7693 31.9371 20.7795 31.9298C20.9107 31.8361 20.5601 31.2124 20.501 31.0941" stroke="#0F52BA" stroke-opacity="0.95" stroke-width="3" stroke-linecap="round"/>
<path d="M86.7793 84.3676C84.5237 86.2251 81.7543 87.6805 78.9102 88.4066C78.1137 88.61 77.4384 89.0624 76.6817 89.3729C75.9575 89.67 75.2169 89.715 74.4533 89.8516C73.062 90.1006 72.2389 90.3461 70.954 89.7036C69.8855 89.1694 68.6972 88.7584 67.8028 87.9453C66.9496 87.1696 66.2215 86.3783 65.2349 85.7778C63.8843 84.9557 62.3802 84.5606 60.8564 84.2109C59.4897 83.8972 57.5514 83.6094 56.1384 83.9324C54.249 84.3642 52.2926 84.7396 50.4107 85.3077C48.6935 85.8261 45.561 86.7142 44.178 85.1336C43.3218 84.1551 43.3468 82.0215 43.1508 80.7899C42.9774 79.6999 43.3962 78.8965 44.2651 78.222C46.1329 76.7719 48.6011 75.7498 50.9852 75.7498C52.707 75.7498 54.1906 75.6078 55.9295 75.9239C57.5203 76.2132 59.1703 76.8825 60.6649 77.4734C65.0836 79.2203 70.3518 80.0118 75.1062 79.432C76.247 79.2929 77.4186 79.2797 78.562 79.1882C79.8873 79.0822 81.1582 78.5363 82.4704 78.4222C83.3663 78.3443 84.4175 78.3642 85.2125 78.7617C86.3588 79.3349 87.7194 79.4826 87.7194 81.1381C87.7194 82.7187 86.2978 84.0752 85.0906 84.9247C83.4909 86.0504 81.404 86.4079 79.5195 86.8398C76.6757 87.4915 74.1515 87.8527 71.2848 87.2663C70.3374 87.0725 69.0131 87.024 68.2033 86.5612C67.5188 86.1701 66.967 85.4736 66.3317 85.0031C63.9293 83.2234 61.2271 82.299 58.2276 82.174C57.1903 82.1308 55.3726 81.5715 54.4671 82.2959C54.2653 82.4573 53.2907 82.6368 53.0221 82.6441C51.9265 82.6737 50.8937 82.9574 49.7926 82.9574C48.869 82.9574 47.5227 82.994 47.451 81.7039C47.3893 80.5929 48.491 79.8704 49.5054 79.5887C52.7739 78.6807 56.6421 78.5764 60.0208 79.0054C61.6303 79.2098 63.3045 79.3331 64.8954 79.667C66.0705 79.9136 66.8351 80.5268 67.9421 80.9553C68.7465 81.2667 69.8511 81.8744 70.4926 82.409C70.7569 82.6293 71.9899 82.5918 72.3816 82.6353C73.0653 82.7113 73.7913 82.6441 74.4794 82.6441C76.0626 82.6441 77.5481 82.095 79.1017 82.0173C80.9401 81.9254 82.3117 81.3129 83.959 80.7638" stroke="#0F52BA" stroke-opacity="0.95" stroke-width="5" stroke-linecap="round"/>
<path d="M86.779 39.5552C84.4986 39.5552 81.3381 39.0383 79.2406 40.2777C78.5417 40.6907 77.4035 41.2518 76.9077 41.9403C76.5337 42.4598 76.0305 42.9218 75.5324 43.3157C74.14 44.4167 72.7744 45.2409 71.0407 45.5876C69.1781 45.9602 66.6678 46.068 64.9125 45.2656C64.3476 45.0073 63.6842 44.7413 63.3631 44.0991C63.1015 43.5761 63.1854 42.9331 62.9539 42.393C62.7999 42.0335 62.5691 41.7097 62.4142 41.3484C61.7739 39.8542 61.7024 38.2729 62.5622 36.8567C63.9567 34.56 66.0347 33.438 67.9418 31.599C69.1071 30.4753 70.6222 29.4487 71.9547 28.5262C73.02 27.7887 74.0363 27.2537 75.3409 27.177C76.4648 27.1109 78.2513 26.9659 79.3364 27.5687C80.2298 28.065 81.6872 27.8037 82.7051 27.8037C84.2593 27.8037 85.6649 27.177 87.1707 27.177C87.9974 27.177 89.2385 28.3095 89.5645 29.092C89.9067 29.9132 90.4921 30.8523 90.9312 31.6426C91.3275 32.3559 91.3954 34.586 91.0879 35.3856C90.0525 38.0776 86.2995 39.698 83.5756 38.9198C83.0479 38.769 83.7615 37.2155 84.0631 36.9786C84.9433 36.287 85.9847 35.7999 86.8138 35.0461C87.2412 34.6576 88.1983 34.4611 88.3371 33.8362C88.4492 33.3319 88.1353 31.9407 87.6408 31.7209C85.0849 30.5849 82.648 30.154 79.8326 30.154C78.1984 30.154 76.5432 30.1711 74.9579 30.6241C74.2316 30.8316 73.4148 30.8063 72.7556 31.1725C71.2803 31.9921 70.5778 33.5731 69.3868 34.6979C68.567 35.4722 67.5799 36.1356 66.7231 36.8915C65.7754 37.7277 64.0498 38.9329 63.7548 40.2603C63.4237 41.7502 64.9622 42.4545 66.2008 42.7238C67.5943 43.0267 69.207 43.6355 70.6403 43.2373C72.2854 42.7804 73.3388 41.8472 74.7228 40.8783C77.9251 38.6367 80.8567 36.1835 84.4287 34.5761C84.7677 34.4235 85.1778 34.4627 85.5081 34.2975C85.9793 34.0619 84.8154 33.3349 84.6463 33.2094C83.4689 32.3359 82.0454 31.8076 80.5899 31.8863C78.7817 31.984 76.7026 32.2195 75.0449 32.9396C73.6023 33.5661 71.9692 34.2833 70.9885 35.5684C70.3746 36.3728 69.7768 37.3474 69.3085 38.2321C69.1283 38.5723 68.9678 38.8796 68.8384 39.2418C68.669 39.716 70.5781 39.5552 70.945 39.5552C71.594 39.5552 72.4904 38.9718 73.0254 38.6151C74.0513 37.9312 74.9023 37.0891 75.8806 36.3519C76.9303 35.5608 77.968 34.7935 78.9447 33.9145C79.2678 33.6237 79.8547 33.348 80.0415 32.9744" stroke="#0F52BA" stroke-opacity="0.95" stroke-width="5" stroke-linecap="round"/>
<path d="M15.4393 74.4999C13.5543 75.88 11.5388 77.4401 9.82928 79.0356C8.14749 80.6053 7.3227 82.1519 7.3227 84.4202C7.3227 85.0782 7.11413 86.2038 7.44206 86.7941C7.95265 87.7132 10.4801 87.8684 11.4871 87.8684C13.8891 87.8684 16.3736 85.9608 17.4817 83.9029C18.7296 81.5852 20.4496 79.1522 22.1235 77.1259C22.9472 76.1287 24.1315 73.2434 23.7415 71.927C22.662 68.284 18.5555 70.3794 16.9777 72.2984C15.6792 73.8777 14.2804 75.3923 13.0388 77.0065C11.4112 79.1224 8.99693 80.8442 7.68078 83.2133C6.09901 86.0605 11.8666 84.5754 12.9459 84.2875C14.1393 83.9693 15.3574 82.6813 16.3013 81.8605C17.8194 80.5405 18.9165 78.751 20.0943 77.1391C20.9116 76.0208 21.2508 74.942 21.1686 73.545C21.0727 71.9147 16.6122 76.1495 16.5533 76.1975C15.5076 77.0487 8.58073 83.4842 10.1874 84.2875" stroke="#0F52BA" stroke-opacity="0.95" stroke-width="5" stroke-linecap="round"/>
<path d="M64.1383 38.9303C64.1383 37.5396 63.9173 35.998 65.385 35.3495C67.0549 34.6116 68.6063 33.6847 70.292 32.9622C72.4403 32.0416 74.8544 30.8594 77.1487 30.3496C79.3038 29.8706 80.8195 28.4585 83.13 28.6785C84.1481 28.7755 84.7964 28.9692 85.6233 29.5008C85.9928 29.7383 87.1724 30.3312 87.2943 30.575" stroke="#89A1C6" stroke-opacity="0.33" stroke-width="3" stroke-linecap="round"/>
<path d="M67.7192 43.9435C70.0101 42.8584 72.5936 42.2835 74.5361 40.6943C75.5867 39.8347 76.419 38.7214 77.5599 37.9755C79.258 36.8652 81.7625 36.7819 83.7136 36.7819" stroke="#89A1C6" stroke-opacity="0.33" stroke-width="3" stroke-linecap="round"/>
<path d="M83.4749 79.5131C81.0187 80.2026 78.5568 80.2119 76.0215 80.5741C74.2387 80.8288 72.7748 80.5679 71.0614 80.1762C68.8207 79.6641 66.9961 77.6581 64.6954 77.6033C62.2362 77.5448 59.8368 77.1259 57.3614 77.1259C56.3589 77.1259 53.9145 76.6633 53.1042 77.3116C52.7949 77.559 52.3253 77.2819 51.9636 77.6033C51.7272 77.8134 51.3872 78.1638 51.1148 78.3195C50.1645 78.8625 49.0308 79.1606 48.144 79.7518" stroke="#89A1C6" stroke-opacity="0.33" stroke-width="3" stroke-linecap="round"/>
<path d="M45.7568 84.0488C48.7261 84.0488 52.0486 83.042 54.9079 82.2452C56.2534 81.8702 57.5781 81.6616 58.9794 81.6616C60.7247 81.6616 61.486 81.912 63.0907 82.6165C65.6715 83.7495 68.3579 85.0883 71.0614 85.8393C75.4026 87.0452 79.0356 85.8439 83.2362 85.0037" stroke="#89A1C6" stroke-opacity="0.33" stroke-width="3" stroke-linecap="round"/>
<path d="M18.304 72.1127C16.5178 73.4061 15.5598 75.2152 13.8876 76.5158C13.1875 77.0603 12.9613 77.5279 12.5216 78.3194C12.0145 79.2323 11.5325 80.1476 11.023 81.0647C10.4487 82.0984 10.6649 83.3789 10.6649 84.5262" stroke="#89A1C6" stroke-opacity="0.33" stroke-width="3" stroke-linecap="round"/>
<path d="M14.4844 85.9586C15.5185 84.618 16.8335 83.5484 17.6673 82.0594C18.1546 81.1893 18.5268 80.2702 19.0201 79.407C19.6325 78.3352 20.7515 77.5027 21.4073 76.4097" stroke="#89A1C6" stroke-opacity="0.33" stroke-width="3" stroke-linecap="round"/>
<path d="M15.439 23.6521C15.161 24.9185 14.6617 25.9022 15.3064 27.0075C15.699 27.6805 16.2194 28.3916 16.7255 29.0101C18.1305 30.7273 19.9747 32.6355 19.9747 34.9914C19.9747 36.871 16.4886 43.7048 20.4522 43.7048" stroke="#89A1C6" stroke-opacity="0.33" stroke-width="3" stroke-linecap="round"/>
<path d="M25.7039 42.9886C24.3789 38.765 22.7343 34.4264 22.8393 29.9119C22.8667 28.7337 23.2523 27.3086 23.5554 26.1719C23.7538 25.4281 24.2716 24.6488 24.2716 23.8908C24.2716 23.3972 24.8773 22.3701 24.3909 21.981C24.1537 21.7913 23.6594 20.8607 23.5554 20.5487" stroke="#89A1C6" stroke-opacity="0.33" stroke-width="3" stroke-linecap="round"/>
</svg>
