<svg width="100" height="100" viewBox="0 0 100 100" fill="none" xmlns="http://www.w3.org/2000/svg">
<rect width="100" height="100" fill="#8D5F39"/>
<path d="M14.5387 17.2374C14.336 16.8621 14.4018 16.1752 14.7659 16.0097C15.8481 15.5179 17.1353 15.338 18.2965 15.027C18.3626 15.0093 18.4283 14.9911 18.4935 14.9725C19.1902 14.7734 19.3789 16.6607 19.4172 17.0632C19.725 20.2943 13.7853 22.2399 13.599 18.7001C13.5707 18.162 13.989 17.647 14.5387 17.2374Z" fill="#8D5F39"/>
<path d="M13.8907 16.658C14.3019 15.5158 14.5185 14.3242 15.868 14.3242C16.3389 14.3242 17.5265 14.0823 17.91 14.3891C19.0303 15.2853 17.4952 16.803 16.6621 17.2415C16.1948 17.4874 15.0907 17.8256 14.6362 17.3711C14.3237 17.0585 14.3523 16.1977 14.7659 16.0097C15.9096 15.4899 17.2825 15.3185 18.4935 14.9725C19.1902 14.7734 19.3789 16.6607 19.4172 17.0632C19.725 20.2943 13.7853 22.2399 13.599 18.7001C13.54 17.5795 15.4186 16.5585 16.3866 16.3825C17.7877 16.1277 17.9748 16.8793 17.9748 18.1166" stroke="black" stroke-opacity="0.85" stroke-width="3" stroke-linecap="round"/>
<path d="M73.2564 17.0956C73.755 16.1981 74.8026 15.3601 75.8134 14.5652C76.3853 13.0023 78.0904 10.6523 79.5284 10.0132C80.0065 9.80073 79.506 11.4933 79.4636 11.6987C79.0522 13.6868 78.1618 15.8144 77.0487 17.5008C75.7223 19.5105 75.5453 21.0767 73.1753 20.2235C72.3033 19.9096 72.9097 17.7195 73.2564 17.0956Z" fill="#8D5F39"/>
<path d="M77.4863 13.1573C76.282 14.3617 74.0585 15.6516 73.2564 17.0956C72.9097 17.7195 72.3033 19.9096 73.1753 20.2235C75.5453 21.0767 75.7223 19.5105 77.0487 17.5008C78.1618 15.8144 79.0522 13.6868 79.4636 11.6987C79.506 11.4933 80.0065 9.80073 79.5284 10.0132C78.0182 10.6844 76.2134 13.2425 75.736 14.7942C75.3658 15.9973 75.0834 17.2524 74.6339 18.4083C74.4235 18.9496 74.9183 18.7835 75.1688 18.7001C75.9797 18.4298 76.251 17.6701 76.6112 16.9497C77.4553 15.2615 77.778 13.5588 77.778 11.6987" stroke="black" stroke-opacity="0.85" stroke-width="3" stroke-linecap="round"/>
<path d="M31.7913 42.5439C31.3753 42.207 30.954 41.8647 30.5189 41.5192C29.2556 40.516 29.352 38.9506 29.352 37.4027C29.352 35.5652 30.5246 35.8599 32.1234 35.9279C33.7216 35.9959 34.3103 36.1411 34.8252 36.8687C35.0521 37.1893 35.2647 37.623 35.543 38.2131C35.9445 39.0642 35.9871 39.6933 36.5803 40.3524C36.9299 40.7409 37.655 41.7072 37.7958 42.1999C37.9646 42.7909 38.0042 46.2497 37.034 46.0733C36.4904 45.9745 35.8625 45.5313 35.2509 44.9449C35.2243 44.9442 35.1974 44.9423 35.1703 44.9389C35.0721 44.9266 34.9756 44.9116 34.8808 44.8938C33.4722 44.6301 32.4415 43.77 31.7913 42.5439Z" fill="#8D5F39"/>
<path d="M36.9368 46.122C34.4626 44.8373 32.657 43.2171 30.5189 41.5192C29.2556 40.516 29.352 38.9506 29.352 37.4027C29.352 35.5652 30.5246 35.8599 32.1234 35.9279C34.4259 36.0259 34.6331 36.2839 35.543 38.2131C35.9445 39.0642 35.9871 39.6933 36.5803 40.3524C36.9299 40.7409 37.655 41.7072 37.7958 42.1999C37.9646 42.7909 38.0042 46.2497 37.034 46.0733C35.5226 45.7985 33.3603 42.8626 32.7068 41.5841C32.046 40.2911 31.3941 39.3858 31.3941 37.9537C31.3941 37.2741 31.3814 37.783 31.3293 38.2131C31.1881 39.3778 31.0073 40.4764 31.3941 41.6165C32.0072 43.4236 33.2678 44.7011 35.1703 44.9389C36.8473 45.1485 37.5487 39.9629 35.4782 39.7041C34.5092 39.583 34.3056 37.3761 34.8948 36.7869" stroke="black" stroke-opacity="0.85" stroke-width="3" stroke-linecap="round"/>
<path d="M35.77 42.0379C34.7277 41.2119 32.2693 40.4596 32.2693 38.9748C32.2693 38.3427 32.2693 37.7106 32.2693 37.0786" stroke="black" stroke-opacity="0.85" stroke-width="3" stroke-linecap="round"/>
<path d="M5.56632 84.2425C5.85599 84.4539 6.12805 84.6495 6.34721 84.8285C6.05102 83.601 5.68596 80.2859 6.17636 80.2859C7.1213 80.2859 8.00571 80.3049 8.93151 80.2534C13.9036 79.9772 12.551 86.9235 9.8627 87.7602C9.25553 87.9492 8.58023 87.8265 7.89428 87.2386C7.05352 86.5179 6.25356 85.3829 5.56632 84.2425C4.57968 83.5224 3.38879 82.619 3.38879 81.5662C3.38879 79.6833 3.77404 80.9506 4.39361 82.1334C4.72437 82.7649 5.12176 83.5048 5.56632 84.2425Z" fill="#8D5F39"/>
<path d="M10.6818 89.5886C10.3774 87.3562 8.01404 86.2399 6.41946 84.8886C5.48517 84.0968 3.38879 82.9631 3.38879 81.5662C3.38879 79.6833 3.77404 80.9506 4.39361 82.1334C5.23567 83.741 6.50965 86.0517 7.89428 87.2386C11.6173 90.4297 15.0266 79.9148 8.93151 80.2534C8.00571 80.3049 7.1213 80.2859 6.17636 80.2859C5.61536 80.2859 6.17386 84.6243 6.46808 85.2127C6.6876 85.6517 7.89119 87.2119 8.20221 86.9631C8.8659 86.4321 9.03109 84.6917 9.20703 83.9C9.75986 81.4122 6.70192 81.8788 6.59774 83.7541C6.55659 84.4947 8.51596 86.0178 9.15841 85.4396C9.84364 84.8229 9.99929 83.0884 10.0984 82.2955" stroke="black" stroke-opacity="0.85" stroke-width="3" stroke-linecap="round"/>
<path d="M88.7175 88.8593C88.2658 89.6722 87.8116 90.5252 87.3167 91.3495C88.7643 91.2962 87.9665 91.8232 87.3399 92.6354C86.5424 93.6692 85.6875 94.5438 84.682 95.3906C83.6848 96.2303 81.9497 97.2326 80.2866 97.506C79.1303 97.6962 78.0088 97.5339 77.1945 96.7195C76.1617 95.6868 76.6716 94.3528 77.4213 93.3809C78.8043 91.5883 80.8618 90.288 82.5913 88.8593C83.8662 87.8061 84.7001 87.1381 86.3675 86.9793C87.7898 86.8438 89.4616 87.5199 88.7175 88.8593Z" fill="#8D5F39"/>
<path d="M75.7358 98.0485C78.3245 98.0485 79.7287 98.128 81.7324 96.6547C82.8017 95.8684 83.8773 94.7351 84.7144 93.6727C85.441 92.7505 86.1602 92.1113 86.5944 90.9823C87.1936 89.4245 86.9462 89.7821 85.5247 90.1882C83.586 90.7421 80.6685 92.4119 79.0096 93.6727C78.2132 94.2779 77.879 96.2982 79.1393 96.2982C82.5047 96.2982 83.4469 96.1702 85.6382 93.7051C86.8843 92.3032 87.8061 90.4997 88.7175 88.8593C89.4616 87.5199 87.7898 86.8438 86.3675 86.9793C84.7001 87.1381 83.8662 87.8061 82.5913 88.8593C80.8618 90.288 78.8043 91.5883 77.4213 93.3809C76.6716 94.3528 76.1617 95.6868 77.1945 96.7195C79.18 98.7051 82.9914 96.8142 84.682 95.3906C85.6875 94.5438 86.5424 93.6692 87.3399 92.6354C87.9834 91.8012 88.8077 91.2679 87.194 91.3551C84.4461 91.5036 80.6693 91.6564 78.6531 93.6727" stroke="black" stroke-opacity="0.85" stroke-width="3" stroke-linecap="round"/>
<path d="M55.5799 78.9958C56.0278 77.1817 56.7117 75.5471 57.4223 73.7707C57.9638 72.4169 60.0197 71.0682 61.5432 70.146C61.6736 70.054 61.8088 69.9722 61.9497 69.9019C62.1282 69.7954 62.2952 69.6963 62.4464 69.6056C63.4319 69.0143 65.0413 68.0775 66.255 68.617C67.4963 69.1687 66.5081 73.0155 66.1091 73.8356C64.3606 77.4299 59.4248 78.8422 55.9961 80.2859C54.0405 81.1093 53.3333 81.783 55.0237 79.67C55.2045 79.4441 55.3902 79.2192 55.5799 78.9958Z" fill="#8D5F39"/>
<path d="M55.3154 80.2535C55.7208 77.9113 56.5516 75.9474 57.4223 73.7707C58.0825 72.1203 60.9932 70.4775 62.4464 69.6056C63.4319 69.0143 65.0413 68.0775 66.255 68.617C67.4963 69.1687 66.5081 73.0155 66.1091 73.8356C64.3606 77.4299 59.4248 78.8422 55.9961 80.2859C54.0405 81.1093 53.3333 81.783 55.0237 79.67C55.8733 78.608 56.8329 77.5691 57.795 76.6069C58.6082 75.7938 59.8967 75.6192 60.8581 75.0025C61.8155 74.3883 64.203 73.4017 64.7153 72.377C64.9501 71.9075 64.913 69.9723 64.1967 69.7677C62.0465 69.1533 60.9268 70.4794 59.8371 72.0852C59.1702 73.068 58.7937 74.3407 58.103 75.2618C57.7561 75.7242 59.2594 75.2976 59.8371 75.278C60.8284 75.2444 61.5612 75.0536 62.4788 74.7756C63.3441 74.5134 64.3132 73.0357 64.5857 72.1501C64.8427 71.3148 64.0696 69.7716 63.0623 70.0594C61.9571 70.3751 61.0365 71.728 60.8419 72.7983C60.5216 74.5599 61.8653 74.8373 63.4836 75.8776" stroke="black" stroke-opacity="0.85" stroke-width="3" stroke-linecap="round"/>
<path d="M87.4049 48.4557C86.4755 46.5388 85.4071 44.8561 86.5946 42.913C87.9804 40.6452 89.8821 45.3352 90.549 46.4785C91.0297 47.3025 89.4935 50.1695 88.5718 48.3261C88.1427 47.4678 87.046 44.9887 88.2801 44.3716" stroke="black" stroke-opacity="0.85" stroke-width="3" stroke-linecap="round"/>
<path d="M78.3613 95.423C80.5958 95.423 81.2781 94.257 82.1537 92.5058" stroke="black" stroke-opacity="0.85" stroke-width="3" stroke-linecap="round"/>
</svg>
