<svg width="100" height="100" viewBox="0 0 100 100" fill="none" xmlns="http://www.w3.org/2000/svg">
<rect width="100" height="100" fill="#996A42"/>
<path d="M15.0789 19.6442C15.0467 19.8683 15.008 20.1055 14.9655 20.3431C15.2649 21.256 15.5451 22.3308 15.5269 23.238C15.5126 23.9526 14.0361 25.2154 13.4849 24.6642C13.1575 24.3368 12.9508 23.941 12.8482 23.5165C12.6518 23.5861 12.4725 23.6269 12.3342 23.6269C11.8888 23.6269 12.5617 22.2508 13.1711 21.2458C13.2736 21.0479 13.3941 20.8596 13.5305 20.6855C13.699 20.4399 13.8367 20.2674 13.9062 20.2235C14.0665 20.1223 14.4637 19.7985 14.6738 19.7804C14.804 19.7239 14.9392 19.6781 15.0789 19.6442Z" fill="#996A42"/>
<path d="M12.4476 21.909C13.0923 20.45 13.8641 19.3733 15.0083 18.3435C15.498 17.9028 14.7518 21.7569 14.4897 22.3466C14.2485 22.8893 12.922 23.6269 12.3342 23.6269C11.6559 23.6269 13.5713 20.435 13.9062 20.2235C14.1119 20.0936 14.7081 19.597 14.7976 19.8508C15.1498 20.8487 15.5484 22.1614 15.5269 23.238C15.5126 23.9526 14.0361 25.2154 13.4849 24.6642C11.8223 23.0016 13.2726 19.5752 15.6566 19.5752" stroke="black" stroke-opacity="0.85" stroke-width="3" stroke-linecap="round"/>
<path d="M57.2358 22.346C58.2207 21.4407 62.4974 17.8085 62.6076 18.6353C63.0659 22.0723 62.1082 25.3441 58.485 25.675C57.2205 26.934 55.6101 28.0078 54.2935 27.6786C53.6475 27.5171 53.9471 25.5117 54.3259 25.1828C54.3697 25.1448 54.4142 25.1073 54.4594 25.0704C54.5481 24.2656 55.9065 23.2046 57.2358 22.346Z" fill="#996A42"/>
<path d="M57.0811 22.4925C57.6087 21.9648 62.4897 17.7512 62.6076 18.6353C63.0861 22.2243 62.0207 25.6331 57.9887 25.7014C57.5469 25.7089 54.4176 25.9164 54.4556 25.118C54.5218 23.7287 58.5497 21.528 59.5931 20.969C61.8535 19.7581 60.6611 23.141 59.9983 23.9511C59.5276 24.5264 59.7256 24.3641 59.6418 23.5621C59.4893 22.1031 59.6094 21.177 60.5656 20.0615C60.6214 19.9963 60.7011 22.6487 60.3549 23.2866C59.4789 24.9002 56.4808 28.2255 54.2935 27.6786C53.6475 27.5171 53.9471 25.5117 54.3259 25.1828C55.8574 23.8528 58.287 23.1795 60.209 22.6707C61.9157 22.219 60.5818 23.9703 60.5818 22.4925" stroke="black" stroke-opacity="0.85" stroke-width="3" stroke-linecap="round"/>
<path d="M90.7751 38.6992C90.8047 38.788 90.8291 38.8762 90.8485 38.9638C90.0881 40.2855 88.3478 40.631 86.9341 40.9844C85.3604 41.3778 86.1394 40.2285 86.8114 39.3536C86.4891 39.5116 86.2624 39.5656 86.2534 39.4123C86.1924 38.3766 86.2829 37.488 86.8692 36.6086C87.0976 36.266 91.9339 31.1852 92.3147 33.4158C92.6246 35.2307 91.8714 37.1535 90.7256 38.5596C90.7424 38.6042 90.7589 38.6507 90.7751 38.6992Z" fill="#996A42"/>
<path d="M87.1285 34.7448C86.2319 36.3007 82.4704 40.8769 84.9568 42.4592C87.1939 43.8828 91.7382 41.5886 90.7751 38.6992C90.1205 36.7356 88.938 38.0416 88.8789 39.6392C88.8363 40.7888 89.4741 39.8084 89.9485 39.3799C91.5034 37.9755 92.6904 35.6163 92.3147 33.4158C91.9339 31.1852 87.0976 36.266 86.8692 36.6086C86.2829 37.488 86.1924 38.3766 86.2534 39.4123C86.2843 39.9383 88.8788 38.0236 89.1058 37.8403C89.2173 37.7502 90.6708 36.2358 90.1592 36.2358C88.8904 36.2358 87.9058 37.8869 87.2906 38.7316C86.746 39.4794 84.9275 41.486 86.9341 40.9844C88.3948 40.6192 90.2041 40.2626 90.9209 38.8289" stroke="black" stroke-opacity="0.85" stroke-width="3" stroke-linecap="round"/>
<path d="M79.6086 77.3362C79.6996 77.0862 79.9274 76.9062 80.2329 76.7769C79.9346 76.4314 79.7389 76.0716 79.9814 75.8776C81.5628 74.6125 83.6062 75.3794 84.875 76.7872C85.3706 76.65 86.3618 77.1853 86.6586 77.4821C87.2544 78.0779 86.5997 79.7655 86.3993 80.3669C86.1462 81.1262 86.1722 82.0038 85.3134 82.0038C83.8472 82.0038 82.3256 81.6272 81.1159 80.8207C80.2785 80.2625 79.2513 78.3188 79.6086 77.3362Z" fill="#996A42"/>
<path d="M83.6279 76.4611C82.8516 76.4763 79.9948 76.2742 79.6086 77.3362C79.2513 78.3188 80.2785 80.2625 81.1159 80.8207C82.3256 81.6272 83.8472 82.0038 85.3134 82.0038C86.1722 82.0038 86.1462 81.1262 86.3993 80.3669C86.5997 79.7655 87.2544 78.0779 86.6586 77.4821C86.3448 77.1683 85.2544 76.5878 84.7948 76.8176C83.8427 77.2937 83.3318 79.088 83.6927 80.0265C84.5263 82.1938 86.478 79.9093 85.7834 78.2114C84.8928 76.0343 82.0441 74.2275 79.9814 75.8776C79.4546 76.299 80.9953 77.5022 81.1645 77.6442C81.3539 77.803 84.2992 79.7594 83.5631 78.8597C83.1051 78.2999 81.7781 77.2766 81.1645 78.0655C80.0682 79.475 82.2709 79.6055 83.0445 79.67" stroke="black" stroke-opacity="0.85" stroke-width="3" stroke-linecap="round"/>
<path d="M61.457 52.8316C60.9824 51.3738 61.1557 50.4857 62.5105 49.7685C63.1185 49.4466 64.1213 49.1131 64.7956 49.4605C66.1317 50.1488 65.6652 53.415 64.0825 53.415C62.1189 53.415 61.3709 52.4911 63.2722 51.3081C66.4216 49.3485 64.2776 52.3782 63.2074 51.6647" stroke="black" stroke-opacity="0.85" stroke-width="3" stroke-linecap="round"/>
<path d="M28.4924 49.9144C27.2312 51.1976 25.9109 52.3336 25.8669 54.2254C25.8505 54.9303 25.617 55.804 26.2883 56.1702C29.1411 57.7262 30.1799 56.171 31.9769 54.0147C33.3067 52.4189 34.2172 50.3691 35.3317 48.6178C36.139 47.3492 31.8714 47.0247 31.1179 47.8723C30.4333 48.6424 30.0899 49.6556 29.5945 50.4978C29.0711 51.3875 27.0662 52.7418 27.0662 53.8364C27.0662 54.3417 29.6662 54.3625 30.0645 54.274C30.3545 54.2095 30.7147 53.3196 30.972 53.0909C31.9427 52.228 32.2848 50.276 32.2848 49.0392" stroke="black" stroke-opacity="0.85" stroke-width="3" stroke-linecap="round"/>
<path d="M32.1065 80.8207C32.8182 80.6625 33.1403 80.1641 33.0353 79.6458C31.8187 79.6326 30.0929 79.7423 29.9186 80.7883C29.9137 80.8173 31.9421 80.8572 32.1065 80.8207Z" fill="#996A42"/>
<path d="M33.4516 83.7541C31.1464 83.7541 26.4503 83.763 26.4503 80.5452C26.4503 79.5361 27.0244 79.4222 27.8441 78.9245C28.7059 78.4012 32.8945 77.6608 33.4516 78.3572C33.9502 78.9804 36.8094 80.2863 35.7206 81.6472C34.8166 82.7772 31.9888 83.069 30.6479 82.8627C28.6925 82.5619 26.7037 82.7529 27.05 80.1562C27.2703 78.5035 31.3744 77.9498 32.5117 78.8597C33.371 79.5471 33.1918 80.5795 32.1065 80.8207C31.9421 80.8572 29.9137 80.8173 29.9186 80.7883C30.1537 79.3774 33.2117 79.67 34.0351 79.67" stroke="black" stroke-opacity="0.85" stroke-width="3" stroke-linecap="round"/>
<path d="M59.4089 93.0645C58.0088 92.8087 55.0138 96.395 58.5398 94.3209C58.8678 94.128 59.2741 93.5615 59.4089 93.0645Z" fill="#996A42"/>
<path d="M58.8315 91.6306C57.5813 91.8246 54.1639 92.0453 54.1639 93.8347C54.1639 95.8964 54.7004 96.2982 56.6922 96.2982C58.1717 96.2982 59.1183 96.3355 60.1605 95.2933C61.0241 94.4297 60.5312 93.72 59.6418 93.1541C58.3914 92.3583 54.8024 96.5194 58.5398 94.3209C59.1676 93.9517 60.0822 92.2141 58.8315 92.2141C57.8796 92.2141 56.9249 92.7767 57.3729 93.6727" stroke="black" stroke-opacity="0.85" stroke-width="3" stroke-linecap="round"/>
<path d="M7.19672 92.2141C3.26521 93.0771 6.36052 94.9122 8.07189 93.3809C8.4498 93.0428 8.41566 92.3908 8.36361 91.9223C8.26664 91.0496 7.09287 91.5107 6.61327 91.6306" stroke="black" stroke-opacity="0.85" stroke-width="3" stroke-linecap="round"/>
<path d="M89.7541 6.44775C87.9862 7.78706 86.7305 9.74452 90.0944 9.34877C90.5658 9.29332 90.6292 8.49267 90.6292 8.13326C90.6292 7.13704 90.493 6.94561 89.4623 6.73948" stroke="black" stroke-opacity="0.85" stroke-width="3" stroke-linecap="round"/>
<path d="M86.4472 35.139C86.7912 34.3441 87.1372 34.0441 87.8913 33.9329C88.2557 33.8792 88.7155 33.8696 89.3165 33.8696C90.7557 33.8696 91.2641 35.3333 91.2127 36.722C91.1187 39.2585 89.6097 38.1994 88.0037 37.9699C87.3223 37.8726 86.4779 38.0783 85.9617 38.5372C84.9136 39.4688 85.6552 36.9739 85.67 36.56C85.6848 36.1435 85.9886 35.6371 86.4472 35.139Z" fill="#996A42"/>
<path d="M85.9617 36.4951C86.7695 34.0211 86.9272 33.8696 89.3165 33.8696C90.7557 33.8696 91.2641 35.3333 91.2127 36.722C91.1187 39.2585 89.6097 38.1994 88.0037 37.9699C87.3223 37.8726 86.4779 38.0783 85.9617 38.5372C84.9136 39.4688 85.6552 36.9739 85.67 36.56C85.7327 34.8022 90.9429 31.4412 91.2127 33.8696C91.3431 35.0434 91.7961 35.9926 91.7961 37.2244C91.7961 38.6049 91.3271 39.0691 90.921 40.2875" stroke="black" stroke-opacity="0.85" stroke-width="3" stroke-linecap="round"/>
</svg>
