<svg width="100" height="100" viewBox="0 0 100 100" fill="none" xmlns="http://www.w3.org/2000/svg">
<path d="M0 0H100V100H0V0Z" fill="#81532B"/>
<path d="M16.5665 12.0789C14.5115 12.4563 13.3034 14.4953 12.5117 16.2698C12.0777 17.2426 11.5867 18.0968 11.672 19.205C11.8032 20.9115 13.148 22.3745 14.1911 23.6532C14.854 24.4659 15.5129 25.0461 15.6436 26.1496C15.8292 27.7172 15.3232 29.3043 14.8719 30.7869C14.7 31.352 14.5124 31.9138 14.5239 32.5042C14.5337 32.9993 14.7632 33.2507 15.1291 33.5708C16.0113 34.3428 16.8759 35.1549 17.9584 35.6361C18.6372 35.9377 20.3357 36.7344 20.8709 35.9614C21.4454 35.1316 21.7296 34.3519 21.8468 33.3363C22.0312 31.7381 21.5713 30.4251 20.6515 29.1605C19.5959 27.709 18.5006 26.3611 18.4728 24.4702C18.448 22.7809 19.6028 21.3789 19.1461 19.7043C18.8625 18.6645 18.4392 18.204 18.7452 17.0566C19.0704 15.8372 20.0598 14.8309 20.5456 13.6826C20.674 13.3791 21.0438 13.0467 20.5002 12.8354C20.1847 12.7126 19.3475 12.651 19.0175 12.79C18.1738 13.1452 17.3393 13.2275 16.6421 13.9247C15.6157 14.9511 15.4771 16.1824 15.4771 17.5332C15.4771 19.5292 15.7523 21.4997 16.2941 23.4263C16.962 25.8008 17.9491 27.9012 18.2686 30.3936C18.3646 31.1427 18.4198 31.8906 18.5031 32.6404C18.6075 33.5799 18.4221 34.3455 19.1537 34.9552" stroke="#00A86B" stroke-opacity="0.8" stroke-width="5" stroke-linecap="round"/>
<path d="M66.8128 27.6021C67.1449 25.8087 68.1933 22.4644 70.3078 22.0192C71.4937 21.7695 72.6766 21.7019 73.886 21.7544C74.7326 21.7912 75.02 22.0756 75.6637 22.5941C76.7445 23.4648 77.0845 25.1692 77.9332 26.2556C78.9046 27.499 80.3805 27.3021 80.7776 29.0395C81.2403 31.0637 79.7086 31.6706 78.2207 32.5799C77.4971 33.0221 76.4302 33.0733 75.6108 33.2531C75.127 33.3593 74.6476 33.5529 74.1508 33.586C73.6847 33.6171 73.2514 33.4574 72.8042 33.4574C71.7499 33.4574 70.1571 34.83 69.8009 35.7798C69.7016 36.0447 69.1609 37.116 68.8553 37.134C68.5752 37.1504 68.3509 37.0181 68.0988 36.907C67.2332 36.5254 66.3126 36.2635 65.4662 35.8403C64.0634 35.139 63.3479 34.2772 63.4086 32.6404C63.4777 30.7733 65.3541 29.9547 66.7069 29.1151C67.7918 28.4417 68.5649 27.3214 69.4 26.4371C70.3361 25.4459 72.3129 26.1008 73.2203 26.7246C73.6319 27.0076 73.9851 27.4611 74.4458 27.6627C74.777 27.8076 75.1053 27.8224 75.2855 28.1468C75.784 29.044 76.4299 30.3612 74.9602 30.8021C73.4289 31.2615 71.6156 31.4149 70.0203 31.4149C69.2534 31.4149 69.061 31.3051 68.7494 31.9595C68.2384 33.0325 68.2011 34.0879 68.0383 35.2276" stroke="#00A86B" stroke-opacity="0.8" stroke-width="5" stroke-linecap="round"/>
<path d="M16.4303 14.3938C13.4183 14.4691 14.6679 19.7845 15.3107 21.2628C16.3091 23.5592 16.7026 26.1864 16.7026 28.6915" stroke="#00A86B" stroke-opacity="0.8" stroke-width="5" stroke-linecap="round"/>
<path d="M66.2681 34.1381C65.9724 32.758 65.5835 31.4282 66.1017 30.0531C66.675 28.5315 67.5278 27.1871 68.9234 26.3084C71.2268 24.8581 73.3809 23.1774 75.9361 22.1553" stroke="#00A86B" stroke-opacity="0.8" stroke-width="5" stroke-linecap="round"/>
<path d="M89.0083 63.1422C88.6271 65.2009 87.374 67.1392 86.4211 68.9975C85.416 70.9574 85.3624 73.1311 86.0731 75.2159C86.3581 76.0518 86.7365 76.9815 87.1322 77.7728C87.5197 78.5479 88.1238 79.4224 88.0475 80.3373C87.9266 81.7881 87.5264 85.0654 85.4982 85.0654C84.1647 85.0654 83.1374 84.0739 82.9109 82.7657C82.7771 81.9921 82.4228 81.0225 82.684 80.239C82.9329 79.4924 83.0985 78.7695 83.2211 77.9846C83.5187 76.08 81.9051 74.4781 80.3237 73.7483C79.8759 73.5416 78.584 73.0696 78.5233 72.4017C78.4455 71.5467 78.2509 70.7993 78.2509 69.9204C78.2509 69.0026 78.2162 68.1942 78.6595 67.371C79.001 66.7368 79.442 65.5757 80.0211 65.1545C80.7416 64.6305 81.2104 63.9957 82.0032 63.5583C82.4649 63.3036 83.0003 63.2448 83.4556 62.9758C83.7577 62.7973 84.0082 62.5143 84.371 62.469C87.2386 62.1105 85.6519 66.2961 84.8476 67.5148C84.2682 68.3926 83.266 68.8339 82.6689 69.6481C82.1647 70.3355 81.6189 70.912 81.5266 71.789C81.4323 72.6847 81.7987 73.7753 82.1393 74.5804C82.9217 76.4296 84.1183 77.9876 84.7114 79.9364C85.1962 81.5294 84.6835 84.047 83.97 85.4739" stroke="#00A86B" stroke-opacity="0.8" stroke-width="5" stroke-linecap="round"/>
<path d="M42.3024 59.874C40.5289 59.5279 38.5745 61.1384 37.4306 62.3704C36.4314 63.4464 37.5384 66.1124 37.9601 67.1666C38.1699 67.6909 38.7714 68.2564 38.8906 68.793C38.9825 69.2067 38.9163 69.8109 38.8906 70.2228C38.8529 70.8258 38.4485 71.2206 38.3611 71.7887C38.2533 72.4888 38.5965 73.1664 39.0646 73.6573C39.5787 74.1965 39.8515 74.469 40.6381 74.6559C41.5877 74.8814 42.7428 75.1961 43.6943 74.8223C45.1794 74.2389 45.6626 72.4057 46.1908 71.123C46.4489 70.4961 46.4482 69.7881 46.3194 69.1183C46.1399 68.1852 46.2388 67.1465 46.2513 66.1983C46.2784 64.1401 47.1445 62.3299 48.8839 61.1903C49.9277 60.5064 50.023 60.0229 49.9203 58.7392C49.8831 58.2749 49.4561 57.9323 49.0276 57.8314C48.3762 57.6782 47.1297 57.3936 46.4934 57.5894C45.4296 57.9167 44.4247 58.4951 43.6036 59.1931C42.8023 59.8742 41.6267 59.8688 40.8348 60.6607C40.2711 61.2244 40.1237 61.66 40.1237 62.4385C40.1237 63.6283 40.8249 64.6702 41.561 65.5401C42.2235 66.323 42.6465 67.5061 42.8924 68.4677C43.0679 69.1535 43.2272 70.4577 42.8471 71.0701C42.4617 71.691 41.7724 73.1674 41.7577 71.5694C41.74 69.6341 42.0173 68.0499 43.1118 66.4403C43.8451 65.362 44.6305 64.3392 45.5477 63.4219C45.9883 62.9814 47.0683 62.1592 47.0683 61.508" stroke="#00A86B" stroke-opacity="0.8" stroke-width="5" stroke-linecap="round"/>
<path d="M17.2473 91.6013C16.9458 91.8166 14.4142 92.9326 15.3863 93.5682C16.8905 94.5516 19.4143 94.8319 21.1962 94.9753C22.5631 95.0852 24.1176 94.7245 25.478 94.5668C27.043 94.3853 27.8956 93.5626 28.2467 92.0703C28.8084 89.6833 27.4758 87.2439 24.8274 87.2439C23.9163 87.2439 22.6978 87.3675 21.8468 87.6827C20.9043 88.0317 20.0724 88.5934 19.1083 88.8779C18.1916 89.1484 16.5864 89.9382 15.6133 89.5285C15.0424 89.2881 14.7346 89.8244 14.5542 90.3455C14.4492 90.6488 14.4601 91.3258 14.5542 91.6316C14.7578 92.2933 15.3897 92.2845 15.9613 92.5545C16.5825 92.8478 17.2461 92.8891 17.8979 93.0689C19.2557 93.4435 20.6534 92.7135 21.7409 92.0098C22.2444 91.684 22.8345 91.4845 23.3673 91.2004C23.8188 90.9596 24.2391 90.5405 24.7366 90.406C25.9862 90.0683 26.8602 90.4322 28.0046 90.7843" stroke="#00A86B" stroke-opacity="0.8" stroke-width="5" stroke-linecap="round"/>
<path d="M87.7828 64.9124C87.1126 65.4423 86.1916 65.8325 85.657 66.4859C84.9843 67.308 84.7391 68.3469 84.545 69.3757C84.1923 71.2449 84.792 73.2273 85.2258 75.0494C85.9247 77.9846 86.6126 80.8951 85.8764 83.8398" stroke="#00A86B" stroke-opacity="0.8" stroke-width="5" stroke-linecap="round"/>
<path d="M39.579 73.8993C39.3567 72.3188 39.5049 70.4214 38.8301 68.9368C38.3464 67.8726 38.2765 66.3194 38.5729 65.1997C39.0952 63.2263 41.234 61.9375 42.8773 61.0087C44.0302 60.3571 45.4315 60.3487 46.6522 59.874C47.0963 59.7013 47.4576 59.3357 47.8853 59.1931" stroke="#00A86B" stroke-opacity="0.8" stroke-width="5" stroke-linecap="round"/>
<path d="M14.5239 91.8738C14.9976 92.4623 15.211 92.8139 15.9915 92.8269C16.6131 92.8373 17.1623 92.7138 17.7617 92.5546C18.2425 92.4269 18.7889 92.5263 19.2444 92.3579C19.9607 92.0932 20.6785 91.7783 21.4231 91.6014C22.6239 91.3163 23.6657 90.7109 24.8425 90.3457C25.6809 90.0854 26.3392 89.4332 27.1876 89.1504" stroke="#00A86B" stroke-opacity="0.8" stroke-width="5" stroke-linecap="round"/>
</svg>
