<svg width="100" height="100" viewBox="0 0 100 100" fill="none" xmlns="http://www.w3.org/2000/svg">
<path d="M0 0H100V100H0V0Z" fill="#81532B"/>
<path d="M16.8033 17.1966C15.9739 19.6361 15.0224 22.205 13.8193 24.4776C12.8215 26.3623 12.3235 27.9665 12.745 30.0743C13.1556 32.1269 14.154 34.0723 15.6628 35.5252C16.9725 36.7864 18.6677 36.9056 19.8537 38.4429C20.2502 38.9568 20.9412 39.5768 21.0871 40.2333C21.1806 40.6541 21.2522 41.2944 21.4584 41.6656C21.9361 42.5255 21.3811 43.8243 21.591 44.769C22.0395 46.787 25.3255 47.569 26.9357 47.753C29.1988 48.0117 31.4777 48.0515 32.0815 45.4852C32.4623 43.8671 32.5313 42.8611 32.1346 41.1749C31.8652 40.0299 31.328 39.3545 30.6492 38.3898C29.9296 37.3672 29.04 35.868 28.1294 35.0875C27.1928 34.2847 26.0011 33.187 25.278 32.2228C24.868 31.6763 24.4417 31.2857 24.1507 30.6711C23.817 29.9667 24.0506 29.1627 23.7793 28.4165C23.4617 27.5432 23.8113 25.2665 24.3894 24.5439C24.7046 24.1499 24.7586 23.5882 25.1586 23.1647C25.7342 22.5552 26.2049 21.8255 26.7766 21.2018C27.6271 20.274 28.3124 18.0334 28.262 16.7722C28.1581 14.1749 23.2213 13.8545 21.4717 13.8545C19.377 13.8545 18.5291 17.6183 17.6256 19.0533C15.9514 21.7124 17.042 25.594 17.042 28.4961C17.042 31.4133 17.9707 36.1354 20.7555 37.7267C22.6984 38.8369 23.3326 43.1884 25.8748 43.456C26.8056 43.554 28.6856 45.2262 29.575 44.1589C31.1673 42.2482 28.7177 40.3809 27.3469 39.6497C25.5203 38.6755 24.2653 36.4247 23.1427 34.7559C21.9964 33.0519 20.3937 31.2692 19.721 29.3184C18.8281 26.729 19.7215 23.9667 20.9942 21.6527C21.9905 19.8414 23.5752 18.2148 24.4424 16.4804" stroke="#9966CC" stroke-opacity="0.8" stroke-width="5" stroke-linecap="round"/>
<path d="M87.4651 31.7588C87.8029 32.8913 88.1606 34.1499 88.6057 35.207C88.9839 36.1051 88.6587 37.6565 88.6587 38.6287C88.6587 40.3122 89.0125 42.4015 88.6455 44.053C88.4776 44.8085 87.8512 45.574 87.5845 46.3208C87.2639 47.2185 87.0855 48.2533 86.8816 49.1855C86.4773 51.0337 86.0033 53.8339 86.802 55.631C88.0654 58.4736 90.8509 63.2265 88.0487 66.0287C86.0785 67.9989 83.9028 67.9901 81.2849 67.5538C79.0498 67.1813 77.4957 64.3683 77.147 62.3152C76.3224 57.4588 80.02 54.2151 80.7809 49.6497C81.5329 45.138 80.3104 40.9569 78.3937 37.0107C77.3179 34.7958 77.3678 30.9329 77.9693 28.6023C78.3476 27.1365 79.1489 26.7456 80.6615 26.7456C81.5531 26.7456 82.3552 27.3179 83.1681 27.7005C84.8275 28.4814 86.4976 29.2169 87.4651 30.91C87.9703 31.794 87.6657 33.2238 87.107 34.0929C87.0265 34.2183 85.3477 32.2407 84.9983 31.8914C84.3587 31.2518 84.0019 31.2342 83.1151 30.9896C81.0352 30.4158 81.8523 33.7019 81.0727 34.6765C80.6209 35.2413 81.4533 38.2029 82.452 37.8462C83.0938 37.617 83.2821 37.035 83.4201 36.4139C83.7561 34.9021 85.6272 38.0003 86.0328 38.4297C87.3875 39.8642 87.2639 40.4103 86.4572 42.0238C85.7401 43.458 84.9249 45.1695 84.8392 46.7983C84.8206 47.1516 84.8392 48.8736 84.8392 48.3632C84.8392 46.0467 84.8392 43.7302 84.8392 41.4138C84.8392 40.6829 85.11 39.299 84.8259 38.5889C84.4174 37.5675 84.1637 40.6967 84.0037 41.7851C83.735 43.6121 84.0771 45.4782 83.6986 47.2757C83.2438 49.4362 83.6456 52.1587 83.6456 54.3578C83.6456 56.2191 83.5435 59.0758 84.4811 60.7635C84.8275 61.387 85.3353 62.5306 84.8392 63.1507C84.0999 64.0749 82.2279 63.4974 81.5501 62.8457C79.5904 60.9613 80.5231 57.8367 81.2584 55.631" stroke="#9966CC" stroke-opacity="0.8" stroke-width="5" stroke-linecap="round"/>
<path d="M50.4632 92.3942C47.3439 93.0029 43.9674 92.672 40.8082 92.633C38.6265 92.606 34.153 92.0998 33.5139 89.3837C33.0779 87.5305 33.3023 85.6015 34.0975 83.8666C34.63 82.7047 35.7811 82.5133 36.7499 81.8905C37.5896 81.3507 38.3185 80.6155 39.2167 80.1664C39.9853 79.7821 40.817 79.7961 41.604 79.5032C42.4268 79.1971 43.7616 78.5657 44.3758 77.9515C45.5607 76.7666 46.2129 75.2589 47.2404 74.0259C48.6935 72.2823 52.7598 73.5325 54.4154 74.384C55.7028 75.0461 57.1474 78.0793 57.1474 79.5032C57.1474 80.8349 56.3689 83.1583 57.2005 84.2777C57.622 84.8451 58.5791 85.7059 59.2959 85.8957C59.7453 86.0146 60.53 85.7352 60.7813 86.1875C61.8236 88.0636 62.4722 89.6572 60.7415 91.5322C59.6347 92.7312 57.0634 92.1555 55.5825 92.1555C54.0442 92.1555 52.3028 91.9233 50.7948 91.6913C47.7228 91.2187 44.6584 90.7112 41.6172 90.1264C40.2919 89.8715 37.3335 89.8508 37.3335 88.2829C37.3335 84.9636 41.4509 84.6692 43.779 83.3758C45.1036 82.6399 46.2076 81.46 47.1211 80.2725C47.4899 79.793 48.4774 79.1476 49.0309 78.8401C49.9012 78.3566 49.7781 78.64 50.7815 78.7738C51.1491 78.8228 51.5677 78.5484 52.0149 78.5484C52.5325 78.5484 53.1887 79.4341 53.5135 79.795C54.3055 80.675 53.7615 82.6667 54.4154 83.6941C55.2549 85.0135 55.5399 85.7728 56.7761 86.7843C58.3456 88.0684 58.8832 88.6443 56.3782 89.7683C54.6072 90.563 53.0982 90.4856 51.312 89.954C48.6262 89.1546 45.7398 89.3356 42.9832 88.8267C42.3592 88.7115 40.3919 88.7419 39.8533 88.2033C38.7329 87.0829 43.2596 85.246 43.832 84.9939C45.0907 84.4394 46.3734 83.9806 47.7312 83.7472C48.598 83.5982 49.6418 83.7713 50.4632 83.5085C50.7491 83.417 51.5546 83.088 51.8425 83.3758C52.6127 84.1461 50.529 85.9994 50.2245 86.5323C49.9322 87.0438 49.6598 86.7274 49.2431 86.519C48.1094 85.9522 47.1125 85.9086 47.519 84.5429C48.3885 81.6213 50.6005 79.3488 51.2855 76.4131C51.9758 73.4544 49.7726 74.1019 47.8903 75.6704C45.3006 77.8285 44.7635 81.2782 41.9753 83.2697C41.1185 83.8818 40.1043 84.2328 39.1902 84.7551C38.3936 85.2103 37.4087 85.1282 36.9754 86.0814C36.139 87.9213 43.0822 88.336 44.2564 88.336" stroke="#9966CC" stroke-opacity="0.8" stroke-width="5" stroke-linecap="round"/>
<path d="M49.9858 86.426C50.7527 87.7361 50.7062 87.9988 52.1609 87.739C53.1731 87.5582 55.203 87.9278 55.7152 86.9035" stroke="#9966CC" stroke-opacity="0.8" stroke-width="5" stroke-linecap="round"/>
</svg>
