<svg width="100" height="100" viewBox="0 0 100 100" fill="none" xmlns="http://www.w3.org/2000/svg">
<rect width="100" height="100" fill="#7A5230"/>
<path d="M20.6881 61.9565C21.7105 61.358 22.6885 60.88 23.7567 60.4222" stroke="#4B2706" stroke-opacity="0.2" stroke-width="4" stroke-linecap="round"/>
<path d="M48.3052 65.0251C49.1309 62.8122 50.018 60.7072 50.3509 58.3765" stroke="#4B2706" stroke-opacity="0.2" stroke-width="4" stroke-linecap="round"/>
<path d="M49.8395 30.248L47.2823 28.2022" stroke="#4B2706" stroke-opacity="0.2" stroke-width="4" stroke-linecap="round"/>
<path d="M24.2681 39.4537C24.1663 34.0575 22.2224 29.0131 22.2224 23.5994" stroke="#4B2706" stroke-opacity="0.2" stroke-width="4" stroke-linecap="round"/>
<path d="M64.6709 22.0651L67.7395 20.5308" stroke="#4B2706" stroke-opacity="0.2" stroke-width="4" stroke-linecap="round"/>
<path d="M88.1966 54.7965C87.7555 51.9049 87.4852 49.0095 87.1737 46.1022" stroke="#4B2706" stroke-opacity="0.2" stroke-width="4" stroke-linecap="round"/>
<path d="M82.5709 83.9479C80.9964 79.83 79.024 76.7695 76.4337 73.2079" stroke="#4B2706" stroke-opacity="0.2" stroke-width="4" stroke-linecap="round"/>
<path d="M56.4881 91.6193C56.8565 89.0037 57.4386 86.5164 58.0224 83.9479" stroke="#4B2706" stroke-opacity="0.2" stroke-width="4" stroke-linecap="round"/>
<path d="M21.711 81.3907C20.2428 77.8066 18.734 74.3682 16.5967 71.1622" stroke="#4B2706" stroke-opacity="0.2" stroke-width="4" stroke-linecap="round"/>
<path d="M38.0766 78.3222C33.3157 81.9555 28.7076 84.5887 23.2452 87.0164" stroke="#4B2706" stroke-opacity="0.2" stroke-width="4" stroke-linecap="round"/>
<path d="M7.9024 28.7137C9.6053 25.446 11.4661 22.3193 13.0167 18.9966" stroke="#4B2706" stroke-opacity="0.2" stroke-width="4" stroke-linecap="round"/>
<path d="M30.4052 11.8365C32.0809 9.76666 33.7883 7.7192 35.5195 5.6994" stroke="#4B2706" stroke-opacity="0.2" stroke-width="4" stroke-linecap="round"/>
<path d="M84.1052 12.348C86.2393 15.9049 88.3109 19.6223 91.2652 22.5765" stroke="#4B2706" stroke-opacity="0.2" stroke-width="4" stroke-linecap="round"/>
<path d="M74.8995 42.0108C73.6252 44.1006 72.5295 46.4265 70.808 48.1479" stroke="#4B2706" stroke-opacity="0.2" stroke-width="4" stroke-linecap="round"/>
</svg>
