<svg width="100" height="100" viewBox="0 0 100 100" fill="none" xmlns="http://www.w3.org/2000/svg">
<rect width="100" height="100" fill="#7A5230"/>
<path d="M7.04224 83.9479C8.21973 85.879 9.21322 87.3985 11.1337 88.5507" stroke="#4B2706" stroke-opacity="0.2" stroke-width="4" stroke-linecap="round"/>
<path d="M71.9936 88.0393C73.1126 83.9212 74.4566 79.8607 75.5736 75.765" stroke="#4B2706" stroke-opacity="0.2" stroke-width="4" stroke-linecap="round"/>
<path d="M53.5822 87.5279C53.4981 82.4822 51.3253 78.3891 49.4908 73.7193" stroke="#4B2706" stroke-opacity="0.2" stroke-width="4" stroke-linecap="round"/>
<path d="M13.6908 60.4222C14.9075 58.0931 16.2595 55.9054 17.7822 53.7736" stroke="#4B2706" stroke-opacity="0.2" stroke-width="4" stroke-linecap="round"/>
<path d="M44.8879 45.0794C47.402 43.2896 50.0028 41.6694 52.5593 39.9651" stroke="#4B2706" stroke-opacity="0.2" stroke-width="4" stroke-linecap="round"/>
<path d="M80.6879 50.7051C81.6598 48.6864 82.4348 46.6513 83.245 44.5679" stroke="#4B2706" stroke-opacity="0.2" stroke-width="4" stroke-linecap="round"/>
<path d="M35.1708 19.508C31.0739 17.8497 29.0516 15.258 25.4536 12.8594" stroke="#4B2706" stroke-opacity="0.2" stroke-width="4" stroke-linecap="round"/>
<path d="M75.0622 17.4622L78.1307 14.3937" stroke="#4B2706" stroke-opacity="0.2" stroke-width="4" stroke-linecap="round"/>
<path d="M29.5451 75.765C29.1416 71.8317 29.0336 67.9513 29.0336 64.0022" stroke="#4B2706" stroke-opacity="0.2" stroke-width="4" stroke-linecap="round"/>
<path d="M61.765 58.3765C66.0472 58.7843 70.2505 58.8879 74.5507 58.8879" stroke="#4B2706" stroke-opacity="0.2" stroke-width="4" stroke-linecap="round"/>
<path d="M20.3394 34.3394L17.7822 34.8508" stroke="#4B2706" stroke-opacity="0.2" stroke-width="4" stroke-linecap="round"/>
<path d="M89.8936 31.2708C90.8256 28.7355 91.6748 26.1858 92.4507 23.5994" stroke="#4B2706" stroke-opacity="0.2" stroke-width="4" stroke-linecap="round"/>
<path d="M86.3136 69.1165C88.6559 70.7292 91.1201 72.1503 93.4736 73.7193" stroke="#4B2706" stroke-opacity="0.2" stroke-width="4" stroke-linecap="round"/>
<path d="M13.6908 20.5308C13.1927 17.7638 12.1078 15.4572 11.1337 12.8594" stroke="#4B2706" stroke-opacity="0.2" stroke-width="4" stroke-linecap="round"/>
</svg>
