<svg width="100" height="100" viewBox="0 0 100 100" fill="none" xmlns="http://www.w3.org/2000/svg">
<rect width="100" height="100" fill="#7A5230"/>
<rect x="5" y="6" width="90" height="90" fill="#7A5230"/>
<path d="M8.66723 90.7774C11.3333 91.1799 14.1753 91.4518 16.8719 91.4518C18.5279 91.4518 20.1161 91.0751 21.7548 91.0022C23.5036 90.9245 23.3685 89.3269 22.8288 88.1799C22.2337 86.9154 20.6859 87.2612 19.5319 87.1309C18.3364 86.9959 17.0275 87.2723 15.8479 87.518C14.603 87.7774 13.4775 87.4695 12.2638 87.4057C11.4486 87.3627 9.04329 87.1435 8.4924 88.08C7.96641 88.9742 7.53901 89.6912 8.94197 89.9657C10.7297 90.3155 13.0092 90.3184 14.7864 89.9283C17.0703 89.4269 19.5442 89.8783 21.9296 89.8783C23.0876 89.8783 21.8518 89.4493 21.3552 89.3413C20.1573 89.0809 18.9929 89.8257 17.8835 90.1031" stroke="#828482" stroke-opacity="0.54" stroke-width="3" stroke-linecap="round"/>
<path d="M49.8031 84.2587C49.8031 80.6239 50.6248 77.7798 51.8512 74.3681C52.4687 72.6503 53.119 70.7723 54.3488 69.3728C56.3947 67.0447 58.44 63.7945 61.8042 63.1537C65.1008 62.5258 67.4522 66.9288 67.5488 69.5851C67.7393 74.8264 65.5384 77.9308 61.8916 81.5113C59.6816 83.6811 57.1272 85.3691 54.5486 87.056C53.8263 87.5285 52.9203 88.3048 52.001 88.3048C49.1983 88.3048 49.2001 85.4255 49.366 83.1847C49.4735 81.7341 49.5125 80.547 50.4026 79.3758C51.8118 77.5215 53.4021 75.8985 54.9233 74.1433C57.2597 71.4474 64.6375 63.727 61.9416 66.0635C60.0597 67.6945 58.067 69.5191 56.4718 71.4334C55.762 72.2851 55.6267 73.25 55.0731 74.1558C54.1815 75.6147 53.5377 77.2065 52.7378 78.7139C52.3511 79.4428 51.4222 80.6951 51.3766 81.5612C51.3357 82.3385 52.2055 82.9234 52.4506 83.6343C52.6359 84.1715 52.3024 84.4539 52.2758 84.933C52.2127 86.0688 56.3428 84.2207 57.0837 83.5968C58.8874 82.0779 60.1763 79.8807 61.9666 78.2769C62.9993 77.3517 66.3491 75.4589 66.4373 73.6937C66.5107 72.2268 66.0041 71.2317 65.7754 69.8599C65.622 68.9392 65.4621 67.8731 64.7639 67.1749C63.8203 66.2313 61.8785 65.765 60.5929 65.8262C59.7481 65.8664 58.7213 67.4485 58.5573 68.1865C58.2528 69.5568 56.4737 70.6447 55.5602 71.5582C54.2301 72.8883 53.7654 74.8914 52.5505 76.2413C50.2938 78.7488 55.9209 70.1809 58.5948 68.124C59.0017 67.811 59.7093 66.6005 60.2682 66.6005C60.8482 66.6005 61.9928 69.3863 62.2663 69.9723C62.7843 71.0824 61.9834 72.3278 61.2672 73.1193C60.7787 73.6592 60.3597 74.4378 59.9685 75.0424C59.1019 76.3816 57.9491 77.35 56.8964 78.5266C56.1037 79.4125 54.7484 80.6098 54.7484 81.8984C54.7484 82.8614 56.8432 81.9063 57.1586 81.6112C58.5138 80.3434 59.6074 78.9107 60.7177 77.4402C62.1197 75.5835 63.5979 74.0896 65.1385 72.3949C66.3822 71.0269 64.6521 70.5916 63.4152 69.8848C62.2135 69.1982 60.2753 71.0201 59.2317 71.5582C57.2521 72.579 55.6328 73.7622 54.4487 75.6793C54.0269 76.3623 53.7478 76.973 53.5121 77.7274C53.1631 78.8443 56.0073 77.7307 56.4468 77.565C58.5916 76.7568 58.6024 73.4037 59.4689 71.6706" stroke="#828482" stroke-opacity="0.54" stroke-width="3" stroke-linecap="round"/>
<path d="M51.6014 86.7313C52.2183 83.3727 53.1302 80.1115 53.7993 76.7658C54.1445 75.0397 55.4982 72.705 56.9463 71.6706C57.7909 71.0674 58.9257 70.8225 59.6937 70.0971C60.3231 69.5027 60.7659 68.9317 61.3671 68.2988C62.0255 67.6058 62.7675 67.0785 63.4651 66.4506C63.7072 66.2327 62.479 67.8495 62.1664 68.1989C60.9693 69.5368 60.4533 71.6818 59.8186 73.344C59.3613 74.5418 58.3762 76.5358 57.4459 77.5151C55.2521 79.8242 51.6014 81.1995 51.6014 84.7082C51.6014 85.4379 52.6738 87.3822 52.2258 86.8062C51.7698 86.2199 51.8631 84.8055 51.8387 84.1588C51.7941 82.9776 51.6841 81.636 51.8761 80.4623C52.4536 76.9333 55.0203 74.3247 57.9454 72.5198C58.6963 72.0565 59.8031 71.5451 60.3806 70.8714C60.904 70.2607 61.481 69.5723 62.1664 69.148C62.8522 68.7235 63.8325 67.6639 64.1894 66.9501" stroke="#828482" stroke-opacity="0.54" stroke-width="3" stroke-linecap="round"/>
<path d="M32.7194 15.6989C30.4125 17.3766 27.9492 18.672 25.4013 19.9823C22.8341 21.3026 21.1865 23.1115 19.432 25.3397C18.0126 27.1423 16.8868 28.9575 16.772 31.309C16.6693 33.4145 16.8872 35.3933 17.4339 37.4282C18.0632 39.7705 19.3794 41.0073 21.8797 41.7991C27.0717 43.4432 33.1382 38.9582 36.1411 35.1804C38.4144 32.3205 39.4843 28.1469 39.9625 24.6404C40.1706 23.1143 41.1233 20.718 40.3621 19.1956C39.5408 17.553 39.108 17.7593 37.3899 17.722C36.352 17.6994 35.3439 17.4972 34.2929 17.4972C33.2851 17.4972 32.7779 18.178 32.045 18.7959C29.8594 20.6387 27.7443 22.6032 25.5012 24.3656C23.4755 25.9573 21.8268 27.3816 20.456 29.5357C20.1288 30.05 19.9284 30.8724 19.9066 31.4839C19.8636 32.6881 19.457 33.8433 19.457 35.043C19.457 35.5934 19.068 36.8894 19.457 37.2784C20.0889 37.9102 21.0834 38.0328 21.8922 38.3024C23.553 38.856 27.838 40.4139 29.1728 38.6521C30.4271 36.9964 31.7785 35.3656 33.2189 33.8566C34.3666 32.6543 35.6171 31.5342 36.5907 30.2101C37.6141 28.8183 37.6798 27.691 38.1142 26.089C38.744 23.7667 38.9767 21.6155 36.5283 20.5443C34.227 19.5375 31.7479 21.0369 29.46 21.306C26.4261 21.663 23.7665 22.6725 21.8797 25.1399C20.3397 27.1537 18.5977 28.7819 17.5338 31.1092C16.8813 32.5366 17.4339 34.5054 17.4339 36.042C17.4339 37.6991 18.1834 38.3155 19.8192 38.6271C20.9415 38.8409 21.9101 38.8166 22.4916 39.8634C23.1663 41.0778 24.195 39.5948 25.0017 39.3014C27.7859 38.289 29.6498 37.0983 31.508 34.6683C33.0862 32.6045 34.1663 30.2947 35.6541 28.187C36.5412 26.9302 37.7589 24.9971 38.1018 23.454C38.2447 22.8109 38.6397 21.5313 38.2891 20.869C38.088 20.4891 37.6513 20.3332 37.4399 19.8574C37.0616 19.0064 36.9881 18.7539 35.9413 18.8958C33.8833 19.1749 31.8544 20.4641 30.1968 21.6432C27.3784 23.648 24.6489 25.2752 22.4042 27.8623C20.5613 29.9863 18.5578 32.7268 18.1208 35.5675C17.8644 37.2338 19.7016 38.0129 21.043 37.141C25.6377 34.1545 28.0867 29.0982 31.9201 25.2648C32.6942 24.4907 34.4808 23.4027 35.6416 23.3416C37.3092 23.2538 36.755 27.198 36.1411 28.237C34.4455 31.1065 32.3991 33.3363 29.997 35.6049C29.3354 36.2298 27.2266 37.5008 26.2505 37.4032C25.6952 37.3477 24.051 35.1955 23.7279 34.4685C23.389 33.7058 22.3249 35.4814 22.2044 35.7548C21.7721 36.7358 22.1296 37.3026 23.0411 37.8153C24.1538 38.4413 25.7676 36.5401 26.4254 35.9421C28.5443 34.0158 31.1295 32.5579 32.9067 30.2475C33.3742 29.6398 33.9093 29.062 34.3678 28.4368C34.8447 27.7865 34.8793 27.2064 35.192 26.4636C35.5608 25.5878 36.0347 23.427 35.5916 22.4425C34.7231 20.5124 30.6696 24.046 29.5724 24.6404C28.0583 25.4605 26.3934 26.6694 25.0766 27.7874C23.3284 29.2717 21.8601 30.6456 20.9306 32.7701C20.7189 33.254 20.7931 33.8889 20.8057 34.4061C20.8403 35.8246 22.7174 34.9661 23.4782 34.6808C25.0951 34.0745 26.5304 32.5195 27.899 31.4839C28.3091 31.1735 28.7687 30.7232 28.8855 30.1976C29.3276 28.2083 30.9814 26.3014 32.5945 25.1399C33.025 24.8299 33.8433 23.6228 33.8433 24.1533C33.8433 25.5145 34.1113 26.856 34.0681 28.237C34.0485 28.8633 33.1367 29.864 32.5945 30.1352C31.3192 30.7728 29.8132 31.1394 28.3985 31.2965C26.4357 31.5146 28.4192 29.1165 28.923 28.4867C30.0051 27.1341 31.003 26.2035 32.6195 25.7019C34.7926 25.0274 33.7347 26.0642 32.8692 27.4127C31.8432 29.0114 29.2313 28.7421 27.6742 29.4608C26.5181 29.9944 25.4535 30.6027 24.3149 31.1842C23.3391 31.6824 22.2554 31.7032 22.654 33.0074C22.9292 33.9081 23.7148 34.7265 24.4772 34.0814C26.9182 32.016 29.8749 30.5694 31.9451 28.0621C33.082 26.6852 33.7257 25.0417 34.6425 23.5414C34.965 23.0137 35.4168 22.4065 35.4168 21.7681" stroke="#828482" stroke-opacity="0.54" stroke-width="3" stroke-linecap="round"/>
<path d="M21.9296 38.6271C23.9804 37.2958 26.4371 36.4508 28.3985 35.0305C29.4332 34.2812 30.1082 32.9768 30.971 32.0583C33.3337 29.5432 35.2494 26.274 36.7905 23.1918C37.137 22.4988 37.3882 21.6643 37.8395 21.0438C37.875 20.995 37.925 19.9987 38.0643 20.2945C38.6696 21.5808 36.9727 24.7244 36.7156 26.1389C35.8449 30.9278 34.0869 35.6663 29.6223 38.1275C27.4702 39.3139 25.0019 39.9115 22.8288 41.0498C22.6278 41.155 21.162 41.9549 20.9306 41.6242C20.758 41.3777 24.0469 39.5917 24.3773 39.4013C26.0149 38.4576 27.7832 37.7188 29.1228 36.3792C30.4295 35.0725 31.24 33.5008 32.3197 31.9584C33.9478 29.6327 34.481 26.7397 35.5916 24.2408C35.704 23.988 35.8204 21.3301 35.8664 22.892C35.9055 24.2231 35.49 25.3682 35.0671 26.6135C34.5387 28.1693 33.8701 29.6917 32.9441 31.0343C32.2348 32.0629 31.4492 33.0187 30.4465 33.7817C29.6204 34.4102 28.1772 34.4025 27.5493 35.0305" stroke="#828482" stroke-opacity="0.54" stroke-width="3" stroke-linecap="round"/>
<path d="M76.7775 22.4425C74.7771 22.1617 74.1286 22.3277 72.4316 23.4665C71.6875 23.9658 70.4801 24.8438 70.7207 25.9267C71.1042 27.6521 73.8731 26.246 74.5546 25.5645C75.1012 25.0179 75.9435 24.4535 76.1156 23.6788C76.3257 22.7335 74.2567 24.2053 73.8553 24.4156C72.6633 25.04 72.4339 27.4604 74.3048 25.5895" stroke="#828482" stroke-opacity="0.54" stroke-width="3" stroke-linecap="round"/>
<path d="M84.4202 44.0219C85.2612 45.739 85.5204 47.2475 85.5441 49.1421C85.5702 51.2288 86.0336 53.2435 85.5441 55.3237C85.2751 56.4672 84.6435 56.4636 83.6459 56.9347C81.5599 57.9197 80.4529 53.5992 80.1493 52.1892C79.4394 48.8932 78.7537 44.0688 81.3856 41.4369C82.0915 40.731 83.6688 43.1035 83.7458 43.7972C83.9328 45.4796 83.9706 47.1513 83.9706 48.8798C83.9706 50.7363 83.7617 52.346 83.9581 54.2123C84.1443 55.9812 83.154 54.0086 83.0215 53.3131C82.6877 51.5605 83.0184 49.9057 83.2838 48.1805C83.5106 46.7063 81.737 45.7592 80.7737 44.971C80.5039 44.7503 80.4405 47.7327 80.5988 48.168C80.832 48.8092 81.2013 49.4435 81.448 50.0912C81.5807 50.4394 81.5494 52.6267 82.0724 52.7761C82.9968 53.0402 83.9015 52.7712 84.1954 51.8895" stroke="#828482" stroke-opacity="0.54" stroke-width="3" stroke-linecap="round"/>
<path d="M22.8288 68.2989C22.8288 66.9256 22.9881 64.4337 24.2899 63.5659C24.6386 63.3334 24.864 62.9259 25.3014 62.8166C25.471 62.7742 26.1531 64.8136 26.2006 64.977C26.541 66.1497 26.4554 67.7557 25.6386 68.7359C24.8715 69.6564 24.8518 68.3613 24.8518 67.6744C24.8518 67.1621 25.4297 65.7082 25.2889 66.2009C25.0818 66.9258 24.9264 67.1476 24.4522 67.6744C24.1837 67.9728 24.0336 69.6775 24.7394 69.2854C25.6685 68.7693 25.751 66.9993 25.751 66.051" stroke="#828482" stroke-opacity="0.54" stroke-width="3" stroke-linecap="round"/>
<path d="M10.4655 89.8783C12.6213 89.8783 15.4945 90.1736 17.4339 89.2039" stroke="#828482" stroke-opacity="0.54" stroke-width="3" stroke-linecap="round"/>
</svg>
