<svg width="100" height="100" viewBox="0 0 100 100" fill="none" xmlns="http://www.w3.org/2000/svg">
<ellipse cx="86.1111" cy="50" rx="13.8889" ry="50" fill="black"/>
<ellipse cx="86.111" cy="50.0002" rx="10.1852" ry="36.6667" fill="#D9D9D9"/>
<path d="M88.8891 50C88.8891 55.5229 87.6454 60 86.1113 60C84.5771 60 83.3335 55.5229 83.3335 50C83.3335 44.4772 84.5771 40 86.1113 40C87.6454 40 88.8891 44.4772 88.8891 50Z" fill="black"/>
<ellipse cx="13.8889" cy="50" rx="13.8889" ry="50" fill="black"/>
<ellipse cx="13.8888" cy="50.0002" rx="10.1852" ry="36.6667" fill="#D9D9D9"/>
<path d="M16.6669 50C16.6669 55.5229 15.4232 60 13.8891 60C12.355 60 11.1113 55.5229 11.1113 50C11.1113 44.4772 12.355 40 13.8891 40C15.4232 40 16.6669 44.4772 16.6669 50Z" fill="black"/>
</svg>
