<svg width="100" height="100" viewBox="0 0 100 100" fill="none" xmlns="http://www.w3.org/2000/svg">
<rect width="100" height="100" fill="#8D5F39"/>
<path d="M21.8741 19.3001C19.971 19.7179 16.8528 21.0779 16.8528 23.549C16.8528 25.5527 19.9005 25.1541 21.1016 25.094C22.6914 25.0145 23.8054 21.6843 23.8054 20.4589C23.8054 18.3883 19.5948 22.2052 19.3635 22.3902C16.3784 24.7783 19.161 25.8498 21.8312 25.2657C24.0102 24.789 25.9671 22.1115 24.5779 19.9868C23.6597 18.5825 21.866 17.689 20.6295 19.6864C19.4231 21.6353 16.0823 24.9833 19.0845 26.4459C23.7561 28.7218 26.0455 26.3105 28.9555 23.0125C29.5507 22.338 30.6259 20.8654 30.3503 19.901C30.123 19.1055 26.7226 19.3001 25.9728 19.3001C21.5914 19.3001 21.6483 28.5687 26.4234 24.0211C27.7079 22.7977 31.2635 19.3755 27.153 20.1585C25.709 20.4335 23.9181 21.0836 22.6252 21.8108C21.3183 22.546 19.3899 24.4676 21.8956 25.094C24.9026 25.8458 26.1977 24.8406 27.668 22.3902" stroke="#E0AA3E" stroke-width="3" stroke-linecap="round"/>
<path d="M79.0404 24.3215C78.1899 26.9793 77.417 29.6117 77.4953 32.4329C77.5619 34.8279 79.2596 35.039 81.2721 34.6646C84.7933 34.0095 89.8368 19.8032 84.448 20.0727C82.2725 20.1814 79.7955 24.1638 79.0404 25.9524C78.0549 28.2863 77.3533 30.6484 77.4953 33.2054C77.5615 34.3965 78.5483 33.8433 79.0404 33.3771C80.3349 32.1507 81.0039 31.4567 81.6583 29.7291C82.4145 27.7327 83.4177 25.3473 83.2892 23.1627C83.2365 22.2675 81.6725 23.6291 81.4437 23.8494C80.4359 24.8199 79.9513 26.0092 79.5125 27.3257C79.1978 28.2698 79.1935 30.2696 80.1991 30.802C83.7203 32.6662 84.9302 24.3726 84.0617 24.3215C83.687 24.2995 82.8853 23.7619 82.6025 24.0211C81.4372 25.0893 80.815 26.205 80.4996 27.712C80.1916 29.1836 79.4244 32.1587 82.0446 31.1883C83.9261 30.4914 84.448 25.4557 84.448 23.8494C84.448 22.4024 83.191 23.0187 82.1304 23.549" stroke="#E0AA3E" stroke-width="3" stroke-linecap="round"/>
<path d="M46.2085 50.2008C43.5364 51.8708 42.1148 54.43 39.8137 56.4023C38.3191 57.6835 36.552 60.0061 36.552 61.9816C36.552 64.3451 36.5215 65.323 39.0842 64.8571C41.0794 64.4943 44.958 60.6082 46.3157 59.1705C48.0918 57.29 49.2822 55.2338 50.7577 53.205C51.1781 52.6269 52.5 49.4905 52.0023 49.4283C48.5827 49.0008 46.9864 51.3921 44.1913 53.4625C42.6817 54.5807 40.6605 57.1315 40.0283 58.8701C39.7933 59.5163 38.616 60.6386 38.9554 61.4022C39.234 62.0292 39.9665 62.9152 40.5863 62.561C43.1088 61.1196 45.2614 57.5966 46.7878 55.2221C47.308 54.413 47.9631 53.3178 48.6118 52.6041C49.3626 51.7783 46.9702 52.46 46.5733 52.7329C44.2271 54.3459 41.8093 56.9986 40.5004 59.4709C39.8938 60.6168 38.6891 61.6464 38.1829 62.8614C38.055 63.1685 36.8932 64.1432 37.5606 63.6983C39.2117 62.5976 40.1749 61.1084 41.4875 59.6426C42.7486 58.2344 44.0793 57.097 45.2643 55.6298C45.8179 54.9444 46.9933 53.6709 47.7535 53.2908" stroke="#E0AA3E" stroke-width="3" stroke-linecap="round"/>
<path d="M80.9717 93.4616C79.4063 88.8907 76.4455 84.7413 75.8645 79.8997C75.6133 77.8057 74.4445 74.1096 76.1649 72.3891C77.5716 70.9824 78.3931 69.8851 80.3709 70.8441C83.6393 72.4288 85.1794 75.6165 86.6797 78.7838C88.37 82.3521 89.8556 86.7267 89.8556 90.7578C89.8556 92.237 89.3517 95.3929 87.345 95.3929C85.1495 95.3929 82.4374 95.3982 81.1648 93.4187C80.0619 91.7029 80.3722 89.5615 79.8988 87.6677C79.6178 86.5439 79.2496 85.4225 79.019 84.3845C78.5501 82.2745 77.0733 80.2123 76.4225 78.0971C76.2264 77.4599 76.1593 72.4077 77.4954 73.0758C78.3715 73.5138 77.8319 76.3643 78.0748 77.2388C78.3846 78.3542 78.6184 79.3222 78.9546 80.4147C80.2727 84.6984 79.4296 88.5971 83.0961 91.5303C87.3231 94.9119 86.2073 87.7636 85.2205 85.5433C84.5357 84.0024 84.0724 82.1672 83.5897 80.5434C83.226 79.3201 82.3807 78.2682 82.109 77.0456C81.9546 76.3505 79.9627 74.0018 79.5125 74.6208C78.3796 76.1785 79.1449 79.9412 79.4267 81.7022C79.7281 83.5861 80.4769 84.83 81.2721 86.5089C82.3256 88.7329 82.6692 91.2773 83.7613 93.4616C85.119 96.1769 86.3793 92.2948 86.3793 91.0582C86.3793 88.6669 86.5105 85.6713 85.7999 83.3974C85.283 81.7432 85.1816 80.6392 84.0618 79.2559C83.2178 78.2134 82.1917 77.3153 81.358 76.2731C80.8057 75.5828 79.234 71.6801 78.461 73.0543C77.2057 75.2861 76.9481 77.033 77.8816 79.4705C78.4085 80.8462 78.7208 82.3298 79.2979 83.6764C79.7122 84.643 80.6258 85.3859 80.9717 86.3373C81.771 88.5354 83.7513 93.0274 85.9931 94.1483C87.4575 94.8805 88.3106 91.2294 88.3106 90.3715C88.3106 88.0393 86.8087 86.2207 85.6926 84.1914C84.7318 82.4444 84.4508 80.008 83.2034 78.4834C82.6395 77.7942 82.4133 76.9126 81.9159 76.2731C81.5223 75.767 80.3976 74.9398 80.2207 74.3204C80.0069 73.5724 80.591 73.1561 81.0575 72.6895C81.2789 72.4681 80.9849 73.2558 80.9717 73.462C80.8345 75.6121 80.3748 77.9708 79.8129 80.0499C79.3238 81.8596 78.9806 85.7364 81.9374 85.7364C82.713 85.7364 83.7044 88.0075 83.9759 88.7407C85.0631 91.6759 82.9152 84.2194 82.7528 83.6979C82.0669 81.4958 81.517 79.2445 81.358 76.9383C81.2351 75.1562 81.606 78.8652 81.7442 79.5563" stroke="#E0AA3E" stroke-width="3" stroke-linecap="round"/>
<path d="M33.8483 84.5777C29.5982 84.5777 23.47 83.3262 20.5439 87.0883C16.342 92.4908 29.4557 94.7537 32.8827 92.0882C34.3398 90.9549 36.1659 89.7122 36.1659 87.6677C36.1659 85.2484 32.2538 84.9639 30.5437 84.9639C27.3065 84.9639 24.2255 83.9226 22.7327 87.2815C21.7753 89.4355 23.4258 90.3715 25.2219 90.3715C27.5136 90.3715 29.8175 89.9853 31.9385 89.9853C34.9515 89.9853 34.3815 88.019 32.0029 87.1956C29.9123 86.472 28.1899 87.2062 26.3163 88.2471C23.7425 89.677 26.3554 91.4797 28.2261 91.5303C33.1516 91.6634 27.2556 82.4845 25.0502 86.8952C24.839 87.3176 24.7224 88.225 24.5996 88.6548C24.1016 90.398 25.8376 89.9853 27.0459 89.9853C27.8252 89.9853 29.1036 90.2666 29.6853 89.6848C30.3303 89.0398 29.2781 88.4078 29.9858 88.054" stroke="#E0AA3E" stroke-width="3" stroke-linecap="round"/>
</svg>
