<svg width="100" height="100" viewBox="0 0 100 100" fill="none" xmlns="http://www.w3.org/2000/svg">
<rect width="100" height="100" fill="#87542A"/>
<path d="M12.2918 41.7031C10.0331 44.8087 11.133 50.1167 11.133 53.8487C11.133 57.2327 10.9658 58.9298 13.2574 61.5739C16.1316 64.8902 18.1773 59.8945 18.665 57.2607C19.2913 53.8784 19.225 49.4795 18.386 46.1236C18.0804 44.9009 17.3096 42.0893 15.7681 42.0893C13.0246 42.0893 13.0643 46.1981 13.0643 48.0334C13.0643 50.8868 12.8797 54.4054 13.5364 57.1963C13.6738 57.7805 14.0326 60.9009 14.5235 60.5439C15.6406 59.7314 16.0876 58.2273 16.5406 56.9817C17.7016 53.7891 16.9268 50.9398 16.9268 47.6901C16.9268 43.8308 14.6885 46.8178 14.6093 48.9561C14.5168 51.4544 15.6212 53.6446 15.7681 55.9946C15.8068 56.6144 18.2348 52.5185 18.386 52.0891C19.1628 49.8832 19.4254 45.8587 18.0856 43.849C17.0845 42.3474 15.4059 40.321 13.8368 42.2825C12.6831 43.7246 12.8454 45.4233 14.223 46.7244C15.8516 48.2625 17.9971 41.7031 15.5749 41.7031C13.9683 41.7031 12.678 41.7231 12.678 43.6344" stroke="#E0AA3E" stroke-width="3" stroke-linecap="round"/>
<path d="M37.3985 24.7078C39.6266 21.2959 40.554 20.2605 44.5228 18.9139C46.7857 18.1461 49.3369 17.4052 51.7329 17.3689C52.141 17.3627 53.9338 17.1146 54.3079 17.4547C56.0038 18.9964 57.6555 23.9355 57.0118 26.2528C55.9593 30.0416 51.8042 31.7571 48.3853 32.4329C44.2151 33.2573 39.7243 33.4295 35.4672 33.2054C32.3991 33.044 33.5578 29.428 34.7805 27.7978C36.1384 25.9873 37.9662 24.3797 40.1023 23.549C42.4202 22.6476 44.6489 21.4803 46.9691 20.5448C49.4752 19.5342 51.9861 19.6631 54.544 19.107C56.0898 18.771 57.4838 20.2477 57.4838 21.8108C57.4838 24.1785 56.3324 25.1552 54.2221 26.0597C50.0843 27.833 44.6951 31.474 40.1023 29.0424C38.2306 28.0516 40.0863 25.6264 41.261 25.0082C43.5392 23.8091 46.5264 23.2219 49.072 23.1627C50.3638 23.1327 53.0434 22.0003 53.7071 23.549C54.7816 26.0562 53.1045 26.9855 52.0762 28.7849C50.8781 30.8817 44.9881 30.5016 42.9992 30.5016C40.0378 30.5016 37.1546 31.2741 34.1796 31.2741C33.8157 31.2741 32.8635 31.9644 33.1925 31.0596C33.6 29.939 35.3749 28.6543 36.4328 28.1841C38.2981 27.3551 39.8954 26.1115 41.819 25.2872C44.487 24.1437 46.9028 23.1906 49.8016 22.7765C50.3006 22.7052 55.7573 21.6583 55.9174 22.2186C56.5745 24.5186 52.9959 26.4061 51.4754 27.2399C50.3173 27.875 48.5876 29.3429 47.2266 29.3429C45.4097 29.3429 43.5929 29.3429 41.776 29.3429C41.2167 29.3429 38.171 29.8829 38.171 29.3429C38.171 28.6525 39.7918 27.0043 40.231 26.4245C41.1697 25.1854 43.7717 24.2847 45.2524 23.7207C47.1306 23.0052 49.0944 23.055 50.9175 22.0898C51.3486 21.8616 52.0149 21.4712 52.3767 21.1456C53.0649 20.5262 53.3235 23.5024 53.2136 24.1069C52.6308 27.3121 46.0998 26.6391 43.7717 26.6391C42.6345 26.6391 38.399 28.1424 41.8619 27.0253C44.5297 26.1647 47.095 24.6012 49.7587 23.9353" stroke="#E0AA3E" stroke-width="3" stroke-linecap="round"/>
<path d="M84.522 58.3122C81.6956 62.1169 78.1084 67.13 79.5865 72.3033C80.09 74.0654 80.5645 75.9081 82.5907 74.8354C84.7074 73.7148 86.1527 71.5263 87.419 69.5565C88.5552 67.789 91.52 62.0055 89.4575 59.943C86.8558 57.3413 83.8646 61.5729 82.7624 63.3764C81.5996 65.2792 81.0457 67.3328 81.0457 69.5136C81.0457 71.8692 81.9883 71.3693 83.5564 70.6724C85.6832 69.7271 87.9994 60.1134 85.3804 59.1705C83.9571 58.6581 85.3803 55.9088 86.8396 55.9946C87.6328 56.0413 88.604 58.2108 88.7923 58.8701C89.5693 61.5896 88.4676 64.3262 87.2258 66.8098" stroke="#E0AA3E" stroke-width="4" stroke-linecap="round"/>
<path d="M86.4532 67.1961C85.8706 67.2779 82.6734 67.1892 82.2044 67.7755C81.9661 68.0734 81.2173 68.3549 81.2173 68.3549C81.2173 68.3549 83.5021 66.532 84.1357 65.2648" stroke="#E0AA3E" stroke-width="4" stroke-linecap="round"/>
<path d="M42.0337 88.8265C45.4021 88.8631 48.8386 89.4606 52.2052 89.1913C53.584 89.081 54.5053 88.2419 55.7029 87.6892C56.8126 87.177 60.6503 85.3782 60.4024 83.891C60.048 81.7646 54.4134 80.4788 52.6129 80.3074C50.0341 80.0618 47.8026 79.7979 45.3169 80.3503C43.7945 80.6886 42.4071 82.635 41.5616 83.7622C38.3349 88.0645 45.5872 87.8482 48.6001 88.5261C51.5598 89.192 59.6096 88.1793 60.7457 84.7708C61.2905 83.1364 58.2315 81.7019 57.0978 81.4018C55.2101 80.9021 52.6197 80.8246 50.6816 81.1228C48.2855 81.4914 46.5762 81.9519 44.3513 83.0326C43.4993 83.4464 42.8965 83.5605 43.2783 84.6635C43.9355 86.5621 46.2842 86.482 47.9563 86.509C49.5646 86.5349 51.3834 86.1252 52.6558 85.1356C55.2741 83.0991 48.7598 82.157 48.2138 82.8395C46.5211 84.9554 47.4002 85.1734 50.3597 85.5648C52.1928 85.8072 56.7761 86.7661 57.8703 84.5777" stroke="#E0AA3E" stroke-width="4" stroke-linecap="round"/>
<path d="M53.2351 83.8052C54.1127 83.4322 54.9818 82.6464 55.9389 82.6464" stroke="#E0AA3E" stroke-width="4" stroke-linecap="round"/>
<path d="M57.0977 52.132C57.0375 52.1777 54.2055 54.2026 54.9947 54.4281C55.5196 54.5781 56.2314 54.3323 56.6256 53.9775C57.954 52.7819 57.2822 52.7057 55.9604 52.926C54.9652 53.0919 54.0559 55.2221 55.3595 55.2221C56.4173 55.2221 57.2214 55.3609 57.8702 54.0633" stroke="#E0AA3E" stroke-width="4" stroke-linecap="round"/>
<path d="M92.2471 8.48495C92.2471 9.74493 93.0773 20.7861 89.8437 17.283C87.8083 15.078 88.2932 11.4164 90.509 9.64373C91.6763 8.70987 92.3415 14.418 91.6677 15.6307C90.4919 17.7472 89.4215 15.0572 89.1785 13.7209C88.9136 12.264 88.6796 11.7118 89.5433 10.4162" stroke="#E0AA3E" stroke-width="4" stroke-linecap="round"/>
<path d="M6.88428 92.3028C9.28568 91.8526 9.84285 91.4741 10.5323 89.4059C10.7886 88.6369 9.41803 88.8265 9.00869 88.8265C8.36184 88.8265 7.95776 89.6303 7.65679 90.1569C6.46314 92.2458 11.5194 92.5595 11.5194 89.2128" stroke="#E0AA3E" stroke-width="4" stroke-linecap="round"/>
</svg>
