<svg width="100" height="100" viewBox="0 0 100 100" fill="none" xmlns="http://www.w3.org/2000/svg">
<path d="M0 0H100V100H0V0Z" fill="#81532B"/>
<path d="M18.9646 90.1985C17.5843 88.8182 12.5558 85.267 12.5558 82.9157C12.5558 81.0428 11.9731 79.2942 11.9731 77.3809C11.9731 74.3774 12.8082 71.7023 15.1775 69.8068C19.2563 66.5438 18.3819 72.7907 18.3819 75.3093C18.3819 77.8647 16.3648 83.3074 18.2525 85.667C19.0786 86.6997 18.4677 88.3307 19.9032 89.3245C20.423 89.6843 26.8103 91.8018 24.2081 91.9463C21.3898 92.1029 19.7601 92.2866 18.3819 89.8748C16.6775 86.8921 14.8862 82.2646 14.8862 78.8374C14.8862 77.4089 12.8821 72.79 13.721 74.4678" stroke="#FFE68F" stroke-opacity="0.8" stroke-width="5" stroke-linecap="round"/>
<path d="M78.0735 23.4175C80.4352 24.9526 83.0708 25.9818 85.2793 27.6995C87.0041 29.041 88.4 31.61 89.3726 33.5283C90.8746 36.4904 92.0208 40.215 91.4476 43.5824C91.1848 45.1264 91.1458 46.7486 91.1458 48.3171C91.1458 49.1553 91.0826 50.019 91.1552 50.8543C91.2053 51.4305 91.4597 51.9975 91.4853 52.5614C91.553 54.049 91.8606 55.5697 92.0324 57.0509C92.1725 58.2597 92.3782 59.4687 91.7306 60.5595C90.9209 61.9232 90.5478 62.1251 88.9954 62.1251C87.8472 62.1251 87.335 62.1669 86.5997 61.314C85.508 60.0476 85.5668 57.7168 85.7509 56.1832C85.9405 54.6029 86.6571 53.0614 87.109 51.5428C87.6151 49.8425 88.0899 48.2005 88.0899 46.4119C88.0899 44.5925 87.5919 43.2228 87.0713 41.5452C86.8091 40.7004 86.3466 39.9252 85.9772 39.1212C85.5167 38.119 85.3183 37.0152 84.902 35.9994C84.3601 34.677 83.4545 33.4723 82.4875 32.4247C81.444 31.2943 80.3469 30.1042 79.177 29.1142C78.3788 28.4388 77.4974 27.9061 76.8191 27.077C76.3272 26.4758 75.6888 24.9316 76.3852 24.3512C76.7276 24.0659 77.9141 24.232 78.3376 24.2663C78.8549 24.3083 79.8559 26.3054 80.1767 26.7091C82.1339 29.1713 83.7142 32.5176 84.4399 35.5655C84.9424 37.6762 85.1722 39.7402 86.0527 41.7527C86.806 43.4745 87.8431 45.0806 88.5144 46.8364C89.2864 48.8557 89.6179 50.7305 89.6179 52.9292C89.6179 54.4181 89.2271 55.7251 88.9294 57.1641C88.7741 57.9145 88.4295 58.7286 88.4295 59.5031C88.4295 59.9308 88.4044 61.1009 88.6841 61.4366C88.8773 61.6684 89.2086 60.7845 89.2783 60.6161C90.0572 58.7337 90.5633 56.7064 90.6271 54.6647C90.8053 48.9596 89.3151 43.4069 88.7784 37.7725C88.6699 36.6327 87.6591 35.7732 86.9015 34.9524C85.7502 33.7052 85.0342 32.2457 84.0154 30.8874" stroke="#FFE68F" stroke-opacity="0.8" stroke-width="5" stroke-linecap="round"/>
<path d="M46.4963 16.6268C43.9483 17.4606 41.3244 18.1612 39.1207 19.7581C37.2243 21.1323 35.6975 22.6625 34.0842 24.3607C32.6646 25.855 31.6152 27.2794 31.4244 29.3784C31.2414 31.3913 31.9404 32.6113 33.2919 34.0754C33.9883 34.8299 33.4285 36.2039 33.2919 37.0369C33.0213 38.6876 31.925 39.9885 30.5944 40.9794C29.3792 41.8843 27.4398 42.5874 26.1615 41.583C24.9697 40.6466 25.0372 39.0339 24.9449 37.6028C24.8562 36.2286 25.1405 34.6713 25.3598 33.3114C25.7615 30.821 26.3815 28.358 26.6331 25.8415C26.8017 24.1561 27.0425 22.228 26.718 20.5409C26.4817 19.3122 26.4528 17.7882 27.3122 16.806C28.3135 15.6616 30.2369 15.0166 31.5753 14.3631C33.1144 13.6118 34.778 13.0408 36.3949 12.4768C38.3572 11.7923 40.476 11.4726 42.5444 11.3544C44.072 11.2671 48.7716 10.1455 49.0428 12.722C49.3081 15.2421 43.5284 15.4057 41.8559 15.7402C39.1196 16.2874 36.1061 16.2806 33.688 17.8151C32.1215 18.8093 29.6782 20.3506 29.2174 22.3612C28.4671 25.6353 28.0341 29.1134 27.8121 32.4437C27.664 34.6658 26.2153 37.3662 27.9064 39.1874C28.7318 40.0763 29.4892 39.2747 30.2077 38.5083C31.3803 37.2576 31.5673 36.0141 31.3018 34.3678C30.6687 30.4426 31.7289 26.4703 33.1693 22.8139C34.3189 19.8956 37.3845 15.9477 40.8938 15.9477" stroke="#FFE68F" stroke-opacity="0.8" stroke-width="5" stroke-linecap="round"/>
<path d="M55.3244 70.2741C56.4897 71.7531 58.3542 72.9324 59.2385 74.6127C59.9444 75.9539 61.062 77.0193 61.7851 78.3571C62.5965 79.8582 63.7616 81.0867 64.6806 82.507C65.5135 83.7943 66.6122 84.656 68.0949 84.9593C69.6628 85.28 72.0017 85.877 73.5087 85.0159C74.9929 84.1677 76.741 81.8715 77.1399 80.1963C77.5754 78.367 76.5559 77.3739 75.4516 76.1029C73.4927 73.8483 70.9329 71.9591 68.5853 70.1232C66.3231 68.354 64.3216 66.6997 63.0395 64.0681C61.829 61.5833 63.1033 58.7617 62.285 56.2586C61.3435 53.379 58.8854 52.3429 55.9657 52.9575C54.9741 53.1663 54.3809 55.5686 54.2397 56.3529C53.9551 57.9342 54.3979 59.142 54.8245 60.6349C55.3564 62.4966 56.2804 64.2109 56.9372 66.0299C57.4741 67.5165 58.0021 68.917 58.899 70.2175C60.7819 72.9478 62.8644 75.5031 65.3974 77.6308C66.437 78.5041 67.7138 78.9347 68.8683 79.6115C69.7244 80.1134 70.0823 79.9285 70.7546 79.3286C71.1795 78.9494 71.9018 77.7415 71.9619 78.7627C71.9856 79.1651 72.1425 79.4598 71.9242 79.951C71.5594 80.7718 71.279 80.7456 70.4528 81.1017C70.0471 81.2766 69.1642 82.1352 68.6985 81.7053C68.3174 81.3535 67.9575 81.0674 67.4913 80.8188C67.0718 80.595 67.1502 80.0492 67.0385 79.6304C66.6624 78.2197 66.6656 76.7423 66.3972 75.3107C66.0666 73.5477 65.4512 72.1153 63.794 71.2079C61.413 69.904 59.1055 69.5112 58.4557 66.6335C58.2695 65.8087 57.7198 65.0527 57.5408 64.2473C57.3527 63.4005 57.3616 62.598 57.3616 61.729C57.3616 59.9707 57.1919 54.6983 57.1919 56.4567C57.1919 57.3037 57.7632 58.1797 57.9087 59.0127C58.1988 60.6744 59.0476 62.1263 59.6064 63.6908C60.7213 66.8126 62.6014 69.9303 64.5297 72.6132C65.3878 73.807 66.4211 74.8904 67.7742 75.4993C68.7375 75.9328 69.7493 76.2646 70.698 76.7254C71.1991 76.9688 71.6672 77.2021 72.1977 77.3951C73.005 77.6886 72.7787 77.3333 72.1883 77.0649C69.487 75.8371 66.7571 75.1481 64.3222 73.33C63.1415 72.4484 62.8313 71.1274 62.2755 69.8214C61.5018 68.0032 60.8556 66.1467 60.078 64.3322C59.0734 61.9882 58.1241 59.7487 57.7012 57.2112C57.4606 55.7677 57.0388 56.0024 56.2581 56.9566C55.8658 57.4361 55.9039 58.1049 55.6639 58.6449C55.3336 59.388 54.9943 60.1161 54.6547 60.8519C53.2274 63.9444 53.9907 67.2348 55.8337 69.8969C57.4612 72.2477 59.2745 74.0774 61.3418 76.0463C62.542 77.1893 64.2074 79.3706 65.8502 79.7813" stroke="#FFE68F" stroke-opacity="0.8" stroke-width="5" stroke-linecap="round"/>
<path d="M16.9563 84.8743C16.1395 83.1727 15.5981 81.1732 15.5981 79.2719C15.5981 78.3046 16.2023 77.5709 16.7111 76.8008C17.1545 76.1298 18.1447 74.8432 18.1447 74.009" stroke="#FFE68F" stroke-opacity="0.8" stroke-width="5" stroke-linecap="round"/>
<path d="M43.7802 13.4011C42.5509 14.1207 41.4142 14.25 40.0263 14.25C38.3874 14.25 36.9838 14.5992 35.5369 15.3629C34.5235 15.8978 33.9898 17.59 33.8014 18.6263C33.6049 19.7071 33.8442 21.3445 33.2544 22.2292" stroke="#FFE68F" stroke-opacity="0.8" stroke-width="5" stroke-linecap="round"/>
<path d="M60.0781 71.802C61.4119 73.1358 62.0376 74.9389 63.266 76.3858C64.5709 77.9227 65.7818 79.5429 67.2085 80.9696C68.3616 82.1227 70.2581 81.7304 71.3207 80.6678C72.2147 79.7738 72.7165 79.6114 73.9993 79.6114" stroke="#FFE68F" stroke-opacity="0.8" stroke-width="5" stroke-linecap="round"/>
<path d="M89.1087 58.56C88.5791 55.1836 88.6632 51.7391 88.4674 48.3361C88.352 46.3319 88.53 44.4807 88.7692 42.5073C88.926 41.2133 89.2785 40.0955 89.2785 38.7817C89.2785 37.0104 87.557 36.1996 86.7319 34.9619" stroke="#FFE68F" stroke-opacity="0.8" stroke-width="5" stroke-linecap="round"/>
</svg>
