<svg width="100" height="100" viewBox="0 0 100 100" fill="none" xmlns="http://www.w3.org/2000/svg">
<path d="M0 0H100V100H0V0Z" fill="#754A25"/>
<path d="M76.2581 81.5876C74.002 84.4753 69.1486 84.635 66.0934 83.027C64.8668 82.3814 65.4573 79.9352 65.6948 78.9855C66.0636 77.51 67.3688 76.5451 67.9757 75.2208C68.5723 73.9191 69.0645 72.0116 68.4408 70.6257C68.0093 69.6669 66.5338 69.1695 66.3038 68.1343C65.8702 66.1832 67.2234 64.5756 68.3743 63.207C69.7052 61.6243 73.4085 59.3971 75.6158 60.1066C80.3203 61.6188 80.2442 66.1891 80.2442 70.3821C80.2442 71.9988 80.9136 73.3887 81.2518 74.9108C81.4766 75.9225 83.0594 76.3959 82.8241 77.69C82.2717 80.7282 78.4679 81.765 76.0698 82.4844C74.4478 82.971 72.0369 83.0742 70.4338 82.5398C70.0967 82.4274 68.6965 82.2067 68.5072 81.8754C68.1393 81.2316 68.278 80.2922 68.5294 79.6388C68.7063 79.1787 69.2057 78.5842 69.4816 78.155C70.0414 77.2843 70.3635 76.1612 70.766 75.2097C71.5726 73.3032 72.1445 70.6126 71.6297 68.6104C71.3028 67.3391 70.0809 67.7443 70.8768 66.3516C71.2834 65.6399 73.0087 65.3044 73.7113 65.1447C75.2068 64.8048 75.1829 65.1254 75.7709 66.3405C76.1902 67.2073 76.6384 67.6611 76.6567 68.6104C76.71 71.3845 77.04 74.6619 77.8525 77.3025C77.9061 77.4765 78.1749 78.3341 78.3619 78.3876C78.9528 78.5564 77.457 79.2542 77.1217 79.4395C76.2998 79.8937 71.4747 81.487 71.4747 79.7495C71.4747 78.5018 71.6209 77.4896 72.5155 76.5606C73.102 75.9515 74.0013 75.56 74.3757 74.8111C74.8624 73.8378 75.5501 73.0808 75.6491 71.9433C75.7505 70.7768 75.1814 69.2994 74.7079 68.234C74.3914 67.522 74.2817 66.8917 73.2684 67.1267C71.5626 67.5223 70.0859 68.5866 68.4186 69.0312C66.8457 69.4506 69.2794 73.0993 70.4892 71.5115C70.9859 70.8595 72.4711 69.3188 72.0283 68.3225C71.3889 66.8838 69.7089 69.2529 70.1792 69.6291C70.4916 69.879 70.657 70.4738 70.9986 70.6257C71.2938 70.7569 73.0443 71.0508 72.4269 70.3821C71.8176 69.722 71.118 69.5469 71.4747 68.5661C71.6155 68.179 72.3109 67.7559 72.6705 67.636" stroke="#9966CC" stroke-opacity="0.8" stroke-width="5" stroke-linecap="round"/>
<path d="M37.1939 43.1212C34.9132 44.0905 32.8177 46.2465 31.2257 48.1039C30.055 49.4697 28.639 52.6965 29.5316 54.4817C30.3602 56.1389 31.0596 56.881 32.7316 57.7814C34.5338 58.7518 36.914 57.9789 37.5925 60.1841C38.2419 62.2949 38.3717 67.1041 40.8921 67.8242C42.17 68.1893 44.0396 68.4332 45.3655 68.4332C46.276 68.4332 47.1384 67.834 47.7682 67.2042C49.2231 65.7493 50.9461 63.6659 50.9461 61.5571C50.9461 60.6233 50.9461 59.6895 50.9461 58.7557C50.9461 57.4778 50.4604 56.3411 50.5475 55.0353C50.6379 53.6785 51.8264 52.7776 52.4962 51.7357C52.8073 51.2518 53.0217 50.8052 53.2492 50.2852C53.5361 49.6295 53.3829 48.9925 53.5814 48.3475C54.1723 46.4268 53.5347 44.3132 51.7433 43.3648C51.137 43.0438 50.831 42.6635 50.5917 41.9696C50.2476 40.9716 49.5509 40.2303 49.5509 39.135C49.5509 37.1065 49.4278 35.1146 47.0042 34.5953C44.5307 34.0652 42.3324 34.5262 40.6264 36.3004C39.5758 37.393 38.5824 39.0526 38.2347 40.5302C37.6786 42.8934 36.9529 44.9235 35.998 47.1516C35.4778 48.3655 34.0049 49.4457 34.0049 50.8056C34.0049 52.0314 34.6052 52.8825 35.0015 53.9724C35.4965 55.3337 37.2284 55.404 38.3122 55.9876C38.8937 56.3007 39.7814 56.3023 40.1392 56.9177C40.5634 57.6473 40.3828 58.7357 40.3828 59.5419C40.3828 60.8916 39.4641 62.2935 39.8845 63.6388C40.1598 64.5197 41.1632 65.5773 42.1765 65.4325C43.1566 65.2925 44.7656 64.8255 45.4762 64.1149C46.4062 63.1849 46.8998 61.2387 47.2478 59.9959C47.5969 58.749 47.5376 57.6464 47.3696 56.3862C47.0827 54.2343 47.3114 52.3031 47.9565 50.2298C48.4713 48.575 49.4943 47.8359 50.5364 46.6201C52.4409 44.3982 45.1662 41.4309 45.1662 39.0354C45.1662 37.9386 43.3321 38.113 42.6195 38.1385C41.7021 38.1713 41.1265 40.1086 40.9364 40.7738C39.9518 44.22 39.7197 47.9179 38.434 51.2928C37.0313 54.9749 40.8832 57.9441 42.2651 60.9924C42.7709 62.1081 43.3862 63.4831 44.2139 64.4028C44.4473 64.6621 44.3171 64.9137 44.4797 64.4028C45.0086 62.7405 44.9553 60.767 44.9669 59.0436C44.985 56.335 44.7675 53.6327 44.7675 50.9385C44.7675 49.8015 45.0236 48.7677 45.1551 47.6499C45.2409 46.9201 46.4158 46.3161 46.8713 45.7565C47.3026 45.2266 47.9246 44.3374 47.27 43.7191C46.5 42.9919 44.6475 42.595 43.7267 43.1212C41.934 44.1456 40.9807 45.885 40.9807 47.9267C40.9807 50.0601 40.656 52.0654 40.5821 54.1717C40.5121 56.1669 39.3311 60.4609 42.7745 60.4609" stroke="#9966CC" stroke-opacity="0.8" stroke-width="5" stroke-linecap="round"/>
<path d="M33.0084 53.2859C32.7476 53.3711 30.816 54.117 30.816 53.5849C30.816 52.7188 30.5107 52.4822 31.0375 51.7579C32.2022 50.1564 34.3121 49.1462 35.998 48.3032" stroke="#9966CC" stroke-opacity="0.8" stroke-width="5" stroke-linecap="round"/>
<path d="M77.6532 16.4141C77.2222 20.024 75.6645 24.9592 77.9411 28.1732C78.7696 29.3429 79.648 31.2271 80.9307 31.9601C81.6226 32.3555 82.2437 33.2634 82.7356 33.8646C84.4121 35.9136 84.0311 38.7446 84.0311 41.2279C84.0311 42.0478 81.3055 42.2643 80.5432 41.9255C79.0855 41.2776 79.3864 39.3848 78.7494 38.2383C78.3005 37.4303 78.6498 35.4687 78.6498 34.5511C78.6498 33.2391 78.5637 32.514 77.8968 31.3622C77.623 30.8893 77.0701 30.6836 76.7453 30.266C76.3779 29.7936 76.0198 29.2561 75.6159 28.8155C74.9955 28.1387 74.6636 27.0008 74.265 26.1802C73.6923 25.0011 73.4678 23.7612 73.4678 22.4598C73.4678 21.0873 73.503 19.2892 73.9107 17.9643C74.2907 16.7292 75.1048 15.2183 76.6567 15.2183" stroke="#9966CC" stroke-opacity="0.8" stroke-width="5" stroke-linecap="round"/>
<path d="M82.038 36.1455C80.927 36.6177 79.868 38.4192 81.2408 39.3344" stroke="#9966CC" stroke-opacity="0.8" stroke-width="5" stroke-linecap="round"/>
<path d="M35.5994 93.7453C34.2946 95.4014 32.0802 95.5117 30.0852 95.5391C27.2321 95.5782 24.7547 95.104 22.1462 93.9446C19.9798 92.9818 18.8747 90.9117 18.614 88.6519C18.3775 86.6026 18.3146 85.0684 17.3628 83.2706C16.7874 82.1837 15.507 82.1565 14.9157 81.1889C14.254 80.1061 12.9304 79.2328 12.6901 77.9114C12.4282 76.4705 14.5827 76.0069 15.4915 76.0069C15.7886 76.0069 17.0822 75.8011 17.2631 76.1177C17.7122 76.9036 18.633 77.4826 19.1455 78.2879C20.4015 80.2616 20.4744 82.5241 20.895 84.7322C21.1045 85.8321 21.8152 86.9113 22.3455 87.8657C22.7074 88.5172 22.9595 89.1193 23.4417 89.7149C23.9077 90.2905 24.4941 90.4018 24.9918 90.8C25.5972 91.2843 27.9671 91.0834 28.7344 90.9439C30.2288 90.6722 31.906 90.0375 33.407 89.9585C34.7788 89.8863 35.6881 90.1973 36.906 90.5453C37.9435 90.8417 38.7926 91.4215 39.7849 91.7522" stroke="#9966CC" stroke-opacity="0.8" stroke-width="5" stroke-linecap="round"/>
<path d="M36.596 93.1474C34.8373 92.4611 33.0306 92.8525 31.2147 92.9481C30.4794 92.9868 30.3809 93.2141 29.7309 92.8595C28.4047 92.1361 27.2158 91.4451 26.2763 90.2464C25.7535 89.5794 24.9721 88.816 24.6818 88.0097C24.5402 87.6165 24.0839 87.168 24.0396 86.7696C23.9086 85.5908 22.6211 84.339 22.0465 83.3813" stroke="#9966CC" stroke-opacity="0.8" stroke-width="5" stroke-linecap="round"/>
</svg>
