<svg width="100" height="100" viewBox="0 0 100 100" fill="none" xmlns="http://www.w3.org/2000/svg">
<rect width="100" height="100" fill="#81532B"/>
<path d="M8.60517 31.3134C8.28318 29.5708 7.56012 27.6144 7.56012 25.8268C7.56012 24.8446 8.34447 24.5296 8.95352 23.8529C10.8545 21.7406 13.8444 20.027 16.5882 19.2953C17.5788 19.0311 19.0231 18.5571 19.0557 20.021C19.1028 22.1401 18.9708 23.8715 16.8495 25.0285C15.7057 25.6524 14.4723 26.2958 13.4095 27.0316C12.2683 27.8216 11.2929 29.1038 10.1727 29.8038C9.80656 30.0327 9.48119 30.7125 9.40347 29.7022C9.31758 28.5857 9.3352 26.6934 10.1873 25.8414C12.5105 23.5181 16.2401 23.8179 19.0557 22.6917" stroke="#00D1FF" stroke-opacity="0.8" stroke-width="4" stroke-linecap="round"/>
<path d="M74.9659 19.2954C72.5148 21.4537 69.0812 24.2523 68.9568 27.859C68.8709 30.3498 68.3553 32.2745 70.7857 34.1293C73.5296 36.2233 76.5882 36.2733 78.3623 33.3165C79.3037 31.7474 79.3968 29.7578 79.9298 28.0331C80.3915 26.5397 81.0073 24.9956 81.6135 23.5627C82.2435 22.0737 82.3426 20.1696 81.1055 18.9325C80.0127 17.8397 77.5404 18.8027 76.4318 19.2954C73.6394 20.5364 71.637 25.2147 71.5694 28.1202C71.5189 30.2916 74.2795 33.9908 75.5464 30.4716C76.0758 29.0011 76.8113 27.5412 77.114 25.914C77.2722 25.0637 78.6316 21.8834 77.9704 21.5161C74.6541 19.6737 74.7046 25.6781 74.7046 27.2639C74.7046 28.3172 77.3057 24.8935 77.5785 24.1432C78.0465 22.8561 78.8981 21.4962 79.6686 20.3404" stroke="#00D1FF" stroke-opacity="0.8" stroke-width="4" stroke-linecap="round"/>
<path d="M74.9659 68.4127C76.6929 73.1395 78.626 78.5281 78.0865 83.6531C77.6273 88.0155 71.6593 88.9731 68.1295 88.3848C65.5996 87.9632 63.4289 87.3896 61.7866 85.3367C60.0372 83.15 59.2521 80.7275 58.1144 78.2246C56.4494 74.5615 57.0504 72.5744 59.203 69.4433C60.6371 67.3574 63.5781 66.9071 65.7346 66.0614C66.9073 65.6015 68.0468 65.2776 69.3487 65.2776C71.0954 65.2776 73.517 66.5948 75.1691 67.1645C76.2467 67.5361 76.8289 70.5695 77.1576 71.5189C78.3589 74.9893 77.5168 79.6206 76.7802 83.058C76.6501 83.6652 76.1765 86.8569 75.2271 86.9624C73.1787 87.19 71.4884 86.9111 69.4358 86.7156C68.1774 86.5958 67.8616 83.6424 67.0699 82.7241C65.9462 81.4206 64.9185 78.8617 64.2541 77.2376C63.7412 75.9838 62.2277 72.3479 60.5964 74.1605C59.6992 75.1575 59.9298 78.0018 59.8271 79.1826C59.7384 80.2028 60.3069 81.2906 61.0028 82.0274C63.0574 84.2028 63.8806 84.8723 67.128 84.8723C68.8117 84.8723 70.4954 84.8723 72.1791 84.8723C72.6666 84.8723 73.2206 84.8577 73.6015 84.553C75.0095 83.4265 74.1821 79.0668 74.1821 77.3537C74.1821 76.061 73.9208 74.8121 73.9208 73.5219C73.9208 73.0257 73.9224 71.2233 73.6015 70.8222C72.468 69.4053 69.5307 68.9353 67.7811 68.9353C65.9896 68.9353 64.5046 68.1694 63.3397 70.1109C61.7283 72.7966 59.6779 78.4873 62.0043 81.3307C63.8966 83.6435 68.6438 81.3243 70.7566 80.576C71.9073 80.1684 73.4865 79.8133 74.124 78.602C74.442 77.9978 73.8671 75.918 73.2531 75.7426C72.7658 75.6034 67.7541 83.4629 70.9744 83.8417C72.7821 84.0544 74.0456 83.6018 74.1821 81.4178C74.2844 79.7808 73.7163 78.1826 72.7161 76.8747C71.7504 75.6119 70.8053 72.7331 69.2181 72.1285C68.6367 71.907 66.8117 71.8687 66.2136 72.201C65.376 72.6664 63.473 71.5738 62.5414 71.5479C61.4723 71.5182 59.8805 72.6777 59.8126 73.8993C59.7696 74.6746 59.7491 75.335 60.3642 75.8732C61.3124 76.7029 64.0706 76.872 65.2411 76.5699C66.8661 76.1506 68.3097 76.6121 69.8567 75.7281C70.8782 75.1444 71.3082 79.2874 71.3082 80.1405C71.3082 81.2524 70.4697 81.6385 69.639 82.1C69.134 82.3805 67.4182 79.791 67.3892 79.2696C67.3278 78.1638 68.8718 74.6261 67.3892 73.8412C66.4318 73.3343 64.7195 74.0134 64.2541 74.9443" stroke="#00D1FF" stroke-opacity="0.8" stroke-width="4" stroke-linecap="round"/>
<path d="M14.3529 80.4308C14.8263 76.013 14.603 71.0408 16.5882 66.9758C18.7577 62.5334 23.1488 58.6032 26.9952 55.6254C28.6744 54.3253 30.495 53.4977 32.5252 52.8676C33.2535 52.6416 35.4595 51.979 36.0958 52.6789C37.639 54.3764 36.9715 58.7565 36.6183 60.8361C36.0826 63.991 34.0557 66.7008 32.3655 69.3416C31.4872 70.7141 30.5416 72.0378 29.7094 73.4348C28.5695 75.3482 26.9933 76.8723 25.8485 78.7326C24.5004 80.9232 22.5162 83.5904 20.2459 84.8287C19.9161 85.0086 19.2423 84.6512 18.896 84.6255C17.8246 84.5461 16.881 84.3901 15.8334 84.1465C15.14 83.9853 14.3717 83.0202 14.0917 82.3903C13.3682 80.7624 14.2965 79.0616 14.8174 77.4988C15.6407 75.0291 16.7225 72.8967 17.9526 70.6189C19.0959 68.5016 20.9118 66.5659 21.915 64.3922C22.7768 62.525 24.6763 61.5244 26.3855 60.5748C27.893 59.7374 30.2518 59.3232 31.5382 58.1654C32.1296 57.6331 32.659 57.0156 33.2219 56.4527C34.6884 54.9862 32.6246 56.5565 32.0607 57.1204C31.3971 57.784 29.9448 57.8645 29.1288 58.3541C28.0459 59.0038 27.0638 59.5236 26.313 60.5748C25.2784 62.0232 28.5936 61.6308 29.303 61.6199C31.5057 61.586 33.7419 60.7274 35.7765 59.9362C37.4694 59.2778 35.9994 60.6132 35.5152 61.0974C35.0357 61.5769 34.4352 61.8677 33.817 62.1424C32.0852 62.9121 30.2811 63.9987 28.374 64.4357C26.0887 64.9594 23.6322 63.9387 21.3199 64.247C20.7857 64.3183 20.2294 66.1561 20.6813 66.5258C21.708 67.3658 24.7059 66.6372 25.8195 66.5258C27.24 66.3838 28.3732 66.1004 29.6368 65.5388C30.0784 65.3425 31.4722 64.5879 30.8125 65.5969C30.404 66.2216 29.8993 66.9746 29.3755 67.4983C28.7694 68.1045 28.3813 68.9098 27.9096 69.6174C26.9841 71.0056 25.8691 72.1675 24.8035 73.4348C24.3161 74.0143 23.7614 74.6239 23.4971 75.3507C23.0033 76.7088 21.8979 78.3353 21.1458 79.5889C20.9256 79.9558 20.8095 80.6998 20.4926 80.9533C18.642 82.4338 16.1962 79.0776 16.7624 77.2376C17.8363 73.7473 21.5359 71.6905 23.6133 68.9207C23.9676 68.4483 24.2957 67.9645 24.6583 67.4983C24.6786 67.4722 25.0613 66.9544 25.0647 66.9613C25.3383 67.5085 25.326 69.2079 25.326 69.8497C25.326 71.1994 25.932 72.4802 25.8485 73.8992C25.7578 75.4411 23.336 76.1726 22.1908 76.7151C21.9432 76.8324 21.6185 77.0678 21.4651 76.7151C21.159 76.011 20.6903 76.4763 19.9701 76.6425C19.7159 76.7011 18.5622 77.2806 18.5622 76.7296C18.5622 75.9642 19.0736 74.9795 19.5782 74.4218C20.0161 73.9378 20.717 73.6752 21.2909 73.3622C21.8846 73.0384 22.1082 72.3729 22.7133 72.0704" stroke="#00D1FF" stroke-opacity="0.8" stroke-width="4" stroke-linecap="round"/>
<path d="M33.6864 57.1784C33.5394 57.9316 33.2838 59.9429 33.8896 59.4717C34.1688 59.2546 34.3879 58.7972 34.0928 58.4847C33.4058 57.7573 33.7607 57.6532 33.3671 56.8301C33.0893 56.2494 30.3079 58.9893 30.0287 59.2685" stroke="#00D1FF" stroke-opacity="0.8" stroke-width="4" stroke-linecap="round"/>
<path d="M17.7494 81.7371C17.2714 81.4085 15.9679 80.8529 16.1963 80.0534C16.2981 79.697 16.2206 80.3143 16.1818 80.4308" stroke="#00D1FF" stroke-opacity="0.8" stroke-width="4" stroke-linecap="round"/>
<path d="M60.0739 74.9443C60.7126 73.3077 61.2673 72.2514 62.4253 71.0253C63.4493 69.941 65.4274 69.9376 66.8667 69.4578" stroke="#00D1FF" stroke-opacity="0.8" stroke-width="4" stroke-linecap="round"/>
<path d="M73.9208 26.8719C74.1749 25.2842 74.2529 24.1581 75.2852 23.0111C75.632 22.6257 76.3569 22.2609 76.5334 21.908" stroke="#00D1FF" stroke-opacity="0.8" stroke-width="4" stroke-linecap="round"/>
<path d="M9.12772 26.3495C10.8794 24.9395 12.8719 23.7713 14.8755 22.7498C15.7424 22.3079 17.3063 21.6467 18.2719 21.6467" stroke="#00D1FF" stroke-opacity="0.8" stroke-width="4" stroke-linecap="round"/>
</svg>
