<svg width="100" height="100" viewBox="0 0 100 100" fill="none" xmlns="http://www.w3.org/2000/svg">
<rect width="100" height="100" fill="#81532B"/>
<path d="M21.3466 13.0627C20.5153 14.2057 19.2352 14.9382 18.0977 15.7571C16.6824 16.7762 15.0962 17.5878 13.8176 18.7953C12.5619 19.9813 10.7378 21.2308 10.0753 22.8869C9.78367 23.6161 9.37462 24.2712 9.12727 25.027C8.80796 26.0027 8.79301 26.9705 8.99421 27.9765C9.27613 29.3861 10.6918 30.8457 12.0102 31.3252C12.5949 31.5378 13.3456 31.6448 13.9618 31.5026C14.7749 31.3149 15.6866 31.2829 16.4567 30.9482C16.976 30.7224 17.7626 30.5392 18.1753 30.1609C18.3843 29.9694 18.6585 29.888 18.8517 29.6841C19.1354 29.3847 19.3778 29.0362 19.6501 28.7249C20.2238 28.0693 20.9474 26.9322 20.9474 26.0249C20.9474 25.1398 21.5216 24.1786 21.8234 23.3637C21.9846 22.9286 22.4873 22.4291 22.9045 22.2327C23.3992 21.9999 23.8796 21.7709 24.4181 21.645C24.817 21.5518 25.2383 21.6033 25.6267 21.4954C27.2711 21.0386 28.746 21.816 30.306 22.1662C31.442 22.4212 32.2651 22.613 33.3996 22.3436C34.1443 22.1667 35.0303 21.9537 35.6838 21.5452C37.5342 20.3888 38.8833 19.7082 39.4649 17.5479C39.9596 15.7105 38.4769 14.2511 37.4247 12.8964C35.8692 10.8937 33.4999 10.8672 31.1487 10.8672C28.6446 10.8672 26.3572 11.7233 24.0577 12.6025C23.4318 12.8418 22.8384 13.019 22.2226 13.2844C21.4021 13.6381 20.7014 14.2069 20.0715 14.8368C19.0782 15.83 18.1622 16.7499 17.3714 17.936C16.6216 19.0608 15.9067 20.2219 15.1538 21.3512C14.2376 22.7254 13.0524 24.0405 12.3872 25.537C12.15 26.0709 12.0199 27.8628 12.9195 28.0264C13.7756 28.182 14.3231 27.8308 15.1039 27.6106C15.7171 27.4376 16.2743 27.2471 16.8558 26.9564C18.1101 26.3292 18.4483 25.0142 18.009 23.6964C17.7176 22.8221 16.4044 23.4473 15.8024 23.6853C15.1014 23.9625 14.1614 24.7297 14.1614 25.537C14.1614 26.0162 14.1995 26.0278 14.6382 25.8253C15.3914 25.4777 16.1909 25.1168 16.8337 24.5835C17.2851 24.2088 17.6635 23.609 17.9425 23.0976C18.4036 22.2523 18.94 21.4582 19.4062 20.6138C20.2483 19.0884 20.8978 17.8723 22.4832 17.0378C24.5017 15.9754 26.6871 15.4085 28.7425 14.4598C30.3491 13.7183 31.9922 13.4619 33.7655 13.4619C34.7338 13.4619 35.7078 14.0633 36.521 14.5208C37.0148 14.7986 37.3743 15.2279 37.5633 15.7571C37.7855 16.3794 37.2269 17.2215 36.8148 17.6532C36.1157 18.3857 35.3079 19.0016 34.3421 19.3276C31.4449 20.3054 28.2329 20.1559 25.3994 19.1003C24.5274 18.7754 23.6443 18.8394 22.7216 18.8508C22.5451 18.853 21.4879 19.0525 21.829 18.9894C23.0436 18.7645 24.2288 18.456 25.416 18.119C26.5297 17.8028 27.5839 17.2707 28.7148 17.0212C29.618 16.822 30.4515 16.615 31.3261 16.3116C32.4352 15.9268 33.7623 15.668 34.9187 15.4578" stroke="#50C878" stroke-opacity="0.75" stroke-width="4" stroke-linecap="round"/>
<path d="M84.0179 26.4353C84.861 27.8854 85.4784 29.4956 86.2023 31.0092C86.7823 32.2219 86.9675 33.4992 87.2889 34.7848C87.6282 36.1419 87.6105 37.5034 87.6105 38.8986C87.6105 40.1331 87.8188 41.3014 87.4552 42.5134C86.8366 44.5755 85.9621 46.2165 84.1398 47.3922C82.7411 48.2946 81.0256 48.6942 79.577 49.5434C78.3061 50.2884 77.7934 51.4791 77.4314 52.8366C77.0795 54.1564 76.8275 55.7389 76.9546 57.1056C77.0827 58.4829 77.0933 59.796 76.6386 61.1251C76.2208 62.3464 75.5153 63.8139 74.4819 64.6346C73.7736 65.197 72.6715 65.0559 71.7985 65.0559C70.3698 65.0559 68.6434 64.5991 67.3521 63.9804C65.7155 63.1961 65.1182 60.7318 64.4248 59.2678C63.6639 57.6615 62.7607 56.2012 62.512 54.4056C62.2983 52.8618 62.2953 51.3538 62.9389 49.9093C63.4936 48.6645 64.1412 47.6551 64.957 46.5883C65.2953 46.146 65.7031 45.768 66.0326 45.3187C66.4133 44.7996 66.6712 44.2145 67.0084 43.6665C67.3617 43.0924 67.862 42.5906 68.1893 42.0088C68.493 41.4689 68.6112 40.779 68.849 40.2014C69.3409 39.007 69.2883 37.8011 69.4256 36.5478C69.5235 35.6544 69.6554 34.7726 69.7694 33.8866C69.8371 33.3596 69.9349 32.8729 70.0466 32.3564C70.1999 31.6475 70.5643 31.0729 70.7839 30.3883C71.014 29.671 71.2817 29.0916 71.6766 28.4423C72.0841 27.772 72.6241 27.3641 73.1513 26.8012C73.6572 26.261 74.331 25.9647 75.0031 25.6813C75.8111 25.3405 76.6236 24.9536 77.4591 24.6833C78.0313 24.4982 78.8136 24.1179 79.4218 24.2952C80.0694 24.4841 80.7328 24.6608 81.3678 24.8885C82.4494 25.2762 83.209 25.7634 84.0622 26.5018C84.4935 26.875 84.7674 27.3731 85.0768 27.8435C85.3584 28.2715 85.7351 28.6884 85.9084 29.1796C86.9066 32.0079 86.1138 35.0144 85.1489 37.6899C84.5616 39.3183 83.6573 41.0303 83.4191 42.7573C83.2893 43.6981 83.1327 44.7051 82.6207 45.5183C82.0527 46.4205 81.0196 46.8932 79.9263 46.8932C79.4156 46.8932 79.0653 46.4347 78.8673 45.9785C78.0513 44.098 78.7462 42.7872 79.4606 41.0608C79.7648 40.3256 80.1793 39.6372 80.6747 39.015C81.1259 38.4484 81.4755 37.7952 81.9721 37.2686C82.6245 36.5766 83.71 35.4702 83.8183 34.4688C83.9093 33.6268 84.0051 32.7526 83.8405 31.9129C83.6735 31.0615 82.6571 30.0753 82.083 29.5012C81.481 28.8992 80.4599 28.1024 79.5493 28.1318C79.0546 28.1478 78.4686 28.5818 77.9969 28.7306C77.4478 28.9037 76.8862 29.0291 76.378 29.3072C75.8316 29.6061 75.5181 30.2446 75.0862 30.6766C74.6575 31.1053 74.3635 31.6838 73.9829 32.1569C73.5736 32.6658 73.294 33.2195 72.9462 33.7702C72.3816 34.6642 71.8661 35.7488 71.4437 36.7142C71.1597 37.3633 70.8449 37.9012 70.8449 38.6214C70.8449 39.9958 71.2101 35.8909 71.5435 34.5575C71.8648 33.2722 72.3274 31.8326 73.0182 30.7043C73.4849 29.942 74.1103 29.0341 74.9587 28.6751C76.29 28.1119 77.3494 27.8724 78.8064 28.0098C79.4554 28.071 80.0931 28.0839 80.5361 28.6086C81.0745 29.2461 81.5535 30.0378 81.8612 30.8152C82.2988 31.9206 81.8836 32.8304 81.4676 33.8312C81.2715 34.3027 80.9191 34.7298 80.7468 35.1951C80.625 35.5238 80.6501 35.9102 80.525 36.2485C80.2791 36.914 80.4252 37.764 80.4252 38.4717C80.4252 39.1884 80.3831 39.901 80.5029 40.6062C80.7203 41.8865 81.2219 44.3003 80.1813 45.3409C79.9043 45.6179 79.8406 45.5853 79.4606 45.4961C78.2301 45.2075 76.9893 44.69 75.9234 44.0103C75.5847 43.7943 74.7861 43.4695 74.7425 42.9902C74.6573 42.0534 74.8132 41.0884 75.1417 40.2125C75.8513 38.3201 77.0594 36.5376 78.0523 34.7737C78.6148 33.7745 79.1703 32.7967 79.6269 31.7466C79.8076 31.3309 80.0646 30.8895 79.3608 31.1866C78.1586 31.6942 77.3523 32.4752 76.3669 33.2879C74.7415 34.6284 73.0137 36.0983 72.2199 38.1113C72.157 38.2707 71.6359 39.4398 72.109 39.5029C73.1947 39.6476 74.7384 38.8225 75.5686 38.1556C75.8657 37.917 76.5862 37.5471 76.9823 37.7232C77.1685 37.806 77.3022 38.128 77.3427 38.3053C77.4748 38.8832 77.7308 39.4465 77.7308 40.0462C77.7308 41.5174 76.7622 43.3711 75.7293 44.4039C75.432 44.7012 75.2485 45.0594 75.0363 45.4185C74.6338 46.0997 74.1341 46.6978 73.8055 47.4255C73.5971 47.8869 73.4446 48.4195 73.2844 48.9002C73.1778 49.22 73.2555 49.1024 73.5061 49.0666C74.3241 48.9497 75.335 48.8392 75.9289 48.1462C76.0747 47.9761 76.633 47.369 76.633 47.6916C76.633 48.4644 76.1374 49.2145 75.8291 49.8926C75.3545 50.9368 74.7519 51.9417 74.238 52.9697C74.0113 53.423 73.5965 53.9639 73.5394 54.4777C73.523 54.6256 73.5418 54.2948 73.5449 54.267C73.6048 53.7285 74.0081 53.1102 74.2601 52.6481C75.1578 51.0023 75.8003 49.2408 76.755 47.6251C77.0211 47.1747 77.2587 46.6935 77.57 46.2723C77.7534 46.0242 77.968 45.8948 78.0801 45.5959C78.2225 45.2162 78.1108 45.2777 77.764 45.0526C77.0891 44.6143 76.3454 44.3318 75.6573 43.9216C74.6351 43.3122 74.1482 42.1184 73.046 41.6097C72.661 41.432 72.424 41.2868 72.0979 41.6041C71.5951 42.0934 71.0174 42.5016 70.6232 43.0789C70.4573 43.3218 70.1544 43.3546 69.9967 43.6C69.8563 43.8183 69.5962 44.0262 69.3979 44.1932C68.6191 44.8491 68.1269 45.4987 67.4963 46.3056C66.4902 47.5927 65.5251 49.1831 65.3507 50.8407C65.305 51.2742 65.0814 51.8559 65.1788 52.2822C65.2643 52.6564 65.3918 53.0375 65.4505 53.4187C65.5653 54.1655 65.6556 54.8123 65.6556 55.5865C65.6556 56.2665 65.7838 56.9525 66.0769 57.5713C66.3519 58.1518 67.0125 58.2495 67.3299 58.7689C67.5555 59.138 67.9696 59.3656 68.3002 59.6227C68.5966 59.8532 69.0318 60.0289 69.2704 60.2436C69.5861 60.5278 70.6961 60.6227 70.7451 61.0641C70.7962 61.5239 72.2951 61.7304 72.6967 61.6574C73.2038 61.5652 73.8636 60.8922 74.1382 60.4875C74.5625 59.8622 74.6588 58.8507 74.8811 58.1202C75.2956 56.7583 75.3264 55.0605 74.493 53.8567C74.0543 53.2231 73.3974 52.8981 72.7909 52.4762C72.4504 52.2394 72.1665 52.0331 72.0425 51.6391C71.4514 49.7615 71.6027 47.7368 72.1367 45.8676C72.1697 45.752 72.4229 44.667 72.364 44.7199C71.4392 45.5523 70.6593 46.6089 69.664 47.37C68.0796 48.5817 67.0527 50.553 67.0527 52.5317C67.0527 53.7118 67.0654 54.9282 67.596 56.0189C68.0929 57.0403 69.0279 57.535 69.8359 58.2532C70.123 58.5085 71.2119 59.2181 71.5989 59.0461C72.1925 58.7823 72.4159 58.2248 72.6412 57.6489C73.3562 55.8217 71.231 54.5807 70.6952 53.0805C70.5767 52.7487 70.6375 52.3114 70.6453 51.9606C70.6542 51.5634 70.6389 50.9325 70.7507 50.5413C70.7903 50.4028 70.8814 50.9883 70.8893 51.0181C71.0964 51.8053 71.5582 52.5163 71.7209 53.3134C71.8954 54.1686 71.5486 55.156 71.3439 55.9746" stroke="#50C878" stroke-opacity="0.75" stroke-width="4" stroke-linecap="round"/>
<path d="M70.2461 53.3799C69.5891 54.4749 69.0391 55.5716 68.7935 56.8284C68.6616 57.5035 68.4797 58.4485 68.7048 59.1236C68.8779 59.643 68.9619 60.416 69.3978 60.7647C69.463 60.8169 69.8469 61.3911 69.8469 61.2637" stroke="#50C878" stroke-opacity="0.75" stroke-width="4" stroke-linecap="round"/>
<path d="M71.9426 37.4127C71.9073 35.8606 71.4183 34.2001 71.987 32.678C72.4395 31.4668 73.1137 30.3094 74.0161 29.407C74.3873 29.0358 74.7272 28.6323 75.1471 28.3092C75.6048 27.9572 76.1426 27.8477 76.5997 27.5109C76.9961 27.2188 77.7208 26.6349 78.2297 26.6349" stroke="#50C878" stroke-opacity="0.75" stroke-width="4" stroke-linecap="round"/>
<path d="M86.2133 37.2131C86.7407 38.8613 86.7701 40.7497 86.4129 42.4468C86.2003 43.4565 85.2062 44.5136 84.3504 45.0193C83.6658 45.4239 82.8729 45.626 82.1716 45.9951C81.759 46.2122 81.1902 46.1503 80.8243 46.3943" stroke="#50C878" stroke-opacity="0.75" stroke-width="4" stroke-linecap="round"/>
<path d="M15.4586 30.8262C14.6572 30.9825 13.98 30.7534 13.1855 30.6044C12.6156 30.4975 12.2071 30.4687 11.7884 30.05C11.3915 29.6531 11.4142 28.9252 11.1896 28.4311C10.9346 27.8701 10.9111 27.0437 11.0177 26.4463C11.1934 25.4625 11.2681 24.156 11.8217 23.2861C12.2932 22.5451 12.7455 22.0629 13.3629 21.4454" stroke="#50C878" stroke-opacity="0.75" stroke-width="4" stroke-linecap="round"/>
<path d="M26.4362 19.5494C28.2236 21.0085 31.6093 21.947 33.7766 20.8911C34.233 20.6687 34.9381 20.4836 35.2736 20.0872C35.6402 19.6538 35.9555 19.2374 36.2604 18.7621C36.7112 18.0595 36.9614 17.2604 37.3138 16.5555" stroke="#50C878" stroke-opacity="0.75" stroke-width="4" stroke-linecap="round"/>
<path d="M49.5885 80.0251C48.65 81.1901 46.7008 81.828 45.2752 82.2206C44.5124 82.4307 43.696 82.4446 42.9133 82.5255C42.2085 82.5985 41.5776 82.8194 40.862 82.8194C39.3015 82.8194 37.6838 82.9383 36.1384 82.6974C35.3201 82.5699 34.6271 82.4725 33.9096 82.0377C33.4214 81.7418 33.104 81.112 32.8119 80.6461C31.7495 78.9513 30.7295 77.017 29.9733 75.1684C29.489 73.9847 28.6967 73.19 27.5394 72.6902C25.8283 71.9513 24.2204 71.2893 22.3778 70.9438C21.3939 70.7593 20.4512 70.4791 19.4393 70.4448C18.5053 70.4131 17.3875 70.2306 16.5397 69.8349C15.5212 69.3596 15.0389 68.3812 14.6825 67.329C14.4202 66.5546 14.3041 65.7351 14.0726 64.9505C13.9029 64.3756 13.6018 63.7944 13.8231 63.1986C15.6109 58.3853 21.7902 57.3973 26.3307 57.9649C28.1714 58.195 30.1255 58.4635 31.0267 60.2657C31.4436 61.0996 31.8031 61.5424 32.6178 62.0177C33.658 62.6245 34.8153 63.3165 36.0275 63.559C36.7365 63.7007 37.4058 63.7585 38.1232 63.7585C39.0119 63.7585 39.7767 63.4297 40.6402 63.3372C42.0192 63.1894 43.345 63.06 44.7374 63.06C45.9178 63.06 46.9669 63.4303 48.1027 63.7142C49.4061 64.04 50.5964 64.9004 51.4403 65.9319C52.1722 66.8265 52.9815 68.1522 52.9815 69.3471C52.9815 70.6823 53.058 72.0074 53.0813 73.3389C53.0902 73.8431 53.0413 74.3255 52.9261 74.8192C52.699 75.7923 52.0662 76.8888 51.4347 77.6689C50.7452 78.5207 49.8009 79.1088 48.8123 79.5261C47.9219 79.9021 47.093 80.1265 46.1511 80.3744C45.0618 80.6611 43.9232 80.438 42.8135 80.4243C41.3964 80.4068 39.9864 80.2247 38.5667 80.2247C37.573 80.2247 36.7469 79.9739 35.7835 79.7812C35.1347 79.6514 34.8383 78.9263 34.464 78.4173C34.1266 77.9584 33.9054 77.4589 33.5825 76.9925C33.2044 76.4463 33.1445 75.634 32.9449 75.0132C32.7924 74.5385 32.5278 74.1467 32.324 73.6881C32.0721 73.1213 31.274 72.6873 30.7605 72.3963C29.5778 71.7261 28.4405 71.2247 27.0958 70.9438C25.2265 70.5532 23.2889 70.3835 21.5018 69.6686C20.911 69.4323 20.2714 69.3354 19.6777 69.0865C19.1957 68.8843 18.3018 68.5419 18.0311 68.0497C17.4876 67.0615 17.0554 66.1938 17.0554 65.0004C17.0554 63.6871 17.5646 62.3418 18.7519 61.6739C19.7945 61.0874 21.2559 61.3635 22.3999 61.3635C23.2094 61.3635 24.0188 61.3635 24.8283 61.3635C26.4541 61.3635 28.0984 61.4561 29.2525 62.7384C30.1089 63.6899 31.2003 63.9776 32.4238 64.3573C33.7081 64.7559 35.2822 65.2091 36.6263 65.2555C37.4714 65.2846 38.2745 65.6386 39.1433 65.6546C39.7549 65.666 40.3404 65.5549 40.9396 65.5549C42.3652 65.5549 43.6967 65.6811 45.0589 66.1093C46.0645 66.4253 46.9132 66.7054 47.5372 67.5507C48.0384 68.2298 48.132 68.6651 48.269 69.5023C48.3135 69.7741 48.2912 70.0598 48.2912 70.3339C48.2912 70.6681 48.2794 70.574 48.4409 70.4448C48.8021 70.1558 49.1846 69.5753 49.4665 69.1918C49.6012 69.0087 49.7549 68.8455 49.8657 68.6485C49.9844 68.4375 50.339 69.4711 50.3425 69.4801C50.8234 70.7211 51.0168 72.011 51.2739 73.3111C51.3629 73.7608 51.6056 74.3603 51.3072 74.7582C51.1571 74.9583 51.0845 75.3513 50.9856 75.5842C50.7819 76.0644 50.4868 76.4076 50.1374 76.7873C49.3525 77.6404 47.9661 78.2152 46.8164 78.373C45.7834 78.5148 44.5953 78.5973 43.5454 78.506C41.7212 78.3474 39.5961 78.1137 37.9181 77.3307C37.2996 77.0421 36.722 76.5129 36.0718 76.3272C35.513 76.1675 35.1942 74.8812 35.0406 74.4033C34.5693 72.9371 33.9457 70.1601 32.2353 69.6243C30.0679 68.9453 27.8183 68.8706 25.6045 68.4489C24.6195 68.2613 23.9142 67.4076 22.9987 67.146C22.3867 66.9712 21.639 66.4528 21.4242 65.8321C21.3417 65.5939 21.3439 65.3087 21.2301 65.1002C21.063 64.7939 19.6844 64.1836 19.7276 64.1355C20.7417 63.0088 22.5871 63.5597 23.9412 63.7364C24.5277 63.8129 25.1275 63.8397 25.6987 64.0136C26.2313 64.1757 26.642 64.4455 27.1346 64.6789C27.6005 64.8995 28.1771 65.0263 28.6648 65.1889C29.5082 65.4701 30.3154 65.8608 31.1209 66.2423C33.1938 67.2242 35.7076 67.4976 37.9679 67.5563C39.0478 67.5843 40.2394 67.5218 41.3111 67.7004C42.1765 67.8447 43.408 67.5403 44.1996 67.9721C44.6259 68.2047 44.9989 68.6867 45.386 68.9867C45.7825 69.2939 46.083 69.6337 46.4339 69.9846C46.8055 70.3562 47.0478 70.927 47.1934 71.4206C47.5092 72.4908 47.632 73.6857 47.3875 74.7859C47.1215 75.983 45.8393 76.3121 44.7485 76.427C43.8154 76.5252 42.9158 75.6316 42.0817 75.3569C41.1582 75.0528 40.4534 74.8771 39.6035 74.3867C37.9537 73.4349 37.0256 71.8038 35.6061 70.5779C34.7991 69.8809 34.23 68.9405 33.4106 68.2382C32.5037 67.4608 31.5 67.1603 30.3392 66.9298C28.7801 66.6203 26.8804 66.5976 25.4381 65.8764C25.1785 65.7466 24.7205 65.4795 24.7396 65.1557C24.7694 64.6483 28.5664 64.8767 29.003 64.9062C31.0635 65.0454 33.7445 65.4258 35.5063 66.6193C37.0189 67.6439 38.3731 68.6166 40.0914 69.2916C40.9612 69.6334 41.8815 69.8467 42.7415 70.2009C43.1655 70.3755 43.5541 70.5876 43.9446 70.8218C44.2854 71.0263 44.8079 71.1527 45.0756 71.4649C45.3681 71.8062 45.5962 72.8171 45.4914 73.289C45.3378 73.9802 43.3443 74.0618 42.7914 74.0152C41.9751 73.9465 41.3761 73.5572 40.6513 73.2113C40.3853 73.0844 40.1016 72.9526 39.9029 72.729C39.6814 72.4799 39.5376 72.1218 39.2653 71.9196C38.4179 71.2901 37.1284 71.0949 36.155 70.6499C35.3767 70.2941 34.4763 70.2236 33.7211 69.846" stroke="#50C878" stroke-opacity="0.75" stroke-width="4" stroke-linecap="round"/>
<path d="M21.2468 69.4469C20.7089 69.5347 20.3785 69.4657 19.8718 69.4469C19.5222 69.434 19.2558 69.0465 18.9515 68.8703C18.4401 68.5743 18.2293 67.7641 17.8427 67.3346C16.7773 66.1509 15.9339 64.2586 16.9556 62.7828C17.5429 61.9346 18.8328 61.2439 19.6722 60.665C20.1958 60.3039 20.7762 60.0327 21.3244 59.7114C21.9693 59.3333 22.5932 59.3676 23.3646 59.3676C24.9396 59.3676 26.434 59.4908 27.7335 60.4654" stroke="#50C878" stroke-opacity="0.75" stroke-width="4" stroke-linecap="round"/>
<path d="M28.8312 73.8379C29.3189 74.2601 29.8401 74.6297 30.3336 75.041C30.5206 75.1968 30.9262 75.3582 31.0267 75.5843C31.2285 76.0384 31.4652 76.5038 31.6033 76.987C31.8224 77.7541 32.1674 78.4644 32.6733 79.0827C33.3559 79.917 33.956 80.3837 35.0129 80.6683C35.9814 80.9291 37.2849 81.0874 38.2119 80.6239" stroke="#50C878" stroke-opacity="0.75" stroke-width="4" stroke-linecap="round"/>
<path d="M51.8838 74.3369C52.2651 73.5628 52.6668 72.6915 52.7598 71.8198C52.8208 71.2481 52.9959 70.577 52.8596 70.0013C52.6505 69.1185 52.2865 68.3881 51.8727 67.5841C51.694 67.2369 51.4385 66.7294 51.0854 66.5529" stroke="#50C878" stroke-opacity="0.75" stroke-width="4" stroke-linecap="round"/>
</svg>
