<svg width="100" height="100" viewBox="0 0 100 100" fill="none" xmlns="http://www.w3.org/2000/svg">
<rect width="100" height="100" fill="#A66F41"/>
<path d="M22.9187 28.2965C21.7199 26.714 19.844 24.1312 18.0462 23.1324C16.2979 22.1611 15.314 19.7441 14.298 18.0932C13.5581 16.8909 12.4062 14.7011 12.8821 13.2206C13.5456 11.1564 17.5046 8.95183 19.3996 10.5553C22.0966 12.8373 22.7562 16.448 24.0223 19.6133C24.6809 21.2596 25.6932 22.956 26.2088 24.6316C26.7666 26.4446 25.7966 28.2178 23.7516 28.2965C21.2264 28.3936 20.6422 24.303 19.3788 22.6951C18.0006 20.941 18.9141 13.3039 15.9847 13.3039C13.9019 13.3039 15.1243 19.1129 15.9847 20.238C17.3432 22.0145 19.0436 23.7596 20.6698 25.298C21.3483 25.9398 24.4701 28.4845 24.418 27.5468C24.2327 24.2121 22.9233 22.2055 21.6069 19.2801C20.5276 16.8818 18.4953 12.5543 15.4225 12.5543" stroke="#989693" stroke-width="4" stroke-linecap="round"/>
<path d="M18.0462 59.406C17.0878 64.8568 17.4866 68.3696 20.2326 73.0034C20.6153 73.6492 21.7012 76.3965 22.4607 76.4809C23.7082 76.6195 22.8374 69.6879 22.7314 69.1928C22.2186 66.7998 21.3436 64.4294 20.6699 62.0714C20.5258 61.5671 19.6709 59.406 19.1706 59.406C16.7833 59.406 17.27 65.5861 17.3174 66.6524C17.4539 69.7245 18.2937 72.0221 20.3784 74.3153C20.977 74.9737 22.294 76.8474 23.3769 75.9811C23.7062 75.7176 24.228 75.9832 24.6054 75.6896C25.4009 75.0709 25.9635 73.8642 26.2713 72.941C27.2376 70.0419 26.6582 66.5037 25.6258 63.6956C24.9981 61.9884 22.2526 57.0041 20.4408 60.4264C19.2575 62.6616 18.7958 64.4245 18.7958 66.9023C18.7958 67.8307 19.5761 70.1647 20.8573 69.88C22.4943 69.5162 22.5693 68.3801 23.0021 66.9856C23.651 64.8945 23.5753 63.1231 21.4195 62.4045" stroke="#989693" stroke-width="4" stroke-linecap="round"/>
<path d="M69.7705 89.3911C72.946 89.7703 74.5805 90.074 77.0585 88.0168C79.4254 86.0518 80.4962 83.4499 82.1393 80.937C83.2121 79.2962 86.041 73.2073 82.8681 72.1497C80.0044 71.1951 79.2363 71.8434 76.7253 73.1492C75.3739 73.8519 74.3216 75.0571 73.0605 75.8978C71.6037 76.869 69.784 77.6989 68.4586 78.7297C67.1752 79.7279 65.6454 81.1967 63.9817 81.4992C61.7571 81.9037 58.9343 80.8328 56.9227 82.1447C54.9185 83.4518 55.7293 88.8533 57.7764 90.0574C61.4572 92.2226 66.5008 93.0356 69.7705 89.7659" stroke="#989693" stroke-width="4" stroke-linecap="round"/>
<path d="M75.3927 88.2667C75.8182 86.0327 76.3223 83.9249 76.7046 81.7074C76.9416 80.3326 76.7219 79.244 77.6624 78.1467C78.2974 77.406 78.9435 77.0114 79.599 76.3559C80.5618 75.3931 80.5954 76.1825 80.6401 77.4804C80.7021 79.277 79.5613 83.142 77.8082 84.1437C76.174 85.0776 75.6387 85.7386 73.6644 86.1844C71.6657 86.6357 69.6108 86.297 67.7091 87.1422C65.5632 88.0959 58.5261 91.2775 58.5261 86.58C58.5261 84.7779 61.4046 83.7478 62.7324 84.8101C63.7029 85.5865 66.2276 86.3926 67.5217 86.3926C70.1221 86.3926 62.2465 86.1807 59.7339 86.8507C55.4325 87.9977 68.2036 84.0914 72.3526 82.4779C73.202 82.1476 73.724 81.8561 74.3516 81.2285C75.3205 80.2596 73.631 79.2067 72.769 80.0208C71.9986 80.7484 71.1168 80.9902 70.8741 82.0822C70.6534 83.0756 69.874 83.6646 68.8543 83.3733C68.1859 83.1823 68.7685 81.7027 69.2708 81.52C71.0508 80.8727 73.0271 80.6586 74.8722 80.3748C77.4218 79.9825 79.9648 79.3031 81.3065 77.0223C82.8028 74.4785 80.255 75.3199 78.7661 76.0644C77.5564 76.6692 72.694 77.8628 74.9346 79.9375C77.2999 82.1275 80.1899 79.2837 82.5142 78.8963" stroke="#989693" stroke-width="4" stroke-linecap="round"/>
<path d="M52.5291 50.0357C57.1163 50.0357 61.2761 49.8678 64.6897 46.4541C66.4787 44.6651 66.9053 42.3061 68.3545 40.3738C68.9434 39.5887 70.0336 38.7264 70.5201 37.875C70.8021 37.3816 73.301 36.5424 73.8935 36.5424C75.5001 36.5424 76.5427 36.266 78.2038 36.5215C80.4031 36.8599 82.219 37.962 84.0134 36.1676C85.8711 34.3099 88.2825 31.1058 88.8652 28.4839C89.2238 26.8703 88.5085 25.0812 86.9286 24.5067C83.8195 23.3761 81.1796 21.8925 77.8707 21.1958C75.5927 20.7163 73.3036 20.4254 70.9782 20.4254C65.317 20.4254 57.987 22.8497 53.8201 26.7972C53.0019 27.5724 52.0472 28.2178 51.2381 29.0045C49.9423 30.2643 49.1413 32.5059 47.8439 33.5439C46.31 34.771 45.889 38.035 45.4076 39.7908C44.4848 43.1562 44.6629 45.1147 46.1364 48.3074C46.9674 50.1077 48.2575 50.0357 50.072 50.0357C51.2218 50.0357 52.4575 49.8647 53.5702 49.5776C55.508 49.0775 57.5169 49.6191 59.4423 49.2027C62.0673 48.6352 63.7735 48.1855 63.7735 45.1839C63.7735 44.5067 64.1647 40.926 63.0239 41.0401C61.2633 41.2162 58.5579 43.7229 57.1518 44.5384C55.7528 45.3498 54.2783 45.874 52.6957 46.1001C49.7775 46.517 47.5488 44.829 47.6565 41.7065C47.7382 39.3369 49.4483 37.3742 51.0298 35.7927C52.8137 34.0089 54.4936 32.329 56.2772 30.5454C57.7732 29.0494 60.4206 26.4226 62.4825 25.6728C66.1649 24.3337 69.8673 23.4239 73.8518 23.4239C76.2342 23.4239 81.0522 22.5204 82.889 24.1735C84.7427 25.8419 85.534 26.0441 85.1587 28.6713C84.9861 29.8791 84.547 31.6945 83.2638 32.3361C81.4019 33.2671 80.1723 32.1018 80.2861 30.3371C80.3287 29.6778 80.407 28.8977 80.7234 28.2965C80.8285 28.0968 81.4841 27.6062 81.2648 27.3594C80.5485 26.5536 78.2831 26.8155 77.3501 26.7972C74.6666 26.7446 71.9976 26.4522 69.3124 26.4224C65.9471 26.385 62.7921 26.8866 59.484 27.1512C57.7144 27.2928 55.6781 27.7404 54.3199 28.9628C51.2088 31.7628 49.5306 34.3204 49.5306 38.6038C49.5306 40.5506 49.7909 42.4669 49.9054 44.4135C49.9458 45.1001 50.5904 45.1421 49.9054 45.9127C49.5299 46.3351 49.2833 47.0593 49.1349 47.5786C48.7251 49.013 45.8834 46.7365 47.2817 45.5379C50.654 42.6473 55.6304 46.6316 58.776 47.6202C60.6565 48.2112 63.4452 49.6302 65.4393 48.7238C66.8898 48.0645 66.3092 46.9755 65.4393 46.0793C64.0525 44.6505 60.9932 44.0736 59.0467 43.6638C54.9877 42.8093 51.3442 39.0343 54.8613 35.1264C55.7634 34.1241 57.8394 33.1077 59.1716 32.7942C63.877 31.6871 68.283 29.6524 73.1438 29.4209C74.1452 29.3732 81.5016 28.7815 81.7437 29.6291C82.0236 30.6089 82.0155 33.0926 80.6401 33.169C78.8488 33.2686 77.504 33.9754 75.8716 32.9192C70.4542 29.4138 64.5139 28.229 58.1929 27.6301C55.5776 27.3824 54.2031 27.2442 53.2787 29.6708C52.499 31.7175 52.8048 34.3159 53.2579 36.355C53.6169 37.9703 52.9196 41.6197 55.1528 41.1234C57.4437 40.6143 59.6015 40.9035 61.2747 38.9578C62.0802 38.0212 62.6224 37.0402 63.2113 35.9802C64.1043 34.3728 64.1732 33.3445 66.189 32.9816C68.6898 32.5315 71.5655 32.0306 74.06 32.7109C75.6205 33.1365 73.4927 33.8879 72.8523 34.2935C70.7264 35.6399 68.1032 36.1811 65.7517 37.0629C63.8533 37.7748 59.9103 40.0406 58.9842 41.7898C57.9026 43.8327 59.707 44.3385 61.5038 43.0808C63.586 41.6233 64.4817 39.4988 65.6476 37.4586C65.9631 36.9063 66.1827 36.3009 66.5638 35.7927C66.9283 35.3067 64.3278 34.2658 63.7735 34.2935C61.4754 34.4084 59.8125 36.9958 58.5261 38.6038C57.3431 40.0825 54.1981 40.7247 52.5291 41.3317C52.2985 41.4155 49.2961 41.7707 49.2391 41.7065C48.564 40.947 53.3314 36.1934 53.8618 35.5845C56.1632 32.9422 59.8239 29.5072 63.3987 28.588C70.4054 26.7863 77.7842 28.193 84.7631 26.7972" stroke="#989693" stroke-width="4" stroke-linecap="round"/>
<path d="M78.0164 77.7719C76.4378 81.4862 76.4497 79.0022 76.5171 76.4392C76.5679 74.511 78.0164 76.6933 78.0164 77.5845C78.0164 78.1964 76.9438 81.9984 76.1423 80.3956" stroke="#D5C8AE" stroke-opacity="0.64" stroke-width="4" stroke-linecap="round"/>
<path d="M19.1705 18.1765C18.9004 16.7919 18.7534 16.0546 19.1705 14.8032" stroke="#D5C8AE" stroke-opacity="0.64" stroke-width="4" stroke-linecap="round"/>
<path d="M48.406 47.0372C48.7002 46.6606 50.7399 44.0929 50.6549 45.5379C50.6174 46.1752 49.6872 46.6623 49.1556 46.6623" stroke="#D5C8AE" stroke-opacity="0.64" stroke-width="4" stroke-linecap="round"/>
<path d="M81.7644 29.4209C82.1718 29.1026 84.0492 27.7493 83.1804 26.8805C82.8085 26.5087 82.1594 27.203 82.1392 27.5469C82.0871 28.432 83.3408 30.391 84.0133 29.0461" stroke="#D5C8AE" stroke-opacity="0.64" stroke-width="4" stroke-linecap="round"/>
</svg>
