<svg width="100" height="100" viewBox="0 0 100 100" fill="none" xmlns="http://www.w3.org/2000/svg">
<rect width="100" height="100" fill="#7A5230"/>
<rect x="5" y="6" width="90" height="90" fill="#7A5230"/>
<path d="M8.30579 30.5348C9.70483 30.0236 11.6877 29.2104 12.5268 27.8373C12.7755 27.4303 13.1527 26.8307 13.4759 26.4886C14.4271 25.4814 17.9866 21.6832 18.8707 22.5673C20.9713 24.6679 10.3289 28.0705 10.3289 29.8604C10.3289 31.023 12.4932 30.5498 13.2761 30.5348C14.4659 30.5119 15.3893 29.5205 16.1733 28.7365C16.8019 28.1079 18.1421 26.7914 18.1964 25.8143C18.2704 24.482 16.7612 24.497 15.5988 24.4655C14.2009 24.4278 12.8411 25.4163 11.7525 26.1889C11.6589 26.2554 8.81779 28.0635 9.0301 28.5117C9.85177 30.2463 14.354 30.9843 15.9485 30.9843" stroke="#828482" stroke-opacity="0.54" stroke-width="3" stroke-linecap="round"/>
<path d="M25.1648 39.5262C28.5766 39.5262 32.5038 39.9461 35.6798 38.4023C37.0119 37.7547 38.2528 36.9284 39.5761 36.2543C40.8247 35.6182 44.2834 33.0068 45.895 33.5069C47.7135 34.0713 49.6945 35.5845 50.5656 37.2783C50.9444 38.0148 51.124 38.5438 50.9652 39.4013C50.8581 39.9796 49.9874 41.2275 50.4532 41.7866C50.7841 42.1836 50.9147 42.7727 51.3524 43.1228C51.9883 43.6315 51.1505 43.8305 50.628 44.0344C48.4513 44.8839 46.1276 45.3972 43.9219 46.1324C43.5026 46.2722 42.8843 46.0505 42.4483 46.045C41.15 46.0288 39.8504 46.045 38.552 46.045C35.963 46.045 33.6315 45.2361 31.184 44.2467C29.9454 43.746 30.0298 42.7138 29.4357 41.6742C28.7979 40.558 28.2524 40.0976 26.9506 40.3254C26.2167 40.4539 23.8162 40.6499 23.3665 41.2121C22.9472 41.7362 24.016 42.4625 24.4404 42.7981C26.4443 44.3826 29.0471 43.6047 31.3089 43.5724C33.3095 43.5438 35.308 43.4496 37.3032 43.2976C39.0931 43.1612 41.2273 43.2934 42.823 42.336C43.814 41.7414 46.7442 40.6888 46.7442 39.1765C46.7442 36.9769 45.1644 37.4463 43.3724 37.0536C40.0258 36.3201 35.7943 39.1309 33.357 41.3245C32.9035 41.7326 31.9829 41.7742 31.3838 41.9989C30.1499 42.4616 28.5184 42.7841 27.2003 42.8855C26.3903 42.9478 24.2576 43.42 24.7651 42.7856C25.0618 42.4148 26.5518 42.2359 26.988 42.0988C27.954 41.7952 28.9339 41.5993 29.9477 41.5618C34.1961 41.4044 37.747 42.1105 41.6116 43.922C43.0312 44.5874 44.1198 45.1913 45.6827 45.1334C46.3591 45.1083 49.6568 45.1331 49.8788 44.1343C50.377 41.892 48.7863 40.5672 46.7942 39.9758C45.7362 39.6617 44.6546 39.5424 43.5723 39.3514C42.4541 39.1541 43.8137 37.9612 44.1217 37.603C44.681 36.9527 45.6627 36.387 44.2216 37.1285C42.6181 37.9536 41.1025 38.9298 39.4761 39.7135C38.6884 40.0931 37.6063 40.347 36.966 40.9873C36.3057 41.6476 36.3209 42.9252 37.3407 43.2227C38.9783 43.7003 41.191 43.1459 42.6856 42.4484C43.9057 41.879 44.9118 41.452 45.3456 40.1506C45.5607 39.5053 45.6485 37.5031 46.5194 37.5031C47.9108 37.5031 47.1938 40.5111 47.1938 41.5493C47.1938 42.2396 46.7692 44.3303 45.9325 44.459C43.9272 44.7675 42.4916 43.7296 41.4742 42.1737C39.8995 39.7652 43.6494 36.604 45.9575 36.604C47.4941 36.604 46.4644 37.7053 47.0939 38.5147C47.5496 39.1006 47.7705 38.6165 48.1929 38.3149C48.5133 38.0859 48.7314 39.5714 48.7673 39.751" stroke="#828482" stroke-opacity="0.54" stroke-width="3" stroke-linecap="round"/>
<path d="M46.7442 81.3364C47.4565 81.5475 49.3904 82.48 50.2409 82.1856C51.9044 81.6098 53.5321 80.9249 55.1487 80.2125C56.8135 79.4789 57.4031 78.6247 58.3082 77.2403C58.9554 76.2505 59.8921 75.5343 61.0306 75.1548C61.8107 74.8948 62.6225 74.712 63.3784 74.418C63.898 74.2159 64.532 75.6817 64.7146 76.0165C65.3822 77.2405 63.9867 79.4541 62.7665 80.1001C61.2615 80.8969 59.3782 81.4909 57.8087 82.1856C55.8498 83.0527 53.7542 83.962 51.6396 84.3086C50.2992 84.5284 43.8791 83.6321 44.9459 81.5612C45.5211 80.4448 46.981 80.6567 47.9805 80.2125C49.6395 79.4752 51.5521 78.799 53.3629 78.6265C54.7901 78.4906 56.1893 78.1894 57.6588 78.1894C58.832 78.1894 59.9918 78.2739 61.0306 77.9771C62.0625 77.6823 60.8732 77.4327 60.1315 77.7898C59.3927 78.1455 57.2975 78.6982 57.0844 79.5506C56.8787 80.3732 56.5589 81.2634 56.1852 82.0108" stroke="#828482" stroke-opacity="0.54" stroke-width="3" stroke-linecap="round"/>
<path d="M60.2314 78.1894C61.2223 77.5852 61.5886 77.1111 62.2045 76.3412C62.5566 75.901 62.704 75.6173 62.704 76.6159C62.704 78.4932 61.108 78.639 59.557 78.639" stroke="#828482" stroke-opacity="0.54" stroke-width="3" stroke-linecap="round"/>
<path d="M86.9809 15.9237C85.2299 16.11 83.6578 16.4538 81.9857 16.9727C80.3294 17.4867 78.4559 17.7647 76.8656 18.4463C75.9428 18.8417 74.9358 20.5113 74.5053 21.3061C73.4899 23.1806 72.3698 25.4336 72.3698 27.6126C72.3698 29.4122 76.417 31.1075 77.3151 29.5357C77.9353 28.4505 79.2467 27.2296 80.1125 26.3637C81.2566 25.2196 82.4648 24.2301 83.8839 23.3916C85.0517 22.7015 87.2582 21.931 87.8301 20.6442C88.4653 19.2151 85.5001 18.4972 84.6207 18.9708C82.7628 19.9712 81.1243 21.9098 79.563 23.3291C78.6535 24.1559 77.6548 24.8002 76.7781 25.6769C76.6291 25.8259 75.2461 27.3209 75.1172 27.0631C74.4964 25.8214 75.2596 22.0256 76.5409 21.0938C77.1342 20.6622 77.2585 20.1185 77.9895 19.8574C78.9289 19.5219 80.2746 19.745 81.2364 19.745C83.0729 19.745 82.7437 20.0201 81.5861 21.0813C80.7362 21.8603 79.8147 22.6632 78.7138 23.0669C77.8125 23.3974 76.9123 23.6559 76.0164 23.966C74.5854 24.4613 76.2618 23.3112 76.8031 22.992C79.1632 21.6001 81.5226 20.2529 83.784 18.721C85.1324 17.8076 86.2431 17.5422 87.8801 17.3848C88.6072 17.3149 90.9299 17.1055 89.541 18.4213C88.8581 19.0683 88.372 19.8814 87.4805 20.2446C86.2394 20.7502 85.3987 22.0882 84.1711 22.6548C83.4701 22.9783 82.9455 23.4487 82.2604 23.7912" stroke="#828482" stroke-opacity="0.54" stroke-width="3" stroke-linecap="round"/>
<path d="M84.7331 52.339C85.7661 57.8688 87.9891 63.0902 86.3066 68.6985C85.8668 70.1645 85.0246 72.5533 83.5967 73.3565C82.2023 74.1409 80.0932 73.6502 79.1634 72.4449C78.1963 71.1913 77.5399 69.5557 77.5399 67.9492C77.5399 66.0919 78.5667 65.7463 79.9376 64.7772C81.7233 63.5149 82.4264 62.3045 83.272 60.3314C83.5205 59.7516 83.9034 59.2419 84.0587 58.6205C84.2233 57.9622 84.2003 57.2228 84.4583 56.61C84.8097 55.7754 84.2558 54.7336 83.9588 54.0124C83.7724 53.5598 83.3981 52.3047 83.734 53.6003C83.9474 54.4233 84.2388 55.3115 84.2835 56.1604C84.4925 60.1311 84.7978 64.1329 83.3844 67.9492C83.2084 68.4241 81.0775 71.9181 80.7993 70.4718C80.5876 69.3707 80.4002 66.7422 81.5861 66.001C81.6498 65.9612 81.8763 65.6075 81.9232 65.6638C82.1886 65.9822 82.171 66.9351 82.2105 67.3248C82.3412 68.6161 82.0606 69.8268 82.0606 71.0712C82.0606 71.6323 83.4748 70.4641 83.5967 70.3219C83.9583 69.9 84.0587 69.5074 84.0587 68.9732" stroke="#828482" stroke-opacity="0.54" stroke-width="3" stroke-linecap="round"/>
<path d="M47.6434 42.6732C44.7404 44.6347 41.0124 43.5724 37.7528 43.5724" stroke="#828482" stroke-opacity="0.54" stroke-width="3" stroke-linecap="round"/>
<path d="M75.5168 23.7912C75.941 22.4921 76.0909 21.6735 77.0404 20.819C77.465 20.4369 78.3626 20.3205 78.8886 19.9698" stroke="#828482" stroke-opacity="0.54" stroke-width="3" stroke-linecap="round"/>
</svg>
