<svg width="100" height="102" viewBox="0 0 100 102" fill="none" xmlns="http://www.w3.org/2000/svg">
<rect y="1" width="100" height="100" fill="#205530"/>
<path d="M0 0H100V102H0V0Z" fill="#7A5230"/>
<path d="M3.83832 7.99784C3.71977 6.77281 3.62422 5.58922 3.62422 4.35815" stroke="#205530" stroke-linecap="round"/>
<path d="M6.94276 8.74719C7.18024 7.88111 7.40569 7.06594 7.74564 6.23152C7.9498 5.7304 8.10917 5.11585 8.54851 4.78635" stroke="#205530" stroke-linecap="round"/>
<path d="M11.76 8.5331C12.1194 6.59805 12.8193 4.44445 14.0081 2.85947" stroke="#205530" stroke-linecap="round"/>
<path d="M18.5041 8.42603C19.0232 6.63828 19.4735 4.82366 20.1099 3.07355" stroke="#205530" stroke-linecap="round"/>
<path d="M25.4624 8.85425C25.8444 6.60448 26.5164 4.75903 27.6034 2.75241" stroke="#205530" stroke-linecap="round"/>
<path d="M34.9898 10.2459C35.0804 9.29949 35.1167 8.2968 35.5072 7.41503C35.9417 6.43388 36.4921 5.50271 37.0237 4.57227" stroke="#205530" stroke-linecap="round"/>
<path d="M44.6243 9.92472C45.2772 7.70479 46.02 5.55839 47.0864 3.50174" stroke="#205530" stroke-linecap="round"/>
<path d="M52.8671 11.1023C52.9044 9.23906 53.5424 7.45102 54.2587 5.74979" stroke="#205530" stroke-linecap="round"/>
<path d="M59.7183 9.60358C60.1067 7.56438 60.7391 5.55899 61.4311 3.6088" stroke="#205530" stroke-linecap="round"/>
<path d="M67.1047 11.5305C67.1047 9.87263 66.9811 8.20749 67.4259 6.6062" stroke="#205530" stroke-linecap="round"/>
<path d="M71.2796 8.85424C71.7158 9.45388 71.6038 9.36609 71.7911 8.72935C72.3811 6.72326 73.4016 4.94467 74.4911 3.1806" stroke="#205530" stroke-linecap="round"/>
<path d="M80.4859 8.53309C80.8051 8.04157 81.0709 7.55003 81.3423 7.03439" stroke="#205530" stroke-linecap="round"/>
<path d="M86.8018 8.42604C86.872 8.52911 87.23 9.24163 87.23 8.77692C87.23 8.18182 87.3505 7.61968 87.4441 7.03439" stroke="#205530" stroke-linecap="round"/>
<path d="M92.9037 8.42603C93.0563 8.65023 93.3319 9.25536 93.3319 8.6996C93.3319 8.27196 93.3689 7.88309 93.4389 7.46259" stroke="#205530" stroke-linecap="round"/>
<path d="M96.1152 6.49916C96.1259 6.54888 96.3582 7.44697 96.3234 7.0463C96.251 6.21424 96.0726 5.40993 96.0081 4.57227" stroke="#205530" stroke-linecap="round"/>
<path d="M97.7209 7.2485C96.6465 5.36834 95.2248 3.57622 93.546 2.21716" stroke="#205530" stroke-linecap="round"/>
<path d="M90.5486 7.2485C89.6782 6.36223 88.8812 5.41887 88.0865 4.46521" stroke="#205530" stroke-linecap="round"/>
<path d="M85.8384 6.92735C85.6723 5.91006 85.3521 4.89215 84.982 3.92996" stroke="#205530" stroke-linecap="round"/>
<path d="M78.452 7.56964C78.1125 5.93234 77.7429 4.29878 77.4885 2.64536" stroke="#205530" stroke-linecap="round"/>
<path d="M71.3867 6.49914C70.7066 5.55995 70.0864 4.70881 69.6739 3.6088" stroke="#205530" stroke-linecap="round"/>
<path d="M67.4259 7.78373C66.7605 6.21094 66.1803 4.57454 65.606 2.96649" stroke="#205530" stroke-linecap="round"/>
<path d="M64.2144 6.39208C63.822 5.05784 63.3111 3.76575 62.9298 2.43124" stroke="#205530" stroke-linecap="round"/>
<path d="M61.6452 7.67669C61.1599 6.32387 60.6263 4.91735 59.8253 3.71585" stroke="#205530" stroke-linecap="round"/>
<path d="M56.7209 7.35554C56.1074 5.74877 55.1379 4.18963 54.3658 2.64536" stroke="#205530" stroke-linecap="round"/>
<path d="M52.1177 6.71324C51.7848 5.83089 51.2073 4.98645 50.619 4.2511" stroke="#205530" stroke-linecap="round"/>
<path d="M47.7287 8.53309C47.123 6.97111 46.5215 5.42219 46.7653 3.71585" stroke="#205530" stroke-linecap="round"/>
<path d="M51.0473 7.4626C52.6695 5.86881 54.2877 4.14535 56.0786 2.75241" stroke="#205530" stroke-linecap="round"/>
<path d="M57.5773 7.8908C57.8689 6.20616 58.152 4.42124 58.8619 2.85947" stroke="#205530" stroke-linecap="round"/>
<path d="M54.6869 7.14143C53.8863 6.39541 53.5427 5.34654 52.653 4.67929" stroke="#205530" stroke-linecap="round"/>
<path d="M44.089 8.21193C44.0422 6.83756 43.6608 5.51683 43.6608 4.14404" stroke="#205530" stroke-linecap="round"/>
<path d="M41.841 7.56965C41.4691 6.41868 40.8295 5.40524 40.2352 4.35815" stroke="#205530" stroke-linecap="round"/>
<path d="M36.4885 7.14144C36.1808 6.52602 35.8592 5.92302 35.525 5.32159" stroke="#205530" stroke-linecap="round"/>
<path d="M30.3867 6.92735C29.8623 6.07091 29.2857 5.26066 28.6739 4.46521" stroke="#205530" stroke-linecap="round"/>
<path d="M23.2143 7.14144C22.372 5.71424 21.2818 4.44508 20.2169 3.1806" stroke="#205530" stroke-linecap="round"/>
<path d="M8.01326 6.39211C9.32488 6.01271 10.6297 5.85959 11.9741 5.64276" stroke="#205530" stroke-linecap="round"/>
<path d="M15.8279 7.03438C16.4233 6.2405 17.0368 5.46128 17.6477 4.67929" stroke="#205530" stroke-linecap="round"/>
<path d="M18.7182 6.82031C19.5214 5.43893 19.6948 3.86452 20.0028 2.32422" stroke="#205530" stroke-linecap="round"/>
<path d="M22.8932 7.0344C23.3863 6.79905 23.6865 6.50962 23.9756 6.04716C24.4784 5.24266 25.0731 4.55192 25.6765 3.82291" stroke="#205530" stroke-linecap="round"/>
<path d="M27.4963 7.56965C28.1107 6.94092 28.5962 6.2523 29.1021 5.53571" stroke="#205530" stroke-linecap="round"/>
<path d="M30.2796 6.39208C31.1657 5.45534 31.9463 4.43531 32.8488 3.50174" stroke="#205530" stroke-linecap="round"/>
<path d="M35.3109 6.28506C35.751 5.51802 36.2196 4.77765 36.7026 4.03702" stroke="#205530" stroke-linecap="round"/>
<path d="M38.9506 5.53569L39.5929 4.67929" stroke="#205530" stroke-linecap="round"/>
<path d="M44.4102 5.64276C44.8915 4.85116 45.317 4.00625 46.0159 3.39471" stroke="#205530" stroke-linecap="round"/>
<path d="M47.6217 6.178C47.8036 5.0683 48.2371 4.25121 48.7992 3.28766" stroke="#205530" stroke-linecap="round"/>
<path d="M55.1151 4.46521H55.7574" stroke="#205530" stroke-linecap="round"/>
<path d="M62.1804 3.6088C62.4027 4.17834 62.3126 4.22144 62.8227 3.92994" stroke="#205530" stroke-linecap="round"/>
<path d="M70.9585 3.39472L71.9219 2.85947" stroke="#205530" stroke-linecap="round"/>
<path d="M84.4468 3.50175C85.6813 3.36829 86.873 3.3424 88.0865 3.1806" stroke="#205530" stroke-linecap="round"/>
<path d="M93.8671 2.00305C93.5539 2.4872 93.2839 2.99438 93.0107 3.50175" stroke="#205530" stroke-linecap="round"/>
<path d="M93.4389 5.53569C93.1171 5.0374 92.7408 4.60407 92.3684 4.14404" stroke="#205530" stroke-linecap="round"/>
<path d="M86.3737 3.07355C85.6129 3.36749 84.9149 3.37019 84.1256 3.50175" stroke="#205530" stroke-linecap="round"/>
<path d="M80.1648 3.71585V4.35815" stroke="#205530" stroke-linecap="round"/>
<path d="M81.4494 4.14406C81.7669 3.57704 82.0515 2.79259 82.5199 2.32422" stroke="#205530" stroke-linecap="round"/>
<path d="M83.3763 6.07094C83.5567 5.12386 83.8525 4.37293 84.4468 3.6088" stroke="#205530" stroke-linecap="round"/>
<path d="M88.0865 5.85685C88.6199 4.97461 89.1267 4.07231 89.7993 3.28766" stroke="#205530" stroke-linecap="round"/>
<path d="M89.6922 5.74979C89.9732 4.61461 90.2628 3.53135 90.6556 2.43124" stroke="#205530" stroke-linecap="round"/>
<path d="M93.0107 6.60618C93.4283 5.51008 93.4366 4.08233 93.1178 2.96649" stroke="#205530" stroke-linecap="round"/>
<path d="M88.6217 9.06833C88.1853 7.67189 87.63 6.47646 86.9089 5.21454" stroke="#205530" stroke-linecap="round"/>
<path d="M83.4833 8.1049C83.2254 7.44677 82.9243 6.81851 82.6269 6.17801" stroke="#205530" stroke-linecap="round"/>
<path d="M77.4885 9.60357C77.2122 8.87204 77.0756 8.10087 76.8462 7.35553" stroke="#205530" stroke-linecap="round"/>
<path d="M75.0264 10.567C74.4438 8.44063 73.6348 6.49847 73.6348 4.2511" stroke="#205530" stroke-linecap="round"/>
<path d="M76.2039 6.49916C76.6328 5.49302 77.0594 4.46999 77.2744 3.39471" stroke="#205530" stroke-linecap="round"/>
<path d="M69.888 8.31898C68.9817 7.40279 68.189 6.46592 67.4021 5.45243C67.0638 5.01674 66.7143 4.45473 66.2483 4.14404" stroke="#205530" stroke-linecap="round"/>
<path d="M59.7183 8.7472C60.7049 6.8092 61.5105 4.66729 62.7157 2.85947" stroke="#205530" stroke-linecap="round"/>
<path d="M64.5355 9.71064C64.5355 8.45989 64.5936 7.21363 64.6426 5.9639" stroke="#205530" stroke-linecap="round"/>
<path d="M58.6478 7.46259C58.5122 7.48781 57.7518 7.71164 57.6843 7.49233C57.5288 6.98689 57.3924 6.47475 57.2561 5.9639" stroke="#205530" stroke-linecap="round"/>
<path d="M52.2248 7.35556C50.9711 5.99736 50.1193 4.2747 48.9063 2.85947" stroke="#205530" stroke-linecap="round"/>
<path d="M45.6948 6.178C45.3019 4.99945 44.8738 3.83377 44.5172 2.64536" stroke="#205530" stroke-linecap="round"/>
<path d="M39.807 6.82029C38.6653 5.38497 37.4848 3.55934 35.9532 2.5383" stroke="#205530" stroke-linecap="round"/>
<path d="M2.55373 7.6767C3.05774 6.40184 3.65436 5.15429 4.26652 3.92996" stroke="#205530" stroke-linecap="round"/>
<path d="M1.48323 9.60358C2.26938 7.60247 2.98306 5.53342 3.94537 3.6088" stroke="#205530" stroke-linecap="round"/>
<path d="M3.73127 8.10491C3.59369 6.71284 3.30533 5.41399 3.51717 4.03702" stroke="#205530" stroke-linecap="round"/>
<path d="M5.76522 5.96389C5.46724 5.17423 5.24605 4.35671 4.93261 3.57311C4.86172 3.39588 4.80177 3.26312 4.80177 3.07355" stroke="#205530" stroke-linecap="round"/>
<path d="M7.37097 7.2485C7.18552 6.29806 7.37282 5.41818 7.47802 4.46521C7.57647 3.57334 7.49634 2.50168 7.90622 1.68192" stroke="#205530" stroke-linecap="round"/>
<path d="M10.1543 6.49915C10.1908 5.32813 10.5675 4.36825 10.9036 3.26387C11.0389 2.81931 11.1758 2.49472 11.5459 2.21716" stroke="#205530" stroke-linecap="round"/>
<path d="M12.8305 7.24848C12.8649 5.59741 12.8434 3.36897 13.5799 1.896" stroke="#205530" stroke-linecap="round"/>
<path d="M15.8279 6.28504C15.9699 5.36987 16.335 4.5698 16.6843 3.71585" stroke="#205530" stroke-linecap="round"/>
<path d="M18.6112 7.99784C18.6112 6.2414 18.9743 4.79744 19.6817 3.1806" stroke="#205530" stroke-linecap="round"/>
<path d="M21.3945 7.67669C21.556 6.74378 21.8088 5.80921 22.2211 4.95287C22.4899 4.39474 22.9064 3.52864 23.4284 3.1806" stroke="#205530" stroke-linecap="round"/>
<path d="M26.9611 8.64014C27.3121 7.29468 27.8497 6.1457 28.4598 4.8934" stroke="#205530" stroke-linecap="round"/>
<path d="M32.0995 8.42605C32.3934 6.68909 33.0055 5.00405 33.7052 3.39471" stroke="#205530" stroke-linecap="round"/>
<path d="M34.8828 7.14145C35.1399 6.14955 35.6052 5.26842 36.0603 4.35815" stroke="#205530" stroke-linecap="round"/>
<path d="M33.5981 8.21193C33.9789 6.64664 34.5467 5.41589 35.525 4.14404" stroke="#205530" stroke-linecap="round"/>
<path d="M37.3449 8.5331C38.0448 7.18707 38.6997 5.82341 39.3788 4.46521" stroke="#205530" stroke-linecap="round"/>
<path d="M40.2352 7.99783C40.9764 6.28545 41.6791 4.64015 42.6974 3.07355" stroke="#205530" stroke-linecap="round"/>
<path d="M44.3031 8.21196C44.6398 6.82566 44.7564 5.4075 45.1595 4.03702" stroke="#205530" stroke-linecap="round"/>
<path d="M36.2744 8.31898C35.8968 7.68466 35.5823 7.0227 35.2039 6.39209" stroke="#205530" stroke-linecap="round"/>
<path d="M23.5355 9.49655C22.6014 7.61844 21.6205 5.78309 20.6451 3.92996" stroke="#205530" stroke-linecap="round"/>
<path d="M23.6425 8.10489C23.086 6.35936 22.1732 4.49455 20.8592 3.1806" stroke="#205530" stroke-linecap="round"/>
<path d="M15.5067 7.99786C14.5543 6.6847 13.7636 5.18425 12.6164 4.03702" stroke="#205530" stroke-linecap="round"/>
<path d="M12.6164 7.99786C12.5698 5.71386 11.3462 3.60749 10.0472 1.78897" stroke="#205530" stroke-linecap="round"/>
<path d="M8.01326 5.64275C7.6252 4.99135 7.26732 4.36156 6.72867 3.82291" stroke="#205530" stroke-linecap="round"/>
<path d="M5.12292 7.56963C4.63255 6.2567 4.17422 4.93761 3.73128 3.6088" stroke="#205530" stroke-linecap="round"/>
<path d="M4.58767 6.71324C4.30317 5.75491 4.01246 4.41191 3.41013 3.6088" stroke="#205530" stroke-linecap="round"/>
<path d="M7.47801 6.07095C6.99212 4.61327 6.52606 3.22293 6.40752 1.68192" stroke="#205530" stroke-linecap="round"/>
<path d="M12.6164 7.35553C12.9221 6.13257 13.2071 5.05203 14.1151 4.14404" stroke="#205530" stroke-linecap="round"/>
<path d="M14.3292 5.64275C15.0017 4.02077 16.7985 3.12493 18.3971 2.64536" stroke="#205530" stroke-linecap="round"/>
<path d="M15.9349 8.21193C16.1086 7.44004 16.199 6.50494 16.6189 5.8152C17.2731 4.74046 18.2032 4.13193 19.2535 3.50174" stroke="#205530" stroke-linecap="round"/>
<path d="M21.9297 7.56965C22.447 6.51515 22.9926 5.4844 23.7377 4.56631C24.6447 3.44876 25.9158 2.82515 27.1752 2.21716" stroke="#205530" stroke-linecap="round"/>
<path d="M29.4232 7.14143C29.7462 5.67004 30.4587 4.61108 31.4571 3.50174" stroke="#205530" stroke-linecap="round"/>
<path d="M32.2065 8.42603C32.4463 7.47604 32.6725 6.52232 33.0272 5.60705C33.5204 4.3342 34.1284 3.47207 34.9898 2.43124" stroke="#205530" stroke-linecap="round"/>
<path d="M37.559 7.89081C38.6385 6.7153 39.267 5.23182 40.3423 4.03702" stroke="#205530" stroke-linecap="round"/>
<path d="M43.0185 8.85423C43.6917 7.02712 44.2866 5.24762 45.1595 3.50174" stroke="#205530" stroke-linecap="round"/>
<path d="M44.6243 9.06833C45.6463 7.02427 46.641 5.12468 48.264 3.50174" stroke="#205530" stroke-linecap="round"/>
<path d="M9.74261 26.5895C9.20375 25.0046 8.48231 23.83 9.06825 22.2186C9.41872 21.2548 10.0383 20.3772 10.8416 19.746C12.5256 18.4228 14.3268 18.3926 15.8618 19.9957C17.1434 21.3343 18.0597 23.396 18.0597 25.2532C18.0597 26.3162 17.9845 28.163 16.5986 28.163C15.6671 28.163 13.8491 28.1234 13.1644 27.4387C12.4458 26.7201 12.6648 24.7843 12.6648 23.892C12.6648 22.8442 12.9172 21.8858 13.1019 20.8699C13.2045 20.3058 11.9705 21.6723 11.8656 21.794C11.3628 22.3773 10.3781 23.4487 10.2047 24.2292C10.0283 25.0229 11.1043 27.0418 11.7157 27.4886C12.3252 27.934 14.4747 27.528 15.0126 27.039C16.0219 26.1215 16.7994 25.8787 16.9233 24.454C16.9677 23.9435 16.6842 21.9373 15.9242 22.1062C14.5649 22.4083 13.9967 23.6888 14.4631 24.8411C15.218 26.7062 15.5949 23.4622 15.8118 22.7681" stroke="#828482" stroke-opacity="0.54" stroke-width="3" stroke-linecap="round"/>
<path d="M46.8323 34.2322C48.6773 31.5439 50.9109 29.0879 53.6134 27.2388C55.2318 26.1315 56.9224 25.0204 58.721 24.2167C60.9452 23.223 63.465 22.7243 65.7893 21.9938C68.6826 21.0845 71.3927 20.6779 73.994 22.4309C75.3318 23.3325 76.0545 23.8587 76.0545 25.478C76.0545 27.0933 76.1028 28.6692 75.1429 30.0612C74.1602 31.4861 72.7047 32.3253 71.2341 33.1582C67.1168 35.4901 62.7346 36.7465 58.2714 38.2034C54.7986 39.337 51.3983 40.615 47.8064 41.3254C46.7877 41.527 45.677 41.7942 44.6344 41.6002C43.3553 41.3622 44.0134 39.5593 44.2598 38.7029C44.8508 36.6483 46.846 35.0628 48.4308 33.7576C51.0836 31.573 54.2879 29.6171 57.5971 28.6625C61.7691 27.459 65.7567 25.9902 69.7605 24.3416C70.2683 24.1325 70.9884 24.0341 71.4464 23.7796C71.9582 23.4953 72.902 23.4003 71.6462 23.4549C67.6506 23.6287 64.6423 24.1928 61.0063 25.9151C59.8406 26.4673 58.5695 27.1123 57.5971 27.9632C56.6235 28.8151 55.2626 29.5354 54.575 30.6606C53.1374 33.0129 50.8509 35.159 48.9054 37.1045C48.4182 37.5917 47.669 38.121 47.3319 38.7279C46.7728 39.7342 48.0059 39.4092 48.7805 39.4023C54.0475 39.3552 58.6531 36.838 63.3916 34.8316C65.9389 33.753 68.5823 33.0939 70.8345 31.5348C72.598 30.3139 73.1323 28.574 73.1323 26.4646C73.1323 22.22 68.8175 24.5729 66.6884 25.7153C63.4829 27.4353 61.0209 30.1336 57.647 31.6097C54.9998 32.7679 52.4471 34.0976 50.0293 35.6309C48.5597 36.5628 49.9281 36.8679 51.0783 36.9796C52.6397 37.1312 54.3619 37.4473 55.8238 36.7548C57.2475 36.0804 58.7813 35.7375 60.1946 35.0814C62.1874 34.1562 64.1296 33.1529 66.114 32.2091C67.5668 31.5182 68.8605 30.4412 70.2725 29.6491C70.8376 29.332 72.433 28.8489 72.433 28.0506C72.433 25.8179 67.4472 26.7678 66.5386 27.1514C64.1793 28.1476 62.8463 30.1065 60.8815 31.6347C60.1272 32.2213 59.1041 32.6755 58.2964 33.2207C57.1158 34.0175 55.1926 35.8057 53.7133 35.8057C52.8283 35.8057 55.4974 35.7241 56.3483 35.481C58.323 34.9168 60.1471 34.0267 62.0429 33.2581C64.4418 32.2856 66.9861 30.8547 69.1111 29.3369C70.849 28.0955 67.8322 28.2608 67.0131 28.4877C65.6417 28.8674 64.3032 29.4505 63.2417 30.4108C62.9665 30.6598 62.6765 30.9739 62.3426 31.0852" stroke="#828482" stroke-opacity="0.54" stroke-width="3" stroke-linecap="round"/>
<path d="M47.5067 39.4023C48.1591 37.0374 49.2531 35.1543 50.9035 33.3206C52.6127 31.4215 54.6883 30.5921 56.8353 29.3993C57.6948 28.9218 57.1921 31.046 57.1225 31.26C56.6781 32.6288 55.9943 33.9928 54.9496 34.994C53.7121 36.1799 52.4119 37.2272 50.9534 38.1785C49.8956 38.8684 48.6748 39.1679 47.5566 39.727C46.4413 40.2846 47.0831 39.6207 47.6815 39.0027C50.0928 36.5123 52.4649 34.0504 54.9496 31.6347C55.5516 31.0494 54.6672 33.2353 54.575 33.433C54.0677 34.52 53.2935 35.4138 52.452 36.2553C52.071 36.6362 49.9865 38.5031 50.8785 38.5031" stroke="#828482" stroke-opacity="0.54" stroke-width="3" stroke-linecap="round"/>
<path d="M67.9622 31.7595C69.5524 30.7198 71.5588 29.4273 71.5588 27.2638" stroke="#828482" stroke-opacity="0.54" stroke-width="3" stroke-linecap="round"/>
<path d="M85.9451 60.0826C84.1894 58.3785 81.5563 58.1866 79.2015 57.8847C77.5397 57.6717 75.8219 57.9054 74.2063 58.2843C71.4438 58.9323 65.7817 60.5945 65.2148 63.854C64.5893 67.4509 68.8345 69.7185 71.8835 69.7484C74.1737 69.7709 76.2275 68.7514 78.4273 68.125C80.341 67.58 82.1567 66.8318 83.4725 65.3027C84.2377 64.4133 85.0559 62.3481 83.6473 61.4813C82.572 60.8195 80.1014 61.1966 78.9518 61.3814C77.1756 61.6668 75.4271 62.0786 73.6318 62.2805C73.0227 62.3491 68.0374 62.3282 67.9622 63.0048C67.8531 63.987 68.4522 65.1465 68.9113 65.9271C69.7811 67.4056 73.0361 67.184 74.4311 67.001C76.4892 66.7311 77.9253 65.5878 79.7011 64.8031C80.6634 64.3779 81.5209 63.9448 82.0738 63.0048C82.5192 62.2476 81.6302 62.0082 80.9499 61.6062C79.549 60.7784 77.4594 58.8163 75.7298 59.6331C74.2615 60.3264 71.4401 61.6634 71.334 63.6792C71.244 65.3902 74.7536 64.9115 75.605 64.5284C77.399 63.7211 77.3258 61.6561 79.6012 61.6561C80.8235 61.6561 81.6472 61.4367 82.7981 61.2066" stroke="#828482" stroke-opacity="0.54" stroke-width="3" stroke-linecap="round"/>
<path d="M17.6101 85.4835C15.995 84.0556 13.8744 82.6494 12.7398 80.7879C11.4157 78.6156 9.99699 75.9894 9.6552 73.4449C9.34871 71.1633 9.52348 68.8766 10.0798 66.6514C10.5336 64.836 11.1268 62.1185 12.6149 60.8569C15.0949 58.7542 17.0705 59.2001 19.2835 61.3189C23.0162 64.8928 23.6918 70.1707 24.2288 75.0809C24.5033 77.5898 24.6051 80.005 24.5785 82.5363C24.5711 83.2407 24.5804 85.5844 23.9916 86.1079C23.6524 86.4093 22.7037 85.9686 22.3306 85.933C21.5445 85.8582 19.6234 84.6757 19.1711 83.9974C18.7307 83.3367 18.0505 82.8472 17.6101 82.1866C17.036 81.3254 16.5792 80.4062 15.9617 79.5641C14.754 77.9172 14.5467 75.0187 14.4132 73.0453C14.2584 70.7586 14.1882 68.9061 14.6754 66.7138C14.8413 65.9674 14.9668 65.3234 15.5371 64.7532C16.0194 64.2708 17.9954 66.0088 18.2345 66.3766C19.5679 68.428 20.5216 71.2406 21.1942 73.5948C21.896 76.051 22.452 78.4932 23.3297 80.8753C23.6392 81.7156 24.4609 82.9632 23.4546 83.4104C22.6453 83.7701 21.6 83.2966 20.8071 83.2356C19.3474 83.1233 17.7324 80.1461 17.1106 78.9647C16.5066 77.817 15.6181 76.523 14.7004 75.6054C13.7851 74.6901 13.824 73.4085 13.2268 72.3335C12.6669 71.3256 12.7523 69.5514 12.9396 68.4746C13.1477 67.2777 13.7715 66.5115 14.1884 65.4275C14.4323 64.7934 14.9543 64.1516 15.125 63.5543C15.2535 63.1044 14.7277 63.5267 14.638 63.6792C14.2656 64.3122 13.8471 64.939 13.4641 65.5774C11.8427 68.2797 12.8167 72.2306 12.8896 75.2182C12.9345 77.0568 15.1285 78.6348 16.1365 80.1011C16.4524 80.5605 17.1792 82.3888 17.71 82.5113C19.4391 82.9103 21.4948 82.6756 22.2058 80.9378C23.2912 78.2846 21.7525 75.5929 18.7341 75.5929C17.3269 75.5929 16.1762 71.4272 15.9867 70.2729C15.6414 68.1702 16.2614 66.4065 16.2614 64.3536C16.2614 63.8709 16.0122 62.5295 16.3114 62.1556C16.4227 62.0165 18.9007 65.5724 19.3585 66.2018C19.6588 66.6148 20.0196 68.3194 20.0953 68.8493C20.2752 70.1091 20.881 71.3743 21.2067 72.5957C21.7839 74.7604 22.06 77.0192 22.1059 79.2644C22.1219 80.0509 22.0033 80.8988 21.7687 81.6496C21.4923 82.5342 20.9521 81.6322 20.5323 81.2125C18.4502 79.1304 17.4884 76.9588 17.6226 74.0069C17.7174 71.9227 18.5827 69.8047 18.9089 67.7254C18.9377 67.5418 18.9863 66.3548 18.9588 66.6014C18.7578 68.4109 17.9689 70.165 17.8599 72.0462C17.7667 73.6546 17.8489 74.9886 18.6217 76.3796C18.6911 76.5046 18.7113 77.1414 18.8465 77.1414C19.3027 77.1414 19.9823 75.9945 20.1327 75.6678C20.9462 73.9005 21.2067 72.844 21.2067 70.9723C21.2067 70.7298 21.1035 71.4492 21.0069 71.6716C20.6798 72.4249 20.2855 73.1431 20.0828 73.9444C19.8425 74.894 19.6332 75.8487 19.6332 76.8292C19.6332 78.0246 19.858 79.2124 19.858 80.3883C19.858 83.2496 21.0085 74.6919 20.7072 71.8464C20.5035 69.923 19.757 68.2088 18.7341 66.6014C17.9231 65.3271 17.534 64.1061 17.1106 62.7301C16.5302 60.8438 14.4729 62.592 13.564 63.5543C11.8308 65.3895 11.6413 69.0837 12.003 71.4343C12.1526 72.4068 12.44 73.4957 12.44 74.4689C12.44 74.9481 12.4591 75.2812 12.3277 74.5189C12.0226 72.7495 12.1998 70.8121 12.2153 69.0241C12.2306 67.247 12.5739 65.9576 13.514 64.4535C14.1617 63.4173 15.061 61.8212 16.1365 61.2066C16.9741 60.7279 18.8873 64.1165 19.7456 64.8031C20.3947 65.3224 20.8055 67.1598 21.1568 67.9501C21.5538 68.8435 21.2233 70.4571 21.3191 71.4343C21.4597 72.8683 21.4315 74.3037 21.4315 75.7427C21.4315 77.9714 20.8404 79.9677 20.3076 82.0992C20.1266 82.8229 20.0876 83.5596 19.833 84.2596C19.6116 84.8686 17.0682 87.2064 17.6601 85.2087C17.7505 84.9035 17.7292 83.9765 17.8474 84.2721C18.0304 84.7295 18.0211 84.7546 18.2845 84.3595" stroke="#828482" stroke-opacity="0.54" stroke-width="3" stroke-linecap="round"/>
<path d="M20.5323 83.6851C21.3808 82.8367 21.8811 82.4828 21.8811 81.3249C21.8811 80.5249 20.8424 81.7612 20.6572 81.9992C20.5369 82.154 20.381 83.128 20.7571 82.9608C21.4521 82.6519 21.5133 82.4385 21.8811 81.8869" stroke="#828482" stroke-opacity="0.54" stroke-width="3" stroke-linecap="round"/>
<path d="M17.1606 63.0048C13.4222 63.7343 10.9371 68.9903 12.6648 72.4458" stroke="#828482" stroke-opacity="0.54" stroke-width="3" stroke-linecap="round"/>
<path d="M46.3828 86.6074C48.1241 86.9472 50.0855 86.726 51.428 85.3835C52.258 84.5536 53.733 82.6191 53.014 81.3249C52.4626 80.3324 50.6837 79.8615 49.6671 80.3134C48.6499 80.7655 47.0324 83.1017 46.6575 84.1847C45.753 86.7976 49.9793 86.6801 49.9793 83.5728C49.9793 82.984 48.678 83.1804 48.281 83.2855C47.5075 83.4903 48.4315 85.1229 48.6306 85.5709C48.9594 86.3106 51.8307 85.2309 52.3521 85.0838C52.7982 84.958 53.6918 83.9679 53.1264 83.6852" stroke="#828482" stroke-opacity="0.54" stroke-width="3" stroke-linecap="round"/>
<path d="M83.9221 93.8005C82.8863 93.8005 79.3423 94.3517 78.8769 92.8889C78.554 91.8742 78.7157 90.5313 78.752 89.4797C78.8048 87.9475 80.9387 88.9559 81.5493 89.3048C82.5665 89.8861 83.644 92.9014 81.899 92.9014C81.0074 92.9014 80.0545 91.3341 80.7751 90.6535C81.2148 90.2382 82.0849 89.9792 82.6733 89.9792C83.185 89.9792 85.5207 90.1234 85.7079 90.7784C85.9689 91.692 85.6596 93.2255 84.6963 93.5758C83.2026 94.1189 80.8634 94.1578 79.8759 92.6766" stroke="#828482" stroke-opacity="0.54" stroke-width="3" stroke-linecap="round"/>
<path d="M2.79916 6.35731C2.58549 5.12274 2.38365 3.77376 2.38365 2.51382" stroke="#205530" stroke-opacity="0.64" stroke-linecap="round"/>
<path d="M4.35733 7.3961C4.57408 6.22565 4.93698 5.05199 5.28646 3.91618C5.45796 3.35882 5.67293 2.87409 6.12326 2.51382" stroke="#205530" stroke-opacity="0.64" stroke-linecap="round"/>
<path d="M8.8241 7.39609C9.70586 5.38063 10.6134 3.24444 11.9404 1.47504" stroke="#205530" stroke-opacity="0.64" stroke-linecap="round"/>
<path d="M18.277 3.96811C18.0528 3.39351 17.5212 2.94724 17.3421 2.40994" stroke="#205530" stroke-opacity="0.64" stroke-linecap="round"/>
<path d="M18.6925 1.99443C18.9273 1.56891 19.0736 1.09393 19.4197 0.747894" stroke="#205530" stroke-opacity="0.64" stroke-linecap="round"/>
<path d="M21.3933 1.89056C21.5628 1.54625 21.701 1.16936 21.9127 0.851776" stroke="#205530" stroke-opacity="0.64" stroke-linecap="round"/>
<path d="M24.0942 1.99443C24.4712 1.54724 24.8396 1.04854 25.3407 0.747894" stroke="#205530" stroke-opacity="0.64" stroke-linecap="round"/>
<path d="M28.0415 2.40997C28.1941 2.05089 28.5223 1.54632 28.8726 1.37119" stroke="#205530" stroke-opacity="0.64" stroke-linecap="round"/>
<path d="M31.4695 2.72158C31.8655 2.03628 32.2197 1.36835 32.7161 0.747894" stroke="#205530" stroke-opacity="0.64" stroke-linecap="round"/>
<path d="M35.313 3.44873C35.7854 2.51778 36.3144 1.62948 36.8712 0.747894" stroke="#205530" stroke-opacity="0.64" stroke-linecap="round"/>
<path d="M39.7798 3.03322C39.9921 2.62485 40.2325 2.25648 40.5069 1.89056" stroke="#205530" stroke-opacity="0.64" stroke-linecap="round"/>
<path d="M42.4806 3.76037C42.7553 3.05234 43.1067 2.50964 43.5194 1.89056" stroke="#205530" stroke-opacity="0.64" stroke-linecap="round"/>
<path d="M45.2853 3.76037C45.5748 3.01865 45.8996 2.39053 46.428 1.78668" stroke="#205530" stroke-opacity="0.64" stroke-linecap="round"/>
<path d="M48.8172 4.07201C49.0841 3.31579 49.6746 2.81129 49.9598 2.09833" stroke="#205530" stroke-opacity="0.64" stroke-linecap="round"/>
<path d="M52.1413 3.76036C52.5839 3.0277 53.0173 2.29056 53.4917 1.57892" stroke="#205530" stroke-opacity="0.64" stroke-linecap="round"/>
<path d="M56.0886 3.24099C56.2502 2.72942 56.418 2.44636 56.8158 2.09833" stroke="#205530" stroke-opacity="0.64" stroke-linecap="round"/>
<path d="M59.5166 3.96813C59.8401 3.03371 60.1611 2.15496 60.2437 1.16342" stroke="#205530" stroke-opacity="0.64" stroke-linecap="round"/>
<path d="M58.8933 3.86423C58.6649 3.49701 58.2006 2.45604 57.7507 2.30606" stroke="#205530" stroke-opacity="0.64" stroke-linecap="round"/>
<path d="M57.5429 4.17588C56.8713 3.18709 56.1009 2.46385 55.0499 1.89056" stroke="#205530" stroke-opacity="0.64" stroke-linecap="round"/>
<path d="M50.4792 2.7216C49.726 2.11322 48.828 1.60762 47.8823 1.37119" stroke="#205530" stroke-opacity="0.64" stroke-linecap="round"/>
<path d="M47.7784 1.99444C46.6965 1.35943 45.6567 1.15237 44.4543 0.851776" stroke="#205530" stroke-opacity="0.64" stroke-linecap="round"/>
<path d="M39.4681 2.82548C39.9184 2.37524 40.4851 1.42858 41.1302 1.2673" stroke="#205530" stroke-opacity="0.64" stroke-linecap="round"/>
<path d="M42.7922 3.34487C43.2166 2.66391 43.6196 1.98141 44.1427 1.37119" stroke="#205530" stroke-opacity="0.64" stroke-linecap="round"/>
<path d="M53.6994 3.76037C54.2581 3.37697 54.7681 2.94739 55.3615 2.61771" stroke="#205530" stroke-opacity="0.64" stroke-linecap="round"/>
<path d="M58.5817 4.07201C58.9559 2.96635 59.6393 1.89627 60.5554 1.16342" stroke="#205530" stroke-opacity="0.64" stroke-linecap="round"/>
<path d="M63.2562 4.07199C63.6333 3.44832 64.1019 2.90741 64.5028 2.30606" stroke="#205530" stroke-opacity="0.64" stroke-linecap="round"/>
<path d="M65.4377 4.90302C65.6502 3.50995 66.7798 2.45012 67.9307 1.6828" stroke="#205530" stroke-opacity="0.64" stroke-linecap="round"/>
<path d="M69.0734 4.17587C69.4729 3.06145 70.1743 2.25088 71.0471 1.47504" stroke="#205530" stroke-opacity="0.64" stroke-linecap="round"/>
<path d="M72.0859 3.86426C72.6574 2.89573 73.4403 1.78467 74.4751 1.2673" stroke="#205530" stroke-opacity="0.64" stroke-linecap="round"/>
<path d="M75.7216 4.48753C75.7117 4.0512 75.7883 3.4177 75.3638 3.19482C74.0401 2.49988 72.647 2.20221 71.151 2.20221" stroke="#205530" stroke-opacity="0.64" stroke-linecap="round"/>
<path d="M71.7742 5.5263C71.5702 5.04176 71.3968 4.65515 71.099 4.22782C70.9605 4.02906 70.7307 3.85471 70.6316 3.65649" stroke="#205530" stroke-opacity="0.64" stroke-linecap="round"/>
<path d="M68.0346 4.17588C67.6769 3.69146 67.2915 3.19313 67.0997 2.61771" stroke="#205530" stroke-opacity="0.64" stroke-linecap="round"/>
<path d="M66.6842 5.4224C67.533 4.162 68.7444 2.51613 70.3199 2.30606" stroke="#205530" stroke-opacity="0.64" stroke-linecap="round"/>
<path d="M74.5789 4.4875C75.1171 4.09784 75.5142 3.63026 76.0332 3.24097" stroke="#205530" stroke-opacity="0.64" stroke-linecap="round"/>
<path d="M78.1108 3.96813C78.5144 3.06254 78.9677 2.17641 79.3573 1.2673" stroke="#205530" stroke-opacity="0.64" stroke-linecap="round"/>
<path d="M80.6039 3.76038L80.9155 3.03323" stroke="#205530" stroke-opacity="0.64" stroke-linecap="round"/>
<path d="M82.9931 3.86426C83.2397 3.28212 83.4176 2.69469 83.6163 2.09833" stroke="#205530" stroke-opacity="0.64" stroke-linecap="round"/>
<path d="M85.0706 3.76037C85.1398 3.42873 85.7298 1.97177 85.1745 1.78668" stroke="#205530" stroke-opacity="0.64" stroke-linecap="round"/>
<path d="M82.2659 3.76037C81.8603 3.13931 81.643 2.47897 82.3698 1.99445" stroke="#205530" stroke-opacity="0.64" stroke-linecap="round"/>
<path d="M83.5125 3.24099C83.9477 2.49748 84.4524 1.89087 85.2842 1.54431C86.4644 1.05254 88.1155 1.41338 89.3296 1.57894" stroke="#205530" stroke-opacity="0.64" stroke-linecap="round"/>
<path d="M90.0568 3.03321C90.2361 2.50237 90.3921 1.95495 90.68 1.47504" stroke="#205530" stroke-opacity="0.64" stroke-linecap="round"/>
<path d="M91.8227 3.55261C92.0516 2.96272 92.304 2.41519 92.6537 1.89056" stroke="#205530" stroke-opacity="0.64" stroke-linecap="round"/>
<path d="M93.7964 3.6565C94.2664 2.80869 94.7941 2.05194 95.3546 1.2673" stroke="#205530" stroke-opacity="0.64" stroke-linecap="round"/>
<path d="M96.6011 2.92933C96.8008 2.48148 96.9678 1.85987 97.2244 1.47504" stroke="#205530" stroke-opacity="0.64" stroke-linecap="round"/>
<path d="M97.6399 4.07202C97.8931 3.44629 98.2031 2.85801 98.367 2.20221" stroke="#205530" stroke-opacity="0.64" stroke-linecap="round"/>
<path d="M98.5748 5.42242C98.3662 4.7814 98.1694 4.3138 97.7091 3.82385C97.6139 3.72244 97.4831 3.47196 97.3282 3.44874C96.9215 3.38773 96.5084 3.06758 96.1856 2.82547" stroke="#205530" stroke-opacity="0.64" stroke-linecap="round"/>
<path d="M97.6399 8.53875C97.3719 7.25267 96.8233 6.1814 96.2895 5.0069" stroke="#205530" stroke-opacity="0.64" stroke-linecap="round"/>
<path d="M95.0429 9.68142C94.6313 8.51511 93.9156 7.44493 93.3347 6.35732C93.0215 5.77098 92.5498 5.07425 92.5498 4.38364" stroke="#205530" stroke-opacity="0.64" stroke-linecap="round"/>
<path d="M92.3421 7.91548C91.7038 6.3743 90.8001 4.77609 90.4723 3.13708" stroke="#205530" stroke-opacity="0.64" stroke-linecap="round"/>
<path d="M90.8878 8.53875C90.1818 7.37898 89.4645 5.97282 88.4986 5.0069" stroke="#205530" stroke-opacity="0.64" stroke-linecap="round"/>
<path d="M83.3047 7.18834C82.0165 5.51372 80.7753 3.84085 80.1884 1.78668" stroke="#205530" stroke-opacity="0.64" stroke-linecap="round"/>
<path d="M78.6302 8.01937C77.9335 7.0905 77.2398 6.15871 76.668 5.14541C76.3475 4.57737 76.1314 3.96096 75.7216 3.44873" stroke="#205530" stroke-opacity="0.64" stroke-linecap="round"/>
<path d="M76.0332 9.47367C74.4098 6.93037 71.6503 4.87424 68.8656 3.76038" stroke="#205530" stroke-opacity="0.64" stroke-linecap="round"/>
<path d="M68.0346 8.22713C66.0468 6.28072 63.6164 4.53831 60.9709 3.65649" stroke="#205530" stroke-opacity="0.64" stroke-linecap="round"/>
<path d="M59.4127 5.31855C58.6718 5.34455 58.1753 5.00369 57.5545 4.61449C56.6775 4.0647 55.8149 3.49161 54.946 2.92935" stroke="#205530" stroke-opacity="0.64" stroke-linecap="round"/>
<path d="M52.6607 5.21466C52.3682 4.88128 52.0817 4.54668 51.7258 4.27975" stroke="#205530" stroke-opacity="0.64" stroke-linecap="round"/>
<path d="M47.4668 6.8767C46.8298 6.11782 46.2488 5.40443 45.3892 4.90302" stroke="#205530" stroke-opacity="0.64" stroke-linecap="round"/>
<path d="M41.6496 7.29224C40.4091 5.72403 38.767 4.37898 37.2867 3.03323" stroke="#205530" stroke-opacity="0.64" stroke-linecap="round"/>
<path d="M38.741 6.4612C38.2203 5.43512 37.6707 4.43499 37.0789 3.44873" stroke="#205530" stroke-opacity="0.64" stroke-linecap="round"/>
<path d="M45.8047 5.63017C45.63 4.83427 45.3302 4.16172 44.9737 3.44873" stroke="#205530" stroke-opacity="0.64" stroke-linecap="round"/>
<path d="M38.9487 4.59141C39.0142 4.10427 38.9807 3.26362 39.572 3.09094C41.3224 2.57978 43.3825 2.96899 45.1814 3.03323" stroke="#205530" stroke-opacity="0.64" stroke-linecap="round"/>
<path d="M39.572 5.83794C39.7622 4.45889 40.3306 3.09115 41.4418 2.20221" stroke="#205530" stroke-opacity="0.64" stroke-linecap="round"/>
<path d="M44.7659 6.46119C44.3518 5.46116 43.9506 4.49647 43.3751 3.57568C43.1103 3.15203 42.8763 2.60283 42.4806 2.30606" stroke="#205530" stroke-opacity="0.64" stroke-linecap="round"/>
<path d="M40.7147 7.08447C41.0271 5.70595 41.1818 4.23111 41.3379 2.82547" stroke="#205530" stroke-opacity="0.64" stroke-linecap="round"/>
<path d="M43.3116 7.60385C42.7623 6.21944 41.8743 4.88933 40.9282 3.74305C40.0176 2.63983 38.872 2.14502 37.5983 1.57892" stroke="#205530" stroke-opacity="0.64" stroke-linecap="round"/>
<path d="M24.7174 5.31855C24.596 4.52909 24.7092 3.81804 24.8213 3.03323" stroke="#205530" stroke-opacity="0.64" stroke-linecap="round"/>
<path d="M30.6385 6.77282C30.7822 5.83868 30.8487 4.89182 31.054 3.96811" stroke="#205530" stroke-opacity="0.64" stroke-linecap="round"/>
<path d="M30.8462 7.91549C29.7576 6.11356 28.3595 4.55053 27.3144 2.72159" stroke="#205530" stroke-opacity="0.64" stroke-linecap="round"/>
<path d="M29.1842 5.11078C29.5738 4.35315 29.8459 3.55766 30.096 2.74466C30.1389 2.6054 30.0985 2.57606 30.223 2.51382" stroke="#205530" stroke-opacity="0.64" stroke-linecap="round"/>
<path d="M24.4058 7.18836C24.2498 5.73522 24.1686 4.45637 24.4058 3.03323" stroke="#205530" stroke-opacity="0.64" stroke-linecap="round"/>
<path d="M20.3546 5.11079C19.9194 4.44133 19.7163 3.59654 19.5235 2.82547" stroke="#205530" stroke-opacity="0.64" stroke-linecap="round"/>
<path d="M13.9141 5.4224C13.4723 4.39401 13.1591 3.33966 12.7715 2.30606" stroke="#205530" stroke-opacity="0.64" stroke-linecap="round"/>
<path d="M9.23961 5.42241C8.72391 4.16181 8.26024 2.91474 7.99307 1.57892" stroke="#205530" stroke-opacity="0.64" stroke-linecap="round"/>
<path d="M0.721601 7.08447C0.711455 6.54674 0.65058 6.01468 0.594638 5.48013C0.569454 5.23947 0.427369 4.86414 0.571554 4.63756C0.72145 4.40201 0.87806 4.2194 1.03323 3.99121C1.17287 3.78587 1.32407 3.57341 1.50069 3.39679C1.76694 3.13054 2.22042 2.94417 2.38365 2.61771" stroke="#205530" stroke-opacity="0.64" stroke-linecap="round"/>
<path d="M1.44875 5.9418C1.88907 4.90873 2.38019 3.71537 2.17012 2.55999C2.11728 2.26934 2.02421 1.60695 1.76038 1.47504" stroke="#205530" stroke-opacity="0.64" stroke-linecap="round"/>
<path d="M3.31856 4.17589C3.52896 3.44568 3.60176 2.67458 3.94183 1.99445" stroke="#205530" stroke-opacity="0.64" stroke-linecap="round"/>
<path d="M3.94182 4.07202C4.17556 2.83317 4.48047 2.65157 5.60387 2.20221" stroke="#205530" stroke-opacity="0.64" stroke-linecap="round"/>
<path d="M7.88919 6.56507C8.40259 5.08192 9.2367 3.7896 10.2784 2.61771" stroke="#205530" stroke-opacity="0.64" stroke-linecap="round"/>
<path d="M13.0831 7.91548C14.4145 5.88016 15.3849 3.7696 16.4072 1.57892" stroke="#205530" stroke-opacity="0.64" stroke-linecap="round"/>
</svg>
