<svg width="100" height="100" viewBox="0 0 100 100" fill="none" xmlns="http://www.w3.org/2000/svg">
<path d="M0 0H100V100H0V0Z" fill="#81532B"/>
<path d="M27.7886 90.6556C25.8897 90.6556 23.9571 90.7381 22.0833 90.4035C20.7013 90.1567 19.2219 90.1971 17.9654 89.4791C16.9484 88.8979 16.4325 86.4565 16.0232 85.4452C15.2939 83.6434 15.9911 81.6891 17.3865 80.4963C18.9659 79.1461 21.3587 78.386 23.4186 78.386C24.9368 78.386 26.2871 79.1185 27.6952 79.6372C29.3107 80.2324 31.0282 80.513 32.6815 80.9818C34.7928 81.5806 37.0605 81.9156 39.2551 81.9156C41.5201 81.9156 43.9664 81.6561 46.1836 82.1677C47.9543 82.5763 50.6555 83.6009 51.7582 85.1277C52.3811 85.9903 53.2239 86.6834 53.1682 87.7983C53.0966 89.2294 50.3443 89.9568 49.3211 90.2261C44.4278 91.5138 39.418 91.6641 34.3716 91.6641C29.686 91.6641 24.8667 90.9868 20.5426 89.1336C19.7045 88.7744 18.2404 88.4553 18.2082 87.2941C18.1693 85.895 18.8765 84.7907 20.0197 84.0633C21.1183 83.3641 21.2398 82.5879 22.6062 82.5879C24.6336 82.5879 26.779 82.4 28.769 82.8494C30.7739 83.3021 32.9683 83.3881 35.0159 83.4283C38.032 83.4874 41.0202 84.0581 44.036 84.1006C45.3102 84.1186 46.94 83.9913 48.1165 84.5208C48.3931 84.6452 49.433 85.8644 48.8635 86.1175C46.9358 86.9743 45.0872 87.2964 42.9528 87.4248C40.1277 87.5947 37.3363 87.8567 34.5116 88.0971C31.9532 88.3148 29.0941 88.5463 26.5373 88.2185C24.6189 87.9725 22.747 87.598 20.832 87.3034C20.0834 87.1882 19.874 86.075 20.2251 85.4826C20.4842 85.0453 20.7684 85.0023 21.2896 84.941C23.1023 84.7277 24.8035 84.9224 26.612 85.0717C29.7316 85.3293 32.8974 86.2856 36.0243 86.2856" stroke="#A8C3BC" stroke-opacity="0.8" stroke-width="5" stroke-linecap="round"/>
<path d="M49.9748 87.462C45.8226 90.4897 39.8524 89.4789 35.0439 89.4789C31.632 89.4789 27.8883 89.5792 24.5391 88.844C24.0411 88.7347 23.5011 87.7127 23.1198 87.3313C22.5866 86.7981 22.0973 86.2795 21.6444 85.6972C21.0486 84.9311 20.8571 83.6434 20.5613 82.7559" stroke="#A8C3BC" stroke-opacity="0.8" stroke-width="5" stroke-linecap="round"/>
<path d="M32.4948 17.0379C30.1698 20.1717 27.8205 23.2088 25.7157 26.5062C24.8335 27.8885 23.5926 29.3676 23.2413 31.007C22.9875 32.1914 22.4332 33.1624 22.4102 34.4245C22.3914 35.4606 22.2421 36.4813 22.2421 37.5153C22.2421 38.2285 22.0621 39.1825 22.2795 39.859C22.5977 40.8491 24.0472 41.65 24.9687 41.9133C27.1354 42.5324 29.0244 41.7273 30.8327 40.4753C32.4758 39.3378 32.9794 37.0353 33.7461 35.2929C34.255 34.1362 34.4167 32.8792 34.9786 31.7353C35.4641 30.7471 35.7599 29.1853 36.5287 28.3738C37.918 26.9072 39.5701 25.6313 41.3469 24.6667C44.1933 23.1215 47.7898 21.082 47.7898 17.4674C47.7898 16.2496 47.2035 14.3599 46.3519 13.5083C45.2762 12.4326 43.4491 12.5687 42.0566 12.7519C38.6722 13.1972 34.7427 13.4111 32.9057 16.7951C32.6002 17.3579 32.1251 17.8576 31.7385 18.3732C31.1136 19.2064 30.7492 20.1398 30.1978 21.0064C28.6981 23.363 27.1435 25.6636 25.7718 28.0936C23.9888 31.252 21.3684 35.551 23.7548 39.1307C25.5771 41.8642 29.2407 35.8743 29.8056 34.3125C30.956 31.1321 31.2671 27.3741 34.5771 25.5351C36.489 24.473 38.3619 23.3375 40.3011 22.3417C41.2965 21.8305 42.2241 21.1728 43.1677 20.5769C44.1667 19.946 45.4392 19.133 46.1931 18.2051C46.8444 17.4035 46.9533 16.936 45.857 16.6924C44.6881 16.4327 43.4734 16.307 42.2433 16.3656C39.8354 16.4803 38.1563 18.2311 36.1832 19.3163C32.9503 21.0944 30.3674 24.4917 28.1248 27.3279C26.5519 29.3172 25.6747 31.871 24.9407 34.2565C24.6017 35.3582 24.146 36.7247 24.091 37.8794C24.0708 38.3044 24.2591 38.6498 24.2591 39.056" stroke="#A8C3BC" stroke-opacity="0.8" stroke-width="5" stroke-linecap="round"/>
<path d="M24.0909 40.4005C23.7336 38.1499 23.5555 36.4235 23.8294 34.1536C23.9986 32.7519 23.986 31.2942 24.5951 29.989C25.0097 29.1006 25.3368 28.1571 25.6689 27.2344C26.7844 24.136 30.5838 22.4207 33.2044 20.9035C35.7618 19.4229 38.5486 18.3027 40.9826 16.6176C41.8757 15.9993 42.9724 14.5166 44.092 14.5166" stroke="#A8C3BC" stroke-opacity="0.8" stroke-width="5" stroke-linecap="round"/>
<path d="M87.9602 55.1913C86.6727 56.0411 85.3514 56.4541 83.9076 56.9655C81.469 57.8292 78.907 57.7562 76.4375 58.3848C74.2717 58.9361 71.8158 59.1402 69.5837 59.2159C67.4619 59.2878 65.1954 59.4075 63.0848 59.2065C61.6081 59.0659 60.8597 58.5807 59.966 57.4884C59.5296 56.9551 58.7399 56.4792 58.416 55.8636C57.1445 53.4479 57.1356 51.2345 58.0424 48.711C58.9764 46.1123 60.4472 43.6877 63.2808 43.0805C65.4387 42.6181 67.3368 41.5027 69.397 40.9141C71.2304 40.3903 72.228 39.325 73.5055 38.0475C74.8327 36.7203 75.4428 35.7369 77.4834 35.6944C79.3435 35.6557 81.2797 35.9238 82.6564 37.3005C83.1633 37.8074 83.4596 38.6588 83.8609 39.252C84.5331 40.2457 85.2796 41.1886 85.9432 42.184C88.0127 45.2882 92.3601 48.8859 90.0144 52.969C89.2964 54.2189 88.2121 54.9975 86.877 55.5088C85.715 55.9538 84.4154 55.8806 83.198 56.0691C81.8739 56.2741 80.5342 56.4893 79.1921 56.5266C76.3706 56.605 73.5699 56.5452 70.7509 56.704C69.0308 56.8009 67.3284 56.8721 65.6059 56.8721C61.8433 56.8721 59.6391 50.5693 62.1697 48.0387C62.9208 47.2876 64.4027 46.9662 65.3164 46.4607C66.6499 45.723 67.9412 45.0816 69.2382 44.2663C70.3089 43.5933 71.5174 43.2885 72.5718 42.5856C73.1573 42.1952 73.7745 41.84 74.3366 41.4184C74.9924 40.9265 75.9613 40.9158 76.699 40.5686C77.6661 40.1135 78.6361 40.3567 79.4069 40.9421C81.3694 42.4326 83.5042 43.3157 84.8974 45.4055C85.9693 47.0133 86.8949 47.6209 86.5315 49.7288C86.032 52.626 82.665 53.5974 80.2193 53.7627C77.8883 53.9202 75.5419 53.8467 73.2067 53.8467C71.6204 53.8467 69.7856 54.1324 68.2578 53.6413C67.4997 53.3976 66.2872 52.9309 65.9047 52.166C64.9387 50.2339 67.0716 49.5572 68.3698 48.8885C69.9719 48.0631 71.5893 47.9294 73.3001 47.3851C74.3351 47.0558 75.3997 46.5253 76.4469 46.2926C78.4679 45.8435 84.0944 43.595 84.0944 47.4038C84.0944 50.587 78.634 50.5571 76.5496 50.6439C76.0692 50.6639 68.7994 50.9851 68.7994 50.1304C68.7994 47.2459 71.601 44.8239 74.2899 44.3971C76.2592 44.0845 78.569 43.2008 80.3967 42.4175" stroke="#A8C3BC" stroke-opacity="0.8" stroke-width="5" stroke-linecap="round"/>
<path d="M77.2033 35.8625C76.1747 39.1768 73.6566 40.6075 70.807 42.1748C68.1217 43.6517 64.8166 44.6292 62.7487 46.9556C62.0716 47.7174 61.764 48.9437 61.7402 49.9437C61.7178 50.8871 62.5052 51.8994 63.0008 52.6702C63.3769 53.2553 63.7767 54.1368 64.3641 54.5284C64.9097 54.8922 65.2463 55.1137 65.9048 55.3221C66.7236 55.5813 67.7198 55.4919 68.4633 55.8637" stroke="#A8C3BC" stroke-opacity="0.8" stroke-width="5" stroke-linecap="round"/>
<path d="M88.2963 48.8044C88.2963 49.8727 88.7396 51.9654 87.8668 52.8383C86.9555 53.7496 85.7142 54.3859 84.5986 55.0233" stroke="#A8C3BC" stroke-opacity="0.8" stroke-width="5" stroke-linecap="round"/>
</svg>
