<svg width="100" height="100" viewBox="0 0 100 100" fill="none" xmlns="http://www.w3.org/2000/svg">
<path d="M0 0H100V100H0V0Z" fill="#9A602E"/>
<path d="M8.87769 87.8319C15.0301 92.4928 22.4398 93.9214 30.1005 92.9075C34.5257 92.3218 38.4088 89.3983 42.8733 89.0868C45.4445 88.9074 48.3937 88.7826 50.8493 88.0271C52.2818 87.5863 55.4547 85.8557 53.6102 84.0112C53.0514 83.4523 52.1502 83.6681 51.435 83.5092C49.9619 83.1819 48.4811 83.063 46.9729 83.063C45.5263 83.063 44.4948 83.2371 43.1522 83.6208C41.773 84.0148 40.5502 85.2334 39.1921 85.8239C37.3872 86.6086 35.6114 87.7639 33.8236 88.7103C30.6366 90.3976 27.1979 91.2403 23.6723 91.9454C20.8529 92.5092 18.5308 90.8727 16.2541 89.4633C15.0975 88.7473 13.7001 88.3636 12.5171 87.7064C11.8028 87.3095 10.2291 85.4912 10.551 86.2422C11.245 87.8617 13.8645 87.9826 15.2641 88.2083C17.2555 88.5295 19.1505 89.1478 21.1903 89.3518C24.6897 89.7017 28.0464 89.8398 31.5786 89.8398C33.2643 89.8398 34.7004 89.5278 36.3475 89.1984C37.4051 88.9869 38.3675 88.4903 39.4012 88.2083C40.8301 87.8187 42.3582 87.6868 43.7518 87.2044C45.971 86.4362 48.0575 85.4784 50.3752 85.057C51.3556 84.8787 51.1238 84.4235 50.1939 84.7223C46.8444 85.799 43.6136 86.8134 40.3913 88.1944C38.6196 88.9537 36.4292 89.5888 34.479 89.5888" stroke="#F9C9D7" stroke-opacity="0.8" stroke-width="5" stroke-linecap="round"/>
<path d="M20.6744 90.3418C18.0929 89.3212 15.4214 88.5188 12.8378 87.5251C11.8217 87.1343 11.3379 86.2762 10.6346 85.5729C9.87871 84.817 8.93244 84.3748 8.18049 85.1267C7.38998 85.9172 7.70539 86.3797 8.18049 87.3299C9.65306 90.275 14.5391 90.6533 17.3836 91.039C20.0141 91.3957 23.6027 92.3832 26.1962 91.3458" stroke="#F9C9D7" stroke-opacity="0.8" stroke-width="5" stroke-linecap="round"/>
<path d="M11.6387 19.06C12.8214 17.1203 14.1206 15.7017 16.296 14.9186C18.6982 14.0538 20.6314 13.6651 23.1565 13.4126C24.6087 13.2674 26.8748 12.8894 28.3158 13.3011C29.6484 13.6818 31.0352 14.9886 32.0807 15.8947C32.7929 16.512 33.8421 18.0778 33.9631 19.046C34.0725 19.9212 34.3202 20.78 34.2141 21.6815C34.0894 22.7419 32.8273 24.2417 32.2062 25.0699C30.1952 27.7512 29.985 30.1889 31.5229 33.2271C32.6519 35.4575 34.0367 37.3388 32.5548 39.8087C31.5298 41.517 30.4089 43.8313 28.0648 42.5976C26.774 41.9182 27.1704 39.0368 27.3955 37.996C27.8291 35.9905 27.8919 34.035 27.7162 32.014C27.4721 29.2076 28.4169 27.3069 29.2082 24.7352C29.7257 23.0532 29.9033 22.2929 28.5668 20.9564C27.3704 19.7601 25.6889 19.5708 24.0907 19.3249C22.48 19.0771 21.518 19.3059 20.033 19.5759C19.0493 19.7548 16.296 20.6427 15.6546 21.4444C14.9096 22.3756 12.6426 21.3279 12.6426 20.1894C12.6426 18.0332 15.5932 17.3426 17.2721 16.801C19.3915 16.1173 21.7114 15.7971 23.9373 15.7971C26.0361 15.7971 28.6857 15.333 29.9612 17.3588C30.9186 18.8794 31.2722 21.0111 30.7699 22.7691C30.3471 24.249 30.1115 25.6438 29.5428 27.1196C29.1287 28.1945 28.4976 29.3241 28.2321 30.4523C28.082 31.09 28.257 31.7949 28.1484 32.4463C27.8517 34.2266 27.8723 36.0159 28.3437 37.7729C28.7491 39.284 29.7102 41.2121 29.7102 42.7788C29.7102 45.1032 32.2627 41.4184 30.4632 41.1613C29.7569 41.0604 28.9948 41.7545 28.3018 41.9003C26.8137 42.2136 26.2343 41.222 25.9732 39.6554C25.4596 36.5737 25.8761 33.4027 26.1823 30.3407C26.3928 28.2362 26.8812 26.7346 26.252 24.6376C25.8103 23.1652 23.1028 22.8756 21.7342 22.8249C20.2977 22.7717 18.8486 22.8249 17.4115 22.8249C17.0777 22.8249 15.6054 22.6381 16.4075 23.0201C17.8179 23.6917 19.1836 24.3693 20.2282 25.53C20.9765 26.3614 21.4871 27.8377 21.9294 28.9045C22.7621 30.9129 23.7049 32.7053 24.3835 34.8168C24.7963 36.1007 24.9015 38.322 26.1963 39.0836C27.7699 40.0093 28.2653 40.2067 29.9612 39.6414" stroke="#F9C9D7" stroke-opacity="0.8" stroke-width="5" stroke-linecap="round"/>
<path d="M29.2083 42.4022C30.7898 39.1759 31.7594 36.2365 29.2083 33.3664C28.0768 32.0936 28.6806 29.5733 29.4593 28.2908C30.2886 26.9249 31.2345 25.7234 32.1086 24.3865C33.8017 21.7972 30.9774 17.0095 28.2601 16.1037C26.1862 15.4124 23.9583 14.9945 21.79 15.4902C20.3991 15.8081 19.093 16.5499 17.6626 16.5499" stroke="#F9C9D7" stroke-opacity="0.8" stroke-width="5" stroke-linecap="round"/>
<path d="M84.4268 27.8447C86.5275 34.2345 88.8138 42.1767 86.2953 48.8166C85.3976 51.1831 83.8326 53.8178 80.9686 53.948C78.0023 54.0828 76.7709 51.5946 75.9488 49.0955C75.3243 47.1971 75.18 45.2666 75.14 43.2668C75.0947 41.0029 74.8313 39.0502 75.2655 36.7829C75.6793 34.6219 76.4356 32.3431 77.5384 30.4383C78.6639 28.4942 78.9779 26.3123 79.5324 24.2053C80.0298 22.3152 79.6579 20.7268 79.6579 18.9345C79.6579 18.5228 79.209 18.3642 79.5463 17.9305C79.8503 17.5396 80.3715 17.1763 80.6061 16.801C80.8954 16.338 81.8902 15.5771 82.4188 15.5461C85.7681 15.349 83.5567 21.2833 82.8092 22.6715C81.4697 25.1592 82.0079 27.05 82.9766 29.3507C83.7517 31.1916 83.4761 33.2769 84.2315 35.1235C84.9771 36.946 84.6778 39.1593 84.6778 41.0916C84.6778 43.105 82.9696 46.8309 81.2893 48.1752C78.5342 50.3793 77.6304 40.304 77.6499 39.251C77.6942 36.8599 79.1304 34.3649 80.0344 32.2092C80.6276 30.7946 80.9848 29.6645 81.2196 28.1515C81.3434 27.354 81.3944 27.556 81.2893 28.2491C81.1409 29.2289 80.8573 30.1534 80.6758 31.1216C79.6754 36.457 79.4069 42.0097 79.4069 47.4222C79.4069 48.6161 79.3105 49.3571 80.1041 50.2389C80.2343 50.3835 80.1082 50.6188 80.1738 50.7827C80.2153 50.8864 81.4148 49.8154 81.4427 49.7927C83.3617 48.2272 84.6467 46.6558 85.1797 44.1872C85.4866 42.7658 85.9009 41.1871 85.9327 39.7251C85.9531 38.7895 85.6817 37.8892 85.6817 37.006C85.6817 35.1689 85.4307 33.3373 85.4307 31.4841C85.4307 30.522 85.4307 29.5598 85.4307 28.5977C85.4307 27.6659 84.9966 26.7745 84.9287 25.8925C84.8472 24.8324 84.6367 23.253 84.12 22.3229C83.6331 21.4465 82.6053 20.9389 82.1678 20.0639" stroke="#F9C9D7" stroke-opacity="0.8" stroke-width="5" stroke-linecap="round"/>
<path d="M84.6777 36.6294C84.3039 39.1762 84.4673 42.0313 83.9108 44.5357C83.667 45.6329 83.075 46.7883 82.9347 47.9101C82.8675 48.448 81.4392 51.2358 80.9128 50.183" stroke="#F9C9D7" stroke-opacity="0.8" stroke-width="5" stroke-linecap="round"/>
<path d="M84.1758 95.3617C84.2217 93.4785 84.4268 91.6223 84.4268 89.7004C84.4268 86.6249 83.8625 84.6262 82.5862 81.836C80.9365 78.2297 79.4141 73.661 75.642 71.9636C74.9783 71.6649 74.4343 71.1042 73.7735 70.7644C73.009 70.3712 71.9677 70.0839 71.3194 69.5652C70.1832 68.6563 68.973 70.5275 69.423 71.5174C69.9392 72.653 70.497 74.899 71.6261 75.589C72.608 76.189 73.9338 76.5174 74.7496 77.2902C76.8202 79.2518 77.9784 81.5873 78.8492 84.3738C79.5932 86.7547 80.2854 89.5882 80.4109 92.0988C80.4715 93.3115 80.4186 94.5934 79.9089 95.6127" stroke="#F9C9D7" stroke-opacity="0.8" stroke-width="5" stroke-linecap="round"/>
<path d="M81.9168 95.1108C82.8036 92.6722 82.614 89.3308 81.9308 86.9396C81.2665 84.6147 79.4399 82.7977 78.5981 80.609C77.9814 79.0056 77.0352 77.3848 76.395 75.7844C75.823 74.3545 74.6736 73.5468 73.3831 72.7725" stroke="#F9C9D7" stroke-opacity="0.8" stroke-width="5" stroke-linecap="round"/>
</svg>
