<svg width="100" height="100" viewBox="0 0 100 100" fill="none" xmlns="http://www.w3.org/2000/svg">
<path d="M0 0H100V100H0V0Z" fill="#81532B"/>
<path d="M22.9213 29.7387C21.8721 28.0338 20.981 26.5997 20.2481 24.7152C19.4319 22.6165 18.536 20.1648 18.759 17.8796C18.9512 15.9097 20.3237 14.2285 20.9478 12.4255C21.1512 11.838 22.8769 10.3451 23.3699 11.3311C23.7206 12.0325 24.1299 12.6598 24.4643 13.3763C25.3092 15.1868 25.123 17.1993 25.5049 19.1085C26.1097 22.1326 27.9313 25.3834 30.1247 27.5768C30.8365 28.2886 31.6084 29.1285 31.8381 30.1334C32.0317 30.9803 32.3866 32.4837 31.2371 32.4837C27.2036 32.4837 24.744 28.8344 23.325 25.4507C22.0385 22.383 21.1451 19.0071 21.1451 15.6908" stroke="#F9C9D7" stroke-opacity="0.8" stroke-width="5" stroke-linecap="round"/>
<path d="M72.0082 31.5148C74.8185 28.6421 77.2704 24.6003 78.3684 20.6963C78.9668 18.5687 79.7012 15.8587 78.9873 13.7172C78.7352 12.9608 78.5943 11.8154 77.561 11.8154C76.3174 11.8154 74.7339 12.7454 73.605 13.1969C72.529 13.6273 71.4969 14.1082 70.5191 14.686C67.3197 16.5766 63.8521 18.5661 62.4815 22.1137C61.7947 23.8911 61.6585 26.8762 62.1585 28.6263C62.3881 29.4296 62.8275 30.2872 63.1991 31.0304C63.3673 31.3668 63.5337 31.7093 63.7822 31.9992C64.2295 32.5211 64.53 32.1225 65.1099 31.9185C67.0117 31.2493 68.9643 31.2864 70.6985 30.1513C72.4153 29.0276 73.4686 27.5951 74.6276 25.9531C75.5471 24.6506 75.6374 22.7518 76.045 21.2435C76.3914 19.9618 77.0138 18.5689 77.0138 17.2247C77.0138 16.3202 75.5379 16.6573 74.9506 16.821C72.6891 17.4513 71.0799 18.8459 69.1556 20.0684C67.9623 20.8265 66.9251 22.0872 66.0428 23.1901C65.1582 24.2959 64.6256 25.4037 64.8228 26.8232C64.8318 26.888 64.8924 27.7686 65.1368 27.7292C66.6488 27.4854 68.368 26.3129 69.6579 25.5045C71.0687 24.6205 71.7519 23.0866 73.0129 22.0778C73.3179 21.8338 73.7665 20.7902 73.7665 21.1807C73.7665 21.9476 73.4743 22.8973 73.2821 23.6387C72.841 25.3399 72.5141 27.0603 72.089 28.7609C71.9374 29.3671 71.652 30.1741 71.8826 29.021C72.3374 26.7474 71.3245 23.9584 72.3312 21.8266C72.9856 20.4407 73.181 19.0391 74.2688 17.9513" stroke="#F9C9D7" stroke-opacity="0.8" stroke-width="5" stroke-linecap="round"/>
<path d="M91.2232 60.0952C90.1008 63.9245 88.0874 67.3653 85.8588 70.6267C84.8911 72.0428 84.0307 73.4635 83.1497 74.9146C82.5975 75.8241 82.5433 77.5473 82.5038 78.5746C82.4513 79.9387 82.2697 81.4011 81.9835 82.737C81.9181 83.042 81.8628 83.8931 81.4542 83.9839C80.8326 84.122 79.3592 84.1228 78.8797 83.6699C77.8832 82.7288 77.4365 80.9646 77.2111 79.669C76.9877 78.3841 77.1427 76.7763 77.4175 75.5246C77.7226 74.1345 77.922 72.4608 78.5029 71.1649C79.0717 69.896 79.3876 68.6288 80.2522 67.5049C81.2546 66.2017 82.1883 64.8466 83.1855 63.5399C84.4299 61.9094 85.424 60.2095 86.8814 58.7138C87.0431 58.5478 88.7329 56.5567 88.9447 56.8479C89.4578 57.5535 89.2855 59.3823 89.2855 60.2567C89.2855 61.3004 88.5775 62.3125 87.9938 63.1632C87.0931 64.4756 85.9779 65.6262 85.0963 66.9487C84.605 67.6857 83.8953 68.1975 83.4726 68.9761C83.1148 69.6352 82.5053 70.3086 82.0283 70.9048C81.3369 71.7691 80.8409 72.7687 80.2432 73.6946C79.4698 74.8926 78.8907 76.218 78.2158 77.4712C77.8212 78.2042 77.9826 79.117 77.9826 79.9202C77.9826 80.5233 78.4054 80.8912 78.8617 81.2389C79.2033 81.4992 79.6057 82.0594 79.9202 82.2167" stroke="#F9C9D7" stroke-opacity="0.8" stroke-width="5" stroke-linecap="round"/>
<path d="M53.1163 81.5707C53.1163 78.7179 53.7337 76.8294 55.2513 74.3942C56.2117 72.8531 57.1971 71.3319 58.086 69.7474C58.907 68.2839 60.0219 67.0143 60.8848 65.5761C62.6513 62.632 64.8032 59.8556 64.7422 56.2557C64.7168 54.7568 63.9696 52.6322 62.643 51.7794C59.3617 49.6699 56.9893 53.1029 55.7357 55.7354C54.9229 57.4422 54.355 59.2239 53.2957 60.8127C52.5078 61.9946 51.9011 63.3033 51.0889 64.4727C50.2951 65.6158 49.3245 66.6778 48.6131 67.8636C48.0398 68.8191 47.2778 69.7573 46.6216 70.6624C45.8641 71.7072 45.3132 72.8091 44.6839 73.9277C43.6863 75.7014 43.2361 78.0007 43.5088 80.0187C43.8093 82.2425 44.9622 84.4373 46.1731 86.2892C46.6049 86.9496 47.964 88.5139 48.8373 88.5139C49.7078 88.5139 50.652 86.7304 50.9275 86.1008C51.3973 85.027 51.3401 83.8868 51.3401 82.7368C51.3401 78.6582 53.6833 74.9849 54.8028 71.1289C55.1556 69.9134 55.6087 68.7189 56.0228 67.5227C56.3063 66.7037 56.9307 66.0082 57.1889 65.1904C57.4716 64.2954 58.1139 63.5929 58.4807 62.7324C58.8437 61.8808 59.1504 60.995 59.5751 60.1758C59.9005 59.5483 60.8828 58.0319 60.5798 57.3501C60.3124 56.7484 60.2094 56.1275 60.0685 55.4932C59.8127 54.3423 58.7627 56.4603 58.5166 56.8657C57.746 58.1348 57.3975 59.6471 56.5969 60.8845C55.472 62.6229 54.6681 64.5556 53.52 66.3027C52.7763 67.4344 52.0082 68.5821 51.376 69.7833C50.4815 71.4829 48.4307 72.7009 47.9313 74.5736C47.4953 76.2084 46.6575 77.639 46.6575 79.3818C46.6575 81.039 47.2951 82.7807 48.1107 84.208C48.1405 84.2602 48.3277 82.6317 48.3529 82.4857C48.5118 81.5639 48.32 80.6244 48.4426 79.7048C48.8482 76.6627 50.154 73.8435 51.6631 71.1827C52.7601 69.2485 53.6915 67.2697 54.4978 65.2173C54.853 64.313 55.0707 63.3451 55.2872 62.4005C55.4911 61.5106 55.9996 60.7674 56.3367 59.9247C57.0252 58.2035 57.7573 56.4278 58.1219 54.6051" stroke="#F9C9D7" stroke-opacity="0.8" stroke-width="5" stroke-linecap="round"/>
<path d="M18.4001 59.1263C18.4001 63.0783 18.3818 67.4373 20.7234 70.7971C21.1793 71.4512 21.8383 72.2983 22.4727 72.7885C23.1398 73.304 24.1424 73.6106 24.6257 74.3135C25.483 75.5606 26.2721 77.1441 26.4736 78.6553C26.7489 80.7204 27.0706 83.8612 25.7201 85.6792C24.7887 86.933 24.0941 86.755 22.7957 86.2534C21.1066 85.6008 19.9918 84.8791 18.8845 83.4725C17.8039 82.0999 17.0553 80.3664 16.4624 78.736C15.7115 76.6709 14.9321 74.5717 14.3633 72.4387C13.3613 68.6812 12.4257 64.8049 12.4257 60.8935C12.4257 58.878 12.1967 57.0432 12.623 55.0537C12.8327 54.0752 13.4246 53.6875 14.2018 53.116C15.4517 52.1971 15.2909 53.4431 16.0139 54.2463C16.4251 54.7032 16.5956 55.5075 16.8212 56.0943C17.1898 57.0525 17.565 58.0212 17.826 59.0277C18.1793 60.3906 17.9157 62.0871 17.9157 63.4681C17.9157 66.1855 17.6212 68.7259 18.4001 71.4519C18.7617 72.7176 18.8592 74.0055 19.333 75.2375C19.6353 76.0233 20.1643 76.6309 20.5351 77.3725C20.7642 77.8308 21.2748 77.9518 21.5039 78.3413C21.8861 78.9911 22.5124 79.504 22.9212 80.1534C23.2643 80.6982 23.4057 81.3452 23.4057 81.9744C23.4057 82.5357 22.5116 82.6143 22.1946 82.2973C21.1673 81.27 20.4194 79.4761 20.1045 78.0363C19.5815 75.6456 19.1061 73.2462 18.4898 70.8688C17.7586 68.0487 17.0398 65.1614 15.7807 62.5172C14.7533 60.3597 14.5248 58.4193 14.5248 56.0584" stroke="#F9C9D7" stroke-opacity="0.8" stroke-width="5" stroke-linecap="round"/>
</svg>
