<svg width="100" height="100" viewBox="0 0 100 100" fill="none" xmlns="http://www.w3.org/2000/svg">
<path d="M0 0H100V100H0V0Z" fill="#81532B"/>
<path d="M21.4 32.274C19.7999 29.5858 18.1933 26.9211 16.3056 24.4942C15.2022 23.0755 13.8858 21.7289 12.894 20.2412" stroke="#9B111E" stroke-opacity="0.75" stroke-width="2" stroke-linecap="round"/>
<path d="M12.894 20.2413C13.5752 19.5601 14.6141 18.8242 15.1761 18.0514C15.597 17.4726 15.9339 16.8151 16.4209 16.2995C16.9534 15.7357 17.7348 14.9165 18.0806 14.2249" stroke="#9B111E" stroke-opacity="0.75" stroke-width="2" stroke-linecap="round"/>
<path d="M17.8733 14.2249C22.0965 14.2249 26.3432 14.2249 30.5285 14.2249" stroke="#9B111E" stroke-opacity="0.75" stroke-width="2" stroke-linecap="round"/>
<path d="M30.5283 14.2249C32.1245 15.5278 33.9479 17.3296 34.885 19.2039" stroke="#9B111E" stroke-opacity="0.75" stroke-width="2" stroke-linecap="round"/>
<path d="M35.5931 20.752C35.2905 21.4003 34.6764 21.728 34.2897 22.2886C33.9684 22.7546 33.7333 23.2368 33.4772 23.7207C33.3218 24.0141 33.058 24.2248 32.8738 24.5011C32.5558 24.9781 32.1828 25.4573 31.8198 25.901C31.4222 26.3869 31.0017 26.8802 30.5849 27.3491C30.117 27.8755 29.66 28.4711 29.1367 28.9421C28.5836 29.4399 28.1773 30.0504 27.6564 30.5713C27.3416 30.8861 27.0042 31.4 26.6145 31.6292C26.0761 31.946 25.6671 32.6988 25.2066 33.1337C24.935 33.3902 24.4884 33.7086 24.2975 34.0428C24.1911 34.2289 23.9417 34.5307 23.7624 34.6502C23.7345 34.6689 23.4726 35.1175 23.4286 35.0404C23.2067 34.6522 22.8865 34.1977 22.5235 33.9302C22.2751 33.7471 22.0242 33.2931 21.7632 33.2061" stroke="#9B111E" stroke-opacity="0.75" stroke-width="2" stroke-linecap="round"/>
<path d="M14.0154 20.4623C15.115 20.2756 16.2099 20.4218 17.3059 20.2813C18.1115 20.178 18.9482 20.2451 19.7597 20.2451C21.6439 20.2451 23.5824 20.1076 25.4558 20.3014C27.1418 20.4758 28.8297 20.4623 30.5244 20.4623C31.735 20.4623 32.9377 20.5347 34.1448 20.5347" stroke="#9B111E" stroke-opacity="0.75" stroke-width="2" stroke-linecap="round"/>
<path d="M23.5734 33.2061C23.5526 32.0036 22.8679 31.2716 22.3022 30.2857C21.7977 29.4064 21.6914 28.3845 21.2965 27.4819C20.9546 26.7003 20.977 25.7894 20.6408 24.9878C20.329 24.2441 20.0214 23.4861 19.6472 22.7794C19.4548 22.4159 19.2973 22.0464 19.1404 21.6933C19.0327 21.451 18.9564 21.2068 18.8508 20.9692C18.6447 20.5054 19.3244 19.9244 19.6231 19.6256C20.5687 18.68 21.4263 17.7725 22.2298 16.7011C22.569 16.2489 22.8061 15.8715 23.2113 15.4662" stroke="#9B111E" stroke-opacity="0.75" stroke-width="2" stroke-linecap="round"/>
<path d="M23.5732 32.7716C24.3411 31.4407 25.0236 30.0625 25.834 28.757C26.5755 27.5623 27.0151 26.1991 27.7005 24.9677C28.5473 23.4463 29.4462 21.969 30.3072 20.4623" stroke="#9B111E" stroke-opacity="0.75" stroke-width="2" stroke-linecap="round"/>
<path d="M30.2348 20.7519C29.3858 19.2341 29.0875 17.4662 28.4688 15.8523C28.3034 15.4208 28.1671 15.0437 27.9177 14.6697" stroke="#9B111E" stroke-opacity="0.75" stroke-width="2" stroke-linecap="round"/>
<path d="M47.5059 58.0492C45.9058 55.361 44.2992 52.6963 42.4116 50.2693C41.3082 48.8506 39.9918 47.504 39 46.0164" stroke="#9B111E" stroke-opacity="0.75" stroke-width="2" stroke-linecap="round"/>
<path d="M39 46.0164C39.6811 45.3353 40.7201 44.5993 41.2821 43.8265C41.703 43.2478 42.0398 42.5903 42.5269 42.0746C43.0593 41.5108 43.8407 40.6917 44.1866 40" stroke="#9B111E" stroke-opacity="0.75" stroke-width="2" stroke-linecap="round"/>
<path d="M43.9792 40C48.2024 40 52.4491 40 56.6344 40" stroke="#9B111E" stroke-opacity="0.75" stroke-width="2" stroke-linecap="round"/>
<path d="M56.6343 40C58.2304 41.303 60.0538 43.1047 60.991 44.9791" stroke="#9B111E" stroke-opacity="0.75" stroke-width="2" stroke-linecap="round"/>
<path d="M61.699 46.5271C61.3965 47.1754 60.7823 47.5032 60.3957 48.0638C60.0744 48.5297 59.8393 49.012 59.5831 49.4958C59.4278 49.7892 59.1639 49.9999 58.9797 50.2762C58.6617 50.7532 58.2888 51.2325 57.9258 51.6761C57.5282 52.1621 57.1077 52.6553 56.6908 53.1243C56.223 53.6506 55.766 54.2462 55.2427 54.7172C54.6896 55.215 54.2832 55.8255 53.7623 56.3464C53.4475 56.6612 53.1101 57.1752 52.7205 57.4044C52.182 57.7211 51.773 58.4739 51.3125 58.9088C51.0409 59.1654 50.5944 59.4837 50.4034 59.818C50.2971 60.0041 50.0477 60.3059 49.8684 60.4254C49.8404 60.444 49.5786 60.8927 49.5345 60.8156C49.3127 60.4274 48.9925 59.9728 48.6294 59.7053C48.381 59.5223 48.1301 59.0683 47.8691 58.9813" stroke="#9B111E" stroke-opacity="0.75" stroke-width="2" stroke-linecap="round"/>
<path d="M40.1213 46.2374C41.2209 46.0507 42.3158 46.1969 43.4119 46.0564C44.2174 45.9531 45.0541 46.0202 45.8657 46.0202C47.7499 46.0202 49.6883 45.8827 51.5618 46.0765C53.2477 46.2509 54.9356 46.2374 56.6303 46.2374C57.841 46.2374 59.0436 46.3098 60.2507 46.3098" stroke="#9B111E" stroke-opacity="0.75" stroke-width="2" stroke-linecap="round"/>
<path d="M49.6793 58.9813C49.6586 57.7787 48.9739 57.0468 48.4082 56.0608C47.9037 55.1816 47.7974 54.1597 47.4025 53.257C47.0605 52.4754 47.0829 51.5645 46.7468 50.763C46.4349 50.0193 46.1273 49.2612 45.7532 48.5545C45.5608 48.191 45.4033 47.8216 45.2464 47.4684C45.1387 47.2261 45.0623 46.982 44.9567 46.7443C44.7506 46.2806 45.4303 45.6995 45.7291 45.4008C46.6747 44.4551 47.5322 43.5477 48.3358 42.4763C48.675 42.024 48.912 41.6466 49.3173 41.2413" stroke="#9B111E" stroke-opacity="0.75" stroke-width="2" stroke-linecap="round"/>
<path d="M49.6792 58.5468C50.447 57.2159 51.1296 55.8377 51.9399 54.5322C52.6815 53.3375 53.121 51.9743 53.8064 50.7428C54.6532 49.2215 55.5522 47.7441 56.4131 46.2374" stroke="#9B111E" stroke-opacity="0.75" stroke-width="2" stroke-linecap="round"/>
<path d="M56.3407 46.5271C55.4918 45.0093 55.1934 43.2413 54.5748 41.6275C54.4094 41.1959 54.273 40.8188 54.0237 40.4448" stroke="#9B111E" stroke-opacity="0.75" stroke-width="2" stroke-linecap="round"/>
<path d="M74.5059 82.0492C72.9058 79.361 71.2992 76.6963 69.4116 74.2693C68.3082 72.8506 66.9918 71.504 66 70.0164" stroke="#9B111E" stroke-opacity="0.75" stroke-width="2" stroke-linecap="round"/>
<path d="M66 70.0164C66.6811 69.3353 67.7201 68.5993 68.2821 67.8265C68.703 67.2478 69.0398 66.5903 69.5269 66.0746C70.0593 65.5108 70.8407 64.6917 71.1866 64" stroke="#9B111E" stroke-opacity="0.75" stroke-width="2" stroke-linecap="round"/>
<path d="M70.9792 64C75.2024 64 79.4491 64 83.6344 64" stroke="#9B111E" stroke-opacity="0.75" stroke-width="2" stroke-linecap="round"/>
<path d="M83.6343 64C85.2304 65.303 87.0538 67.1047 87.991 68.9791" stroke="#9B111E" stroke-opacity="0.75" stroke-width="2" stroke-linecap="round"/>
<path d="M88.699 70.5271C88.3965 71.1754 87.7823 71.5032 87.3957 72.0638C87.0744 72.5297 86.8393 73.012 86.5831 73.4958C86.4278 73.7892 86.1639 73.9999 85.9797 74.2762C85.6617 74.7532 85.2888 75.2325 84.9258 75.6761C84.5282 76.1621 84.1077 76.6553 83.6908 77.1243C83.223 77.6506 82.766 78.2462 82.2427 78.7172C81.6896 79.215 81.2832 79.8255 80.7623 80.3464C80.4475 80.6612 80.1101 81.1752 79.7205 81.4044C79.182 81.7211 78.773 82.4739 78.3125 82.9088C78.0409 83.1654 77.5944 83.4837 77.4034 83.818C77.2971 84.0041 77.0477 84.3059 76.8684 84.4254C76.8404 84.444 76.5786 84.8927 76.5345 84.8156C76.3127 84.4274 75.9925 83.9728 75.6294 83.7053C75.381 83.5223 75.1301 83.0683 74.8691 82.9813" stroke="#9B111E" stroke-opacity="0.75" stroke-width="2" stroke-linecap="round"/>
<path d="M67.1213 70.2374C68.2209 70.0507 69.3158 70.1969 70.4119 70.0564C71.2174 69.9531 72.0541 70.0202 72.8657 70.0202C74.7499 70.0202 76.6883 69.8827 78.5618 70.0765C80.2477 70.2509 81.9356 70.2374 83.6303 70.2374C84.841 70.2374 86.0436 70.3098 87.2507 70.3098" stroke="#9B111E" stroke-opacity="0.75" stroke-width="2" stroke-linecap="round"/>
<path d="M76.6793 82.9813C76.6586 81.7787 75.9739 81.0468 75.4082 80.0608C74.9037 79.1816 74.7974 78.1597 74.4025 77.257C74.0605 76.4754 74.0829 75.5645 73.7468 74.763C73.4349 74.0193 73.1273 73.2612 72.7532 72.5545C72.5608 72.191 72.4033 71.8216 72.2464 71.4684C72.1387 71.2261 72.0623 70.982 71.9567 70.7443C71.7506 70.2806 72.4303 69.6995 72.7291 69.4008C73.6747 68.4551 74.5322 67.5477 75.3358 66.4763C75.675 66.024 75.912 65.6466 76.3173 65.2413" stroke="#9B111E" stroke-opacity="0.75" stroke-width="2" stroke-linecap="round"/>
<path d="M76.6792 82.5468C77.447 81.2159 78.1296 79.8377 78.9399 78.5322C79.6815 77.3375 80.121 75.9743 80.8064 74.7428C81.6532 73.2215 82.5522 71.7441 83.4131 70.2374" stroke="#9B111E" stroke-opacity="0.75" stroke-width="2" stroke-linecap="round"/>
<path d="M83.3407 70.5271C82.4918 69.0093 82.1934 67.2413 81.5748 65.6275C81.4094 65.1959 81.273 64.8188 81.0237 64.4448" stroke="#9B111E" stroke-opacity="0.75" stroke-width="2" stroke-linecap="round"/>
<path d="M21.4 82.0492C19.7999 79.361 18.1933 76.6963 16.3056 74.2693C15.2022 72.8506 13.8858 71.504 12.894 70.0164" stroke="#9B111E" stroke-opacity="0.75" stroke-width="2" stroke-linecap="round"/>
<path d="M12.894 70.0164C13.5752 69.3353 14.6141 68.5993 15.1761 67.8265C15.597 67.2478 15.9339 66.5903 16.4209 66.0746C16.9534 65.5108 17.7348 64.6917 18.0806 64" stroke="#9B111E" stroke-opacity="0.75" stroke-width="2" stroke-linecap="round"/>
<path d="M17.8733 64C22.0965 64 26.3432 64 30.5285 64" stroke="#9B111E" stroke-opacity="0.75" stroke-width="2" stroke-linecap="round"/>
<path d="M30.5283 64C32.1245 65.303 33.9479 67.1047 34.885 68.9791" stroke="#9B111E" stroke-opacity="0.75" stroke-width="2" stroke-linecap="round"/>
<path d="M35.5931 70.5271C35.2905 71.1754 34.6764 71.5032 34.2897 72.0638C33.9684 72.5297 33.7333 73.012 33.4772 73.4958C33.3218 73.7892 33.058 73.9999 32.8738 74.2762C32.5558 74.7532 32.1828 75.2325 31.8198 75.6761C31.4222 76.1621 31.0017 76.6553 30.5849 77.1243C30.117 77.6506 29.66 78.2462 29.1367 78.7172C28.5836 79.215 28.1773 79.8255 27.6564 80.3464C27.3416 80.6612 27.0042 81.1752 26.6145 81.4044C26.0761 81.7211 25.6671 82.4739 25.2066 82.9088C24.935 83.1654 24.4884 83.4837 24.2975 83.818C24.1911 84.0041 23.9417 84.3059 23.7624 84.4254C23.7345 84.444 23.4726 84.8927 23.4286 84.8156C23.2067 84.4274 22.8865 83.9728 22.5235 83.7053C22.2751 83.5223 22.0242 83.0683 21.7632 82.9813" stroke="#9B111E" stroke-opacity="0.75" stroke-width="2" stroke-linecap="round"/>
<path d="M14.0154 70.2374C15.115 70.0507 16.2099 70.1969 17.3059 70.0564C18.1115 69.9531 18.9482 70.0202 19.7597 70.0202C21.6439 70.0202 23.5824 69.8827 25.4558 70.0765C27.1418 70.2509 28.8297 70.2374 30.5244 70.2374C31.735 70.2374 32.9377 70.3098 34.1448 70.3098" stroke="#9B111E" stroke-opacity="0.75" stroke-width="2" stroke-linecap="round"/>
<path d="M23.5734 82.9813C23.5526 81.7787 22.8679 81.0468 22.3022 80.0608C21.7977 79.1816 21.6914 78.1597 21.2965 77.257C20.9546 76.4754 20.977 75.5645 20.6408 74.763C20.329 74.0193 20.0214 73.2612 19.6472 72.5545C19.4548 72.191 19.2973 71.8216 19.1404 71.4684C19.0327 71.2261 18.9564 70.982 18.8508 70.7443C18.6447 70.2806 19.3244 69.6995 19.6231 69.4008C20.5687 68.4551 21.4263 67.5477 22.2298 66.4763C22.569 66.024 22.8061 65.6466 23.2113 65.2413" stroke="#9B111E" stroke-opacity="0.75" stroke-width="2" stroke-linecap="round"/>
<path d="M23.5732 82.5468C24.3411 81.2159 25.0236 79.8377 25.834 78.5322C26.5755 77.3375 27.0151 75.9743 27.7005 74.7428C28.5473 73.2215 29.4462 71.7441 30.3072 70.2374" stroke="#9B111E" stroke-opacity="0.75" stroke-width="2" stroke-linecap="round"/>
<path d="M30.2348 70.5271C29.3858 69.0093 29.0875 67.2413 28.4688 65.6275C28.3034 65.1959 28.1671 64.8188 27.9177 64.4448" stroke="#9B111E" stroke-opacity="0.75" stroke-width="2" stroke-linecap="round"/>
<path d="M74.5059 32.274C72.9058 29.5858 71.2992 26.9211 69.4116 24.4942C68.3082 23.0755 66.9918 21.7289 66 20.2412" stroke="#9B111E" stroke-opacity="0.75" stroke-width="2" stroke-linecap="round"/>
<path d="M66 20.2413C66.6811 19.5601 67.7201 18.8242 68.2821 18.0514C68.703 17.4726 69.0398 16.8151 69.5269 16.2995C70.0593 15.7357 70.8407 14.9165 71.1866 14.2249" stroke="#9B111E" stroke-opacity="0.75" stroke-width="2" stroke-linecap="round"/>
<path d="M70.9792 14.2249C75.2024 14.2249 79.4491 14.2249 83.6344 14.2249" stroke="#9B111E" stroke-opacity="0.75" stroke-width="2" stroke-linecap="round"/>
<path d="M83.6343 14.2249C85.2304 15.5278 87.0538 17.3296 87.991 19.2039" stroke="#9B111E" stroke-opacity="0.75" stroke-width="2" stroke-linecap="round"/>
<path d="M88.699 20.752C88.3965 21.4003 87.7823 21.728 87.3957 22.2886C87.0744 22.7546 86.8393 23.2368 86.5831 23.7207C86.4278 24.0141 86.1639 24.2248 85.9797 24.5011C85.6617 24.9781 85.2888 25.4573 84.9258 25.901C84.5282 26.3869 84.1077 26.8802 83.6908 27.3491C83.223 27.8755 82.766 28.4711 82.2427 28.9421C81.6896 29.4399 81.2832 30.0504 80.7623 30.5713C80.4475 30.8861 80.1101 31.4 79.7205 31.6292C79.182 31.946 78.773 32.6988 78.3125 33.1337C78.0409 33.3902 77.5944 33.7086 77.4034 34.0428C77.2971 34.2289 77.0477 34.5307 76.8684 34.6502C76.8404 34.6689 76.5786 35.1175 76.5345 35.0404C76.3127 34.6522 75.9925 34.1977 75.6294 33.9302C75.381 33.7471 75.1301 33.2931 74.8691 33.2061" stroke="#9B111E" stroke-opacity="0.75" stroke-width="2" stroke-linecap="round"/>
<path d="M67.1213 20.4623C68.2209 20.2756 69.3158 20.4218 70.4119 20.2813C71.2174 20.178 72.0541 20.2451 72.8657 20.2451C74.7499 20.2451 76.6883 20.1076 78.5618 20.3014C80.2477 20.4758 81.9356 20.4623 83.6303 20.4623C84.841 20.4623 86.0436 20.5347 87.2507 20.5347" stroke="#9B111E" stroke-opacity="0.75" stroke-width="2" stroke-linecap="round"/>
<path d="M76.6793 33.2061C76.6586 32.0036 75.9739 31.2716 75.4082 30.2857C74.9037 29.4064 74.7974 28.3845 74.4025 27.4819C74.0605 26.7003 74.0829 25.7894 73.7468 24.9878C73.4349 24.2441 73.1273 23.4861 72.7532 22.7794C72.5608 22.4159 72.4033 22.0464 72.2464 21.6933C72.1387 21.451 72.0623 21.2068 71.9567 20.9692C71.7506 20.5054 72.4303 19.9244 72.7291 19.6256C73.6747 18.68 74.5322 17.7725 75.3358 16.7011C75.675 16.2489 75.912 15.8715 76.3173 15.4662" stroke="#9B111E" stroke-opacity="0.75" stroke-width="2" stroke-linecap="round"/>
<path d="M76.6792 32.7716C77.447 31.4407 78.1296 30.0625 78.9399 28.757C79.6815 27.5623 80.121 26.1991 80.8064 24.9677C81.6532 23.4463 82.5522 21.969 83.4131 20.4623" stroke="#9B111E" stroke-opacity="0.75" stroke-width="2" stroke-linecap="round"/>
<path d="M83.3407 20.7519C82.4918 19.2341 82.1934 17.4662 81.5748 15.8523C81.4094 15.4208 81.273 15.0437 81.0237 14.6697" stroke="#9B111E" stroke-opacity="0.75" stroke-width="2" stroke-linecap="round"/>
</svg>
