<svg width="100" height="100" viewBox="0 0 100 100" fill="none" xmlns="http://www.w3.org/2000/svg">
<path d="M0 0H100V100H0V0Z" fill="#81532B"/>
<path d="M26.1746 13.867C24.8733 14.8528 23.8661 16.0333 22.7857 17.2487C21.3593 18.8535 19.9308 20.5201 18.7349 22.314C17.7439 23.8005 17.7564 25.2804 17.7564 27.0052C17.7564 27.9601 18.3643 28.6606 18.8212 29.4084C19.7073 30.8583 21.9215 32.0673 23.498 32.5023C24.8175 32.8663 26.2584 33.7116 27.5992 33.0059C28.5366 32.5126 29.6236 32.0464 30.3837 31.2863C30.9481 30.7219 31.7032 30.3554 32.2688 29.7897C32.9145 29.1441 33.6305 28.5285 34.4058 28.0485C35.8824 27.1344 37.5331 26.1095 38.4063 24.5877C39.337 22.9655 39.8943 20.5425 39.1258 18.7309C38.6267 17.5546 38.3456 16.4853 37.6004 15.3923C36.7729 14.1787 35.7529 13.2454 34.4058 12.5719C33.7525 12.2452 32.5049 11.4444 31.7004 11.6941C31.1704 11.8586 30.7696 12.2581 30.2902 12.4711C29.9399 12.6268 29.4976 13.0047 29.2181 13.2842C28.8314 13.6709 28.3259 13.7551 27.923 14.0685C27.6027 14.3176 27.32 14.4303 26.9805 14.6441C25.7364 15.4274 24.7358 16.6951 23.7283 17.7379C22.2859 19.2309 21.6596 21.0845 20.9294 22.9832C20.4694 24.179 20.2171 25.2322 20.2171 26.4944C20.2171 28.3178 23.3526 28.8458 24.6205 29.3796C25.6129 29.7975 27.2035 29.1678 28.0525 28.6961C29.0413 28.1468 30.0906 27.5246 31.096 27.0484C32.6589 26.3081 33.7571 24.8875 35.0246 23.789C35.6657 23.2334 36.089 22.237 36.3053 21.4506C36.4655 20.8679 36.7946 20.1682 36.7946 19.5655C36.7946 18.125 35.8953 17.104 34.9886 16.1406C34.1566 15.2567 32.5183 15.1621 31.3838 15.1621C29.5785 15.1621 27.8505 16.8526 26.7214 18.0545C25.8562 18.9756 25.2961 20.1136 24.5557 21.1268C24.0023 21.8841 23.3672 22.6039 22.8649 23.3933C22.257 24.3485 22.2617 25.6595 23.5268 26.113C24.2632 26.377 25.1319 26.5195 25.9084 26.4224C26.6117 26.3345 27.541 25.6642 28.1676 25.336C29.9426 24.4062 31.5417 23.3165 32.7869 21.76C33.2951 21.1247 34.8829 18.8914 34.1036 18.1121C33.8261 17.8346 33.2593 18.1202 32.974 18.2704C32.3296 18.6095 31.5207 18.6939 30.8442 18.9899C29.6778 19.5002 28.4313 20.4004 27.5129 21.2779C26.7264 22.0295 25.527 22.997 25.527 24.2279" stroke="#DF757F" stroke-opacity="0.75" stroke-width="4" stroke-linecap="round"/>
<path d="M21.3826 30.7035C22.9427 30.8722 24.4648 31.1945 26.0162 31.423C26.4346 31.4846 26.6157 31.5001 26.9516 31.3223C27.6167 30.9701 28.3143 30.7709 28.9662 30.3797C29.4141 30.111 29.8298 29.9302 30.1894 29.5307C30.3986 29.2982 30.6251 28.9228 30.9089 28.768C31.2368 28.5892 31.7156 28.1691 31.873 27.8542" stroke="#DF757F" stroke-opacity="0.75" stroke-width="4" stroke-linecap="round"/>
<path d="M22.8074 20.213C24.2132 17.9537 26.7996 15.9752 29.4125 15.3563C30.9189 14.9995 32.2091 15.0406 33.5568 15.9391" stroke="#DF757F" stroke-opacity="0.75" stroke-width="4" stroke-linecap="round"/>
<path d="M83.9368 16.4573C81.9377 15.8045 79.5514 16.1047 77.6915 17.1336C76.5707 17.7536 75.3434 18.1113 74.3746 18.9683C73.6091 19.6455 73.1573 20.6963 72.8564 21.6521C72.436 22.9876 72.6693 24.5839 72.6693 25.962C72.6693 26.9004 72.9094 27.7874 73.5039 28.5306C74.4033 29.6548 75.4953 30.3988 76.2021 31.7037C76.6344 32.5018 76.8137 33.446 76.8137 34.3442C76.8137 35.3227 76.7406 36.3317 76.9432 37.2942C77.099 38.0345 77.1683 39.3236 77.7922 39.8341C79.511 41.2404 81.9082 40.8624 83.7426 40.0931C86.0569 39.1226 87.0396 36.6722 88.4697 34.8335C89.1877 33.9104 89.4266 32.6447 89.9951 31.6389C90.6167 30.539 91.1859 29.4048 91.9665 28.4011C93.4149 26.5389 94.067 24.5201 94.0387 22.1702C94.0202 20.6347 93.2703 18.7391 92.2903 17.5725C91.2157 16.2932 89.4575 15.9947 87.8797 15.8097C86.2511 15.6188 84.6028 15.6802 82.9655 15.6802C82.5162 15.6802 81.6086 16.2673 81.2171 16.4573C79.2873 17.3938 77.4841 18.811 76.6842 20.8679C76.1481 22.2463 75.5839 23.5685 75.9143 25.0554C76.2718 26.664 77.0287 28.2332 77.6627 29.7682C77.9325 30.4213 78.2295 31.0843 78.4326 31.7612C78.6967 32.6417 78.5361 33.5163 78.7276 34.4018C78.9141 35.2643 78.9998 36.1265 79.2744 36.9776C79.6899 38.2656 80.7687 37.8267 82.0301 37.8267C83.0275 37.8267 83.7357 36.4981 84.3829 35.8264C85.1118 35.0701 85.7543 34.0549 86.2824 33.1427C87.0215 31.8661 87.6507 30.6004 88.3114 29.2789C88.9298 28.0422 89.6577 26.8254 90.1965 25.5519C90.7592 24.2221 91.578 22.5858 91.578 21.1197C91.578 19.1449 88.085 18.6974 86.6278 18.7885C86.0109 18.827 85.4099 19.1095 84.7858 19.177C84.1761 19.2429 83.5486 19.2998 82.9511 19.4432C82.2896 19.602 81.6946 19.918 81.0876 20.2131C80.596 20.4521 79.9903 20.5141 79.5622 20.8607C78.667 21.5854 77.989 22.9322 77.8642 24.0553C77.7122 25.4228 77.9806 26.5412 78.2383 27.8975C78.4752 29.144 78.8346 30.4056 79.2097 31.6173C79.3942 32.2135 79.6807 33.504 80.2529 33.8406C80.5397 34.0092 81.1546 34.6878 81.5409 34.3874C82.2771 33.8148 83.0441 32.7513 83.5555 31.9843C85.0197 29.7879 86.8892 27.8621 87.8078 25.336C88.1845 24.3 88.2482 22.8927 87.7502 21.8967C86.6877 19.7718 83.6247 21.7849 82.3899 22.4796C81.1087 23.2002 80.0857 25.0572 80.0515 26.5304C80.0181 27.964 80.921 30.4646 82.4978 30.7323C83.5272 30.9071 83.8751 30.271 84.3757 29.3581C84.8124 28.5618 85.2398 27.7412 85.3543 26.8254C85.4309 26.212 85.3834 25.5179 85.3615 24.9043C85.3421 24.3616 82.1965 25.4361 81.8287 25.7173C81.4341 26.019 81.1799 26.932 81.4042 27.3938C81.7917 28.1916 82.3491 27.9838 83.1598 27.9838" stroke="#DF757F" stroke-opacity="0.75" stroke-width="4" stroke-linecap="round"/>
<path d="M42.6227 51.6844C40.1494 51.4516 37.7611 51.7844 35.3268 52.2024C33.5803 52.5023 30.7509 52.6179 29.9305 54.5048C29.5444 55.3928 30.5211 56.6523 31.1969 57.1958C33.2583 58.8539 35.5204 59.2979 38.0322 59.7788C39.0889 59.9812 40.3769 60.4904 41.4643 60.3545C42.072 60.2785 42.4987 59.7773 42.9392 59.3975C43.514 58.902 44.1286 58.4672 44.6661 57.9297C45.4367 57.1591 45.7631 56.1587 45.5007 55.1092C45.1427 53.6771 43.8615 53.2396 42.5723 53.0442C40.4127 52.717 37.8219 52.9153 35.7514 53.5623C34.8005 53.8594 33.8276 54.2171 32.9093 54.6056C30.6009 55.5822 33.6767 56.4756 34.7944 56.7065C36.6632 57.0927 38.5257 57.1239 40.421 57.1239C41.2494 57.1239 42.0462 56.8468 42.6946 56.4763C43.1733 56.2028 42.6591 55.8156 42.3564 55.6992C41.6602 55.4314 41.0408 55.5175 40.3202 55.5625C39.1945 55.6329 38.0519 55.5697 36.9242 55.5697" stroke="#DF757F" stroke-opacity="0.75" stroke-width="4" stroke-linecap="round"/>
<path d="M82.6416 63.0813C84.4187 66.6356 85.825 70.1092 85.8794 74.133C85.9145 76.7361 86.2129 79.2816 85.5628 81.8461C84.8224 84.7665 82.093 88.0178 78.821 87.228C78.3226 87.1077 77.8308 86.8451 77.3892 86.5949C76.6891 86.1982 75.816 85.827 75.1875 85.3285C74.1235 84.4847 73.8259 83.1144 73.3167 81.9325C71.9748 78.8173 71.029 75.3597 70.8632 71.9601C70.6683 67.9652 71.8844 62.251 76.9143 62.1747C78.2012 62.1552 78.9186 62.2272 80.0513 62.7935C80.6471 63.0914 81.1015 63.6988 81.476 64.2397C82.0798 65.112 82.8827 65.8288 83.4474 66.7364C83.8444 67.3744 84.2137 68.0603 84.3972 68.7942C84.5559 69.4293 84.4635 70.0772 84.613 70.6937C84.9035 71.892 84.7137 73.299 84.7137 74.5215C84.7137 75.7055 84.4268 76.8054 84.1957 77.9608C83.8697 79.591 83.3098 81.0277 82.5696 82.5081C81.8 84.0472 81.1372 84.0622 79.4038 84.0622C78.5922 84.0622 77.6613 84.2002 76.9431 83.7384C76.3511 83.3579 75.8978 82.226 75.6192 81.5871C75.0817 80.355 74.7909 78.7541 74.5615 77.4283C74.3878 76.425 74.565 75.2871 74.2809 74.3129C73.5469 71.7962 72.793 69.089 74.0938 66.6501C74.5386 65.8161 75.8981 65.024 76.8207 65.024C78.6187 65.024 79.8483 66.6457 80.8428 67.9164C82.7947 70.4105 83.3808 73.7993 82.8286 76.8671C82.5601 78.3588 82.3176 79.8981 81.8645 81.3425C81.4973 82.513 80.9637 82.5391 79.7707 82.1699C78.3318 81.7245 77.115 80.9956 76.7488 79.4573C76.2197 77.235 76.425 74.7406 76.425 72.4709C76.425 71.0823 76.2866 69.5876 76.4322 68.2042C76.5788 66.8111 77.5522 67.7773 78.1374 68.3625C78.7872 69.0123 79.4045 70.9396 79.5045 71.8593C79.6494 73.1925 80.1197 74.4242 80.3104 75.7591C80.5298 77.2951 80.6839 79.9901 79.0152 80.8244" stroke="#DF757F" stroke-opacity="0.75" stroke-width="4" stroke-linecap="round"/>
<path d="M46.1195 86.2639C43.9082 87.9549 41.1948 88.6618 38.5358 89.3722C34.4656 90.4597 30.0138 90.5378 25.8293 90.5378C23.561 90.5378 21.3385 90.0191 19.4689 88.7247C19.0252 88.4175 17.8449 87.2486 18.663 86.8395C19.3102 86.516 20.0251 86.3981 20.7064 86.1632C21.4298 85.9138 22.0793 85.4978 22.8074 85.2854C23.7447 85.012 24.8107 84.6246 25.7862 84.5803C26.6694 84.5401 27.6815 84.4308 28.5635 84.2925C30.856 83.9329 33.2058 83.6117 35.5211 83.4147C37.9014 83.2121 40.1649 82.6137 42.5651 82.9254C43.5113 83.0483 44.7809 83.3637 45.1841 84.3213C45.3662 84.7538 45.2932 85.7611 45.0186 86.1272C44.2592 87.1398 42.9903 87.3536 41.8672 87.703C40.2216 88.2149 38.4454 88.3921 36.7371 88.5952C34.5597 88.854 32.4118 89.1132 30.2183 89.1132C28.9791 89.1132 27.7887 89.1885 26.5632 89.1204C26.0776 89.0934 25.107 89.1847 24.6781 88.9117C24.3635 88.7115 22.9611 88.7395 22.9369 88.4369C22.8918 87.8732 23.1316 87.7039 23.6636 87.5519C25.8966 86.9139 28.2596 86.589 30.5205 86.0625C32.3185 85.6438 34.2737 85.0734 36.1183 84.9616C37.1979 84.8962 38.1977 84.7098 39.2985 84.7098C40.018 84.7098 40.7375 84.7098 41.457 84.7098" stroke="#DF757F" stroke-opacity="0.75" stroke-width="4" stroke-linecap="round"/>
<path d="M74.489 84.0616C73.2754 78.2632 72.952 72.0795 75.5645 66.8546" stroke="#C4888E" stroke-opacity="0.3" stroke-width="2" stroke-linecap="round"/>
<path d="M76.6401 21.1486C77.2779 18.3141 78.3039 17.3846 81.1809 17.3846C82.8136 17.3846 86.3267 16.7343 87.514 17.8028C90.2882 20.2996 90.6208 21.5598 90.6208 25.4503" stroke="#C4888E" stroke-opacity="0.3" stroke-width="2" stroke-linecap="round"/>
<path d="M21.793 87.8255C25.2342 88.497 29.3319 88.9304 32.5473 87.4073C34.1517 86.6473 37.6718 86.7177 38.4622 85.137" stroke="#C4888E" stroke-opacity="0.3" stroke-width="2" stroke-linecap="round"/>
</svg>
