<svg width="100" height="100" viewBox="0 0 100 100" fill="none" xmlns="http://www.w3.org/2000/svg">
<path d="M0 0H100V100H0V0Z" fill="#81532B"/>
<path d="M25.1194 11.3049C23.0703 13.3539 21.674 16.4054 20.4962 19.0555C19.5509 21.1823 18.3763 23.3932 17.8371 25.6579C17.4702 27.1989 16.494 29.4542 17.0968 31.0214C18.3876 34.3775 21.5635 34.0297 24.7265 32.638C28.3407 31.0477 31.3452 29.0872 34.0938 26.2622C36.4465 23.8442 37.1247 20.5966 38.2939 17.59C38.7243 16.4832 39.1578 14.6311 38.445 13.5409C37.3223 11.8237 34.4752 11.9682 32.7189 11.4559C30.1146 10.6964 26.7132 11.1502 24.4244 12.3927C22.4035 13.4897 21.211 16.402 20.2242 18.3756C18.8675 21.0891 15.5713 25.4298 19.2724 27.486C24.4338 30.3534 29.2328 26.8893 33.142 23.3916C34.742 21.96 35.6546 20.2377 36.2694 18.2396C36.5206 17.4232 37.3088 15.0275 36.2694 14.5078C33.8564 13.3014 30.1201 14.9057 28.2619 16.3813C25.6421 18.4618 22.1279 22.654 22.1279 26.2622C22.1279 28.1896 26.1342 23.9539 26.6 23.2707C27.8169 21.4859 29.2535 19.5597 30.7699 18.0432C32.3528 16.4604 30.9726 14.0244 28.8663 14.0244C24.5506 14.0244 22.3654 17.4529 20.7681 21.0347C20.2189 22.2663 19.8034 23.5426 19.2724 24.7816C18.9139 25.618 18.7664 26.9389 18.1846 27.6371C17.1714 28.853 18.6012 31.0024 19.9523 30.4019C21.677 29.6354 23.899 29.8589 25.4518 28.6645C26.9867 27.4838 28.7632 26.4157 30.4375 25.4464C31.801 24.657 32.5969 22.9317 33.8218 21.911" stroke="#0F52BA" stroke-opacity="0.95" stroke-width="5" stroke-linecap="round"/>
<path d="M76.2464 31.9732C73.6564 35.191 71.5989 38.8023 70.6864 42.8815C70.2739 44.7259 69.8814 46.3856 70.3238 48.1997C70.8029 50.1636 72.8817 50.4869 74.5844 50.8738C76.7455 51.365 79.0376 49.3679 80.2652 47.7766C82.4876 44.8958 84.3954 42.0673 86.1726 38.9231C87.2174 37.0746 88.6608 34.7413 89.0432 32.6379C89.4938 30.1598 91.3549 28.2562 91.9591 25.8391C92.6006 23.2732 90.8734 22.9431 88.4238 22.9988C86.5527 23.0413 84.45 23.4421 82.6221 23.875C80.305 24.4238 78.6755 26.2806 77.0471 27.909C75.1421 29.814 73.6094 32.3299 72.3182 34.6776C71.3945 36.3569 69.7195 39.1223 69.7195 41.0836C69.7195 42.7709 68.7993 45.4568 71.049 46.2356C72.2818 46.6623 73.9354 47.6579 75.219 47.2629C76.6398 46.8257 77.4229 45.2164 78.2709 43.9693C79.6705 41.911 80.7346 39.7091 82.2293 37.7446C83.7809 35.7054 85.2726 33.651 86.7165 31.5652C87.3376 30.6681 89.8289 27.0996 88.3633 26.2622C85.4613 24.6039 82.0815 28.6222 80.1443 30.1904C77.973 31.9482 76.2567 34.5628 74.8262 36.9287C74.3679 37.6866 71.8594 43.5232 73.6628 43.924C77.8796 44.861 79.3211 38.0347 80.7336 35.5237C81.9005 33.4491 82.5989 31.1468 83.861 29.2537" stroke="#0F52BA" stroke-opacity="0.95" stroke-width="5" stroke-linecap="round"/>
<path d="M49.0512 82.0124C47.829 82.0402 46.6928 82.5563 45.5158 82.5563C44.1598 82.5563 42.6408 82.1246 41.3005 81.8764C37.3896 81.1522 32.9589 81.1664 29.2289 79.7159C25.6256 78.3146 21.439 73.9493 22.6869 69.7896C23.5334 66.9679 27.7292 64.8236 30.2714 63.8067C33.0993 62.6755 36.6452 63.2525 39.548 63.6556C43.819 64.2488 48.1845 65.0642 52.1635 66.5111C55.6453 67.7772 60.0682 74.8012 56.7263 78.0238C52.9723 81.6436 45.67 80.3807 40.802 80.3807C38.6243 80.3807 35.5739 79.6616 33.5499 78.8094C32.2593 78.266 30.7308 78.1097 29.4706 77.4496C27.1491 76.2336 21.8056 72.5278 26.2072 70.1069C27.7463 69.2604 28.9274 68.5505 30.5584 67.8709C33.6144 66.5976 37.7093 66.5111 40.9833 66.5111C43.6669 66.5111 45.6182 67.0296 48.19 68.0068C49.3493 68.4474 51.4792 69.1037 52.0578 70.2127C52.6235 71.297 53.4024 72.742 53.4024 73.9898C53.4024 76.0302 50.7463 76.5499 49.0814 76.9662C46.0395 77.7266 42.63 77.3892 39.5178 77.3892C36.6447 77.3892 34.1685 77.1359 31.3743 76.4374C29.6908 76.0165 27.2879 76.0541 26.5396 74.2769C25.9881 72.9672 27.9848 71.4076 29.0174 71.1343C34.1738 69.7694 38.9105 69.5872 44.0956 70.53C46.0725 70.8894 47.1002 71.174 48.7792 72.1617C50.8634 73.3876 46.7501 74.1165 46.0899 74.1258C41.007 74.1974 35.9336 74.3977 30.8304 74.3977C29.7616 74.3977 27.6985 74.468 29.4706 73.5819" stroke="#0F52BA" stroke-opacity="0.95" stroke-width="5" stroke-linecap="round"/>
<path d="M52.5869 72.766C48.9247 68.216 42.1569 69.3244 37.0705 67.7349C34.0389 66.7875 29.072 66.9825 26.2075 68.4147" stroke="#5C86C8" stroke-opacity="0.5" stroke-width="3" stroke-linecap="round"/>
<path d="M25.9355 71.4062C27.3007 72.8141 28.2576 73.2004 30.1357 73.6423C32.9178 74.2969 35.7701 74.4484 38.5662 74.9567C41.7399 75.5338 45.4626 77.9509 48.7795 76.8453" stroke="#5C86C8" stroke-opacity="0.5" stroke-width="3" stroke-linecap="round"/>
<path d="M86.8526 25.9902C84.3073 25.9902 82.4038 27.2707 80.5977 28.9817C78.4335 31.032 76.5096 32.6621 75.4306 35.6294C74.9734 36.8867 73.9204 37.9011 73.527 39.1799C73.1928 40.266 72.9638 41.14 72.7111 42.2771C72.2577 44.3175 72.8537 46.2839 73.255 48.2903" stroke="#5C86C8" stroke-opacity="0.5" stroke-width="3" stroke-linecap="round"/>
<path d="M79.2378 43.6671C80.1752 42.9348 80.7238 42.3521 81.2774 41.3555C81.6867 40.6189 81.996 39.3194 82.6523 38.7568C83.6953 37.8628 84.6069 36.1922 85.2207 34.9646" stroke="#5C86C8" stroke-opacity="0.5" stroke-width="3" stroke-linecap="round"/>
<path d="M19.1366 30.0695C18.6444 26.4396 18.5069 23.9186 19.741 20.4907C20.4266 18.5861 22.6193 17.2035 24.1526 16.0791C26.8978 14.0659 31.3639 12.6646 34.6379 12.6646" stroke="#5C86C8" stroke-opacity="0.5" stroke-width="3" stroke-linecap="round"/>
<path d="M24.8477 29.5256C25.5074 28.6811 25.8648 28.2569 26.2679 27.35C26.5377 26.7428 26.1938 25.7106 26.5398 25.2348C27.1474 24.3993 26.8802 23.3835 27.688 22.5757C29.1241 21.1397 30.9401 20.0885 32.7343 19.1914" stroke="#5C86C8" stroke-opacity="0.5" stroke-width="3" stroke-linecap="round"/>
</svg>
