<svg width="100" height="100" viewBox="0 0 100 100" fill="none" xmlns="http://www.w3.org/2000/svg">
<rect width="100" height="100" fill="#714D2E"/>
<path d="M16.1458 42.4567C16.9737 44.4628 17.452 46.933 17.5553 49.1028C17.5943 49.9216 17.6831 50.7444 17.8781 51.5439C18.0351 52.1873 18.0921 53.0148 18.4215 53.5912C19.7128 55.851 20.3332 58.6559 22.3744 60.442C23.0563 61.0387 25.0032 61.3501 25.7605 60.82C26.5095 60.2956 27.2993 59.8988 28.0441 59.3868C29.0174 58.7177 29.8264 57.5086 30.4694 56.5441C31.2006 55.4473 31.8761 54.3185 32.5719 53.1975C33.0933 52.3574 33.753 51.4677 34.4224 50.7564C35.2154 49.9138 36.453 49.2744 37.0446 48.2602C37.6927 47.149 38.3123 46.2639 38.6116 45.0002C39.0192 43.2789 39.3531 40.8462 38.7454 39.1337C38.289 37.8474 37.7437 36.1947 36.3516 35.5981C34.6821 34.8826 33.0922 33.9401 31.3356 33.3854C29.5875 32.8333 27.6267 32.3932 25.7841 32.3932C24.9269 32.3932 24.1202 32.6767 23.2879 32.6767C19.8171 32.6767 18.3731 37.2578 17.8545 40.1102C17.4034 42.5914 17.8533 45.0903 18.4845 47.4885C19.1411 49.9839 19.8235 52.5116 20.894 54.8669C21.5136 56.2298 23.3102 58.4103 24.9336 57.1347C25.6781 56.5498 26.6881 56.1362 27.3511 55.4732C28.2586 54.5658 28.9571 53.5238 29.6111 52.4494C30.1144 51.6225 30.7426 50.8707 31.2411 50.0398C31.6331 49.3864 32.4688 48.3867 33.0837 47.9767C33.9072 47.4277 34.5859 46.2746 35.2098 45.512C35.4919 45.1672 35.8015 44.7975 35.8555 44.3387C35.9568 43.4774 36.1311 42.8278 36.1311 41.9213C36.1311 41.1274 36.0741 40.3842 35.9894 39.6219C35.812 38.0257 31.9482 37.2668 30.8552 37.0391C29.114 36.6764 27.3223 35.3697 25.5006 35.3697C24.3309 35.3697 23.2698 36.1746 22.1303 36.2202C21.609 36.241 21.0982 37.077 20.8547 37.4328C19.222 39.8191 20.9773 43.5313 21.7366 45.8743C22.2978 47.6058 22.8474 49.3236 23.3745 51.0714C23.845 52.6316 24.0896 54.2833 24.6187 55.8118C24.69 56.0178 24.6809 56.3294 24.8785 56.1977C25.5183 55.7712 25.978 55.0941 26.4298 54.4889C27.5968 52.9256 28.1072 51.0987 29.0441 49.4178C29.8882 47.9034 30.6824 46.5291 31.7372 45.1498C32.3615 44.3334 32.9268 43.3905 33.6113 42.63C35.7739 40.2271 30.0628 40.1758 28.9181 39.9369C27.7712 39.6976 26.6167 39.5417 25.4691 39.307C24.8454 39.1794 24.1538 38.8324 23.6265 39.307C22.703 40.1381 22.6488 41.2694 22.6658 42.4567C22.6823 43.6134 22.9671 45.1202 23.406 46.1735C23.7064 46.8945 24.1131 47.5868 24.3982 48.2996C24.609 48.8266 24.9648 49.3306 25.2722 49.8036C25.5605 50.2471 25.6255 49.7809 25.8786 49.4808C27.0275 48.1181 28.1854 46.5405 29.0126 44.9451C29.4801 44.0434 29.9776 42.9933 30.6348 42.2048C31.0183 41.7445 30.5351 41.8898 30.0835 41.8898C28.4964 41.8898 26.9549 41.6063 25.3589 41.6063C25.1753 41.6063 22.7012 41.4858 22.7288 41.748C22.8063 42.4845 24.6812 43.224 25.2014 43.5119C25.8119 43.8499 26.3738 44.0879 26.8078 44.6458C27.2198 45.1756 27.7215 45.5901 27.3747 46.2837C27.1796 46.674 26.7763 47.1156 26.7763 47.5594" stroke="#50C878" stroke-opacity="0.75" stroke-width="4" stroke-linecap="round"/>
<path d="M19.2642 53.7959C19.6636 55.843 20.6041 57.1521 22.6974 57.7962C24.6055 58.3833 25.836 58.0015 27.5796 57.1505C28.5605 56.6717 29.1371 56.0578 29.8474 55.2291C30.3049 54.6953 30.886 53.7493 31.4538 53.3707" stroke="#50C878" stroke-opacity="0.75" stroke-width="4" stroke-linecap="round"/>
<path d="M34.2886 47.2759C34.984 46.5966 35.7416 46.0857 36.5249 45.5199C36.9685 45.1995 37.0116 44.362 37.1234 43.8899C37.4056 42.6985 37.2651 41.7843 37.2651 40.5433C37.2651 39.751 37.3722 38.3819 36.895 37.6927C36.5158 37.1449 36.0157 36.9552 35.5642 36.5037" stroke="#50C878" stroke-opacity="0.75" stroke-width="4" stroke-linecap="round"/>
<path d="M20.2563 43.5906C20.3701 42.1691 20.4447 41.196 21.028 39.9762C21.3321 39.3405 22.0763 38.7205 22.2407 38.0627" stroke="#50C878" stroke-opacity="0.75" stroke-width="4" stroke-linecap="round"/>
<path d="M86.3072 34.3775C83.5843 31.7843 79.651 31.6257 76.2437 30.4088C74.9591 29.95 73.8567 29.0589 72.4954 28.7866C71.8548 28.6585 71.2011 28.6171 70.5741 28.4559C68.2847 27.8672 69 24.5057 69.2669 22.7706C69.6037 20.5811 70.6523 19.0119 72.4639 17.7152C73.2973 17.1186 74.3371 16.3239 75.3932 16.2426C75.9644 16.1987 76.5519 16.2348 77.1256 16.2348C78.0442 16.2348 78.9648 16.3792 79.8423 16.66C81.0976 17.0617 82.0316 18.2898 83.2992 18.7546C84.9392 19.3559 86.1793 20.4591 87.4726 21.6209C88.3186 22.3808 88.9282 23.4853 89.5436 24.4321C90.1349 25.3417 90.7854 26.4357 91.1736 27.448C91.6424 28.6701 92.402 30.229 92.402 31.5742C92.402 33.0855 91.2203 33.1538 89.961 33.5586C88.932 33.8893 87.0939 33.8903 86.1497 33.3538C84.6766 32.5168 82.9985 31.9966 81.4881 31.2277C79.1253 30.0249 76.8694 28.6096 74.338 27.7945C72.9735 27.355 70.5741 27.3481 70.5741 25.4479C70.5741 24.6737 70.914 23.3182 71.2513 22.6131C71.8024 21.4607 72.6085 20.7029 73.8105 20.2822C75.7562 19.6012 77.8089 19.7545 79.8895 19.9279C81.4795 20.0604 82.8913 22.1266 83.9685 23.1013C85.6546 24.6268 88.1768 26.056 88.4254 28.5425C88.4618 28.9062 88.9149 31.02 88.4963 31.2592C88.2035 31.4265 87.9763 31.3694 87.638 31.3301C86.6465 31.2148 85.6484 31.1864 84.6693 30.9757C83.6623 30.759 82.9082 30.6434 82.0629 30.0623C81.1899 29.4621 80.6049 28.5057 79.7714 27.8574C78.1209 26.5737 75.6136 26.7694 73.8341 25.7313C73.1404 25.3267 72.6144 24.7904 72.9836 23.9596C73.2908 23.2685 74.6082 23.3448 75.2672 23.18C76.0585 22.9822 76.8428 23.0383 77.6611 23.0383C78.3371 23.0383 79.3283 22.8352 79.9289 23.1485C80.6834 23.5422 81.4123 24.0614 82.1495 24.4636C83.3417 25.1139 85.2833 25.6482 86.0237 26.944C86.3171 27.4574 86.2446 28.2827 85.5198 28.2827C85.0124 28.2827 84.0674 28.3241 83.6142 28.1094C83.0485 27.8415 82.7368 27.2595 82.2676 26.8731C81.2695 26.0511 80.6404 25.5414 79.3462 25.3061C78.3323 25.1218 76.9917 25.1841 76.1019 24.7392" stroke="#50C878" stroke-opacity="0.75" stroke-width="4" stroke-linecap="round"/>
<path d="M75.1097 28.7079C73.208 28.3586 71.013 28.0919 70.3614 26.0069C69.7055 23.9081 71.0001 22.1391 71.9914 20.4869" stroke="#50C878" stroke-opacity="0.75" stroke-width="4" stroke-linecap="round"/>
<path d="M89.2839 25.4479C90.6244 27.154 92.1176 29.0278 90.8115 31.1175C90.501 31.6143 89.1357 31.8262 88.646 31.8262C87.6214 31.8262 86.6011 32.3931 85.5986 32.3931" stroke="#50C878" stroke-opacity="0.75" stroke-width="4" stroke-linecap="round"/>
<path d="M91.2683 89.6562C87.5893 90.2333 83.9717 88.4099 80.244 88.9554C77.5335 89.3521 76.0262 91.2352 73.9051 92.7037C72.2428 93.8545 69.5745 93.9009 68.141 92.4674C66.0876 90.414 65.7119 87.97 66.1802 85.1599C66.5068 83.2009 68.9563 82.8008 70.3537 82.0023C72.063 81.0255 73.5428 81.4353 75.4485 81.4353C76.0595 81.4353 76.7946 80.5501 77.1021 80.0888C77.4763 79.5274 78.1293 79.2663 78.5825 78.8131C80.0443 77.3514 82.0159 77.1831 84.008 77.1831C86.1475 77.1831 87.574 77.7619 89.2052 79.0572C90.2849 79.9147 91.4569 80.8261 92.6384 81.4983C94.1631 82.3658 95.2871 83.8463 95.9457 85.4828C96.4256 86.6753 97.7279 90.5208 96.2292 91.4674C95.8852 91.6846 95.6493 91.8066 95.237 91.7823C94.8063 91.757 93.7481 91.3644 93.4259 91.0421C92.6998 90.3161 91.5049 90.0329 90.8115 89.2625C89.2954 87.5779 92.9459 88.6086 93.2841 88.2703C94.1535 87.4009 93.365 84.8401 92.6857 84.1284C91.5601 82.9492 90.4194 82.2867 88.8114 81.9944C88.3302 81.9069 87.1273 81.5709 86.7404 81.2227C86.2017 80.7378 84.6297 80.3728 83.8899 80.2305C83.2147 80.1007 82.624 79.9672 81.9213 80.0258C80.2129 80.1682 79.6088 81.2861 78.7321 82.5614C78.1979 83.3384 77.4059 83.2662 76.5194 83.4984C75.4742 83.7722 74.4133 83.8991 73.3381 83.9788C72.6004 84.0334 71.9518 84.1449 71.2199 84.278C70.7816 84.3577 69.9853 85.3665 69.7474 85.6639C69.1628 86.3946 68.8733 87.0628 68.8733 88.0184C68.8733 89.6693 70.0646 90.0815 71.4955 90.0815C72.4226 90.0815 73.39 89.2209 73.8342 88.4436C74.0287 88.1033 74.0544 87.4563 74.4642 87.2782C75.2754 86.9254 76.6281 86.619 77.5195 86.538C79.4598 86.3616 81.4489 86.2382 83.3623 86.6482C84.7213 86.9394 86.1586 87.0039 87.4413 87.5616C88.2403 87.909 89.1785 87.9319 90.0241 88.0971C90.5017 88.1904 91.0215 88.3422 91.4415 87.9869C91.8509 87.6404 92.0523 87.0247 91.5675 86.6954C90.3114 85.8423 88.9023 85.1433 87.3783 84.9473C86.1876 84.7942 84.9317 84.3342 83.756 84.2701C82.3918 84.1957 80.8217 83.4746 79.4566 83.7347C77.8544 84.0398 76.7135 85.1481 75.2516 85.7978C73.89 86.4029 72.3944 86.6946 71.1412 87.5301" stroke="#50C878" stroke-opacity="0.75" stroke-width="4" stroke-linecap="round"/>
<path d="M92.1187 82.2858C93.0823 83.092 94.3111 83.7369 94.7015 84.9788C94.9382 85.7321 95.2369 86.268 95.2369 87.1049C95.2369 87.6119 95.3398 88.2366 95.2291 88.7349C95.129 89.185 94.8117 89.6117 94.8117 90.0815" stroke="#50C878" stroke-opacity="0.75" stroke-width="4" stroke-linecap="round"/>
<path d="M71.8498 93.4832C70.9715 93.6429 70.1922 93.6183 69.3143 93.4832C68.5871 93.3713 68.1892 92.7991 67.6921 92.3021C67.0235 91.6335 66.9845 90.1044 67.0386 89.2389C67.1388 87.6355 67.6198 85.9267 68.3063 84.5536" stroke="#50C878" stroke-opacity="0.75" stroke-width="4" stroke-linecap="round"/>
<path d="M77.0942 81.2936C78.069 79.8167 79.2658 78.7696 81.1102 78.4745C82.3653 78.2737 83.614 78.317 84.8899 78.317" stroke="#50C878" stroke-opacity="0.75" stroke-width="4" stroke-linecap="round"/>
<path d="M31.7373 88.9474C30.2263 88.9474 28.7317 89.422 27.2567 89.7349C26.1459 89.9705 25.1496 90.2231 24.0046 90.2231C23.1263 90.2231 22.141 90.4216 21.3903 89.9711C20.5705 89.4793 20.2564 88.2168 20.2564 87.3017C20.2564 86.6364 20.167 86.0585 20.4768 85.4669C20.8268 84.7988 21.5356 84.2664 22.0675 83.7346C23.0721 82.73 24.3469 82.5724 25.737 82.7188C26.5312 82.8024 27.2721 83.0554 28.0521 83.1991C29.1243 83.3966 30.2026 83.4436 31.2806 83.5928C32.1554 83.7139 32.8148 83.6373 33.6902 83.4511C34.2861 83.3243 34.8345 82.935 35.4304 82.8605C36.4189 82.7369 37.8341 83.0781 38.2259 84.0968C38.4642 84.7165 38.831 85.5172 38.3282 86.1205C37.8957 86.6395 37.6933 87.1006 37.1313 87.5222C36.4974 87.9976 35.4948 88.1997 34.7139 88.2387C32.9556 88.3267 31.2129 88.6789 29.4616 88.8136C28.6829 88.8735 27.8973 88.9497 27.115 89.0183C26.3967 89.0813 25.6608 89.0415 24.9495 89.1601C24.657 89.2088 23.9597 89.3795 23.6896 89.1994C23.2954 88.9366 22.7608 87.6941 23.2959 87.3883C23.3781 87.3413 23.6119 86.7492 23.7211 86.6087C24.2272 85.9581 25.9628 86.0595 26.6977 86.0024C28.9952 85.8239 31.2188 86.2544 33.4854 86.2544C34.3333 86.2544 34.629 86.0133 35.2808 85.6874" stroke="#50C878" stroke-opacity="0.75" stroke-width="4" stroke-linecap="round"/>
<path d="M21.9573 89.6562C24.6673 90.4115 28.6516 90.5886 31.0286 88.8058" stroke="#50C878" stroke-opacity="0.75" stroke-width="4" stroke-linecap="round"/>
</svg>
