<svg width="100" height="100" viewBox="0 0 100 100" fill="none" xmlns="http://www.w3.org/2000/svg">
<rect width="100" height="100" fill="#7A5230"/>
<path d="M14.8684 14.8543C16.6367 17.8727 18.8316 20.515 20.9782 23.2579C22.2113 24.8335 22.9533 26.7103 24.1686 28.2729C24.411 28.5846 24.5104 29.0513 24.815 29.3051C24.9275 29.3989 26.1104 27.8305 26.3164 27.5744C27.9873 25.497 29.475 23.5664 31.5608 21.8816C33.3522 20.4347 35.8573 18.8366 36.972 16.7311C37.6862 15.3822 36.2258 13.369 35.5541 12.2269C35.1908 11.6095 34.5372 9.92837 33.7608 9.78719C30.363 9.16942 26.6394 9.0365 23.2198 9.0365C22.1007 9.0365 20.9817 9.0365 19.8626 9.0365C18.9334 9.0365 17.6967 10.3762 16.8911 10.9132C16.3217 11.2928 15.752 11.9121 15.421 12.5189C15.0714 13.1597 14.364 13.5523 14.1177 14.2913" stroke="#00D1FF" stroke-opacity="0.8" stroke-linecap="round"/>
<path d="M14.7099 14.6208C19.3508 14.6208 23.9393 15.016 28.5747 15.016C30.2584 15.016 32.0657 15.0475 33.7233 15.3344C34.3816 15.4483 35.1363 15.6088 35.7981 15.6088C36.1938 15.6088 36.5178 15.8064 36.9397 15.8064" stroke="#00D1FF" stroke-opacity="0.8" stroke-linecap="round"/>
<path d="M24.8862 28.1564C24.1254 26.7731 23.6109 25.1309 23.1462 23.6336C22.857 22.7017 22.7099 21.735 22.3943 20.8233C22.1436 20.0992 21.9232 19.471 21.7246 18.7265C21.5358 18.0184 21.0024 17.3264 20.6927 16.6627C20.4461 16.1341 20.1532 15.67 19.9682 15.1148C19.8349 14.7149 20.3769 14.5192 20.561 14.2805C20.9446 13.7832 21.3905 13.352 21.7685 12.8479C22.2233 12.2416 22.5298 11.4453 23.031 10.8884C23.3472 10.5371 23.6454 10.201 23.8982 9.77966" stroke="#00D1FF" stroke-opacity="0.8" stroke-linecap="round"/>
<path d="M24.491 27.9587C24.9452 27.1706 25.4903 26.4103 25.8961 25.5985C26.137 25.1169 26.3134 24.5964 26.5219 24.1001C26.7236 23.6198 27.0487 23.2063 27.2354 22.7224C27.6144 21.7397 28.0885 20.9101 28.5912 20.0054C28.9349 19.3867 29.4476 18.8415 29.8756 18.2709C30.1822 17.862 30.6538 17.0216 30.7154 16.498C30.7385 16.3012 30.9044 16.0973 30.9898 15.9052C31.1933 15.4473 30.7749 14.7202 30.6166 14.3244C30.4166 13.8246 30.1128 12.5975 29.678 12.2496C29.3693 12.0027 29.4151 11.328 29.0852 11.064C28.8124 10.8458 28.6532 10.1937 28.443 9.87842" stroke="#00D1FF" stroke-opacity="0.8" stroke-linecap="round"/>
<path d="M65.7507 76.8178C67.519 79.8362 69.7139 82.4785 71.8605 85.2214C73.0936 86.797 73.8356 88.6738 75.0509 90.2364C75.2933 90.5481 75.3927 91.0148 75.6973 91.2686C75.8098 91.3624 76.9927 89.794 77.1987 89.5379C78.8696 87.4605 80.3573 85.5299 82.4431 83.8451C84.2345 82.3982 86.7396 80.8001 87.8543 78.6946C88.5685 77.3457 87.1081 75.3325 86.4364 74.1904C86.0731 73.573 85.4195 71.8919 84.643 71.7507C81.2453 71.1329 77.5217 71 74.1021 71C72.983 71 71.8639 71 70.7449 71C69.8157 71 68.5789 72.3397 67.7734 72.8767C67.204 73.2563 66.6343 73.8756 66.3033 74.4824C65.9537 75.1232 65.2463 75.5158 65 76.2548" stroke="#00D1FF" stroke-opacity="0.8" stroke-linecap="round"/>
<path d="M65.5921 76.5844C70.2331 76.5844 74.8216 76.9795 79.457 76.9795C81.1407 76.9795 82.948 77.011 84.6056 77.2979C85.2639 77.4118 86.0186 77.5723 86.6804 77.5723C87.0761 77.5723 87.4001 77.7699 87.822 77.7699" stroke="#00D1FF" stroke-opacity="0.8" stroke-linecap="round"/>
<path d="M75.7685 90.1199C75.0077 88.7366 74.4932 87.0944 74.0285 85.5971C73.7393 84.6652 73.5922 83.6985 73.2766 82.7868C73.0259 82.0627 72.8054 81.4345 72.6069 80.69C72.4181 79.9819 71.8847 79.2899 71.575 78.6262C71.3283 78.0976 71.0355 77.6335 70.8505 77.0783C70.7172 76.6784 71.2592 76.4827 71.4433 76.244C71.8269 75.7467 72.2728 75.3155 72.6508 74.8114C73.1056 74.2051 73.4121 73.4088 73.9133 72.8519C74.2294 72.5006 74.5277 72.1645 74.7805 71.7432" stroke="#00D1FF" stroke-opacity="0.8" stroke-linecap="round"/>
<path d="M75.3733 89.9222C75.8275 89.1341 76.3725 88.3738 76.7784 87.562C77.0193 87.0804 77.1957 86.5599 77.4042 86.0636C77.6059 85.5833 77.931 85.1698 78.1177 84.6859C78.4967 83.7032 78.9708 82.8736 79.4735 81.9689C79.8172 81.3502 80.3299 80.805 80.7579 80.2344C81.0645 79.8255 81.5361 78.9851 81.5977 78.4615C81.6208 78.2647 81.7867 78.0608 81.8721 77.8687C82.0756 77.4108 81.6572 76.6837 81.4989 76.2879C81.2989 75.7881 80.9951 74.561 80.5603 74.2131C80.2516 73.9662 80.2974 73.2915 79.9675 73.0275C79.6947 72.8093 79.5355 72.1572 79.3253 71.8419" stroke="#00D1FF" stroke-opacity="0.8" stroke-linecap="round"/>
<path d="M14.8684 76.8178C16.6367 79.8362 18.8316 82.4785 20.9782 85.2214C22.2113 86.797 22.9533 88.6738 24.1686 90.2364C24.411 90.5481 24.5104 91.0148 24.815 91.2686C24.9275 91.3624 26.1104 89.794 26.3164 89.5379C27.9873 87.4605 29.475 85.5299 31.5608 83.8451C33.3522 82.3982 35.8573 80.8001 36.972 78.6946C37.6862 77.3457 36.2258 75.3325 35.5541 74.1904C35.1908 73.573 34.5372 71.8919 33.7608 71.7507C30.363 71.1329 26.6394 71 23.2198 71C22.1007 71 20.9817 71 19.8626 71C18.9334 71 17.6967 72.3397 16.8911 72.8767C16.3217 73.2563 15.752 73.8756 15.421 74.4824C15.0714 75.1232 14.364 75.5158 14.1177 76.2548" stroke="#00D1FF" stroke-opacity="0.8" stroke-linecap="round"/>
<path d="M14.7099 76.5844C19.3508 76.5844 23.9393 76.9795 28.5747 76.9795C30.2584 76.9795 32.0657 77.011 33.7233 77.2979C34.3816 77.4118 35.1363 77.5723 35.7981 77.5723C36.1938 77.5723 36.5178 77.7699 36.9397 77.7699" stroke="#00D1FF" stroke-opacity="0.8" stroke-linecap="round"/>
<path d="M24.8862 90.1199C24.1254 88.7366 23.6109 87.0944 23.1462 85.5971C22.857 84.6652 22.7099 83.6985 22.3943 82.7868C22.1436 82.0627 21.9232 81.4345 21.7246 80.69C21.5358 79.9819 21.0024 79.2899 20.6927 78.6262C20.4461 78.0976 20.1532 77.6335 19.9682 77.0783C19.8349 76.6784 20.3769 76.4827 20.561 76.244C20.9446 75.7467 21.3905 75.3155 21.7685 74.8114C22.2233 74.2051 22.5298 73.4088 23.031 72.8519C23.3472 72.5006 23.6454 72.1645 23.8982 71.7432" stroke="#00D1FF" stroke-opacity="0.8" stroke-linecap="round"/>
<path d="M24.491 89.9222C24.9452 89.1341 25.4903 88.3738 25.8961 87.562C26.137 87.0804 26.3134 86.5599 26.5219 86.0636C26.7236 85.5833 27.0487 85.1698 27.2354 84.6859C27.6144 83.7032 28.0885 82.8736 28.5912 81.9689C28.9349 81.3502 29.4476 80.805 29.8756 80.2344C30.1822 79.8255 30.6538 78.9851 30.7154 78.4615C30.7385 78.2647 30.9044 78.0608 30.9898 77.8687C31.1933 77.4108 30.7749 76.6837 30.6166 76.2879C30.4166 75.7881 30.1128 74.561 29.678 74.2131C29.3693 73.9662 29.4151 73.2915 29.0852 73.0275C28.8124 72.8093 28.6532 72.1572 28.443 71.8419" stroke="#00D1FF" stroke-opacity="0.8" stroke-linecap="round"/>
<path d="M39.7507 45.8178C41.519 48.8362 43.7139 51.4785 45.8605 54.2214C47.0936 55.797 47.8356 57.6738 49.0509 59.2364C49.2933 59.5481 49.3927 60.0148 49.6973 60.2686C49.8098 60.3624 50.9927 58.794 51.1987 58.5379C52.8696 56.4605 54.3573 54.5299 56.4431 52.8451C58.2345 51.3982 60.7396 49.8001 61.8543 47.6946C62.5685 46.3457 61.1081 44.3325 60.4364 43.1904C60.0731 42.573 59.4195 40.8919 58.643 40.7507C55.2453 40.1329 51.5217 40 48.1021 40C46.983 40 45.8639 40 44.7449 40C43.8157 40 42.5789 41.3397 41.7734 41.8767C41.204 42.2563 40.6343 42.8756 40.3033 43.4824C39.9537 44.1232 39.2463 44.5158 39 45.2548" stroke="#00D1FF" stroke-opacity="0.8" stroke-linecap="round"/>
<path d="M39.5921 45.5844C44.2331 45.5844 48.8216 45.9795 53.457 45.9795C55.1407 45.9795 56.948 46.011 58.6056 46.2979C59.2639 46.4118 60.0186 46.5723 60.6804 46.5723C61.0761 46.5723 61.4001 46.7699 61.822 46.7699" stroke="#00D1FF" stroke-opacity="0.8" stroke-linecap="round"/>
<path d="M49.7685 59.1199C49.0077 57.7366 48.4932 56.0944 48.0285 54.5971C47.7393 53.6652 47.5922 52.6985 47.2766 51.7868C47.0259 51.0627 46.8054 50.4345 46.6069 49.69C46.4181 48.9819 45.8847 48.2899 45.575 47.6262C45.3283 47.0976 45.0355 46.6335 44.8505 46.0783C44.7172 45.6784 45.2592 45.4827 45.4433 45.244C45.8269 44.7467 46.2728 44.3155 46.6508 43.8114C47.1056 43.2051 47.4121 42.4088 47.9133 41.8519C48.2294 41.5006 48.5277 41.1645 48.7805 40.7432" stroke="#00D1FF" stroke-opacity="0.8" stroke-linecap="round"/>
<path d="M49.3733 58.9222C49.8275 58.1341 50.3725 57.3738 50.7784 56.562C51.0193 56.0804 51.1957 55.5599 51.4042 55.0636C51.6059 54.5833 51.931 54.1698 52.1177 53.6859C52.4967 52.7032 52.9708 51.8736 53.4735 50.9689C53.8172 50.3502 54.3299 49.805 54.7579 49.2344C55.0645 48.8255 55.5361 47.9851 55.5977 47.4615C55.6208 47.2647 55.7867 47.0608 55.8721 46.8687C56.0756 46.4108 55.6572 45.6837 55.4989 45.2879C55.2989 44.7881 54.9951 43.561 54.5603 43.2131C54.2516 42.9662 54.2974 42.2915 53.9675 42.0275C53.6947 41.8093 53.5355 41.1572 53.3253 40.8419" stroke="#00D1FF" stroke-opacity="0.8" stroke-linecap="round"/>
<path d="M65.7507 14.8543C67.519 17.8727 69.7139 20.515 71.8605 23.2579C73.0936 24.8335 73.8356 26.7103 75.0509 28.2729C75.2933 28.5846 75.3927 29.0513 75.6973 29.3051C75.8098 29.3989 76.9927 27.8305 77.1987 27.5744C78.8696 25.497 80.3573 23.5664 82.4431 21.8816C84.2345 20.4347 86.7396 18.8366 87.8543 16.7311C88.5685 15.3822 87.1081 13.369 86.4364 12.2269C86.0731 11.6095 85.4195 9.92837 84.643 9.78719C81.2453 9.16942 77.5217 9.0365 74.1021 9.0365C72.983 9.0365 71.8639 9.0365 70.7449 9.0365C69.8157 9.0365 68.5789 10.3762 67.7734 10.9132C67.204 11.2928 66.6343 11.9121 66.3033 12.5189C65.9537 13.1597 65.2463 13.5523 65 14.2913" stroke="#00D1FF" stroke-opacity="0.8" stroke-linecap="round"/>
<path d="M65.5921 14.6208C70.2331 14.6208 74.8216 15.016 79.457 15.016C81.1407 15.016 82.948 15.0475 84.6056 15.3344C85.2639 15.4483 86.0186 15.6088 86.6804 15.6088C87.0761 15.6088 87.4001 15.8064 87.822 15.8064" stroke="#00D1FF" stroke-opacity="0.8" stroke-linecap="round"/>
<path d="M75.7685 28.1564C75.0077 26.7731 74.4932 25.1309 74.0285 23.6336C73.7393 22.7017 73.5922 21.735 73.2766 20.8233C73.0259 20.0992 72.8054 19.471 72.6069 18.7265C72.4181 18.0184 71.8847 17.3264 71.575 16.6627C71.3283 16.1341 71.0355 15.67 70.8505 15.1148C70.7172 14.7149 71.2592 14.5192 71.4433 14.2805C71.8269 13.7832 72.2728 13.352 72.6508 12.8479C73.1056 12.2416 73.4121 11.4453 73.9133 10.8884C74.2294 10.5371 74.5277 10.201 74.7805 9.77966" stroke="#00D1FF" stroke-opacity="0.8" stroke-linecap="round"/>
<path d="M75.3733 27.9587C75.8275 27.1706 76.3725 26.4103 76.7784 25.5985C77.0193 25.1169 77.1957 24.5964 77.4042 24.1001C77.6059 23.6198 77.931 23.2063 78.1177 22.7224C78.4967 21.7397 78.9708 20.9101 79.4735 20.0054C79.8172 19.3867 80.3299 18.8415 80.7579 18.2709C81.0645 17.862 81.5361 17.0216 81.5977 16.498C81.6208 16.3012 81.7867 16.0973 81.8721 15.9052C82.0756 15.4473 81.6572 14.7202 81.4989 14.3244C81.2989 13.8246 80.9951 12.5975 80.5603 12.2496C80.2516 12.0027 80.2974 11.328 79.9675 11.064C79.6947 10.8458 79.5355 10.1937 79.3253 9.87842" stroke="#00D1FF" stroke-opacity="0.8" stroke-linecap="round"/>
</svg>
